<svg width="511" height="512" viewBox="0 0 511 512" fill="none" xmlns="http://www.w3.org/2000/svg">
<g clip-path="url(#clip0)">
<path d="M451.191 5.19726C445.338 -0.655834 435.837 -0.641872 430.002 5.23116L276.351 159.879C270.541 165.726 270.556 175.171 276.385 181C285.451 190.066 285.39 220.193 273.612 243.862C258.357 237.701 241.789 239.574 231.171 250.191L46.1032 435.258C30.9953 450.368 33.5713 477.53 51.8456 495.805C52.083 495.805 65.7847 511.475 87.2733 511.475C97.0138 511.475 105.943 507.998 112.392 501.546L297.46 316.479C305.784 308.155 308.718 296.293 306.824 284.55C439.254 152.12 435.676 155.598 435.776 155.598C457.242 134.132 470.891 107.104 474.206 79.5023C477.711 50.4114 469.323 23.328 451.191 5.19726ZM91.2355 480.391C90.2133 481.412 88.0552 481.801 85.4602 481.419C81.2277 480.803 76.6861 478.334 73.0001 474.649C65.5633 467.213 65.0567 458.616 67.2577 456.414L117.558 406.114L141.535 430.09L91.2355 480.391ZM276.304 295.323L162.691 408.935L138.715 384.958L252.327 271.346C254.529 269.146 263.125 269.651 270.562 277.089C274.248 280.773 276.715 285.315 277.332 289.547C277.711 292.141 277.326 294.301 276.304 295.323ZM414.62 134.442L306.447 242.615C313.758 220.906 315.981 192.873 306.17 172.315L438.89 38.7341C451.072 63.046 446.233 102.828 414.62 134.442Z" fill="#005826"/>
</g>
<defs>
<clipPath id="clip0">
<rect width="510.658" height="510.658" fill="white" transform="translate(0.295898 0.817261)"/>
</clipPath>
</defs>
</svg>
