<svg width="511" height="512" viewBox="0 0 511 512" fill="none" xmlns="http://www.w3.org/2000/svg">
<g clip-path="url(#clip0)">
<path d="M499.185 294.183C486.031 265.392 452.006 253.027 423.461 265.477L419.998 266.988V204.65C419.999 89.7715 323.477 0.817261 213.541 0.817261C99.7006 0.817261 7.08398 92.256 7.08398 204.649V330.389C7.08398 379.715 38.7976 424.022 86.8743 440.329V483.479C86.8743 498.916 98.9546 511.474 113.804 511.474H313.279C328.128 511.474 340.209 498.915 340.209 483.479V440.342C361.811 433.044 380.902 419.693 395.072 401.798L469.954 369.126C499.01 356.455 512.125 322.754 499.185 294.183ZM310.287 481.554H116.796V446.646H310.287V481.554ZM472.471 326.629C469.862 333.413 464.72 338.765 457.989 341.7L379.555 375.923C377.143 376.976 375.05 378.645 373.49 380.766C357.258 402.821 331.049 416.724 301.8 416.724H125.283C76.6671 416.724 37.0054 378.643 37.0054 330.389V204.649C37.0054 108.755 116.199 30.7386 213.541 30.7386C307.03 30.7386 390.078 106.397 390.078 204.649V289.836C390.078 300.599 401.143 307.858 411.021 303.549L435.424 292.902C457.653 283.211 481.008 304.434 472.471 326.629Z" fill="#005826"/>
<path d="M213.542 81.605C135.297 81.605 71.6416 145.586 71.6416 224.23C71.6416 302.875 135.297 366.855 213.542 366.855C291.785 366.855 355.441 302.875 355.441 224.23C355.441 145.586 291.785 81.605 213.542 81.605ZM213.542 336.934C151.796 336.934 101.563 286.376 101.563 224.23C101.563 162.085 151.796 111.526 213.542 111.526C275.286 111.526 325.519 162.085 325.519 224.23C325.519 286.376 275.286 336.934 213.542 336.934Z" fill="#005826"/>
<path d="M221.849 275.624C214.028 270.479 204.108 273.689 200.355 281.01C194.473 292.275 204.017 305.063 216.463 302.733C229.625 299.975 232.807 283.028 221.849 275.624Z" fill="#005826"/>
<path d="M228.212 221.307C226.367 212.472 217.603 207.418 209.192 209.917C200.745 212.679 196.984 221.057 199.228 228.578C202.068 237.293 210.61 240.719 217.889 238.542C225.72 235.998 229.587 228.66 228.212 221.307Z" fill="#005826"/>
<path d="M292.045 221.307C290.307 213.02 282.531 208.048 274.451 209.559C266.431 211.224 261.14 218.81 262.702 227.152C264.38 235.246 272.03 240.45 280.296 238.902C288.41 237.203 293.589 229.569 292.045 221.307Z" fill="#005826"/>
<path d="M146.786 209.559C138.736 211.229 133.473 218.85 135.037 227.152C137.621 239.617 153.379 243.408 161.278 233.715C170.008 223.019 160.835 206.929 146.786 209.559Z" fill="#005826"/>
<path d="M228.212 157.475C226.377 148.683 217.647 143.573 209.192 146.084C200.717 148.855 196.987 157.232 199.228 164.745C202.09 173.524 210.743 176.892 217.879 174.709C225.602 172.256 229.597 164.88 228.212 157.475Z" fill="#005826"/>
</g>
<defs>
<clipPath id="clip0">
<rect width="510.658" height="510.658" fill="white" transform="translate(0.298828 0.817261)"/>
</clipPath>
</defs>
</svg>
