<svg width="513" height="513" viewBox="0 0 513 513" fill="none" xmlns="http://www.w3.org/2000/svg">
<g clip-path="url(#clip0)">
<path d="M426.472 33.8994H391.182V26.6904C391.182 12.4694 379.613 0.899414 365.391 0.899414H146.973C132.751 0.899414 121.182 12.4694 121.182 26.6904V33.8994H85.8916C70.0606 33.8994 57.1816 46.7834 57.1816 62.6194V484.189C57.1816 500.02 70.0606 512.899 85.8916 512.899H426.472C442.303 512.899 455.182 500.02 455.182 484.189V62.6194C455.182 46.7834 442.303 33.8994 426.472 33.8994V33.8994ZM151.182 30.8994H361.182V65.8994H151.182V30.8994ZM425.182 482.899H87.1816V63.8994H121.182V70.1084C121.182 84.3294 132.751 95.8994 146.973 95.8994H365.391C379.613 95.8994 391.182 84.3294 391.182 70.1084V63.8994H425.182V482.899Z" fill="#005826"/>
<path d="M241.182 264.899C241.182 273.183 247.898 279.899 256.182 279.899C264.466 279.899 271.182 273.183 271.182 264.899V223.899H312.182C320.466 223.899 327.182 217.183 327.182 208.899C327.182 200.615 320.466 193.899 312.182 193.899H271.182V152.899C271.182 144.615 264.466 137.899 256.182 137.899C247.898 137.899 241.182 144.615 241.182 152.899V193.899H200.182C191.898 193.899 185.182 200.615 185.182 208.899C185.182 217.183 191.898 223.899 200.182 223.899H241.182V264.899Z" fill="#005826"/>
<path d="M168.182 313.899H136.182C127.898 313.899 121.182 320.615 121.182 328.899C121.182 337.183 127.898 343.899 136.182 343.899H168.182C176.466 343.899 183.182 337.183 183.182 328.899C183.182 320.615 176.466 313.899 168.182 313.899Z" fill="#005826"/>
<path d="M168.182 377.899H136.182C127.898 377.899 121.182 384.615 121.182 392.899C121.182 401.183 127.898 407.899 136.182 407.899H168.182C176.466 407.899 183.182 401.183 183.182 392.899C183.182 384.615 176.466 377.899 168.182 377.899Z" fill="#005826"/>
<path d="M376.182 313.899H240.182C231.898 313.899 225.182 320.615 225.182 328.899C225.182 337.183 231.898 343.899 240.182 343.899H376.182C384.466 343.899 391.182 337.183 391.182 328.899C391.182 320.615 384.466 313.899 376.182 313.899Z" fill="#005826"/>
<path d="M376.182 377.899H240.182C231.898 377.899 225.182 384.615 225.182 392.899C225.182 401.183 231.898 407.899 240.182 407.899H376.182C384.466 407.899 391.182 401.183 391.182 392.899C391.182 384.615 384.466 377.899 376.182 377.899Z" fill="#005826"/>
</g>
<defs>
<clipPath id="clip0">
<rect width="512" height="512" fill="white" transform="translate(0.181641 0.899414)"/>
</clipPath>
</defs>
</svg>
