<svg width="41" height="41" viewBox="0 0 41 41" fill="none" xmlns="http://www.w3.org/2000/svg">
<path d="M40.3128 19.1992C33.5523 12.4925 37.9614 16.8963 21.4904 0.375587C21.0327 -0.083555 20.2894 -0.0830862 19.832 0.374337L1.00494 19.2025C0.268891 19.9386 0.791048 21.2031 1.83349 21.2031H5.73951V37.8437C5.73951 39.0295 6.70539 40.0312 7.84876 40.0312H33.4723C34.6156 40.0312 35.5815 39.0295 35.5815 37.8437V21.2031H39.4875C40.5305 21.2031 41.0548 19.9353 40.3128 19.1992ZM8.0832 33.0781H13.3172C13.2134 33.9153 13.2391 34.1188 13.2391 37.6875H8.0832V33.0781ZM15.5828 37.6875V34.3225C15.5828 31.4555 17.2048 28.9042 19.4395 28.2559C22.8761 27.2587 25.7384 30.5683 25.7384 34.3281V37.6875H15.5828ZM28.082 37.6875C28.082 34.2147 28.1082 33.9057 28.0039 33.0781H33.238V37.6875H28.082ZM33.238 30.7343H27.4021C27.0515 29.8563 26.5707 29.044 25.9707 28.3315C22.345 24.0258 16.0631 25.2378 13.9079 30.7343H8.0832V21.2031H33.238V30.7343ZM15.7681 18.8593C16.4056 16.8023 18.5835 14.9531 20.6606 14.9531C22.7376 14.9531 24.9156 16.8023 25.5531 18.8593H15.7681ZM27.9644 18.8593C27.3098 15.555 24.0132 12.6093 20.6606 12.6093C17.308 12.6093 14.0114 15.555 13.3568 18.8593H4.66254L20.6593 2.86153C35.6699 17.9173 32.5704 14.8195 36.6425 18.8593H27.9644Z" fill="white"/>
</svg>
