<svg width="492" height="490" viewBox="0 0 492 490" fill="none" xmlns="http://www.w3.org/2000/svg">
<path d="M224.046 415.713C122.205 415.713 38.4439 338.079 30.6493 239.788H64.0368C72.3173 239.788 79.0304 233.075 79.0304 224.795C79.0304 216.515 72.3173 209.801 64.0368 209.801H30.6602C38.213 116.289 115.603 38.9652 209.166 31.4754V64.864C209.166 73.1444 215.879 79.8575 224.16 79.8575C232.44 79.8575 239.153 73.1444 239.153 64.864V31.4744C337.942 39.245 415.963 122.531 415.963 223.795V245.899L411.599 239.353C407.005 232.462 397.696 230.6 390.807 235.194C383.916 239.787 382.055 249.096 386.649 255.986L418.482 303.736C424.791 312.849 437.482 312.345 443.284 303.944C443.714 303.322 454.201 287.582 475.264 255.987C479.858 249.097 477.995 239.788 471.106 235.195C464.215 230.601 454.907 232.463 450.314 239.354L445.951 245.899V223.795C445.951 100.885 346.405 0.891602 224.047 0.891602C101.348 0.891602 0.0644531 102.127 0.0644531 224.795C0.0644531 346.601 100.542 445.7 224.045 445.7C232.325 445.7 239.038 438.986 239.038 430.706C239.038 422.426 232.326 415.713 224.046 415.713Z" fill="#005826"/>
<path d="M143.764 238.296H208.767V303.299C208.767 311.583 215.483 318.299 223.767 318.299C232.052 318.299 238.768 311.583 238.768 303.299V238.296H303.771C312.055 238.296 318.771 231.58 318.771 223.296C318.771 215.011 312.055 208.295 303.771 208.295H238.768V143.293C238.768 135.008 232.052 128.292 223.767 128.292C215.483 128.292 208.767 135.008 208.767 143.293V208.295H143.764C135.48 208.295 128.764 215.011 128.764 223.296C128.764 231.58 135.48 238.296 143.764 238.296Z" fill="#005826"/>
<path d="M363.444 459.508C349.77 459.68 335.247 459.792 323.339 459.811C330.748 449.774 341.162 435.462 355.513 414.957C363.994 402.84 369.527 391.388 371.954 380.918C372.262 379.597 372.997 373.79 372.997 372.395C372.997 345.39 351.028 323.422 324.024 323.422C300.675 323.422 280.465 340.033 275.97 362.92C274.374 371.045 279.667 378.926 287.792 380.521C295.92 382.117 303.799 376.825 305.394 368.699C307.135 359.839 314.969 353.409 324.024 353.409C334.219 353.409 342.563 361.486 342.993 371.577L342.58 374.815C340.921 381.384 337.01 389.099 330.945 397.763C301.661 439.604 289.538 454.584 284.727 461.713C282.769 464.613 278.697 470.647 281.108 478.316C282.631 483.164 286.318 486.881 291.218 488.515C293.232 489.187 295.16 489.832 320.866 489.832C331 489.832 344.834 489.731 363.821 489.493C372.101 489.389 378.729 482.592 378.626 474.312C378.521 466.031 371.747 459.441 363.444 459.508Z" fill="#005826"/>
<path d="M476.584 420.989H474.439C474.61 390.601 474.694 358.504 474.321 354.021C472.506 332.244 448.599 322.773 433.402 341.422C426.144 350.326 392.762 410.507 382.702 428.739C377.199 438.716 384.426 450.976 395.83 450.976H444.252C444.191 459.248 444.129 467.181 444.068 474.338C443.997 482.618 450.652 489.388 458.932 489.458C466.925 489.636 473.981 483.049 474.053 474.594C474.091 470.183 474.162 461.61 474.241 450.976H476.583C484.863 450.976 491.576 444.263 491.576 435.982C491.576 427.702 484.865 420.989 476.584 420.989ZM444.448 420.989H421.314C429.838 405.753 438.132 391.151 444.603 380.034C444.592 391.487 444.532 405.959 444.448 420.989Z" fill="#005826"/>
</svg>
