<svg width="513" height="513" viewBox="0 0 513 513" fill="none" xmlns="http://www.w3.org/2000/svg">
<path d="M508.272 5.38621C502.468 -0.520376 492.973 -0.60737 487.061 5.19722L440.85 50.589L437.319 47.0573C428.25 37.9849 413.09 37.171 401.273 45.1194C399.549 46.2813 403.326 42.6726 353.229 92.7701L344.025 83.5647C333.493 73.0574 316.37 73.0625 305.857 83.5777C207.818 181.628 202.401 187.041 100.818 288.616L94.4544 282.253C88.5979 276.396 79.1005 276.396 73.2429 282.253C67.3853 288.109 67.3853 297.607 73.2429 303.464C96.0443 326.266 95.8953 326.29 107.802 338.197L38.0514 407.948L26.2152 396.023C20.3787 390.141 10.8823 390.108 5.00273 395.943C-0.875855 401.778 -0.911852 411.276 4.92374 417.155L95.5414 508.453C101.375 514.329 110.872 514.368 116.753 508.532C122.632 502.696 122.668 493.199 116.833 487.32L104.253 474.646C105.314 473.625 121.934 456.991 174.266 404.66C180.516 410.911 184.303 414.525 208.996 439.22C211.925 442.148 215.764 443.613 219.602 443.613C232.845 443.613 239.683 427.484 230.207 418.009L223.839 411.642L241.181 394.3C245.421 402.748 251.381 411.063 259.301 418.983L347.528 507.209C353.386 513.068 362.882 513.066 368.739 507.209L456.965 418.983C495.302 380.646 487.832 333.06 460.641 305.869C435.907 281.138 394.302 272.723 358.133 300.249C353.515 296.735 348.809 293.814 344.06 291.43L428.877 206.613C439.471 196.019 439.349 178.884 428.879 168.435L419.537 159.091L464.54 114.088C476.638 104.713 477.562 87.3004 467.08 76.8222L462.06 71.8015L508.079 26.5977C513.992 20.7921 514.077 11.2958 508.272 5.38621ZM83.9762 452.525L59.9369 428.485L129.014 359.407L153.054 383.448L83.9762 452.525ZM368.742 330.755C394.428 305.069 422.753 310.402 439.432 327.079C456.111 343.757 461.443 372.083 435.756 397.77L358.136 475.39L280.514 397.77C269.785 387.04 264.483 375.853 263.145 365.244C263.112 364.658 263.051 364.075 262.95 363.495C260.567 335.75 285.656 310.733 313.387 313.199C313.881 313.282 314.377 313.338 314.875 313.37C325.522 314.681 336.756 319.982 347.53 330.754C353.382 336.609 362.887 336.613 368.742 330.755ZM309.946 283.123C267.878 283.009 232.759 318.35 232.874 360.185L202.63 390.427C173.53 361.327 150.533 338.331 122.03 309.827L236.631 195.225L270.702 229.295C276.561 235.154 286.056 235.153 291.914 229.295C297.771 223.439 297.771 213.942 291.914 208.084L257.843 174.013L281.883 149.973L316.086 184.176C321.944 190.034 331.44 190.033 337.297 184.176C343.155 178.319 343.155 168.822 337.297 162.964L303.095 128.762L324.946 106.91C346.597 128.564 372.258 154.228 405.547 187.52L309.946 283.123ZM398.33 137.876C383.483 123.029 388.807 128.353 374.438 113.982L418.129 70.2906L442.022 94.184L398.33 137.876Z" fill="#005826"/>
</svg>
