<svg width="513" height="464" viewBox="0 0 513 464" fill="none" xmlns="http://www.w3.org/2000/svg">
<path d="M483.557 216.392H398.332C408.245 99.7786 315.973 0.391602 200.057 0.391602C89.7766 0.391602 0.0566406 89.6626 0.0566406 199.392C0.0566406 278.766 47.2446 347.753 115.315 379.55L90.5986 429.768C89.5836 431.829 89.0566 434.095 89.0566 436.392C89.0566 451.28 101.169 463.392 116.057 463.392H284.057C298.945 463.392 311.057 451.28 311.057 436.392C311.057 434.095 310.53 431.829 309.515 429.768L284.763 379.476C311.43 366.872 334.757 348.566 353.192 326.392H417.057V432.392H408.057C399.773 432.392 393.057 439.108 393.057 447.392C393.057 455.676 399.773 462.392 408.057 462.392H456.057C464.341 462.392 471.057 455.676 471.057 447.392C471.057 439.108 464.341 432.392 456.057 432.392H447.057V326.392H483.557C499.267 326.392 512.057 313.682 512.057 298.062V244.722C512.057 229.102 499.267 216.392 483.557 216.392ZM277.863 433.392H122.251L143.491 390.238C180.614 401.207 220.36 401.022 256.626 390.244L277.863 433.392ZM259.84 357.557C259.327 357.717 258.819 357.908 258.315 358.127C221.155 371.725 179.436 371.974 141.37 357.941C141.133 357.846 140.896 357.758 140.657 357.677C74.4876 332.964 30.0566 269.407 30.0566 199.392C30.0566 106.205 106.319 30.3916 200.057 30.3916C299.46 30.3916 378.225 116.399 368.199 216.392H325.908C336.161 139.967 276.58 72.3916 200.057 72.3916C130.029 72.3916 73.0566 129.364 73.0566 199.392C73.0566 268.987 129.413 326.392 200.057 326.392H311.562C296.238 339.918 278.739 350.431 259.84 357.557ZM104.551 216.392C94.0166 156.902 139.871 102.392 200.057 102.392C260.209 102.392 306.103 156.865 295.563 216.392H104.551ZM482.057 296.392C463.865 296.392 212.749 296.392 200.057 296.392C164.549 296.392 132.097 276.6 115.237 246.392H482.057V296.392Z" fill="#005826"/>
</svg>
