<svg width="383" height="513" viewBox="0 0 383 513" fill="none" xmlns="http://www.w3.org/2000/svg">
<path d="M367.073 129.894H270.074V93.4258C302.896 82.3399 312.918 40.8312 288.53 15.3874C263.324 -10.9064 221.428 0.534518 210.48 33.8953H15.0761C6.79212 33.8953 0.0761719 40.6112 0.0761719 48.8951V497.892C0.0761719 506.176 6.79212 512.892 15.0761 512.892C23.36 512.892 30.0759 506.176 30.0759 497.892V63.895H210.544C215.228 77.7609 226.208 88.7428 240.074 93.4258V129.894H143.075C134.791 129.894 128.075 136.61 128.075 144.894V310.257C128.075 325.495 132.638 340.189 141.271 352.746L145.833 359.383C159.367 379.068 181.982 391.892 208.074 391.892V408.892C208.074 429.563 221.493 447.147 240.073 453.423V497.892C240.073 506.176 246.789 512.892 255.073 512.892C263.357 512.892 270.073 506.176 270.073 497.892V453.423C288.653 447.147 302.073 429.563 302.073 408.892V391.892C329.378 391.892 351.98 378.572 365.364 358.496L369.475 352.33C377.716 339.971 382.072 325.584 382.072 310.726C382.072 290.603 382.072 163.872 382.072 144.894C382.073 136.61 375.357 129.894 367.073 129.894ZM255.074 30.8953C264.13 30.8953 272.074 39.3062 272.074 48.8951C272.074 58.2691 264.448 65.895 255.074 65.895C245.7 65.895 238.074 58.2691 238.074 48.8951C238.074 39.3062 246.018 30.8953 255.074 30.8953ZM158.075 159.894H352.073V265.893H158.075V159.894ZM272.074 408.892C272.074 418.266 264.448 425.892 255.074 425.892C245.7 425.892 238.074 418.266 238.074 408.892V391.892H272.074V408.892ZM352.073 310.726C352.073 319.641 349.46 328.272 344.516 335.688L340.405 341.855C332.04 354.402 318.043 361.893 302.963 361.893C243.368 361.893 266.713 361.893 207.637 361.893C192.815 361.893 178.952 354.601 170.556 342.388L165.994 335.751C160.813 328.216 158.075 319.4 158.075 310.257V295.893H352.073V310.726Z" fill="#005826"/>
</svg>
