<svg width="513" height="513" viewBox="0 0 513 513" fill="none" xmlns="http://www.w3.org/2000/svg">
<g clip-path="url(#clip0)">
<path d="M305.741 217.675V161.893C323.41 108.888 322.828 111.585 322.828 108.199C322.828 92.862 310.35 80.3848 295.014 80.3848H218.129C202.793 80.3848 190.316 92.862 190.316 108.199C190.316 111.582 189.739 108.902 207.4 161.887V217.676C146.49 238.474 104.889 295.906 104.889 361.209C104.889 444.847 172.934 512.893 256.572 512.893C340.21 512.893 408.255 444.848 408.255 361.209C408.253 295.904 366.651 238.472 305.741 217.675ZM226.14 243.354C233.155 241.548 237.729 235.068 237.386 228.105C237.388 228.011 237.4 227.92 237.4 227.826C237.4 153.583 237.696 158.002 236.661 154.819C236.398 154.001 235.516 151.365 221.855 110.384H291.288C275.54 157.622 275.988 155.621 275.794 158.384C275.701 159.659 275.739 227.388 275.756 228.143C275.432 235.092 279.999 241.551 287.003 243.353C350.686 259.745 389.369 323.611 375.44 387.248H263.309C266.274 358.717 243.826 334.078 215.415 334.078C186.963 334.078 164.56 358.759 167.521 387.248H137.703C123.801 323.737 162.342 259.776 226.14 243.354ZM197.26 382.234C197.26 372.223 205.405 364.079 215.415 364.079C225.426 364.079 233.57 372.223 233.57 382.234C233.57 392.246 225.426 400.39 215.415 400.39C205.405 400.39 197.26 392.246 197.26 382.234ZM256.571 482.891C209.673 482.891 168.893 456.219 148.586 417.25H182.409C200.981 434.766 229.839 434.779 248.424 417.25H364.557C344.249 456.219 303.469 482.891 256.571 482.891Z" fill="#005826"/>
<path d="M303.891 344.888C312.713 344.888 319.891 337.71 319.891 328.888C319.891 320.066 312.713 312.888 303.891 312.888C295.069 312.888 287.891 320.066 287.891 328.888C287.891 337.71 295.069 344.888 303.891 344.888Z" fill="#005826"/>
<path d="M217.86 291.817C219.506 299.749 227.017 305.187 235.5 303.597C243.633 301.903 248.83 294.236 247.28 285.957C245.42 276.993 236.455 272.028 228.22 274.537C220.508 276.993 216.463 284.356 217.86 291.817Z" fill="#005826"/>
<path d="M273.861 35.813C275.542 43.913 283.197 49.149 291.501 47.593C299.634 45.899 304.831 38.232 303.281 29.953C301.451 21.134 292.671 16.014 284.211 18.533C276.288 21.115 272.501 28.546 273.861 35.813Z" fill="#005826"/>
<path d="M209.86 18.8126C211.551 26.9616 219.224 32.1436 227.5 30.5926C235.683 28.8876 240.821 21.1836 239.28 12.9526C237.441 4.09063 228.636 -0.976365 220.21 1.53264C212.405 4.07663 208.479 11.4336 209.86 18.8126Z" fill="#005826"/>
</g>
<defs>
<clipPath id="clip0">
<rect width="512" height="512" fill="white" transform="translate(0.571289 0.891602)"/>
</clipPath>
</defs>
</svg>
