<svg width="513" height="512" viewBox="0 0 513 512" fill="none" xmlns="http://www.w3.org/2000/svg">
<path d="M512.847 256C512.847 114.6 398.247 0 256.847 0C115.447 0 0.84668 114.6 0.84668 256C0.84668 397.4 115.447 512 256.847 512C258.347 512 259.847 512 261.347 511.9V312.7H206.347V248.6H261.347V201.4C261.347 146.7 294.747 116.9 343.547 116.9C366.947 116.9 387.047 118.6 392.847 119.4V176.6H359.247C332.747 176.6 327.547 189.2 327.547 207.7V248.5H391.047L382.747 312.6H327.547V502.1C434.547 471.4 512.847 372.9 512.847 256Z" fill="white"/>
</svg>
