<svg width="455" height="513" viewBox="0 0 455 513" fill="none" xmlns="http://www.w3.org/2000/svg">
<path d="M439.057 297.475H215.057C206.773 297.475 200.057 304.191 200.057 312.475C200.057 320.759 206.773 327.475 215.057 327.475H268.287C249.409 344.078 225.013 353.475 199.057 353.475C141.16 353.475 94.0566 306.372 94.0566 248.475C94.0566 195.67 133.241 151.852 184.057 144.551V172.475C184.057 187.363 196.169 199.475 211.057 199.475H216.057V236.475C216.057 251.363 228.169 263.475 243.057 263.475H283.057C297.945 263.475 310.057 251.363 310.057 236.475V199.475H315.057C329.945 199.475 342.057 187.363 342.057 172.475V27.4752C342.057 12.5872 329.945 0.47522 315.057 0.47522H211.057C196.169 0.47522 184.057 12.5872 184.057 27.4752V50.0372C81.3076 57.7322 0.0566406 143.792 0.0566406 248.475C0.0566406 332.321 52.1826 404.217 125.729 433.472L114.988 482.475H71.0566C62.7726 482.475 56.0566 489.191 56.0566 497.475C56.0566 505.759 62.7726 512.475 71.0566 512.475H327.057C335.341 512.475 342.057 505.759 342.057 497.475C342.057 489.191 335.341 482.475 327.057 482.475H283.126L272.399 433.534C319.634 414.789 360.126 377.54 381.751 327.475H439.057C447.341 327.475 454.057 320.759 454.057 312.475C454.057 304.191 447.341 297.475 439.057 297.475ZM280.057 233.475H246.057V199.475H280.057V233.475ZM214.057 30.4752H312.057V169.475H214.057V30.4752ZM252.413 482.475H145.701L154.476 442.437C183.938 449.206 214.633 449.096 243.644 442.467L252.413 482.475ZM199.057 417.475C105.87 417.475 30.0566 341.662 30.0566 248.475C30.0566 160.344 97.8706 87.7652 184.057 80.1482V114.313C116.651 121.799 64.0566 179.106 64.0566 248.475C64.0566 322.914 124.618 383.475 199.057 383.475C242.835 383.475 283.16 362.692 308.536 327.475H348.483C319.51 382.077 261.945 417.475 199.057 417.475Z" fill="#005826"/>
</svg>
