<svg width="514" height="514" viewBox="0 0 514 514" fill="none" xmlns="http://www.w3.org/2000/svg">
<circle cx="256.629" cy="256.737" r="256.5" fill="#005826"/>
<circle cx="256.629" cy="256.738" r="212.956" fill="#005826" stroke="white" stroke-width="20"/>
<path d="M256.63 98.4434C261.932 98.4434 266.307 100.299 269.754 104.011C273.201 107.724 274.925 113.292 274.925 120.716C274.925 134.504 273.069 158.102 269.357 191.51C266.175 223.859 263.789 249.976 262.198 269.862C260.872 289.483 260.209 310.032 260.209 331.509H253.05C253.05 310.032 252.255 289.483 250.664 269.862C249.338 249.976 247.084 223.859 243.902 191.51C240.19 158.102 238.334 134.504 238.334 120.716C238.334 113.027 239.925 107.458 243.107 104.011C246.554 100.299 251.061 98.4434 256.63 98.4434ZM256.63 364.122C263.523 364.122 269.489 366.641 274.527 371.679C279.565 376.716 282.084 382.682 282.084 389.576C282.084 396.47 279.565 402.436 274.527 407.474C269.489 412.511 263.523 415.03 256.63 415.03C249.736 415.03 243.77 412.511 238.732 407.474C233.694 402.436 231.175 396.47 231.175 389.576C231.175 382.682 233.694 376.716 238.732 371.679C243.77 366.641 249.736 364.122 256.63 364.122Z" fill="white"/>
</svg>
