<svg width="41" height="41" viewBox="0 0 41 41" fill="none" xmlns="http://www.w3.org/2000/svg">
<g clip-path="url(#clip0)">
<path d="M26.0407 28.9107C25.3627 27.6457 25.2156 27.059 25.1838 26.3415C28.4999 24.6518 30.6018 21.2594 30.6018 17.4872V8.7201C30.6018 8.51305 30.669 8.84409 29.1326 2.69888C28.7397 1.12824 27.3346 0.03125 25.7157 0.03125H15.6054C13.9865 0.03125 12.5814 1.12824 12.1884 2.69912C10.64 8.89239 10.7216 8.50648 10.7198 8.70984C10.719 8.80526 10.7193 17.2514 10.7193 17.4872C10.7193 21.3775 12.9414 24.7098 16.1359 26.341C16.1012 27.0291 15.9481 27.6506 15.2753 28.9167C11.4346 29.6261 5.08325 31.1484 5.08325 35.0215V38.8571C5.08325 39.5055 5.60897 40.0312 6.25742 40.0312C6.90587 40.0312 7.43159 39.5055 7.43159 38.8571V35.0215C7.43159 34.5097 7.98486 32.8046 14.7661 31.4093C14.9471 31.6172 14.8959 31.5618 17.0087 32.752C19.2267 34.0018 22.0937 34.0023 24.3125 32.752C26.391 31.5812 26.3806 31.617 26.568 31.3943C30.997 32.2622 33.8895 33.6743 33.8895 35.0215V38.8571C33.8895 39.5055 34.4152 40.0312 35.0637 40.0312C35.7121 40.0312 36.2379 39.5055 36.2379 38.8571V35.0215C36.2379 31.1329 29.8994 29.5703 26.0407 28.9107ZM14.4665 3.2689C14.5975 2.7453 15.0659 2.37959 15.6054 2.37959H25.7157C26.2552 2.37959 26.7236 2.7453 26.8545 3.26867L27.9239 7.54593H24.1055C23.5764 6.10037 22.2123 5.04103 20.6606 5.04103C19.1089 5.04103 17.7448 6.10037 17.2158 7.54593H13.3974L14.4665 3.2689ZM20.6606 7.38937C21.357 7.38937 21.9913 8.09074 21.9913 8.861C21.9913 9.59477 21.3943 10.1917 20.6606 10.1917C19.9268 10.1917 19.3298 9.59477 19.3298 8.861C19.3298 8.09074 19.9641 7.38937 20.6606 7.38937ZM13.0676 17.4872V9.89426H17.1302C17.578 11.4213 18.9907 12.5401 20.6606 12.5401C22.3305 12.5401 23.7431 11.4213 24.1909 9.89426H28.2535V17.4872C28.2535 21.7233 24.8266 25.0802 20.6606 25.0802C16.491 25.0802 13.0676 21.7087 13.0676 17.4872ZM23.1597 30.7062C21.6649 31.5484 19.6562 31.5484 18.1614 30.7062L17.2541 30.1951C17.9864 28.841 18.2876 27.9706 18.4107 27.1732C19.8428 27.5037 21.3993 27.5225 22.9064 27.1742C23.0267 27.9776 23.326 28.8347 24.0663 30.1956L23.1597 30.7062Z" fill="white"/>
<path d="M13.7723 35.0997C13.7325 35.0997 13.5404 35.1025 12.4588 35.1162C11.1219 35.0976 11.2812 35.0997 11.2668 35.0997C10.6261 35.0997 10.1021 35.6147 10.0931 36.2574C10.0841 36.9059 10.6023 37.4389 11.2508 37.4479C12.7868 37.4694 12.1113 37.4692 13.787 37.4479C14.4354 37.4396 14.9544 36.9074 14.9462 36.2589C14.938 35.6156 14.4138 35.0997 13.7723 35.0997Z" fill="white"/>
</g>
<defs>
<clipPath id="clip0">
<rect width="40" height="40" fill="white" transform="translate(0.660645 0.03125)"/>
</clipPath>
</defs>
</svg>
