<svg width="41" height="41" viewBox="0 0 41 41" fill="none" xmlns="http://www.w3.org/2000/svg">
<g clip-path="url(#clip0)">
<path d="M18.1677 32.5944C10.2114 32.5944 3.66758 26.5293 3.05863 18.8503H5.66703C6.31394 18.8503 6.8384 18.3259 6.8384 17.679C6.8384 17.0321 6.31394 16.5076 5.66703 16.5076H3.05949C3.64954 9.20193 9.69561 3.16102 17.0053 2.57588V5.18437C17.0053 5.83127 17.5297 6.35574 18.1766 6.35574C18.8235 6.35574 19.348 5.83127 19.348 5.18437V2.5758C27.0658 3.18289 33.1613 9.68961 33.1613 17.6009V19.3277L32.8203 18.8163C32.4614 18.2779 31.7341 18.1325 31.1959 18.4914C30.6576 18.8503 30.5122 19.5775 30.8711 20.1158L33.358 23.8462C33.851 24.5582 34.8424 24.5188 35.2957 23.8625C35.3293 23.8139 36.1486 22.5842 37.7942 20.1159C38.1531 19.5776 38.0075 18.8503 37.4693 18.4915C36.931 18.1326 36.2038 18.278 35.8449 18.8164L35.5041 19.3277V17.6009C35.5041 7.99854 27.727 0.186523 18.1678 0.186523C8.58194 0.186523 0.669189 8.09553 0.669189 17.679C0.669189 27.1951 8.519 34.9371 18.1677 34.9371C18.8146 34.9371 19.339 34.4127 19.339 33.7658C19.339 33.1189 18.8146 32.5944 18.1677 32.5944Z" fill="white"/>
<path d="M13.407 19.1689H16.2522H17.3341C18.308 19.1689 19.0977 18.607 19.0977 17.914C19.0977 17.221 18.308 16.6592 17.3341 16.6592H16.2509H13.4082H12.3251C11.3511 16.6592 10.5615 17.221 10.5615 17.914C10.5615 18.607 11.3511 19.1689 12.3251 19.1689H13.407Z" fill="white"/>
<path d="M21.806 14.8645L20.1001 17.1417L19.4515 18.0075C18.8675 18.787 17.9445 19.0821 17.3898 18.6666C16.8352 18.2511 16.8589 17.2823 17.4429 16.5028L18.0923 15.6359L19.7966 13.3608L20.4461 12.494C21.03 11.7145 21.9531 11.4194 22.5077 11.8349C23.0624 12.2504 23.0386 13.2192 22.4546 13.9987L21.806 14.8645Z" fill="white"/>
</g>
<defs>
<clipPath id="clip0">
<rect width="40" height="40" fill="white" transform="translate(0.660645 0.186523)"/>
</clipPath>
</defs>
</svg>
