<svg width="1296" height="539" viewBox="0 0 1296 539" fill="none" xmlns="http://www.w3.org/2000/svg">
<path fill-rule="evenodd" clip-rule="evenodd" d="M268.937 538.425C417.466 538.425 537.874 418.017 537.874 269.488C537.874 120.958 417.466 0.551025 268.937 0.551025C120.407 0.551025 0 120.958 0 269.488C0 418.017 120.407 538.425 268.937 538.425ZM268.937 508.014C400.671 508.014 507.463 401.222 507.463 269.488C507.463 137.753 400.671 30.9611 268.937 30.9611C137.202 30.9611 30.4101 137.753 30.4101 269.488C30.4101 401.222 137.202 508.014 268.937 508.014Z" fill="white"/>
<path d="M528.64 327.888V211.087H328.33L328.33 14.1242L209.544 14.1242L209.544 211.087H9.23328V327.888H209.544L209.544 524.851H328.33L328.33 327.888H528.64Z" fill="white"/>
<path d="M380.877 373.021C380.112 418.825 355.093 435.399 328.537 433.863C301.98 432.334 283.51 420.321 264.649 420.321L263.876 420.742C245.015 420.742 226.545 433.176 199.988 434.705C173.431 436.234 148.413 420.497 147.648 374.693C149.187 332.639 182.027 329.546 209.998 279.868C234.627 236.122 263.877 239.663 263.877 239.663H264.649C264.649 239.663 294.152 236.312 318.529 279.868C346.366 329.614 379.338 330.966 380.877 373.021ZM216.451 220.79C239.974 219.05 257.016 191.553 254.515 159.373C252.014 127.193 230.917 102.516 207.395 104.256C183.872 105.996 166.83 133.494 169.331 165.674C171.832 197.854 192.928 222.531 216.451 220.79ZM305.605 221.349C328.592 227.462 354.351 206.927 363.136 175.481C371.921 144.036 360.409 113.588 337.423 107.475C314.436 101.362 288.678 121.897 279.893 153.343C271.107 184.788 282.618 215.236 305.605 221.349ZM412.103 196.172C392.085 190.848 369.654 208.73 362.003 236.114C354.353 263.497 364.378 290.011 384.395 295.334C404.413 300.658 426.844 282.776 434.495 255.392C442.146 228.01 432.121 201.495 412.103 196.172ZM175.87 236.111C168.218 208.729 145.789 190.846 125.771 196.17C105.753 201.493 95.727 228.007 103.378 255.39C111.03 282.773 133.46 300.656 153.478 295.332C173.495 290.009 183.52 263.495 175.87 236.111Z" fill="#C4C4C4"/>
<path d="M714.571 266.44C714.023 267.475 713.232 267.993 712.197 267.993C711.405 267.993 710.37 267.445 709.092 266.349C707.874 265.192 706.2 263.944 704.069 262.605C701.938 261.204 699.259 259.926 696.033 258.769C692.867 257.612 688.94 257.034 684.252 257.034C679.564 257.034 675.424 257.703 671.832 259.043C668.301 260.382 665.317 262.209 662.882 264.522C660.508 266.836 658.681 269.515 657.403 272.559C656.185 275.603 655.576 278.799 655.576 282.148C655.576 286.531 656.489 290.154 658.316 293.015C660.203 295.877 662.669 298.312 665.713 300.321C668.757 302.33 672.197 304.035 676.033 305.435C679.929 306.775 683.917 308.114 687.996 309.454C692.075 310.793 696.033 312.285 699.868 313.928C703.765 315.511 707.235 317.521 710.279 319.956C713.323 322.391 715.759 325.405 717.585 328.997C719.472 332.528 720.416 336.942 720.416 342.239C720.416 347.657 719.472 352.772 717.585 357.581C715.759 362.33 713.08 366.47 709.549 370.001C706.017 373.533 701.695 376.333 696.581 378.403C691.466 380.412 685.622 381.417 679.046 381.417C670.523 381.417 663.186 379.925 657.037 376.942C650.888 373.898 645.5 369.758 640.873 364.522L643.43 360.504C644.161 359.59 645.013 359.134 645.987 359.134C646.535 359.134 647.235 359.499 648.088 360.23C648.94 360.96 649.975 361.874 651.193 362.969C652.41 364.004 653.871 365.161 655.576 366.44C657.281 367.657 659.26 368.814 661.512 369.91C663.765 370.945 666.352 371.828 669.275 372.558C672.197 373.289 675.515 373.654 679.229 373.654C684.343 373.654 688.909 372.893 692.928 371.371C696.946 369.788 700.325 367.657 703.065 364.979C705.865 362.3 707.996 359.134 709.457 355.481C710.918 351.767 711.649 347.81 711.649 343.609C711.649 339.043 710.705 335.298 708.818 332.376C706.991 329.393 704.556 326.927 701.512 324.979C698.468 322.97 694.998 321.295 691.101 319.956C687.266 318.616 683.308 317.307 679.229 316.029C675.15 314.75 671.162 313.32 667.266 311.737C663.43 310.154 659.99 308.145 656.946 305.709C653.902 303.213 651.436 300.139 649.549 296.486C647.722 292.772 646.809 288.145 646.809 282.604C646.809 278.282 647.631 274.111 649.275 270.093C650.919 266.075 653.324 262.544 656.489 259.5C659.655 256.394 663.552 253.929 668.179 252.102C672.867 250.215 678.194 249.271 684.161 249.271C690.858 249.271 696.855 250.337 702.151 252.468C707.509 254.598 712.38 257.856 716.763 262.239L714.571 266.44Z" fill="white"/>
<path d="M832.59 253.929C832.59 255.086 832.164 256.334 831.312 257.673L749.303 372.193H831.951V379.956H736.792V376.577C736.792 375.907 736.883 375.329 737.066 374.841C737.309 374.294 737.583 373.776 737.887 373.289L820.079 258.495H739.166V250.732H832.59V253.929Z" fill="white"/>
<path d="M892.162 320.412C897.824 320.412 902.908 319.621 907.413 318.038C911.918 316.455 915.723 314.263 918.828 311.463C921.994 308.662 924.399 305.375 926.043 301.6C927.748 297.764 928.6 293.594 928.6 289.088C928.6 279.165 925.556 271.524 919.468 266.166C913.379 260.808 904.278 258.13 892.162 258.13H868.144V320.412H892.162ZM892.162 250.732C907.322 250.732 918.737 254.051 926.408 260.687C934.14 267.323 938.006 276.79 938.006 289.088C938.006 294.75 936.941 299.956 934.81 304.705C932.679 309.454 929.635 313.563 925.678 317.034C921.72 320.443 916.911 323.122 911.249 325.07C905.587 326.957 899.224 327.901 892.162 327.901H868.144V379.956H858.737V250.732H892.162Z" fill="white"/>
<path d="M973.737 379.956H964.331V250.732H973.737V379.956Z" fill="white"/>
<path d="M1095.97 258.678H1050.58V379.956H1041.18V258.678H995.516V250.732H1095.97V258.678Z" fill="white"/>
<path d="M1174.74 333.015L1148.44 267.719C1147.53 265.588 1146.64 263.031 1145.79 260.047C1145.43 261.509 1145.03 262.909 1144.61 264.248C1144.18 265.527 1143.72 266.714 1143.24 267.81L1116.93 333.015H1174.74ZM1203.33 379.956H1196.11C1195.26 379.956 1194.56 379.743 1194.01 379.316C1193.46 378.829 1193.04 378.22 1192.73 377.49L1177.57 339.956H1114.1L1098.94 377.49C1098.7 378.16 1098.27 378.738 1097.66 379.225C1097.06 379.712 1096.33 379.956 1095.47 379.956H1088.35L1141.23 250.732H1150.45L1203.33 379.956Z" fill="white"/>
<path d="M1295.34 372.01V379.956H1224.75V250.732H1234.15V372.01H1295.34Z" fill="white"/>
<path d="M738.931 149.466V189.829C733.261 193.841 727.216 196.917 720.796 199.057C714.377 201.197 707.155 202.267 699.13 202.267C690.143 202.267 682.065 200.903 674.897 198.174C667.728 195.392 661.603 191.487 656.521 186.459C651.492 181.376 647.614 175.251 644.885 168.083C642.21 160.914 640.873 152.943 640.873 144.17C640.873 135.397 642.184 127.452 644.805 120.337C647.48 113.169 651.278 107.07 656.2 102.042C661.175 96.9596 667.166 93.0544 674.174 90.326C681.182 87.5442 689.073 86.1533 697.846 86.1533C702.18 86.1533 706.165 86.4476 709.803 87.036C713.494 87.6245 716.918 88.5072 720.074 89.6841C723.23 90.8075 726.173 92.2252 728.901 93.937C731.629 95.5954 734.25 97.5213 736.765 99.7146L734.518 103.245C733.769 104.529 732.646 104.824 731.148 104.128C730.345 103.807 729.195 103.058 727.697 101.881C726.199 100.704 724.14 99.4739 721.518 98.19C718.897 96.9061 715.634 95.7559 711.729 94.7395C707.877 93.7231 703.169 93.2148 697.606 93.2148C690.223 93.2148 683.536 94.3918 677.545 96.7456C671.607 99.0994 666.524 102.47 662.298 106.856C658.126 111.243 654.889 116.593 652.589 122.905C650.342 129.218 649.218 136.306 649.218 144.17C649.218 152.141 650.342 159.309 652.589 165.675C654.889 172.041 658.179 177.444 662.459 181.885C666.792 186.325 672.035 189.722 678.187 192.076C684.339 194.429 691.266 195.606 698.97 195.606C702.34 195.606 705.443 195.392 708.278 194.964C711.167 194.536 713.895 193.948 716.463 193.199C719.084 192.397 721.599 191.434 724.006 190.31C726.467 189.133 728.954 187.823 731.469 186.378V155.805H709.723C709.134 155.805 708.626 155.618 708.198 155.244C707.823 154.869 707.636 154.441 707.636 153.96V149.466H738.931Z" fill="white"/>
<path d="M861.922 144.17C861.922 152.943 860.611 160.834 857.99 167.842C855.369 174.85 851.677 180.815 846.916 185.736C842.155 190.658 836.431 194.429 829.744 197.051C823.11 199.672 815.781 200.983 807.757 200.983H766.271V87.4373H807.757C815.781 87.4373 823.11 88.7479 829.744 91.3692C836.431 93.9905 842.155 97.762 846.916 102.684C851.677 107.605 855.369 113.57 857.99 120.578C860.611 127.586 861.922 135.45 861.922 144.17ZM853.416 144.17C853.416 136.252 852.319 129.191 850.126 122.985C847.933 116.78 844.83 111.537 840.818 107.258C836.805 102.978 831.991 99.7146 826.374 97.4678C820.757 95.2209 814.551 94.0975 807.757 94.0975H774.536V194.322H807.757C814.551 194.322 820.757 193.199 826.374 190.952C831.991 188.705 836.805 185.442 840.818 181.162C844.83 176.883 847.933 171.64 850.126 165.435C852.319 159.229 853.416 152.141 853.416 144.17Z" fill="white"/>
<path d="M917.786 154.2V200.983H909.601V154.2L867.553 87.4373H874.775C875.524 87.4373 876.139 87.6245 876.62 87.999C877.102 88.3199 877.503 88.8014 877.824 89.4434L910.323 141.602C911.018 142.832 911.66 144.036 912.249 145.213C912.837 146.336 913.345 147.46 913.773 148.583C914.201 147.46 914.683 146.336 915.218 145.213C915.753 144.036 916.368 142.832 917.063 141.602L949.562 89.4434C949.83 88.8549 950.204 88.3734 950.686 87.999C951.221 87.6245 951.863 87.4373 952.612 87.4373H959.834L917.786 154.2Z" fill="white"/>
<path d="M1065.79 87.4373V200.983H1061.94C1061.24 200.983 1060.66 200.876 1060.18 200.662C1059.75 200.394 1059.32 199.966 1058.89 199.378L985.147 100.838C985.307 102.443 985.388 103.968 985.388 105.412V200.983H978.166V87.4373H982.258C983.007 87.4373 983.569 87.5443 983.943 87.7582C984.371 87.9187 984.826 88.3199 985.307 88.9619L1058.89 187.261C1058.73 185.656 1058.65 184.131 1058.65 182.687V87.4373H1065.79ZM1049.98 53.3335L1023.66 76.3636C1023.18 76.7915 1022.7 77.059 1022.22 77.166C1021.74 77.273 1021.18 77.3265 1020.53 77.3265H1015.32L1036.02 55.0989C1036.66 54.3499 1037.31 53.8685 1037.95 53.6545C1038.64 53.4405 1039.63 53.3335 1040.92 53.3335H1049.98Z" fill="white"/>
<path d="M1154.44 101.239C1153.96 102.149 1153.27 102.603 1152.36 102.603C1151.66 102.603 1150.75 102.122 1149.63 101.159C1148.56 100.143 1147.09 99.0459 1145.22 97.869C1143.34 96.6386 1140.99 95.5152 1138.15 94.4987C1135.37 93.4823 1131.92 92.9741 1127.8 92.9741C1123.68 92.9741 1120.05 93.5626 1116.89 94.7395C1113.79 95.9164 1111.16 97.5213 1109.02 99.5541C1106.94 101.587 1105.33 103.941 1104.21 106.616C1103.14 109.29 1102.61 112.099 1102.61 115.041C1102.61 118.893 1103.41 122.076 1105.01 124.59C1106.67 127.105 1108.84 129.244 1111.51 131.01C1114.19 132.775 1117.21 134.273 1120.58 135.504C1124 136.68 1127.51 137.857 1131.09 139.034C1134.68 140.211 1138.15 141.522 1141.52 142.966C1144.95 144.357 1148 146.122 1150.67 148.262C1153.35 150.402 1155.49 153.05 1157.09 156.207C1158.75 159.309 1159.58 163.188 1159.58 167.842C1159.58 172.603 1158.75 177.097 1157.09 181.323C1155.49 185.496 1153.13 189.133 1150.03 192.236C1146.93 195.339 1143.13 197.8 1138.64 199.619C1134.14 201.384 1129.01 202.267 1123.23 202.267C1115.74 202.267 1109.29 200.956 1103.89 198.335C1098.49 195.66 1093.75 192.022 1089.69 187.421L1091.93 183.891C1092.57 183.088 1093.32 182.687 1094.18 182.687C1094.66 182.687 1095.28 183.008 1096.03 183.65C1096.77 184.292 1097.68 185.094 1098.75 186.057C1099.82 186.967 1101.11 187.983 1102.61 189.107C1104.1 190.177 1105.84 191.193 1107.82 192.156C1109.8 193.065 1112.07 193.841 1114.64 194.483C1117.21 195.125 1120.13 195.446 1123.39 195.446C1127.88 195.446 1131.89 194.777 1135.43 193.44C1138.96 192.049 1141.93 190.177 1144.33 187.823C1146.79 185.469 1148.67 182.687 1149.95 179.477C1151.23 176.214 1151.88 172.737 1151.88 169.046C1151.88 165.033 1151.05 161.743 1149.39 159.176C1147.78 156.554 1145.64 154.388 1142.97 152.676C1140.29 150.91 1137.24 149.439 1133.82 148.262C1130.45 147.085 1126.97 145.935 1123.39 144.812C1119.8 143.688 1116.3 142.431 1112.88 141.04C1109.51 139.649 1106.48 137.884 1103.81 135.744C1101.13 133.551 1098.97 130.849 1097.31 127.64C1095.7 124.376 1094.9 120.311 1094.9 115.442C1094.9 111.644 1095.62 107.98 1097.07 104.449C1098.51 100.918 1100.63 97.8155 1103.41 95.1407C1106.19 92.4124 1109.61 90.2458 1113.68 88.6409C1117.8 86.9825 1122.48 86.1533 1127.72 86.1533C1133.61 86.1533 1138.88 87.0895 1143.53 88.9619C1148.24 90.8343 1152.52 93.6963 1156.37 97.548L1154.44 101.239Z" fill="white"/>
<path d="M1193.47 139.837H1200.21C1201.22 139.837 1202.11 139.81 1202.86 139.756C1203.6 139.649 1204.27 139.489 1204.86 139.275C1205.5 139.061 1206.07 138.767 1206.55 138.392C1207.08 137.964 1207.64 137.456 1208.23 136.868L1254.05 89.7643C1254.85 88.8549 1255.63 88.2397 1256.38 87.9187C1257.18 87.5978 1258.12 87.4373 1259.19 87.4373H1265.77L1216.18 138.392C1215.16 139.462 1214.25 140.291 1213.45 140.88C1212.7 141.468 1211.84 141.95 1210.88 142.324C1212 142.645 1213.02 143.153 1213.93 143.849C1214.84 144.491 1215.75 145.347 1216.66 146.417L1268.9 200.983H1262.24C1260.85 200.983 1259.83 200.822 1259.19 200.501C1258.6 200.127 1258.01 199.565 1257.42 198.816L1209.44 149.707C1208.85 149.118 1208.29 148.61 1207.75 148.182C1207.27 147.754 1206.71 147.406 1206.07 147.139C1205.48 146.818 1204.75 146.604 1203.9 146.497C1203.1 146.336 1202.05 146.256 1200.77 146.256H1193.47V200.983H1185.2V87.4373H1193.47V139.837Z" fill="white"/>
<path d="M1295.34 200.983H1287.07V87.4373H1295.34V200.983Z" fill="white"/>
<path d="M718.407 428.421L700.613 485.002H696.934L680.22 435.899C680.007 435.232 679.82 434.539 679.66 433.819C679.5 434.539 679.313 435.232 679.1 435.899L662.346 485.002H658.707L640.873 428.421H644.272C645.045 428.421 645.538 428.781 645.751 429.501L660.027 476.005C660.32 477.072 660.586 478.284 660.826 479.644C660.96 478.951 661.093 478.311 661.226 477.725C661.36 477.111 661.519 476.538 661.706 476.005L677.701 429.501C677.807 429.208 677.994 428.954 678.261 428.741C678.527 428.528 678.847 428.421 679.22 428.421H680.34C680.713 428.421 681.02 428.528 681.26 428.741C681.499 428.928 681.686 429.181 681.819 429.501L697.814 476.005C698.001 476.512 698.161 477.072 698.294 477.685C698.454 478.298 698.6 478.938 698.734 479.604C698.867 478.938 698.987 478.311 699.094 477.725C699.227 477.111 699.36 476.538 699.493 476.005L713.769 429.501C713.849 429.208 714.022 428.954 714.288 428.741C714.582 428.528 714.915 428.421 715.288 428.421H718.407Z" fill="white"/>
<path d="M762.64 481.603L762.56 485.002H728.652V428.421H762.56V431.82H732.77V454.692H757.562V458.011H732.77V481.603H762.64Z" fill="white"/>
<path d="M811.83 431.9H791.957V485.002H787.838V431.9H767.845V428.421H811.83V431.9Z" fill="white"/>
<path d="M855.344 481.603L855.264 485.002H821.355V428.421H855.264V431.82H825.474V454.692H850.265V458.011H825.474V481.603H855.344Z" fill="white"/>
<path d="M881.661 456.372C884.167 456.372 886.406 456.079 888.379 455.492C890.378 454.879 892.058 454.013 893.417 452.893C894.803 451.773 895.856 450.427 896.576 448.854C897.296 447.281 897.656 445.509 897.656 443.536C897.656 439.511 896.336 436.525 893.697 434.579C891.085 432.633 887.259 431.66 882.221 431.66H871.864V456.372H881.661ZM906.773 485.002H903.254C902.801 485.002 902.414 484.936 902.094 484.802C901.801 484.642 901.521 484.362 901.255 483.963L883.101 461.01C882.887 460.717 882.661 460.464 882.421 460.25C882.208 460.037 881.954 459.877 881.661 459.771C881.395 459.637 881.061 459.544 880.661 459.491C880.288 459.437 879.822 459.411 879.262 459.411H871.864V485.002H867.746V428.421H882.221C888.725 428.421 893.59 429.687 896.816 432.22C900.068 434.726 901.694 438.418 901.694 443.296C901.694 445.455 901.321 447.428 900.575 449.214C899.828 451 898.749 452.573 897.336 453.933C895.95 455.265 894.257 456.358 892.258 457.211C890.285 458.065 888.059 458.638 885.58 458.931C886.22 459.331 886.793 459.864 887.299 460.53L906.773 485.002Z" fill="white"/>
<path d="M932.157 461.69V485.002H928.079V461.69L907.126 428.421H910.724C911.098 428.421 911.404 428.514 911.644 428.701C911.884 428.861 912.084 429.101 912.244 429.421L928.439 455.412C928.785 456.025 929.105 456.625 929.398 457.211C929.691 457.771 929.945 458.331 930.158 458.891C930.371 458.331 930.611 457.771 930.878 457.211C931.144 456.625 931.451 456.025 931.797 455.412L947.992 429.421C948.125 429.128 948.312 428.888 948.552 428.701C948.818 428.514 949.138 428.421 949.511 428.421H953.11L932.157 461.69Z" fill="white"/>
<path d="M1005.91 428.421V485.002H1003.99C1003.64 485.002 1003.35 484.949 1003.11 484.842C1002.9 484.709 1002.69 484.496 1002.47 484.202L965.724 435.099C965.804 435.899 965.844 436.658 965.844 437.378V485.002H962.245V428.421H964.285C964.658 428.421 964.938 428.474 965.124 428.581C965.338 428.661 965.564 428.861 965.804 429.181L1002.47 478.164C1002.39 477.365 1002.35 476.605 1002.35 475.885V428.421H1005.91Z" fill="white"/>
<path d="M1053.13 464.449L1041.61 435.859C1041.21 434.926 1040.82 433.806 1040.45 432.5C1040.29 433.14 1040.12 433.753 1039.93 434.339C1039.74 434.899 1039.54 435.419 1039.33 435.899L1027.81 464.449H1053.13ZM1065.64 485.002H1062.48C1062.11 485.002 1061.8 484.909 1061.56 484.722C1061.32 484.509 1061.14 484.242 1061 483.923L1054.37 467.488H1026.57L1019.94 483.923C1019.83 484.216 1019.64 484.469 1019.38 484.682C1019.11 484.896 1018.79 485.002 1018.42 485.002H1015.3L1038.45 428.421H1042.49L1065.64 485.002Z" fill="white"/>
<path d="M1088.94 456.372C1091.44 456.372 1093.68 456.079 1095.65 455.492C1097.65 454.879 1099.33 454.013 1100.69 452.893C1102.08 451.773 1103.13 450.427 1103.85 448.854C1104.57 447.281 1104.93 445.509 1104.93 443.536C1104.93 439.511 1103.61 436.525 1100.97 434.579C1098.36 432.633 1094.53 431.66 1089.5 431.66H1079.14V456.372H1088.94ZM1114.05 485.002H1110.53C1110.07 485.002 1109.69 484.936 1109.37 484.802C1109.08 484.642 1108.8 484.362 1108.53 483.963L1090.37 461.01C1090.16 460.717 1089.94 460.464 1089.7 460.25C1089.48 460.037 1089.23 459.877 1088.94 459.771C1088.67 459.637 1088.34 459.544 1087.94 459.491C1087.56 459.437 1087.1 459.411 1086.54 459.411H1079.14V485.002H1075.02V428.421H1089.5C1096 428.421 1100.86 429.687 1104.09 432.22C1107.34 434.726 1108.97 438.418 1108.97 443.296C1108.97 445.455 1108.6 447.428 1107.85 449.214C1107.1 451 1106.02 452.573 1104.61 453.933C1103.22 455.265 1101.53 456.358 1099.53 457.211C1097.56 458.065 1095.33 458.638 1092.85 458.931C1093.49 459.331 1094.07 459.864 1094.57 460.53L1114.05 485.002Z" fill="white"/>
<path d="M1139.43 461.69V485.002H1135.35V461.69L1114.4 428.421H1118C1118.37 428.421 1118.68 428.514 1118.92 428.701C1119.16 428.861 1119.36 429.101 1119.52 429.421L1135.71 455.412C1136.06 456.025 1136.38 456.625 1136.67 457.211C1136.97 457.771 1137.22 458.331 1137.43 458.891C1137.65 458.331 1137.89 457.771 1138.15 457.211C1138.42 456.625 1138.73 456.025 1139.07 455.412L1155.27 429.421C1155.4 429.128 1155.59 428.888 1155.83 428.701C1156.09 428.514 1156.41 428.421 1156.79 428.421H1160.38L1139.43 461.69Z" fill="white"/>
<path d="M1180.42 466.129C1180.42 469.301 1180.04 472.1 1179.26 474.526C1178.49 476.952 1177.37 478.991 1175.9 480.644C1174.44 482.296 1172.66 483.549 1170.59 484.402C1168.51 485.229 1166.16 485.642 1163.55 485.642C1162.35 485.642 1161.14 485.549 1159.91 485.362C1158.68 485.175 1157.42 484.882 1156.11 484.482C1156.14 484.109 1156.16 483.736 1156.19 483.363C1156.24 482.99 1156.3 482.616 1156.35 482.243C1156.4 482.003 1156.5 481.79 1156.63 481.603C1156.79 481.417 1157.06 481.323 1157.43 481.323C1157.67 481.323 1157.95 481.377 1158.27 481.483C1158.62 481.563 1159.02 481.657 1159.47 481.763C1159.92 481.87 1160.46 481.977 1161.07 482.083C1161.68 482.163 1162.39 482.203 1163.19 482.203C1165.21 482.203 1167.04 481.883 1168.67 481.243C1170.29 480.604 1171.68 479.631 1172.82 478.324C1173.97 476.992 1174.84 475.325 1175.42 473.326C1176.04 471.3 1176.34 468.928 1176.34 466.208V428.421H1180.42V466.129Z" fill="white"/>
<path d="M1240.21 428.421V485.002H1238.29C1237.94 485.002 1237.65 484.949 1237.41 484.842C1237.19 484.709 1236.98 484.496 1236.77 484.202L1200.02 435.099C1200.1 435.899 1200.14 436.658 1200.14 437.378V485.002H1196.54V428.421H1198.58C1198.95 428.421 1199.23 428.474 1199.42 428.581C1199.63 428.661 1199.86 428.861 1200.1 429.181L1236.77 478.164C1236.69 477.365 1236.65 476.605 1236.65 475.885V428.421H1240.21Z" fill="white"/>
<path d="M1274.39 461.69V485.002H1270.31V461.69L1249.35 428.421H1252.95C1253.33 428.421 1253.63 428.514 1253.87 428.701C1254.11 428.861 1254.31 429.101 1254.47 429.421L1270.67 455.412C1271.01 456.025 1271.33 456.625 1271.63 457.211C1271.92 457.771 1272.17 458.331 1272.39 458.891C1272.6 458.331 1272.84 457.771 1273.11 457.211C1273.37 456.625 1273.68 456.025 1274.03 455.412L1290.22 429.421C1290.35 429.128 1290.54 428.888 1290.78 428.701C1291.05 428.514 1291.37 428.421 1291.74 428.421H1295.34L1274.39 461.69Z" fill="white"/>
</svg>
