<svg width="656" height="1064" viewBox="0 0 656 1064" fill="none" xmlns="http://www.w3.org/2000/svg">
<path fill-rule="evenodd" clip-rule="evenodd" d="M328.159 538.597C476.689 538.597 597.096 418.19 597.096 269.66C597.096 121.13 476.689 0.723145 328.159 0.723145C179.63 0.723145 59.2227 121.13 59.2227 269.66C59.2227 418.19 179.63 538.597 328.159 538.597ZM328.159 508.187C459.894 508.187 566.686 401.395 566.686 269.66C566.686 137.925 459.894 31.1332 328.159 31.1332C196.425 31.1332 89.6328 137.925 89.6328 269.66C89.6328 401.395 196.425 508.187 328.159 508.187Z" fill="#005826"/>
<path d="M587.863 328.06V211.259H387.553L387.553 14.2963L268.767 14.2963L268.767 211.259H68.4559V328.06H268.767L268.767 525.024H387.553L387.553 328.06H587.863Z" fill="#005826"/>
<path d="M440.1 373.193C439.335 418.998 414.315 435.571 387.76 434.035C361.203 432.506 342.732 420.493 323.871 420.493L323.098 420.914C304.237 420.914 285.767 433.348 259.211 434.877C232.654 436.406 207.636 420.669 206.871 374.865C208.41 332.811 241.249 329.719 269.22 280.04C293.849 236.294 323.1 239.835 323.1 239.835H323.871C323.871 239.835 353.374 236.484 377.752 280.04C405.589 329.786 438.56 331.138 440.1 373.193ZM275.674 220.963C299.196 219.222 316.239 191.725 313.738 159.545C311.237 127.365 290.14 102.688 266.617 104.428C243.095 106.169 226.053 133.666 228.554 165.846C231.055 198.026 252.151 222.703 275.674 220.963ZM364.828 221.521C387.815 227.635 413.573 207.099 422.359 175.654C431.144 144.208 419.632 113.76 396.646 107.647C373.659 101.534 347.901 122.07 339.115 153.515C330.33 184.96 341.841 215.408 364.828 221.521ZM471.325 196.344C451.308 191.02 428.877 208.902 421.226 236.286C413.576 263.669 423.601 290.183 443.618 295.506C463.636 300.83 486.066 282.948 493.718 255.564C501.369 228.182 491.344 201.667 471.325 196.344ZM235.092 236.283C227.441 208.901 205.011 191.018 184.993 196.342C164.975 201.665 154.95 228.18 162.601 255.563C170.252 282.945 192.683 300.828 212.701 295.504C232.718 290.182 242.743 263.667 235.092 236.283Z" fill="#D7D6D6"/>
<path d="M74.6241 843.97C74.0761 845.005 73.2847 845.523 72.2497 845.523C71.4582 845.523 70.4232 844.975 69.1447 843.879C67.927 842.722 66.2527 841.474 64.1219 840.135C61.991 838.734 59.3121 837.456 56.0854 836.299C52.9195 835.142 48.9925 834.564 44.3046 834.564C39.6166 834.564 35.4766 835.234 31.8846 836.573C28.3534 837.912 25.3701 839.739 22.9348 842.052C20.5604 844.366 18.7339 847.045 17.4554 850.089C16.2377 853.133 15.6289 856.329 15.6289 859.678C15.6289 864.061 16.5422 867.684 18.3686 870.545C20.256 873.407 22.7217 875.842 25.7659 877.851C28.81 879.86 32.2498 881.565 36.0854 882.965C39.9819 884.305 43.9697 885.644 48.0489 886.984C52.128 888.323 56.0854 889.815 59.921 891.459C63.8174 893.041 67.2877 895.051 70.3319 897.486C73.376 899.921 75.8113 902.935 77.6378 906.527C79.5251 910.058 80.4688 914.472 80.4688 919.769C80.4688 925.187 79.5251 930.302 77.6378 935.111C75.8113 939.86 73.1325 944 69.6013 947.531C66.0701 951.063 61.7474 953.863 56.6333 955.933C51.5192 957.942 45.6744 958.947 39.0991 958.947C30.5756 958.947 23.2392 957.455 17.0901 954.472C10.941 951.428 5.55285 947.288 0.925781 942.052L3.48285 938.034C4.21344 937.12 5.06579 936.664 6.03991 936.664C6.58786 936.664 7.28801 937.029 8.14036 937.76C8.99272 938.49 10.0277 939.404 11.2454 940.499C12.463 941.534 13.9242 942.691 15.6289 943.97C17.3336 945.187 19.3123 946.344 21.565 947.44C23.8176 948.475 26.4051 949.358 29.3275 950.088C32.2498 950.819 35.5679 951.184 39.2818 951.184C44.3959 951.184 48.9621 950.423 52.9804 948.901C56.9986 947.318 60.3776 945.187 63.1173 942.509C65.9179 939.83 68.0488 936.664 69.51 933.011C70.9711 929.297 71.7017 925.34 71.7017 921.139C71.7017 916.573 70.7581 912.828 68.8707 909.906C67.0442 906.923 64.6089 904.457 61.5648 902.509C58.5207 900.5 55.0504 898.825 51.1539 897.486C47.3183 896.146 43.3609 894.838 39.2818 893.559C35.2026 892.28 31.2148 890.85 27.3184 889.267C23.4828 887.684 20.0429 885.675 16.9988 883.239C13.9546 880.743 11.4889 877.669 9.60154 874.016C7.77507 870.302 6.86183 865.675 6.86183 860.134C6.86183 855.812 7.68374 851.641 9.32757 847.623C10.9714 843.605 13.3763 840.074 16.5422 837.03C19.708 833.925 23.6045 831.459 28.2316 829.632C32.9196 827.745 38.2468 826.801 44.2133 826.801C50.9103 826.801 56.9073 827.867 62.2041 829.998C67.5617 832.128 72.4323 835.386 76.8159 839.769L74.6241 843.97Z" fill="black"/>
<path d="M192.643 831.459C192.643 832.616 192.217 833.864 191.364 835.203L109.356 949.723H192.004V957.486H96.8443V954.107C96.8443 953.437 96.9356 952.859 97.1183 952.372C97.3618 951.824 97.6358 951.306 97.9402 950.819L180.132 836.025H99.2187V828.262H192.643V831.459Z" fill="black"/>
<path d="M252.215 897.943C257.877 897.943 262.96 897.151 267.466 895.568C271.971 893.985 275.776 891.793 278.881 888.993C282.047 886.192 284.452 882.905 286.096 879.13C287.8 875.294 288.653 871.124 288.653 866.618C288.653 856.695 285.609 849.054 279.52 843.696C273.432 838.339 264.33 835.66 252.215 835.66H228.196V897.943H252.215ZM252.215 828.262C267.374 828.262 278.79 831.581 286.461 838.217C294.193 844.853 298.059 854.32 298.059 866.618C298.059 872.281 296.994 877.486 294.863 882.235C292.732 886.984 289.688 891.093 285.73 894.564C281.773 897.973 276.963 900.652 271.301 902.6C265.639 904.487 259.277 905.431 252.215 905.431H228.196V957.486H218.79V828.262H252.215Z" fill="black"/>
<path d="M333.79 957.486H324.383V828.262H333.79V957.486Z" fill="black"/>
<path d="M456.025 836.208H410.637V957.486H401.231V836.208H355.569V828.262H456.025V836.208Z" fill="black"/>
<path d="M534.795 910.545L508.493 845.249C507.58 843.118 506.697 840.561 505.845 837.577C505.48 839.039 505.084 840.439 504.658 841.778C504.232 843.057 503.775 844.244 503.288 845.34L476.987 910.545H534.795ZM563.379 957.486H556.165C555.312 957.486 554.612 957.273 554.064 956.846C553.516 956.359 553.09 955.75 552.786 955.02L537.626 917.486H474.156L458.996 955.02C458.752 955.69 458.326 956.268 457.717 956.755C457.109 957.242 456.378 957.486 455.526 957.486H448.402L501.279 828.262H510.503L563.379 957.486Z" fill="black"/>
<path d="M655.392 949.54V957.486H584.799V828.262H594.205V949.54H655.392Z" fill="black"/>
<path d="M98.9841 726.996V767.359C93.3136 771.371 87.2685 774.447 80.849 776.587C74.4294 778.727 67.2075 779.797 59.183 779.797C50.1957 779.797 42.1178 778.433 34.9493 775.704C27.7808 772.922 21.6555 769.017 16.5734 763.989C11.5448 758.906 7.66629 752.781 4.93799 745.613C2.26318 738.444 0.925781 730.473 0.925781 721.7C0.925781 712.927 2.23644 704.982 4.85774 697.867C7.53255 690.699 11.3308 684.6 16.2524 679.572C21.2276 674.49 27.2191 670.584 34.2271 667.856C41.2351 665.074 49.1258 663.683 57.8991 663.683C62.2323 663.683 66.2178 663.978 69.8555 664.566C73.5467 665.155 76.9705 666.037 80.1268 667.214C83.283 668.338 86.2253 669.755 88.9536 671.467C91.6819 673.125 94.3032 675.051 96.8175 677.245L94.5707 680.775C93.8218 682.059 92.6984 682.354 91.2005 681.658C90.398 681.337 89.2478 680.588 87.75 679.411C86.2521 678.234 84.1925 677.004 81.5712 675.72C78.9499 674.436 75.6866 673.286 71.7814 672.27C67.9297 671.253 63.222 670.745 57.6584 670.745C50.2759 670.745 43.5889 671.922 37.5974 674.276C31.6593 676.629 26.5772 680 22.351 684.386C18.1783 688.773 14.9418 694.123 12.6414 700.435C10.3946 706.748 9.27117 713.836 9.27117 721.7C9.27117 729.671 10.3946 736.839 12.6414 743.205C14.9418 749.571 18.2318 754.974 22.5115 759.415C26.8446 763.855 32.0873 767.252 38.2393 769.606C44.3914 771.96 51.3191 773.136 59.0225 773.136C62.3928 773.136 65.4956 772.922 68.3309 772.494C71.2197 772.067 73.948 771.478 76.5158 770.729C79.1371 769.927 81.6514 768.964 84.0587 767.84C86.5195 766.663 89.0071 765.353 91.5214 763.908V733.335H69.7753C69.1868 733.335 68.6786 733.148 68.2506 732.774C67.8762 732.399 67.6889 731.971 67.6889 731.49V726.996H98.9841Z" fill="black"/>
<path d="M221.975 721.7C221.975 730.473 220.664 738.364 218.043 745.372C215.421 752.38 211.73 758.345 206.969 763.266C202.208 768.188 196.484 771.96 189.797 774.581C183.163 777.202 175.834 778.513 167.81 778.513H126.324V664.967H167.81C175.834 664.967 183.163 666.278 189.797 668.899C196.484 671.521 202.208 675.292 206.969 680.214C211.73 685.135 215.421 691.1 218.043 698.108C220.664 705.116 221.975 712.98 221.975 721.7ZM213.469 721.7C213.469 713.782 212.372 706.721 210.179 700.515C207.985 694.31 204.883 689.067 200.87 684.788C196.858 680.508 192.044 677.245 186.426 674.998C180.809 672.751 174.604 671.628 167.81 671.628H134.589V771.853H167.81C174.604 771.853 180.809 770.729 186.426 768.482C192.044 766.235 196.858 762.972 200.87 758.692C204.883 754.413 207.985 749.17 210.179 742.965C212.372 736.759 213.469 729.671 213.469 721.7Z" fill="black"/>
<path d="M277.838 731.73V778.513H269.653V731.73L227.605 664.967H234.827C235.576 664.967 236.192 665.155 236.673 665.529C237.155 665.85 237.556 666.331 237.877 666.973L270.376 719.132C271.071 720.363 271.713 721.566 272.301 722.743C272.89 723.867 273.398 724.99 273.826 726.113C274.254 724.99 274.736 723.867 275.271 722.743C275.805 721.566 276.421 720.363 277.116 719.132L309.615 666.973C309.882 666.385 310.257 665.903 310.738 665.529C311.273 665.155 311.915 664.967 312.664 664.967H319.886L277.838 731.73Z" fill="black"/>
<path d="M425.845 664.967V778.513H421.993C421.298 778.513 420.709 778.406 420.228 778.192C419.8 777.924 419.372 777.496 418.944 776.908L345.2 678.368C345.36 679.973 345.44 681.498 345.44 682.942V778.513H338.218V664.967H342.311C343.06 664.967 343.621 665.074 343.996 665.288C344.424 665.449 344.879 665.85 345.36 666.492L418.944 764.791C418.783 763.186 418.703 761.662 418.703 760.217V664.967H425.845ZM410.037 630.864L383.717 653.894C383.235 654.322 382.754 654.589 382.272 654.696C381.791 654.803 381.229 654.857 380.587 654.857H375.371L396.074 632.629C396.716 631.88 397.358 631.398 398 631.184C398.696 630.971 399.685 630.864 400.969 630.864H410.037Z" fill="black"/>
<path d="M514.496 678.769C514.014 679.679 513.319 680.133 512.41 680.133C511.714 680.133 510.805 679.652 509.681 678.689C508.611 677.673 507.14 676.576 505.268 675.399C503.395 674.169 501.042 673.045 498.206 672.029C495.425 671.012 491.974 670.504 487.855 670.504C483.736 670.504 480.098 671.093 476.942 672.27C473.839 673.446 471.218 675.051 469.078 677.084C466.991 679.117 465.386 681.471 464.263 684.146C463.193 686.82 462.658 689.629 462.658 692.571C462.658 696.423 463.461 699.606 465.065 702.12C466.724 704.635 468.89 706.775 471.565 708.54C474.24 710.305 477.263 711.803 480.633 713.034C484.057 714.21 487.561 715.387 491.145 716.564C494.729 717.741 498.206 719.052 501.577 720.496C505 721.887 508.05 723.653 510.724 725.792C513.399 727.932 515.539 730.58 517.144 733.737C518.802 736.839 519.632 740.718 519.632 745.372C519.632 750.133 518.802 754.627 517.144 758.853C515.539 763.026 513.185 766.663 510.082 769.766C506.98 772.869 503.181 775.33 498.688 777.149C494.194 778.914 489.058 779.797 483.281 779.797C475.791 779.797 469.345 778.486 463.942 775.865C458.539 773.19 453.805 769.552 449.739 764.952L451.986 761.421C452.628 760.618 453.377 760.217 454.233 760.217C454.714 760.217 455.329 760.538 456.078 761.18C456.827 761.822 457.737 762.624 458.806 763.587C459.876 764.497 461.16 765.513 462.658 766.637C464.156 767.707 465.895 768.723 467.874 769.686C469.853 770.595 472.127 771.371 474.695 772.013C477.263 772.655 480.178 772.976 483.441 772.976C487.935 772.976 491.947 772.307 495.478 770.97C499.009 769.579 501.978 767.707 504.385 765.353C506.846 762.999 508.718 760.217 510.002 757.007C511.286 753.744 511.928 750.267 511.928 746.576C511.928 742.563 511.099 739.273 509.44 736.706C507.836 734.084 505.696 731.918 503.021 730.206C500.346 728.44 497.297 726.969 493.873 725.792C490.503 724.615 487.026 723.465 483.441 722.342C479.857 721.218 476.353 719.961 472.929 718.57C469.559 717.179 466.537 715.414 463.862 713.274C461.187 711.081 459.02 708.379 457.362 705.17C455.757 701.906 454.955 697.841 454.955 692.973C454.955 689.174 455.677 685.51 457.121 681.979C458.566 678.448 460.679 675.346 463.461 672.671C466.242 669.942 469.666 667.776 473.732 666.171C477.851 664.513 482.532 663.683 487.775 663.683C493.659 663.683 498.929 664.62 503.583 666.492C508.29 668.364 512.57 671.226 516.422 675.078L514.496 678.769Z" fill="black"/>
<path d="M553.52 717.367H560.26C561.277 717.367 562.159 717.34 562.908 717.286C563.657 717.179 564.326 717.019 564.914 716.805C565.556 716.591 566.118 716.297 566.599 715.922C567.134 715.494 567.696 714.986 568.285 714.398L614.104 667.294C614.906 666.385 615.682 665.77 616.431 665.449C617.233 665.128 618.17 664.967 619.24 664.967H625.82L576.229 715.922C575.212 716.992 574.303 717.821 573.5 718.41C572.751 718.998 571.896 719.48 570.933 719.854C572.056 720.175 573.072 720.683 573.982 721.379C574.891 722.021 575.801 722.877 576.71 723.947L628.949 778.513H622.289C620.898 778.513 619.881 778.352 619.24 778.031C618.651 777.657 618.063 777.095 617.474 776.346L569.488 727.237C568.9 726.648 568.338 726.14 567.803 725.712C567.322 725.284 566.76 724.936 566.118 724.669C565.529 724.348 564.807 724.134 563.951 724.027C563.149 723.867 562.106 723.786 560.822 723.786H553.52V778.513H545.254V664.967H553.52V717.367Z" fill="black"/>
<path d="M655.392 778.513H647.127V664.967H655.392V778.513Z" fill="black"/>
<path d="M78.4598 1005.95L60.6658 1062.53H56.987L40.2726 1013.43C40.0593 1012.76 39.8727 1012.07 39.7128 1011.35C39.5528 1012.07 39.3662 1012.76 39.153 1013.43L22.3986 1062.53H18.7598L0.925781 1005.95H4.32464C5.09772 1005.95 5.59089 1006.31 5.80415 1007.03L20.0794 1053.54C20.3726 1054.6 20.6392 1055.81 20.8791 1057.17C21.0124 1056.48 21.1457 1055.84 21.279 1055.25C21.4123 1054.64 21.5722 1054.07 21.7588 1053.54L37.7534 1007.03C37.8601 1006.74 38.0467 1006.48 38.3133 1006.27C38.5798 1006.06 38.8997 1005.95 39.2729 1005.95H40.3926C40.7658 1005.95 41.0723 1006.06 41.3123 1006.27C41.5522 1006.46 41.7388 1006.71 41.8721 1007.03L57.8667 1053.54C58.0533 1054.04 58.2133 1054.6 58.3465 1055.21C58.5065 1055.83 58.6531 1056.47 58.7864 1057.13C58.9197 1056.47 59.0396 1055.84 59.1463 1055.25C59.2796 1054.64 59.4129 1054.07 59.5461 1053.54L73.8214 1007.03C73.9013 1006.74 74.0746 1006.48 74.3412 1006.27C74.6344 1006.06 74.9676 1005.95 75.3408 1005.95H78.4598Z" fill="black"/>
<path d="M122.693 1059.13L122.613 1062.53H88.7045V1005.95H122.613V1009.35H92.8231V1032.22H117.615V1035.54H92.8231V1059.13H122.693Z" fill="black"/>
<path d="M171.883 1009.43H152.01V1062.53H147.891V1009.43H127.898V1005.95H171.883V1009.43Z" fill="black"/>
<path d="M215.396 1059.13L215.316 1062.53H181.408V1005.95H215.316V1009.35H185.526V1032.22H210.318V1035.54H185.526V1059.13H215.396Z" fill="black"/>
<path d="M241.714 1033.9C244.22 1033.9 246.459 1033.61 248.432 1033.02C250.431 1032.41 252.11 1031.54 253.47 1030.42C254.856 1029.3 255.909 1027.96 256.629 1026.38C257.349 1024.81 257.708 1023.04 257.708 1021.07C257.708 1017.04 256.389 1014.06 253.75 1012.11C251.137 1010.16 247.312 1009.19 242.274 1009.19H231.917V1033.9H241.714ZM266.825 1062.53H263.307C262.853 1062.53 262.467 1062.47 262.147 1062.33C261.854 1062.17 261.574 1061.89 261.307 1061.49L243.153 1038.54C242.94 1038.25 242.714 1037.99 242.474 1037.78C242.26 1037.57 242.007 1037.41 241.714 1037.3C241.447 1037.17 241.114 1037.07 240.714 1037.02C240.341 1036.97 239.874 1036.94 239.315 1036.94H231.917V1062.53H227.799V1005.95H242.274C248.778 1005.95 253.643 1007.22 256.869 1009.75C260.121 1012.26 261.747 1015.95 261.747 1020.83C261.747 1022.99 261.374 1024.96 260.628 1026.74C259.881 1028.53 258.801 1030.1 257.389 1031.46C256.002 1032.8 254.31 1033.89 252.31 1034.74C250.338 1035.59 248.112 1036.17 245.633 1036.46C246.272 1036.86 246.845 1037.39 247.352 1038.06L266.825 1062.53Z" fill="black"/>
<path d="M292.21 1039.22V1062.53H288.131V1039.22L267.178 1005.95H270.777C271.15 1005.95 271.457 1006.04 271.697 1006.23C271.937 1006.39 272.137 1006.63 272.297 1006.95L288.491 1032.94C288.838 1033.56 289.158 1034.16 289.451 1034.74C289.744 1035.3 289.997 1035.86 290.211 1036.42C290.424 1035.86 290.664 1035.3 290.93 1034.74C291.197 1034.16 291.504 1033.56 291.85 1032.94L308.045 1006.95C308.178 1006.66 308.365 1006.42 308.605 1006.23C308.871 1006.04 309.191 1005.95 309.564 1005.95H313.163L292.21 1039.22Z" fill="black"/>
<path d="M365.963 1005.95V1062.53H364.044C363.698 1062.53 363.404 1062.48 363.164 1062.37C362.951 1062.24 362.738 1062.03 362.525 1061.73L325.777 1012.63C325.857 1013.43 325.897 1014.19 325.897 1014.91V1062.53H322.298V1005.95H324.337C324.711 1005.95 324.991 1006 325.177 1006.11C325.39 1006.19 325.617 1006.39 325.857 1006.71L362.525 1055.69C362.445 1054.89 362.405 1054.14 362.405 1053.42V1005.95H365.963Z" fill="black"/>
<path d="M413.178 1041.98L401.662 1013.39C401.262 1012.46 400.876 1011.34 400.503 1010.03C400.343 1010.67 400.169 1011.28 399.983 1011.87C399.796 1012.43 399.596 1012.95 399.383 1013.43L387.867 1041.98H413.178ZM425.694 1062.53H422.535C422.162 1062.53 421.855 1062.44 421.615 1062.25C421.376 1062.04 421.189 1061.77 421.056 1061.45L414.418 1045.02H386.627L379.989 1061.45C379.883 1061.75 379.696 1062 379.43 1062.21C379.163 1062.43 378.843 1062.53 378.47 1062.53H375.351L398.503 1005.95H402.542L425.694 1062.53Z" fill="black"/>
<path d="M448.988 1033.9C451.494 1033.9 453.733 1033.61 455.706 1033.02C457.705 1032.41 459.385 1031.54 460.744 1030.42C462.13 1029.3 463.183 1027.96 463.903 1026.38C464.623 1024.81 464.983 1023.04 464.983 1021.07C464.983 1017.04 463.663 1014.06 461.024 1012.11C458.412 1010.16 454.586 1009.19 449.548 1009.19H439.191V1033.9H448.988ZM474.1 1062.53H470.581C470.128 1062.53 469.741 1062.47 469.421 1062.33C469.128 1062.17 468.848 1061.89 468.582 1061.49L450.428 1038.54C450.214 1038.25 449.988 1037.99 449.748 1037.78C449.535 1037.57 449.281 1037.41 448.988 1037.3C448.722 1037.17 448.388 1037.07 447.988 1037.02C447.615 1036.97 447.149 1036.94 446.589 1036.94H439.191V1062.53H435.073V1005.95H449.548C456.052 1005.95 460.917 1007.22 464.143 1009.75C467.395 1012.26 469.021 1015.95 469.021 1020.83C469.021 1022.99 468.648 1024.96 467.902 1026.74C467.155 1028.53 466.076 1030.1 464.663 1031.46C463.277 1032.8 461.584 1033.89 459.585 1034.74C457.612 1035.59 455.386 1036.17 452.907 1036.46C453.547 1036.86 454.12 1037.39 454.626 1038.06L474.1 1062.53Z" fill="black"/>
<path d="M499.484 1039.22V1062.53H495.406V1039.22L474.453 1005.95H478.052C478.425 1005.95 478.731 1006.04 478.971 1006.23C479.211 1006.39 479.411 1006.63 479.571 1006.95L495.766 1032.94C496.112 1033.56 496.432 1034.16 496.725 1034.74C497.018 1035.3 497.272 1035.86 497.485 1036.42C497.698 1035.86 497.938 1035.3 498.205 1034.74C498.471 1034.16 498.778 1033.56 499.124 1032.94L515.319 1006.95C515.452 1006.66 515.639 1006.42 515.879 1006.23C516.145 1006.04 516.465 1005.95 516.839 1005.95H520.437L499.484 1039.22Z" fill="black"/>
<path d="M540.475 1043.66C540.475 1046.83 540.088 1049.63 539.315 1052.06C538.542 1054.48 537.423 1056.52 535.956 1058.17C534.49 1059.83 532.718 1061.08 530.638 1061.93C528.559 1062.76 526.213 1063.17 523.601 1063.17C522.401 1063.17 521.188 1063.08 519.962 1062.89C518.736 1062.71 517.469 1062.41 516.163 1062.01C516.19 1061.64 516.216 1061.27 516.243 1060.89C516.296 1060.52 516.35 1060.15 516.403 1059.77C516.456 1059.53 516.55 1059.32 516.683 1059.13C516.843 1058.95 517.109 1058.85 517.483 1058.85C517.723 1058.85 518.003 1058.91 518.322 1059.01C518.669 1059.09 519.069 1059.19 519.522 1059.29C519.975 1059.4 520.508 1059.51 521.121 1059.61C521.735 1059.69 522.441 1059.73 523.241 1059.73C525.267 1059.73 527.093 1059.41 528.719 1058.77C530.345 1058.13 531.731 1057.16 532.878 1055.85C534.024 1054.52 534.89 1052.86 535.477 1050.86C536.09 1048.83 536.396 1046.46 536.396 1043.74V1005.95H540.475V1043.66Z" fill="black"/>
<path d="M600.26 1005.95V1062.53H598.341C597.994 1062.53 597.701 1062.48 597.461 1062.37C597.248 1062.24 597.034 1062.03 596.821 1061.73L560.073 1012.63C560.153 1013.43 560.193 1014.19 560.193 1014.91V1062.53H556.595V1005.95H558.634C559.007 1005.95 559.287 1006 559.474 1006.11C559.687 1006.19 559.913 1006.39 560.153 1006.71L596.821 1055.69C596.741 1054.89 596.701 1054.14 596.701 1053.42V1005.95H600.26Z" fill="black"/>
<path d="M634.439 1039.22V1062.53H630.361V1039.22L609.407 1005.95H613.006C613.38 1005.95 613.686 1006.04 613.926 1006.23C614.166 1006.39 614.366 1006.63 614.526 1006.95L630.72 1032.94C631.067 1033.56 631.387 1034.16 631.68 1034.74C631.973 1035.3 632.227 1035.86 632.44 1036.42C632.653 1035.86 632.893 1035.3 633.16 1034.74C633.426 1034.16 633.733 1033.56 634.079 1032.94L650.274 1006.95C650.407 1006.66 650.594 1006.42 650.834 1006.23C651.1 1006.04 651.42 1005.95 651.793 1005.95H655.392L634.439 1039.22Z" fill="black"/>
</svg>
