<svg width="1296" height="539" viewBox="0 0 1296 539" fill="none" xmlns="http://www.w3.org/2000/svg">
<path fill-rule="evenodd" clip-rule="evenodd" d="M268.937 538.508C417.466 538.508 537.874 418.101 537.874 269.571C537.874 121.041 417.466 0.634277 268.937 0.634277C120.407 0.634277 0 121.041 0 269.571C0 418.101 120.407 538.508 268.937 538.508ZM268.937 508.098C400.671 508.098 507.463 401.306 507.463 269.571C507.463 137.836 400.671 31.0444 268.937 31.0444C137.202 31.0444 30.4101 137.836 30.4101 269.571C30.4101 401.306 137.202 508.098 268.937 508.098Z" fill="#005826"/>
<path d="M528.64 327.971V211.171H328.33L328.33 14.2074L209.544 14.2074L209.544 211.171H9.23328V327.971H209.544L209.544 524.935H328.33L328.33 327.971H528.64Z" fill="#005826"/>
<path d="M380.877 373.104C380.112 418.909 355.093 435.482 328.537 433.946C301.98 432.417 283.51 420.404 264.649 420.404L263.876 420.825C245.015 420.825 226.545 433.259 199.988 434.788C173.431 436.317 148.413 420.58 147.648 374.776C149.187 332.722 182.027 329.63 209.998 279.951C234.627 236.206 263.877 239.746 263.877 239.746H264.649C264.649 239.746 294.152 236.396 318.529 279.951C346.366 329.698 379.338 331.049 380.877 373.104ZM216.451 220.874C239.974 219.134 257.016 191.637 254.515 159.456C252.014 127.276 230.917 102.599 207.395 104.34C183.872 106.08 166.83 133.577 169.331 165.757C171.832 197.937 192.928 222.614 216.451 220.874ZM305.605 221.433C328.592 227.546 354.351 207.01 363.136 175.565C371.921 144.119 360.409 113.672 337.423 107.558C314.436 101.445 288.678 121.981 279.893 153.426C271.107 184.871 282.618 215.319 305.605 221.433ZM412.103 196.255C392.085 190.931 369.654 208.813 362.003 236.197C354.353 263.581 364.378 290.094 384.395 295.418C404.413 300.741 426.844 282.859 434.495 255.475C442.146 228.093 432.121 201.579 412.103 196.255ZM175.87 236.195C168.218 208.812 145.789 190.929 125.771 196.253C105.753 201.576 95.727 228.091 103.378 255.474C111.03 282.856 133.46 300.739 153.478 295.415C173.495 290.093 183.52 263.578 175.87 236.195Z" fill="#D7D6D6"/>
<path d="M714.571 266.523C714.023 267.558 713.232 268.076 712.197 268.076C711.405 268.076 710.37 267.528 709.092 266.432C707.874 265.275 706.2 264.027 704.069 262.688C701.938 261.287 699.259 260.009 696.033 258.852C692.867 257.695 688.94 257.117 684.252 257.117C679.564 257.117 675.424 257.787 671.832 259.126C668.301 260.466 665.317 262.292 662.882 264.606C660.508 266.919 658.681 269.598 657.403 272.642C656.185 275.686 655.576 278.883 655.576 282.231C655.576 286.615 656.489 290.237 658.316 293.099C660.203 295.96 662.669 298.395 665.713 300.405C668.757 302.414 672.197 304.118 676.033 305.519C679.929 306.858 683.917 308.197 687.996 309.537C692.075 310.876 696.033 312.368 699.868 314.012C703.765 315.595 707.235 317.604 710.279 320.039C713.323 322.474 715.759 325.488 717.585 329.08C719.472 332.611 720.416 337.025 720.416 342.322C720.416 347.741 719.472 352.855 717.585 357.665C715.759 362.413 713.08 366.553 709.549 370.085C706.017 373.616 701.695 376.416 696.581 378.486C691.466 380.495 685.622 381.5 679.046 381.5C670.523 381.5 663.186 380.008 657.037 377.025C650.888 373.981 645.5 369.841 640.873 364.605L643.43 360.587C644.161 359.674 645.013 359.217 645.987 359.217C646.535 359.217 647.235 359.582 648.088 360.313C648.94 361.044 649.975 361.957 651.193 363.053C652.41 364.088 653.871 365.244 655.576 366.523C657.281 367.741 659.26 368.897 661.512 369.993C663.765 371.028 666.352 371.911 669.275 372.642C672.197 373.372 675.515 373.738 679.229 373.738C684.343 373.738 688.909 372.976 692.928 371.454C696.946 369.871 700.325 367.741 703.065 365.062C705.865 362.383 707.996 359.217 709.457 355.564C710.918 351.85 711.649 347.893 711.649 343.692C711.649 339.126 710.705 335.382 708.818 332.459C706.991 329.476 704.556 327.01 701.512 325.062C698.468 323.053 694.998 321.379 691.101 320.039C687.266 318.7 683.308 317.391 679.229 316.112C675.15 314.834 671.162 313.403 667.266 311.82C663.43 310.237 659.99 308.228 656.946 305.793C653.902 303.296 651.436 300.222 649.549 296.569C647.722 292.855 646.809 288.228 646.809 282.688C646.809 278.365 647.631 274.195 649.275 270.176C650.919 266.158 653.324 262.627 656.489 259.583C659.655 256.478 663.552 254.012 668.179 252.186C672.867 250.298 678.194 249.354 684.161 249.354C690.858 249.354 696.855 250.42 702.151 252.551C707.509 254.682 712.38 257.939 716.763 262.322L714.571 266.523Z" fill="black"/>
<path d="M832.59 254.012C832.59 255.169 832.164 256.417 831.312 257.756L749.303 372.276H831.951V380.039H736.792V376.66C736.792 375.99 736.883 375.412 737.066 374.925C737.309 374.377 737.583 373.859 737.887 373.372L820.079 258.578H739.166V250.816H832.59V254.012Z" fill="black"/>
<path d="M892.162 320.496C897.824 320.496 902.908 319.704 907.413 318.121C911.918 316.538 915.723 314.347 918.828 311.546C921.994 308.745 924.399 305.458 926.043 301.683C927.748 297.847 928.6 293.677 928.6 289.172C928.6 279.248 925.556 271.607 919.468 266.249C913.379 260.892 904.278 258.213 892.162 258.213H868.144V320.496H892.162ZM892.162 250.816C907.322 250.816 918.737 254.134 926.408 260.77C934.14 267.406 938.006 276.873 938.006 289.172C938.006 294.834 936.941 300.039 934.81 304.788C932.679 309.537 929.635 313.646 925.678 317.117C921.72 320.526 916.911 323.205 911.249 325.153C905.587 327.041 899.224 327.984 892.162 327.984H868.144V380.039H858.737V250.816H892.162Z" fill="black"/>
<path d="M973.737 380.039H964.331V250.816H973.737V380.039Z" fill="black"/>
<path d="M1095.97 258.761H1050.58V380.039H1041.18V258.761H995.516V250.816H1095.97V258.761Z" fill="black"/>
<path d="M1174.74 333.098L1148.44 267.802C1147.53 265.671 1146.64 263.114 1145.79 260.131C1145.43 261.592 1145.03 262.992 1144.61 264.332C1144.18 265.61 1143.72 266.797 1143.24 267.893L1116.93 333.098H1174.74ZM1203.33 380.039H1196.11C1195.26 380.039 1194.56 379.826 1194.01 379.4C1193.46 378.913 1193.04 378.304 1192.73 377.573L1177.57 340.039H1114.1L1098.94 377.573C1098.7 378.243 1098.27 378.821 1097.66 379.308C1097.06 379.795 1096.33 380.039 1095.47 380.039H1088.35L1141.23 250.816H1150.45L1203.33 380.039Z" fill="black"/>
<path d="M1295.34 372.094V380.039H1224.75V250.816H1234.15V372.094H1295.34Z" fill="black"/>
<path d="M738.931 149.549V189.912C733.261 193.924 727.216 197 720.796 199.14C714.377 201.28 707.155 202.35 699.13 202.35C690.143 202.35 682.065 200.986 674.897 198.257C667.728 195.476 661.603 191.57 656.521 186.542C651.492 181.46 647.614 175.334 644.885 168.166C642.21 160.997 640.873 153.027 640.873 144.253C640.873 135.48 642.184 127.536 644.805 120.421C647.48 113.252 651.278 107.154 656.2 102.125C661.175 97.0428 667.166 93.1376 674.174 90.4093C681.182 87.6275 689.073 86.2366 697.846 86.2366C702.18 86.2366 706.165 86.5308 709.803 87.1193C713.494 87.7078 716.918 88.5904 720.074 89.7673C723.23 90.8908 726.173 92.3084 728.901 94.0203C731.629 95.6787 734.25 97.6045 736.765 99.7979L734.518 103.329C733.769 104.613 732.646 104.907 731.148 104.211C730.345 103.89 729.195 103.141 727.697 101.964C726.199 100.788 724.14 99.5571 721.518 98.2732C718.897 96.9893 715.634 95.8392 711.729 94.8227C707.877 93.8063 703.169 93.2981 697.606 93.2981C690.223 93.2981 683.536 94.475 677.545 96.8288C671.607 99.1827 666.524 102.553 662.298 106.94C658.126 111.326 654.889 116.676 652.589 122.988C650.342 129.301 649.218 136.389 649.218 144.253C649.218 152.224 650.342 159.393 652.589 165.759C654.889 172.125 658.179 177.528 662.459 181.968C666.792 186.408 672.035 189.805 678.187 192.159C684.339 194.513 691.266 195.69 698.97 195.69C702.34 195.69 705.443 195.476 708.278 195.048C711.167 194.62 713.895 194.031 716.463 193.282C719.084 192.48 721.599 191.517 724.006 190.394C726.467 189.217 728.954 187.906 731.469 186.462V155.889H709.723C709.134 155.889 708.626 155.701 708.198 155.327C707.823 154.952 707.636 154.524 707.636 154.043V149.549H738.931Z" fill="black"/>
<path d="M861.922 144.253C861.922 153.027 860.611 160.917 857.99 167.925C855.369 174.933 851.677 180.898 846.916 185.82C842.155 190.741 836.431 194.513 829.744 197.134C823.11 199.755 815.781 201.066 807.757 201.066H766.271V87.5205H807.757C815.781 87.5205 823.11 88.8312 829.744 91.4525C836.431 94.0738 842.155 97.8453 846.916 102.767C851.677 107.689 855.369 113.653 857.99 120.661C860.611 127.669 861.922 135.533 861.922 144.253ZM853.416 144.253C853.416 136.336 852.319 129.274 850.126 123.069C847.933 116.863 844.83 111.621 840.818 107.341C836.805 103.061 831.991 99.7979 826.374 97.551C820.757 95.3042 814.551 94.1808 807.757 94.1808H774.536V194.406H807.757C814.551 194.406 820.757 193.282 826.374 191.035C831.991 188.789 836.805 185.525 840.818 181.246C844.83 176.966 847.933 171.723 850.126 165.518C852.319 159.312 853.416 152.224 853.416 144.253Z" fill="black"/>
<path d="M917.786 154.284V201.066H909.601V154.284L867.553 87.5205H874.775C875.524 87.5205 876.139 87.7077 876.62 88.0822C877.102 88.4032 877.503 88.8847 877.824 89.5266L910.323 141.685C911.018 142.916 911.66 144.119 912.249 145.296C912.837 146.42 913.345 147.543 913.773 148.667C914.201 147.543 914.683 146.42 915.218 145.296C915.753 144.119 916.368 142.916 917.063 141.685L949.562 89.5266C949.83 88.9382 950.204 88.4567 950.686 88.0822C951.221 87.7077 951.863 87.5205 952.612 87.5205H959.834L917.786 154.284Z" fill="black"/>
<path d="M1065.79 87.5205V201.066H1061.94C1061.24 201.066 1060.66 200.959 1060.18 200.745C1059.75 200.478 1059.32 200.05 1058.89 199.461L985.147 100.921C985.307 102.526 985.388 104.051 985.388 105.495V201.066H978.166V87.5205H982.258C983.007 87.5205 983.569 87.6275 983.943 87.8415C984.371 88.002 984.826 88.4032 985.307 89.0452L1058.89 187.344C1058.73 185.739 1058.65 184.215 1058.65 182.77V87.5205H1065.79ZM1049.98 53.4167L1023.66 76.4468C1023.18 76.8748 1022.7 77.1423 1022.22 77.2493C1021.74 77.3562 1021.18 77.4097 1020.53 77.4097H1015.32L1036.02 55.1821C1036.66 54.4332 1037.31 53.9517 1037.95 53.7377C1038.64 53.5237 1039.63 53.4167 1040.92 53.4167H1049.98Z" fill="black"/>
<path d="M1154.44 101.323C1153.96 102.232 1153.27 102.687 1152.36 102.687C1151.66 102.687 1150.75 102.205 1149.63 101.242C1148.56 100.226 1147.09 99.1292 1145.22 97.9523C1143.34 96.7218 1140.99 95.5984 1138.15 94.582C1135.37 93.5656 1131.92 93.0574 1127.8 93.0574C1123.68 93.0574 1120.05 93.6458 1116.89 94.8227C1113.79 95.9996 1111.16 97.6045 1109.02 99.6374C1106.94 101.67 1105.33 104.024 1104.21 106.699C1103.14 109.374 1102.61 112.182 1102.61 115.125C1102.61 118.976 1103.41 122.159 1105.01 124.674C1106.67 127.188 1108.84 129.328 1111.51 131.093C1114.19 132.858 1117.21 134.356 1120.58 135.587C1124 136.764 1127.51 137.941 1131.09 139.118C1134.68 140.294 1138.15 141.605 1141.52 143.049C1144.95 144.44 1148 146.206 1150.67 148.346C1153.35 150.485 1155.49 153.133 1157.09 156.29C1158.75 159.393 1159.58 163.271 1159.58 167.925C1159.58 172.686 1158.75 177.18 1157.09 181.406C1155.49 185.579 1153.13 189.217 1150.03 192.319C1146.93 195.422 1143.13 197.883 1138.64 199.702C1134.14 201.467 1129.01 202.35 1123.23 202.35C1115.74 202.35 1109.29 201.039 1103.89 198.418C1098.49 195.743 1093.75 192.105 1089.69 187.505L1091.93 183.974C1092.57 183.172 1093.32 182.77 1094.18 182.77C1094.66 182.77 1095.28 183.091 1096.03 183.733C1096.77 184.375 1097.68 185.178 1098.75 186.141C1099.82 187.05 1101.11 188.066 1102.61 189.19C1104.1 190.26 1105.84 191.276 1107.82 192.239C1109.8 193.149 1112.07 193.924 1114.64 194.566C1117.21 195.208 1120.13 195.529 1123.39 195.529C1127.88 195.529 1131.89 194.86 1135.43 193.523C1138.96 192.132 1141.93 190.26 1144.33 187.906C1146.79 185.552 1148.67 182.77 1149.95 179.561C1151.23 176.297 1151.88 172.82 1151.88 169.129C1151.88 165.117 1151.05 161.827 1149.39 159.259C1147.78 156.637 1145.64 154.471 1142.97 152.759C1140.29 150.994 1137.24 149.523 1133.82 148.346C1130.45 147.169 1126.97 146.019 1123.39 144.895C1119.8 143.772 1116.3 142.515 1112.88 141.124C1109.51 139.733 1106.48 137.967 1103.81 135.827C1101.13 133.634 1098.97 130.933 1097.31 127.723C1095.7 124.46 1094.9 120.394 1094.9 115.526C1094.9 111.728 1095.62 108.063 1097.07 104.532C1098.51 101.002 1100.63 97.8988 1103.41 95.224C1106.19 92.4956 1109.61 90.3291 1113.68 88.7242C1117.8 87.0658 1122.48 86.2366 1127.72 86.2366C1133.61 86.2366 1138.88 87.1728 1143.53 89.0452C1148.24 90.9175 1152.52 93.7796 1156.37 97.6313L1154.44 101.323Z" fill="black"/>
<path d="M1193.47 139.92H1200.21C1201.22 139.92 1202.11 139.893 1202.86 139.84C1203.6 139.733 1204.27 139.572 1204.86 139.358C1205.5 139.144 1206.07 138.85 1206.55 138.476C1207.08 138.048 1207.64 137.539 1208.23 136.951L1254.05 89.8476C1254.85 88.9382 1255.63 88.323 1256.38 88.002C1257.18 87.681 1258.12 87.5205 1259.19 87.5205H1265.77L1216.18 138.476C1215.16 139.545 1214.25 140.375 1213.45 140.963C1212.7 141.552 1211.84 142.033 1210.88 142.408C1212 142.729 1213.02 143.237 1213.93 143.932C1214.84 144.574 1215.75 145.43 1216.66 146.5L1268.9 201.066H1262.24C1260.85 201.066 1259.83 200.906 1259.19 200.585C1258.6 200.21 1258.01 199.648 1257.42 198.899L1209.44 149.79C1208.85 149.202 1208.29 148.693 1207.75 148.265C1207.27 147.837 1206.71 147.49 1206.07 147.222C1205.48 146.901 1204.75 146.687 1203.9 146.58C1203.1 146.42 1202.05 146.339 1200.77 146.339H1193.47V201.066H1185.2V87.5205H1193.47V139.92Z" fill="black"/>
<path d="M1295.34 201.066H1287.07V87.5205H1295.34V201.066Z" fill="black"/>
<path d="M718.407 428.504L700.613 485.085H696.934L680.22 435.982C680.007 435.315 679.82 434.622 679.66 433.903C679.5 434.622 679.313 435.315 679.1 435.982L662.346 485.085H658.707L640.873 428.504H644.272C645.045 428.504 645.538 428.864 645.751 429.584L660.027 476.088C660.32 477.155 660.586 478.368 660.826 479.727C660.96 479.034 661.093 478.394 661.226 477.808C661.36 477.195 661.519 476.622 661.706 476.088L677.701 429.584C677.807 429.291 677.994 429.038 678.261 428.824C678.527 428.611 678.847 428.504 679.22 428.504H680.34C680.713 428.504 681.02 428.611 681.26 428.824C681.499 429.011 681.686 429.264 681.819 429.584L697.814 476.088C698.001 476.595 698.161 477.155 698.294 477.768C698.454 478.381 698.6 479.021 698.734 479.687C698.867 479.021 698.987 478.394 699.094 477.808C699.227 477.195 699.36 476.622 699.493 476.088L713.769 429.584C713.849 429.291 714.022 429.038 714.288 428.824C714.582 428.611 714.915 428.504 715.288 428.504H718.407Z" fill="black"/>
<path d="M762.64 481.687L762.56 485.085H728.652V428.504H762.56V431.903H732.77V454.776H757.562V458.094H732.77V481.687H762.64Z" fill="black"/>
<path d="M811.83 431.983H791.957V485.085H787.838V431.983H767.845V428.504H811.83V431.983Z" fill="black"/>
<path d="M855.344 481.687L855.264 485.085H821.355V428.504H855.264V431.903H825.474V454.776H850.265V458.094H825.474V481.687H855.344Z" fill="black"/>
<path d="M881.661 456.455C884.167 456.455 886.406 456.162 888.379 455.575C890.378 454.962 892.058 454.096 893.417 452.976C894.803 451.857 895.856 450.51 896.576 448.938C897.296 447.365 897.656 445.592 897.656 443.619C897.656 439.594 896.336 436.608 893.697 434.662C891.085 432.716 887.259 431.743 882.221 431.743H871.864V456.455H881.661ZM906.773 485.085H903.254C902.801 485.085 902.414 485.019 902.094 484.886C901.801 484.726 901.521 484.446 901.255 484.046L883.101 461.093C882.887 460.8 882.661 460.547 882.421 460.334C882.208 460.12 881.954 459.961 881.661 459.854C881.395 459.721 881.061 459.627 880.661 459.574C880.288 459.521 879.822 459.494 879.262 459.494H871.864V485.085H867.746V428.504H882.221C888.725 428.504 893.59 429.771 896.816 432.303C900.068 434.809 901.694 438.501 901.694 443.379C901.694 445.539 901.321 447.511 900.575 449.297C899.828 451.083 898.749 452.656 897.336 454.016C895.95 455.349 894.257 456.442 892.258 457.295C890.285 458.148 888.059 458.721 885.58 459.014C886.22 459.414 886.793 459.947 887.299 460.614L906.773 485.085Z" fill="black"/>
<path d="M932.157 461.773V485.085H928.079V461.773L907.126 428.504H910.724C911.098 428.504 911.404 428.598 911.644 428.784C911.884 428.944 912.084 429.184 912.244 429.504L928.439 455.495C928.785 456.108 929.105 456.708 929.398 457.295C929.691 457.855 929.945 458.414 930.158 458.974C930.371 458.414 930.611 457.855 930.878 457.295C931.144 456.708 931.451 456.108 931.797 455.495L947.992 429.504C948.125 429.211 948.312 428.971 948.552 428.784C948.818 428.598 949.138 428.504 949.511 428.504H953.11L932.157 461.773Z" fill="black"/>
<path d="M1005.91 428.504V485.085H1003.99C1003.64 485.085 1003.35 485.032 1003.11 484.925C1002.9 484.792 1002.69 484.579 1002.47 484.286L965.724 435.182C965.804 435.982 965.844 436.742 965.844 437.461V485.085H962.245V428.504H964.285C964.658 428.504 964.938 428.558 965.124 428.664C965.338 428.744 965.564 428.944 965.804 429.264L1002.47 478.248C1002.39 477.448 1002.35 476.688 1002.35 475.968V428.504H1005.91Z" fill="black"/>
<path d="M1053.13 464.532L1041.61 435.942C1041.21 435.009 1040.82 433.889 1040.45 432.583C1040.29 433.223 1040.12 433.836 1039.93 434.422C1039.74 434.982 1039.54 435.502 1039.33 435.982L1027.81 464.532H1053.13ZM1065.64 485.085H1062.48C1062.11 485.085 1061.8 484.992 1061.56 484.806C1061.32 484.592 1061.14 484.326 1061 484.006L1054.37 467.571H1026.57L1019.94 484.006C1019.83 484.299 1019.64 484.552 1019.38 484.766C1019.11 484.979 1018.79 485.085 1018.42 485.085H1015.3L1038.45 428.504H1042.49L1065.64 485.085Z" fill="black"/>
<path d="M1088.94 456.455C1091.44 456.455 1093.68 456.162 1095.65 455.575C1097.65 454.962 1099.33 454.096 1100.69 452.976C1102.08 451.857 1103.13 450.51 1103.85 448.938C1104.57 447.365 1104.93 445.592 1104.93 443.619C1104.93 439.594 1103.61 436.608 1100.97 434.662C1098.36 432.716 1094.53 431.743 1089.5 431.743H1079.14V456.455H1088.94ZM1114.05 485.085H1110.53C1110.07 485.085 1109.69 485.019 1109.37 484.886C1109.08 484.726 1108.8 484.446 1108.53 484.046L1090.37 461.093C1090.16 460.8 1089.94 460.547 1089.7 460.334C1089.48 460.12 1089.23 459.961 1088.94 459.854C1088.67 459.721 1088.34 459.627 1087.94 459.574C1087.56 459.521 1087.1 459.494 1086.54 459.494H1079.14V485.085H1075.02V428.504H1089.5C1096 428.504 1100.86 429.771 1104.09 432.303C1107.34 434.809 1108.97 438.501 1108.97 443.379C1108.97 445.539 1108.6 447.511 1107.85 449.297C1107.1 451.083 1106.02 452.656 1104.61 454.016C1103.22 455.349 1101.53 456.442 1099.53 457.295C1097.56 458.148 1095.33 458.721 1092.85 459.014C1093.49 459.414 1094.07 459.947 1094.57 460.614L1114.05 485.085Z" fill="black"/>
<path d="M1139.43 461.773V485.085H1135.35V461.773L1114.4 428.504H1118C1118.37 428.504 1118.68 428.598 1118.92 428.784C1119.16 428.944 1119.36 429.184 1119.52 429.504L1135.71 455.495C1136.06 456.108 1136.38 456.708 1136.67 457.295C1136.97 457.855 1137.22 458.414 1137.43 458.974C1137.65 458.414 1137.89 457.855 1138.15 457.295C1138.42 456.708 1138.73 456.108 1139.07 455.495L1155.27 429.504C1155.4 429.211 1155.59 428.971 1155.83 428.784C1156.09 428.598 1156.41 428.504 1156.79 428.504H1160.38L1139.43 461.773Z" fill="black"/>
<path d="M1180.42 466.212C1180.42 469.384 1180.04 472.183 1179.26 474.609C1178.49 477.035 1177.37 479.074 1175.9 480.727C1174.44 482.38 1172.66 483.633 1170.59 484.486C1168.51 485.312 1166.16 485.725 1163.55 485.725C1162.35 485.725 1161.14 485.632 1159.91 485.445C1158.68 485.259 1157.42 484.965 1156.11 484.566C1156.14 484.192 1156.16 483.819 1156.19 483.446C1156.24 483.073 1156.3 482.7 1156.35 482.326C1156.4 482.086 1156.5 481.873 1156.63 481.687C1156.79 481.5 1157.06 481.407 1157.43 481.407C1157.67 481.407 1157.95 481.46 1158.27 481.567C1158.62 481.647 1159.02 481.74 1159.47 481.847C1159.92 481.953 1160.46 482.06 1161.07 482.166C1161.68 482.246 1162.39 482.286 1163.19 482.286C1165.21 482.286 1167.04 481.966 1168.67 481.327C1170.29 480.687 1171.68 479.714 1172.82 478.408C1173.97 477.075 1174.84 475.409 1175.42 473.409C1176.04 471.383 1176.34 469.011 1176.34 466.292V428.504H1180.42V466.212Z" fill="black"/>
<path d="M1240.21 428.504V485.085H1238.29C1237.94 485.085 1237.65 485.032 1237.41 484.925C1237.19 484.792 1236.98 484.579 1236.77 484.286L1200.02 435.182C1200.1 435.982 1200.14 436.742 1200.14 437.461V485.085H1196.54V428.504H1198.58C1198.95 428.504 1199.23 428.558 1199.42 428.664C1199.63 428.744 1199.86 428.944 1200.1 429.264L1236.77 478.248C1236.69 477.448 1236.65 476.688 1236.65 475.968V428.504H1240.21Z" fill="black"/>
<path d="M1274.39 461.773V485.085H1270.31V461.773L1249.35 428.504H1252.95C1253.33 428.504 1253.63 428.598 1253.87 428.784C1254.11 428.944 1254.31 429.184 1254.47 429.504L1270.67 455.495C1271.01 456.108 1271.33 456.708 1271.63 457.295C1271.92 457.855 1272.17 458.414 1272.39 458.974C1272.6 458.414 1272.84 457.855 1273.11 457.295C1273.37 456.708 1273.68 456.108 1274.03 455.495L1290.22 429.504C1290.35 429.211 1290.54 428.971 1290.78 428.784C1291.05 428.598 1291.37 428.504 1291.74 428.504H1295.34L1274.39 461.773Z" fill="black"/>
</svg>
