<svg width="1296" height="539" viewBox="0 0 1296 539" fill="none" xmlns="http://www.w3.org/2000/svg">
<path fill-rule="evenodd" clip-rule="evenodd" d="M268.937 538.814C417.466 538.814 537.874 418.407 537.874 269.877C537.874 121.348 417.466 0.94043 268.937 0.94043C120.407 0.94043 0 121.348 0 269.877C0 418.407 120.407 538.814 268.937 538.814ZM268.937 508.404C400.671 508.404 507.463 401.612 507.463 269.877C507.463 138.143 400.671 31.3505 268.937 31.3505C137.202 31.3505 30.4101 138.143 30.4101 269.877C30.4101 401.612 137.202 508.404 268.937 508.404Z" fill="white"/>
<path d="M528.64 328.278V211.477H328.33L328.33 14.5136L209.544 14.5136L209.544 211.477H9.23328V328.278H209.544L209.544 525.241H328.33L328.33 328.278H528.64Z" fill="white"/>
<path d="M380.877 373.41C380.112 419.215 355.093 435.788 328.537 434.252C301.98 432.723 283.51 420.71 264.649 420.71L263.876 421.131C245.015 421.131 226.545 433.566 199.988 435.095C173.431 436.624 148.413 420.886 147.648 375.082C149.187 333.028 182.027 329.936 209.998 280.257C234.627 236.512 263.877 240.052 263.877 240.052H264.649C264.649 240.052 294.152 236.702 318.529 280.257C346.366 330.004 379.338 331.355 380.877 373.41ZM216.451 221.18C239.974 219.44 257.016 191.943 254.515 159.762C252.014 127.583 230.917 102.906 207.395 104.646C183.872 106.386 166.83 133.884 169.331 166.063C171.832 198.243 192.928 222.92 216.451 221.18ZM305.605 221.739C328.592 227.852 354.351 207.316 363.136 175.871C371.921 144.425 360.409 113.978 337.423 107.865C314.436 101.751 288.678 122.287 279.893 153.732C271.107 185.177 282.618 215.626 305.605 221.739ZM412.103 196.561C392.085 191.237 369.654 209.119 362.003 236.503C354.353 263.887 364.378 290.4 384.395 295.724C404.413 301.047 426.844 283.165 434.495 255.781C442.146 228.399 432.121 201.885 412.103 196.561ZM175.87 236.501C168.218 209.119 145.789 191.236 125.771 196.559C105.753 201.883 95.727 228.397 103.378 255.78C111.03 283.162 133.46 301.045 153.478 295.722C173.495 290.399 183.52 263.884 175.87 236.501Z" fill="#005826"/>
<path d="M714.571 266.829C714.023 267.864 713.232 268.382 712.197 268.382C711.405 268.382 710.37 267.834 709.092 266.738C707.874 265.581 706.2 264.333 704.069 262.993C701.938 261.593 699.259 260.315 696.033 259.158C692.867 258.001 688.94 257.423 684.252 257.423C679.564 257.423 675.424 258.092 671.832 259.432C668.301 260.771 665.317 262.598 662.882 264.911C660.508 267.225 658.681 269.904 657.403 272.948C656.185 275.992 655.576 279.188 655.576 282.537C655.576 286.92 656.489 290.543 658.316 293.404C660.203 296.266 662.669 298.701 665.713 300.71C668.757 302.719 672.197 304.424 676.033 305.824C679.929 307.164 683.917 308.503 687.996 309.843C692.075 311.182 696.033 312.674 699.868 314.317C703.765 315.9 707.235 317.909 710.279 320.345C713.323 322.78 715.759 325.794 717.585 329.386C719.472 332.917 720.416 337.331 720.416 342.628C720.416 348.046 719.472 353.16 717.585 357.97C715.759 362.719 713.08 366.859 709.549 370.39C706.017 373.921 701.695 376.722 696.581 378.792C691.466 380.801 685.622 381.806 679.046 381.806C670.523 381.806 663.186 380.314 657.037 377.331C650.888 374.287 645.5 370.147 640.873 364.911L643.43 360.893C644.161 359.979 645.013 359.523 645.987 359.523C646.535 359.523 647.235 359.888 648.088 360.619C648.94 361.349 649.975 362.262 651.193 363.358C652.41 364.393 653.871 365.55 655.576 366.829C657.281 368.046 659.26 369.203 661.512 370.299C663.765 371.334 666.352 372.217 669.275 372.947C672.197 373.678 675.515 374.043 679.229 374.043C684.343 374.043 688.909 373.282 692.928 371.76C696.946 370.177 700.325 368.046 703.065 365.367C705.865 362.689 707.996 359.523 709.457 355.87C710.918 352.156 711.649 348.199 711.649 343.998C711.649 339.431 710.705 335.687 708.818 332.765C706.991 329.782 704.556 327.316 701.512 325.368C698.468 323.358 694.998 321.684 691.101 320.345C687.266 319.005 683.308 317.696 679.229 316.418C675.15 315.139 671.162 313.709 667.266 312.126C663.43 310.543 659.99 308.534 656.946 306.098C653.902 303.602 651.436 300.528 649.549 296.875C647.722 293.161 646.809 288.534 646.809 282.993C646.809 278.671 647.631 274.5 649.275 270.482C650.919 266.464 653.324 262.933 656.489 259.888C659.655 256.783 663.552 254.318 668.179 252.491C672.867 250.604 678.194 249.66 684.161 249.66C690.858 249.66 696.855 250.726 702.151 252.856C707.509 254.987 712.38 258.245 716.763 262.628L714.571 266.829Z" fill="white"/>
<path d="M832.59 254.318C832.59 255.474 832.164 256.723 831.312 258.062L749.303 372.582H831.951V380.345H736.792V376.966C736.792 376.296 736.883 375.717 737.066 375.23C737.309 374.682 737.583 374.165 737.887 373.678L820.079 258.884H739.166V251.121H832.59V254.318Z" fill="white"/>
<path d="M892.162 320.801C897.824 320.801 902.908 320.01 907.413 318.427C911.918 316.844 915.723 314.652 918.828 311.852C921.994 309.051 924.399 305.763 926.043 301.989C927.748 298.153 928.6 293.983 928.6 289.477C928.6 279.553 925.556 271.913 919.468 266.555C913.379 261.197 904.278 258.519 892.162 258.519H868.144V320.801H892.162ZM892.162 251.121C907.322 251.121 918.737 254.439 926.408 261.076C934.14 267.712 938.006 277.179 938.006 289.477C938.006 295.139 936.941 300.345 934.81 305.094C932.679 309.843 929.635 313.952 925.678 317.422C921.72 320.832 916.911 323.511 911.249 325.459C905.587 327.346 899.224 328.29 892.162 328.29H868.144V380.345H858.737V251.121H892.162Z" fill="white"/>
<path d="M973.737 380.345H964.331V251.121H973.737V380.345Z" fill="white"/>
<path d="M1095.97 259.067H1050.58V380.345H1041.18V259.067H995.516V251.121H1095.97V259.067Z" fill="white"/>
<path d="M1174.74 333.404L1148.44 268.108C1147.53 265.977 1146.64 263.42 1145.79 260.436C1145.43 261.898 1145.03 263.298 1144.61 264.637C1144.18 265.916 1143.72 267.103 1143.24 268.199L1116.93 333.404H1174.74ZM1203.33 380.345H1196.11C1195.26 380.345 1194.56 380.131 1194.01 379.705C1193.46 379.218 1193.04 378.609 1192.73 377.879L1177.57 340.345H1114.1L1098.94 377.879C1098.7 378.548 1098.27 379.127 1097.66 379.614C1097.06 380.101 1096.33 380.345 1095.47 380.345H1088.35L1141.23 251.121H1150.45L1203.33 380.345Z" fill="white"/>
<path d="M1295.34 372.399V380.345H1224.75V251.121H1234.15V372.399H1295.34Z" fill="white"/>
<path d="M738.931 149.855V190.218C733.261 194.23 727.216 197.306 720.796 199.446C714.377 201.586 707.155 202.656 699.13 202.656C690.143 202.656 682.065 201.292 674.897 198.563C667.728 195.782 661.603 191.876 656.521 186.848C651.492 181.766 647.614 175.64 644.885 168.472C642.21 161.303 640.873 153.332 640.873 144.559C640.873 135.786 642.184 127.842 644.805 120.727C647.48 113.558 651.278 107.459 656.2 102.431C661.175 97.3487 667.166 93.4435 674.174 90.7152C681.182 87.9334 689.073 86.5425 697.846 86.5425C702.18 86.5425 706.165 86.8367 709.803 87.4252C713.494 88.0137 716.918 88.8963 720.074 90.0733C723.23 91.1967 726.173 92.6143 728.901 94.3262C731.629 95.9846 734.25 97.9104 736.765 100.104L734.518 103.635C733.769 104.918 732.646 105.213 731.148 104.517C730.345 104.196 729.195 103.447 727.697 102.27C726.199 101.093 724.14 99.863 721.518 98.5791C718.897 97.2952 715.634 96.1451 711.729 95.1286C707.877 94.1122 703.169 93.604 697.606 93.604C690.223 93.604 683.536 94.7809 677.545 97.1347C671.607 99.4886 666.524 102.859 662.298 107.246C658.126 111.632 654.889 116.982 652.589 123.294C650.342 129.607 649.218 136.695 649.218 144.559C649.218 152.53 650.342 159.698 652.589 166.064C654.889 172.431 658.179 177.834 662.459 182.274C666.792 186.714 672.035 190.111 678.187 192.465C684.339 194.819 691.266 195.996 698.97 195.996C702.34 195.996 705.443 195.782 708.278 195.354C711.167 194.926 713.895 194.337 716.463 193.588C719.084 192.786 721.599 191.823 724.006 190.699C726.467 189.523 728.954 188.212 731.469 186.767V156.194H709.723C709.134 156.194 708.626 156.007 708.198 155.633C707.823 155.258 707.636 154.83 707.636 154.349V149.855H738.931Z" fill="white"/>
<path d="M861.922 144.559C861.922 153.332 860.611 161.223 857.99 168.231C855.369 175.239 851.677 181.204 846.916 186.126C842.155 191.047 836.431 194.819 829.744 197.44C823.11 200.061 815.781 201.372 807.757 201.372H766.271V87.8264H807.757C815.781 87.8264 823.11 89.1371 829.744 91.7584C836.431 94.3797 842.155 98.1512 846.916 103.073C851.677 107.994 855.369 113.959 857.99 120.967C860.611 127.975 861.922 135.839 861.922 144.559ZM853.416 144.559C853.416 136.642 852.319 129.58 850.126 123.375C847.933 117.169 844.83 111.926 840.818 107.647C836.805 103.367 831.991 100.104 826.374 97.8569C820.757 95.6101 814.551 94.4867 807.757 94.4867H774.536V194.712H807.757C814.551 194.712 820.757 193.588 826.374 191.341C831.991 189.095 836.805 185.831 840.818 181.552C844.83 177.272 847.933 172.029 850.126 165.824C852.319 159.618 853.416 152.53 853.416 144.559Z" fill="white"/>
<path d="M917.786 154.59V201.372H909.601V154.59L867.553 87.8264H874.775C875.524 87.8264 876.139 88.0137 876.62 88.3881C877.102 88.7091 877.503 89.1906 877.824 89.8325L910.323 141.991C911.018 143.222 911.66 144.425 912.249 145.602C912.837 146.726 913.345 147.849 913.773 148.972C914.201 147.849 914.683 146.726 915.218 145.602C915.753 144.425 916.368 143.222 917.063 141.991L949.562 89.8325C949.83 89.2441 950.204 88.7626 950.686 88.3881C951.221 88.0137 951.863 87.8264 952.612 87.8264H959.834L917.786 154.59Z" fill="white"/>
<path d="M1065.79 87.8264V201.372H1061.94C1061.24 201.372 1060.66 201.265 1060.18 201.051C1059.75 200.783 1059.32 200.355 1058.89 199.767L985.147 101.227C985.307 102.832 985.388 104.357 985.388 105.801V201.372H978.166V87.8264H982.258C983.007 87.8264 983.569 87.9334 983.943 88.1474C984.371 88.3079 984.826 88.7091 985.307 89.3511L1058.89 187.65C1058.73 186.045 1058.65 184.521 1058.65 183.076V87.8264H1065.79ZM1049.98 53.7227L1023.66 76.7527C1023.18 77.1807 1022.7 77.4482 1022.22 77.5552C1021.74 77.6622 1021.18 77.7157 1020.53 77.7157H1015.32L1036.02 55.488C1036.66 54.7391 1037.31 54.2576 1037.95 54.0436C1038.64 53.8296 1039.63 53.7227 1040.92 53.7227H1049.98Z" fill="white"/>
<path d="M1154.44 101.628C1153.96 102.538 1153.27 102.993 1152.36 102.993C1151.66 102.993 1150.75 102.511 1149.63 101.548C1148.56 100.532 1147.09 99.4351 1145.22 98.2582C1143.34 97.0277 1140.99 95.9043 1138.15 94.8879C1135.37 93.8715 1131.92 93.3633 1127.8 93.3633C1123.68 93.3633 1120.05 93.9517 1116.89 95.1286C1113.79 96.3056 1111.16 97.9104 1109.02 99.9433C1106.94 101.976 1105.33 104.33 1104.21 107.005C1103.14 109.68 1102.61 112.488 1102.61 115.43C1102.61 119.282 1103.41 122.465 1105.01 124.979C1106.67 127.494 1108.84 129.634 1111.51 131.399C1114.19 133.164 1117.21 134.662 1120.58 135.893C1124 137.07 1127.51 138.247 1131.09 139.423C1134.68 140.6 1138.15 141.911 1141.52 143.355C1144.95 144.746 1148 146.512 1150.67 148.652C1153.35 150.791 1155.49 153.439 1157.09 156.596C1158.75 159.698 1159.58 163.577 1159.58 168.231C1159.58 172.992 1158.75 177.486 1157.09 181.712C1155.49 185.885 1153.13 189.523 1150.03 192.625C1146.93 195.728 1143.13 198.189 1138.64 200.008C1134.14 201.773 1129.01 202.656 1123.23 202.656C1115.74 202.656 1109.29 201.345 1103.89 198.724C1098.49 196.049 1093.75 192.411 1089.69 187.811L1091.93 184.28C1092.57 183.477 1093.32 183.076 1094.18 183.076C1094.66 183.076 1095.28 183.397 1096.03 184.039C1096.77 184.681 1097.68 185.484 1098.75 186.446C1099.82 187.356 1101.11 188.372 1102.61 189.496C1104.1 190.566 1105.84 191.582 1107.82 192.545C1109.8 193.454 1112.07 194.23 1114.64 194.872C1117.21 195.514 1120.13 195.835 1123.39 195.835C1127.88 195.835 1131.89 195.166 1135.43 193.829C1138.96 192.438 1141.93 190.566 1144.33 188.212C1146.79 185.858 1148.67 183.076 1149.95 179.866C1151.23 176.603 1151.88 173.126 1151.88 169.435C1151.88 165.423 1151.05 162.133 1149.39 159.565C1147.78 156.943 1145.64 154.777 1142.97 153.065C1140.29 151.3 1137.24 149.828 1133.82 148.652C1130.45 147.475 1126.97 146.324 1123.39 145.201C1119.8 144.078 1116.3 142.82 1112.88 141.43C1109.51 140.039 1106.48 138.273 1103.81 136.133C1101.13 133.94 1098.97 131.239 1097.31 128.029C1095.7 124.765 1094.9 120.7 1094.9 115.832C1094.9 112.033 1095.62 108.369 1097.07 104.838C1098.51 101.307 1100.63 98.2047 1103.41 95.5299C1106.19 92.8016 1109.61 90.635 1113.68 89.0301C1117.8 87.3717 1122.48 86.5425 1127.72 86.5425C1133.61 86.5425 1138.88 87.4787 1143.53 89.3511C1148.24 91.2234 1152.52 94.0855 1156.37 97.9372L1154.44 101.628Z" fill="white"/>
<path d="M1193.47 140.226H1200.21C1201.22 140.226 1202.11 140.199 1202.86 140.146C1203.6 140.039 1204.27 139.878 1204.86 139.664C1205.5 139.45 1206.07 139.156 1206.55 138.781C1207.08 138.353 1207.64 137.845 1208.23 137.257L1254.05 90.1535C1254.85 89.2441 1255.63 88.6289 1256.38 88.3079C1257.18 87.9869 1258.12 87.8264 1259.19 87.8264H1265.77L1216.18 138.781C1215.16 139.851 1214.25 140.681 1213.45 141.269C1212.7 141.857 1211.84 142.339 1210.88 142.713C1212 143.034 1213.02 143.543 1213.93 144.238C1214.84 144.88 1215.75 145.736 1216.66 146.806L1268.9 201.372H1262.24C1260.85 201.372 1259.83 201.211 1259.19 200.89C1258.6 200.516 1258.01 199.954 1257.42 199.205L1209.44 150.096C1208.85 149.507 1208.29 148.999 1207.75 148.571C1207.27 148.143 1206.71 147.796 1206.07 147.528C1205.48 147.207 1204.75 146.993 1203.9 146.886C1203.1 146.726 1202.05 146.645 1200.77 146.645H1193.47V201.372H1185.2V87.8264H1193.47V140.226Z" fill="white"/>
<path d="M1295.34 201.372H1287.07V87.8264H1295.34V201.372Z" fill="white"/>
<path d="M718.407 428.811L700.613 485.392H696.934L680.22 436.288C680.007 435.622 679.82 434.928 679.66 434.209C679.5 434.928 679.313 435.622 679.1 436.288L662.346 485.392H658.707L640.873 428.811H644.272C645.045 428.811 645.538 429.17 645.751 429.89L660.027 476.395C660.32 477.461 660.586 478.674 660.826 480.033C660.96 479.34 661.093 478.7 661.226 478.114C661.36 477.501 661.519 476.928 661.706 476.395L677.701 429.89C677.807 429.597 677.994 429.344 678.261 429.13C678.527 428.917 678.847 428.811 679.22 428.811H680.34C680.713 428.811 681.02 428.917 681.26 429.13C681.499 429.317 681.686 429.57 681.819 429.89L697.814 476.395C698.001 476.901 698.161 477.461 698.294 478.074C698.454 478.687 698.6 479.327 698.734 479.993C698.867 479.327 698.987 478.7 699.094 478.114C699.227 477.501 699.36 476.928 699.493 476.395L713.769 429.89C713.849 429.597 714.022 429.344 714.288 429.13C714.582 428.917 714.915 428.811 715.288 428.811H718.407Z" fill="white"/>
<path d="M762.64 481.993L762.56 485.392H728.652V428.811H762.56V432.209H732.77V455.082H757.562V458.401H732.77V481.993H762.64Z" fill="white"/>
<path d="M811.83 432.289H791.957V485.392H787.838V432.289H767.845V428.811H811.83V432.289Z" fill="white"/>
<path d="M855.344 481.993L855.264 485.392H821.355V428.811H855.264V432.209H825.474V455.082H850.265V458.401H825.474V481.993H855.344Z" fill="white"/>
<path d="M881.661 456.761C884.167 456.761 886.406 456.468 888.379 455.881C890.378 455.268 892.058 454.402 893.417 453.282C894.803 452.163 895.856 450.817 896.576 449.244C897.296 447.671 897.656 445.898 897.656 443.925C897.656 439.9 896.336 436.914 893.697 434.968C891.085 433.022 887.259 432.049 882.221 432.049H871.864V456.761H881.661ZM906.773 485.392H903.254C902.801 485.392 902.414 485.325 902.094 485.192C901.801 485.032 901.521 484.752 901.255 484.352L883.101 461.4C882.887 461.106 882.661 460.853 882.421 460.64C882.208 460.427 881.954 460.267 881.661 460.16C881.395 460.027 881.061 459.933 880.661 459.88C880.288 459.827 879.822 459.8 879.262 459.8H871.864V485.392H867.746V428.811H882.221C888.725 428.811 893.59 430.077 896.816 432.609C900.068 435.115 901.694 438.807 901.694 443.686C901.694 445.845 901.321 447.818 900.575 449.604C899.828 451.39 898.749 452.962 897.336 454.322C895.95 455.655 894.257 456.748 892.258 457.601C890.285 458.454 888.059 459.027 885.58 459.32C886.22 459.72 886.793 460.253 887.299 460.92L906.773 485.392Z" fill="white"/>
<path d="M932.157 462.079V485.392H928.079V462.079L907.126 428.811H910.724C911.098 428.811 911.404 428.904 911.644 429.09C911.884 429.25 912.084 429.49 912.244 429.81L928.439 455.802C928.785 456.415 929.105 457.014 929.398 457.601C929.691 458.161 929.945 458.721 930.158 459.28C930.371 458.721 930.611 458.161 930.878 457.601C931.144 457.014 931.451 456.415 931.797 455.802L947.992 429.81C948.125 429.517 948.312 429.277 948.552 429.09C948.818 428.904 949.138 428.811 949.511 428.811H953.11L932.157 462.079Z" fill="white"/>
<path d="M1005.91 428.811V485.392H1003.99C1003.64 485.392 1003.35 485.338 1003.11 485.232C1002.9 485.098 1002.69 484.885 1002.47 484.592L965.724 435.488C965.804 436.288 965.844 437.048 965.844 437.768V485.392H962.245V428.811H964.285C964.658 428.811 964.938 428.864 965.124 428.97C965.338 429.05 965.564 429.25 965.804 429.57L1002.47 478.554C1002.39 477.754 1002.35 476.994 1002.35 476.275V428.811H1005.91Z" fill="white"/>
<path d="M1053.13 464.838L1041.61 436.248C1041.21 435.315 1040.82 434.195 1040.45 432.889C1040.29 433.529 1040.12 434.142 1039.93 434.729C1039.74 435.288 1039.54 435.808 1039.33 436.288L1027.81 464.838H1053.13ZM1065.64 485.392H1062.48C1062.11 485.392 1061.8 485.298 1061.56 485.112C1061.32 484.898 1061.14 484.632 1061 484.312L1054.37 467.877H1026.57L1019.94 484.312C1019.83 484.605 1019.64 484.858 1019.38 485.072C1019.11 485.285 1018.79 485.392 1018.42 485.392H1015.3L1038.45 428.811H1042.49L1065.64 485.392Z" fill="white"/>
<path d="M1088.94 456.761C1091.44 456.761 1093.68 456.468 1095.65 455.881C1097.65 455.268 1099.33 454.402 1100.69 453.282C1102.08 452.163 1103.13 450.817 1103.85 449.244C1104.57 447.671 1104.93 445.898 1104.93 443.925C1104.93 439.9 1103.61 436.914 1100.97 434.968C1098.36 433.022 1094.53 432.049 1089.5 432.049H1079.14V456.761H1088.94ZM1114.05 485.392H1110.53C1110.07 485.392 1109.69 485.325 1109.37 485.192C1109.08 485.032 1108.8 484.752 1108.53 484.352L1090.37 461.4C1090.16 461.106 1089.94 460.853 1089.7 460.64C1089.48 460.427 1089.23 460.267 1088.94 460.16C1088.67 460.027 1088.34 459.933 1087.94 459.88C1087.56 459.827 1087.1 459.8 1086.54 459.8H1079.14V485.392H1075.02V428.811H1089.5C1096 428.811 1100.86 430.077 1104.09 432.609C1107.34 435.115 1108.97 438.807 1108.97 443.686C1108.97 445.845 1108.6 447.818 1107.85 449.604C1107.1 451.39 1106.02 452.962 1104.61 454.322C1103.22 455.655 1101.53 456.748 1099.53 457.601C1097.56 458.454 1095.33 459.027 1092.85 459.32C1093.49 459.72 1094.07 460.253 1094.57 460.92L1114.05 485.392Z" fill="white"/>
<path d="M1139.43 462.079V485.392H1135.35V462.079L1114.4 428.811H1118C1118.37 428.811 1118.68 428.904 1118.92 429.09C1119.16 429.25 1119.36 429.49 1119.52 429.81L1135.71 455.802C1136.06 456.415 1136.38 457.014 1136.67 457.601C1136.97 458.161 1137.22 458.721 1137.43 459.28C1137.65 458.721 1137.89 458.161 1138.15 457.601C1138.42 457.014 1138.73 456.415 1139.07 455.802L1155.27 429.81C1155.4 429.517 1155.59 429.277 1155.83 429.09C1156.09 428.904 1156.41 428.811 1156.79 428.811H1160.38L1139.43 462.079Z" fill="white"/>
<path d="M1180.42 466.518C1180.42 469.69 1180.04 472.489 1179.26 474.915C1178.49 477.341 1177.37 479.38 1175.9 481.033C1174.44 482.686 1172.66 483.939 1170.59 484.792C1168.51 485.618 1166.16 486.031 1163.55 486.031C1162.35 486.031 1161.14 485.938 1159.91 485.751C1158.68 485.565 1157.42 485.272 1156.11 484.872C1156.14 484.499 1156.16 484.125 1156.19 483.752C1156.24 483.379 1156.3 483.006 1156.35 482.633C1156.4 482.393 1156.5 482.179 1156.63 481.993C1156.79 481.806 1157.06 481.713 1157.43 481.713C1157.67 481.713 1157.95 481.766 1158.27 481.873C1158.62 481.953 1159.02 482.046 1159.47 482.153C1159.92 482.259 1160.46 482.366 1161.07 482.473C1161.68 482.553 1162.39 482.593 1163.19 482.593C1165.21 482.593 1167.04 482.273 1168.67 481.633C1170.29 480.993 1171.68 480.02 1172.82 478.714C1173.97 477.381 1174.84 475.715 1175.42 473.715C1176.04 471.69 1176.34 469.317 1176.34 466.598V428.811H1180.42V466.518Z" fill="white"/>
<path d="M1240.21 428.811V485.392H1238.29C1237.94 485.392 1237.65 485.338 1237.41 485.232C1237.19 485.098 1236.98 484.885 1236.77 484.592L1200.02 435.488C1200.1 436.288 1200.14 437.048 1200.14 437.768V485.392H1196.54V428.811H1198.58C1198.95 428.811 1199.23 428.864 1199.42 428.97C1199.63 429.05 1199.86 429.25 1200.1 429.57L1236.77 478.554C1236.69 477.754 1236.65 476.994 1236.65 476.275V428.811H1240.21Z" fill="white"/>
<path d="M1274.39 462.079V485.392H1270.31V462.079L1249.35 428.811H1252.95C1253.33 428.811 1253.63 428.904 1253.87 429.09C1254.11 429.25 1254.31 429.49 1254.47 429.81L1270.67 455.802C1271.01 456.415 1271.33 457.014 1271.63 457.601C1271.92 458.161 1272.17 458.721 1272.39 459.28C1272.6 458.721 1272.84 458.161 1273.11 457.601C1273.37 457.014 1273.68 456.415 1274.03 455.802L1290.22 429.81C1290.35 429.517 1290.54 429.277 1290.78 429.09C1291.05 428.904 1291.37 428.811 1291.74 428.811H1295.34L1274.39 462.079Z" fill="white"/>
</svg>
