<svg width="3099" height="563" viewBox="0 0 3099 563" fill="none" xmlns="http://www.w3.org/2000/svg">
<path fill-rule="evenodd" clip-rule="evenodd" d="M2816.94 562.887C2972.28 562.887 3098.2 436.964 3098.2 281.63C3098.2 126.296 2972.28 0.373291 2816.94 0.373291C2661.61 0.373291 2535.69 126.296 2535.69 281.63C2535.69 436.964 2661.61 562.887 2816.94 562.887ZM2816.94 531.084C2954.71 531.084 3066.4 419.4 3066.4 281.63C3066.4 143.861 2954.71 32.1765 2816.94 32.1765C2679.17 32.1765 2567.49 143.861 2567.49 281.63C2567.49 419.4 2679.17 531.084 2816.94 531.084Z" fill="#005826"/>
<path d="M3088.54 342.706V220.555H2879.06L2879.06 14.5682L2754.83 14.5682L2754.83 220.555H2545.34V342.706H2754.83L2754.83 548.692H2879.06L2879.06 342.706H3088.54Z" fill="#005826"/>
<path d="M2934.01 389.906C2933.21 437.809 2907.05 455.142 2879.27 453.536C2851.5 451.936 2832.18 439.373 2812.46 439.373L2811.65 439.813C2791.93 439.813 2772.61 452.817 2744.84 454.416C2717.06 456.016 2690.9 439.557 2690.1 391.655C2691.71 347.674 2726.05 344.44 2755.3 292.486C2781.06 246.736 2811.65 250.439 2811.65 250.439H2812.46C2812.46 250.439 2843.31 246.935 2868.81 292.486C2897.92 344.511 2932.4 345.925 2934.01 389.906ZM2762.05 230.702C2786.65 228.882 2804.48 200.126 2801.86 166.471C2799.25 132.817 2777.18 107.01 2752.58 108.829C2727.98 110.649 2710.16 139.407 2712.77 173.061C2715.39 206.714 2737.45 232.522 2762.05 230.702ZM2855.29 231.286C2879.33 237.68 2906.27 216.203 2915.46 183.317C2924.65 150.431 2912.61 118.589 2888.57 112.196C2864.53 105.802 2837.59 127.279 2828.4 160.165C2819.21 193.05 2831.25 224.893 2855.29 231.286ZM2966.67 204.956C2945.73 199.388 2922.27 218.089 2914.27 246.727C2906.27 275.365 2916.76 303.094 2937.69 308.661C2958.63 314.228 2982.08 295.527 2990.09 266.889C2998.09 238.252 2987.6 210.523 2966.67 204.956ZM2719.61 246.725C2711.61 218.088 2688.15 199.386 2667.22 204.953C2646.28 210.521 2635.8 238.25 2643.8 266.887C2651.8 295.524 2675.26 314.226 2696.2 308.659C2717.13 303.092 2727.61 275.363 2719.61 246.725Z" fill="#D7D6D6"/>
<path d="M66.1014 268.957C73.5414 268.957 79.7814 269.977 84.8214 272.017C89.9814 274.057 95.0214 276.937 99.9414 280.657C101.381 281.737 102.581 282.277 103.541 282.277C104.741 282.277 105.701 281.437 106.421 279.757C107.141 277.957 107.681 275.197 108.041 271.477H112.181C111.701 279.637 111.461 294.157 111.461 315.037H107.321C106.361 306.877 104.921 300.277 103.001 295.237C101.201 290.197 98.1414 285.937 93.8214 282.457C90.9414 279.697 87.4014 277.537 83.2014 275.977C79.0014 274.417 74.6814 273.637 70.2414 273.637C61.8414 273.637 54.8214 276.517 49.1814 282.277C43.6614 287.917 39.5814 295.417 36.9414 304.777C34.3014 314.137 32.9814 324.397 32.9814 335.557C32.9814 377.077 44.5014 397.837 67.5414 397.837C72.8214 397.837 77.0814 396.637 80.3214 394.237C81.8814 393.157 82.9614 391.897 83.5614 390.457C84.2814 389.017 84.6414 387.157 84.6414 384.877V367.237C84.6414 361.597 84.1614 357.517 83.2014 354.997C82.2414 352.357 80.5014 350.557 77.9814 349.597C75.5814 348.637 71.7414 348.037 66.4614 347.797V344.197C73.9014 344.557 84.1614 344.737 97.2414 344.737C107.921 344.737 115.961 344.557 121.361 344.197V347.797C118.961 348.037 117.221 348.517 116.141 349.237C115.061 349.957 114.281 351.337 113.801 353.377C113.441 355.417 113.261 358.717 113.261 363.277V398.917H109.661C109.541 396.397 109.001 394.057 108.041 391.897C107.201 389.737 106.001 388.657 104.441 388.657C102.401 388.657 99.1614 389.917 94.7214 392.437C84.2814 398.437 74.4414 401.437 65.2014 401.437C44.4414 401.437 28.5414 395.797 17.5014 384.517C6.46141 373.117 0.941406 357.157 0.941406 336.637C0.941406 323.197 3.70141 311.377 9.22141 301.177C14.8614 290.977 22.6014 283.057 32.4414 277.417C42.2814 271.777 53.5014 268.957 66.1014 268.957Z" fill="black"/>
<path d="M218.445 379.117C218.445 384.637 219.285 388.657 220.965 391.177C222.645 393.697 225.645 394.957 229.965 394.957V398.737C226.245 398.377 222.525 398.197 218.805 398.197C208.125 398.197 199.365 399.037 192.525 400.717V385.237C188.445 396.037 180.645 401.437 169.125 401.437C157.845 401.437 148.845 397.357 142.125 389.197C135.525 380.917 132.285 368.497 132.405 351.937C132.405 341.377 134.085 332.497 137.445 325.297C140.925 317.977 145.665 312.517 151.665 308.917C157.785 305.197 164.745 303.337 172.545 303.337C181.305 303.337 187.965 305.617 192.525 310.177V279.577C192.525 274.057 191.625 270.037 189.825 267.517C188.145 264.997 185.205 263.737 181.005 263.737V259.957C184.845 260.317 188.565 260.497 192.165 260.497C202.605 260.497 211.365 259.657 218.445 257.977V379.117ZM176.505 393.697C180.465 393.697 183.945 392.257 186.945 389.377C190.065 386.497 191.925 382.597 192.525 377.677V314.677C189.525 310.597 185.145 308.557 179.385 308.557C173.025 308.557 168.105 312.217 164.625 319.537C161.145 326.857 159.465 337.777 159.585 352.297C159.465 366.937 160.845 377.497 163.725 383.977C166.725 390.457 170.985 393.697 176.505 393.697Z" fill="black"/>
<path d="M311.623 306.397C317.623 306.397 322.243 306.217 325.483 305.857V309.457C322.963 310.177 320.683 311.737 318.643 314.137C316.723 316.417 314.863 320.017 313.063 324.937L280.843 415.477C278.443 421.717 275.803 425.977 272.923 428.257C269.443 431.257 264.223 432.757 257.263 432.757C252.223 432.757 247.663 431.497 243.583 428.977C239.623 426.577 237.643 423.037 237.643 418.357C237.643 414.637 238.963 411.637 241.603 409.357C244.243 407.197 247.723 406.117 252.043 406.117C256.123 406.117 259.363 407.077 261.763 408.997C264.283 411.037 265.543 413.857 265.543 417.457C265.543 419.977 264.763 422.257 263.203 424.297C261.643 426.457 259.423 428.077 256.543 429.157C257.383 429.277 258.763 429.337 260.683 429.337C268.123 429.337 273.583 424.597 277.063 415.117L279.943 406.477L241.783 319.717C239.863 315.637 238.003 312.937 236.203 311.617C234.403 310.297 232.543 309.637 230.623 309.637V305.857C238.543 306.577 246.763 306.937 255.283 306.937C262.363 306.937 270.703 306.577 280.303 305.857V309.637C276.463 309.637 273.583 309.937 271.663 310.537C269.863 311.017 268.963 312.397 268.963 314.677C268.963 315.997 269.383 317.677 270.223 319.717L292.183 372.817L304.603 338.257C306.523 332.617 307.483 327.817 307.483 323.857C307.483 315.097 303.043 310.297 294.163 309.457V305.857C299.803 306.217 305.623 306.397 311.623 306.397Z" fill="black"/>
<path d="M397.763 303.337C406.883 303.337 413.483 305.677 417.563 310.357C419.603 312.637 421.043 315.577 421.883 319.177C422.723 322.777 423.143 327.637 423.143 333.757V382.177C423.143 387.097 423.983 390.517 425.663 392.437C427.463 394.237 430.463 395.137 434.663 395.137V398.917C422.663 398.437 414.743 398.197 410.903 398.197C407.303 398.197 399.503 398.437 387.503 398.917V395.137C391.103 395.137 393.623 394.237 395.063 392.437C396.503 390.517 397.223 387.097 397.223 382.177V326.197C397.223 321.277 396.383 317.557 394.703 315.037C393.143 312.517 390.263 311.257 386.063 311.257C381.143 311.257 376.943 313.297 373.463 317.377C369.983 321.337 368.243 326.257 368.243 332.137V382.177C368.243 387.097 368.963 390.517 370.403 392.437C371.843 394.237 374.363 395.137 377.963 395.137V398.917C366.923 398.437 359.483 398.197 355.643 398.197C352.043 398.197 343.763 398.437 330.803 398.917V395.137C335.123 395.137 338.123 394.237 339.803 392.437C341.483 390.517 342.323 387.097 342.323 382.177V325.477C342.323 319.957 341.483 315.937 339.803 313.417C338.123 310.897 335.123 309.637 330.803 309.637V305.857C334.643 306.217 338.363 306.397 341.963 306.397C352.643 306.397 361.403 305.557 368.243 303.877V320.077C373.643 308.917 383.483 303.337 397.763 303.337ZM402.443 251.857C404.603 253.417 405.683 255.697 405.683 258.697C405.683 261.217 404.783 263.677 402.983 266.077C401.663 267.637 399.983 269.257 397.943 270.937C396.023 272.497 393.923 274.117 391.643 275.797C384.443 280.837 378.083 285.937 372.563 291.097L370.583 289.477C373.823 283.597 377.183 276.217 380.663 267.337C382.223 263.617 383.423 260.857 384.263 259.057C385.223 257.137 386.363 255.397 387.683 253.837C389.963 250.957 392.783 249.517 396.143 249.517C398.663 249.517 400.763 250.297 402.443 251.857Z" fill="black"/>
<path d="M477.009 303.337C481.569 303.337 485.769 303.937 489.609 305.137C493.449 306.217 496.389 307.477 498.429 308.917C499.629 309.757 500.709 310.177 501.669 310.177C502.749 310.177 503.649 309.637 504.369 308.557C505.209 307.357 505.749 305.677 505.989 303.517H509.769C509.289 309.637 509.049 320.197 509.049 335.197H505.269C504.189 327.277 501.789 320.677 498.069 315.397C494.469 309.997 489.189 307.297 482.229 307.297C478.629 307.297 475.629 308.317 473.229 310.357C470.949 312.397 469.809 315.217 469.809 318.817C469.809 322.897 471.189 326.437 473.949 329.437C476.709 332.317 481.029 335.857 486.909 340.057L492.129 343.837C499.449 349.357 504.849 354.277 508.329 358.597C511.809 362.917 513.549 368.317 513.549 374.797C513.549 380.077 511.989 384.757 508.869 388.837C505.869 392.917 501.789 396.037 496.629 398.197C491.469 400.357 485.769 401.437 479.529 401.437C472.929 401.437 467.289 400.177 462.609 397.657C458.769 395.737 456.009 394.477 454.329 393.877C453.129 393.517 452.049 393.937 451.089 395.137C450.249 396.217 449.589 397.897 449.109 400.177H445.329C445.809 393.337 446.049 381.337 446.049 364.177H449.829C452.229 386.257 460.329 397.297 474.129 397.297C477.609 397.297 480.549 396.277 482.949 394.237C485.469 392.077 486.729 388.837 486.729 384.517C486.729 381.157 485.949 378.157 484.389 375.517C482.949 372.877 481.089 370.537 478.809 368.497C476.529 366.457 473.109 363.637 468.549 360.037C463.149 355.717 459.009 352.237 456.129 349.597C453.369 346.957 450.969 343.837 448.929 340.237C447.009 336.637 446.049 332.617 446.049 328.177C446.049 320.497 449.049 314.437 455.049 309.997C461.049 305.557 468.369 303.337 477.009 303.337Z" fill="black"/>
<path d="M615.954 385.777C617.874 388.657 619.434 390.817 620.634 392.257C621.834 393.577 623.394 394.537 625.314 395.137V398.917C615.714 398.437 609.414 398.197 606.414 398.197C602.454 398.197 594.714 398.437 583.194 398.917V395.137C584.874 395.137 586.194 394.837 587.154 394.237C588.114 393.637 588.594 392.797 588.594 391.717C588.594 391.117 588.294 390.217 587.694 389.017L569.874 356.797C568.674 354.757 567.414 353.377 566.094 352.657C564.774 351.937 563.094 351.457 561.054 351.217V382.177C561.054 387.097 561.834 390.517 563.394 392.437C564.954 394.237 567.774 395.137 571.854 395.137V398.917C559.854 398.437 552.054 398.197 548.454 398.197C544.374 398.197 536.094 398.437 523.614 398.917V395.137C527.814 395.137 530.754 394.237 532.434 392.437C534.234 390.517 535.134 387.097 535.134 382.177V279.577C535.134 274.057 534.234 270.037 532.434 267.517C530.754 264.997 527.814 263.737 523.614 263.737V259.957C527.454 260.317 531.174 260.497 534.774 260.497C545.214 260.497 553.974 259.657 561.054 257.977V347.797C563.454 347.557 565.494 347.077 567.174 346.357C568.974 345.637 570.534 344.557 571.854 343.117L585.534 329.797C589.494 325.837 591.474 322.177 591.474 318.817C591.474 316.057 590.214 313.897 587.694 312.337C585.174 310.657 581.814 309.697 577.614 309.457V305.857C584.214 306.217 591.234 306.397 598.674 306.397C608.634 306.397 615.654 306.217 619.734 305.857V309.457C612.654 311.017 605.154 315.637 597.234 323.317L585.714 335.197L615.954 385.777Z" fill="black"/>
<path d="M652.863 400.177C645.183 400.177 639.423 398.197 635.583 394.237C631.863 390.277 630.003 385.057 630.003 378.577C630.003 373.177 631.383 368.737 634.143 365.257C637.023 361.657 640.443 358.897 644.403 356.977C648.483 355.057 653.643 353.017 659.883 350.857C666.483 348.577 671.283 346.537 674.283 344.737C677.403 342.817 678.963 340.237 678.963 336.997V322.957C678.963 317.917 677.763 314.017 675.363 311.257C673.083 308.377 669.483 306.937 664.563 306.937C658.803 306.937 654.423 308.377 651.423 311.257C654.783 312.457 657.363 314.257 659.163 316.657C661.083 319.057 662.043 321.877 662.043 325.117C662.043 329.197 660.663 332.437 657.903 334.837C655.143 337.237 651.783 338.437 647.823 338.437C643.623 338.437 640.383 337.117 638.103 334.477C635.823 331.837 634.683 328.537 634.683 324.577C634.683 321.217 635.463 318.397 637.023 316.117C638.703 313.717 641.223 311.497 644.583 309.457C647.823 307.537 651.783 306.037 656.463 304.957C661.263 303.877 666.483 303.337 672.123 303.337C678.003 303.337 683.103 303.937 687.423 305.137C691.743 306.337 695.343 308.377 698.223 311.257C700.863 313.897 702.603 317.137 703.443 320.977C704.403 324.817 704.883 330.037 704.883 336.637V385.597C704.883 388.477 705.123 390.517 705.603 391.717C706.203 392.917 707.283 393.517 708.843 393.517C710.643 393.517 712.803 392.497 715.323 390.457L717.123 393.517C711.723 397.957 705.123 400.177 697.323 400.177C690.723 400.177 686.103 398.857 683.463 396.217C680.823 393.577 679.443 390.037 679.323 385.597C673.323 395.317 664.503 400.177 652.863 400.177ZM666.723 388.657C671.403 388.657 675.483 386.197 678.963 381.277V344.377C677.523 346.777 674.463 349.417 669.783 352.297C665.103 355.297 661.563 358.297 659.163 361.297C656.763 364.297 655.563 368.617 655.563 374.257C655.563 379.177 656.583 382.837 658.623 385.237C660.663 387.517 663.363 388.657 666.723 388.657Z" fill="black"/>
<path d="M876.44 384.337C878.24 387.097 880.1 389.317 882.02 390.997C883.94 392.677 886.4 394.117 889.4 395.317V398.917C881 398.557 871.64 398.377 861.32 398.377C853.4 398.377 845.78 398.557 838.46 398.917V395.317C841.82 395.077 844.22 394.717 845.66 394.237C847.22 393.757 848 392.917 848 391.717C848 390.757 847.34 389.257 846.02 387.217L819.92 344.917C817.52 341.077 815.48 338.497 813.8 337.177C812.24 335.857 810.08 335.077 807.32 334.837V379.837C807.32 384.397 807.62 387.697 808.22 389.737C808.94 391.777 810.2 393.157 812 393.877C813.8 394.597 816.74 395.077 820.82 395.317V398.917C814.34 398.557 805.28 398.377 793.64 398.377C780.8 398.377 771.32 398.557 765.2 398.917V395.317C769.16 395.077 772.04 394.597 773.84 393.877C775.76 393.157 777.02 391.777 777.62 389.737C778.34 387.697 778.7 384.397 778.7 379.837V290.557C778.7 285.997 778.34 282.697 777.62 280.657C777.02 278.617 775.76 277.237 773.84 276.517C772.04 275.797 769.16 275.317 765.2 275.077V271.477C771.32 271.837 780.8 272.017 793.64 272.017C805.28 272.017 814.34 271.837 820.82 271.477V275.077C816.74 275.317 813.8 275.797 812 276.517C810.2 277.237 808.94 278.617 808.22 280.657C807.62 282.697 807.32 285.997 807.32 290.557V331.057C812.12 330.817 816.5 329.377 820.46 326.737C824.42 324.097 828.92 319.897 833.96 314.137L844.58 301.357C850.1 294.997 852.86 289.417 852.86 284.617C852.86 281.737 851.66 279.457 849.26 277.777C846.98 276.097 843.74 275.137 839.54 274.897V271.477C848.3 271.837 857.18 272.017 866.18 272.017C873.14 272.017 878.78 271.837 883.1 271.477V274.897C873.5 277.177 864.8 282.937 857 292.177L834.5 318.997L876.44 384.337Z" fill="black"/>
<path d="M928.616 382.177C928.616 387.097 929.456 390.517 931.136 392.437C932.816 394.237 935.816 395.137 940.136 395.137V398.917C927.656 398.437 919.616 398.197 916.016 398.197C911.936 398.197 903.656 398.437 891.176 398.917V395.137C895.376 395.137 898.316 394.237 899.996 392.437C901.796 390.517 902.696 387.097 902.696 382.177V279.577C902.696 274.057 901.796 270.037 899.996 267.517C898.316 264.997 895.376 263.737 891.176 263.737V259.957C895.016 260.317 898.736 260.497 902.336 260.497C912.776 260.497 921.536 259.657 928.616 257.977V382.177Z" fill="black"/>
<path d="M971.195 259.417C976.235 259.417 980.195 260.677 983.075 263.197C986.075 265.597 987.575 268.957 987.575 273.277C987.575 277.597 986.075 281.017 983.075 283.537C980.195 285.937 976.235 287.137 971.195 287.137C966.155 287.137 962.135 285.937 959.135 283.537C956.255 281.017 954.815 277.597 954.815 273.277C954.815 268.957 956.255 265.597 959.135 263.197C962.135 260.677 966.155 259.417 971.195 259.417ZM985.235 382.177C985.235 387.097 986.075 390.517 987.755 392.437C989.555 394.237 992.555 395.137 996.755 395.137V398.917C984.755 398.437 976.775 398.197 972.815 398.197C969.095 398.197 960.755 398.437 947.795 398.917V395.137C952.115 395.137 955.115 394.237 956.795 392.437C958.475 390.517 959.315 387.097 959.315 382.177V325.477C959.315 319.957 958.475 315.937 956.795 313.417C955.115 310.897 952.115 309.637 947.795 309.637V305.857C951.635 306.217 955.355 306.397 958.955 306.397C969.635 306.397 978.395 305.557 985.235 303.877V382.177Z" fill="black"/>
<path d="M1071.53 303.337C1080.65 303.337 1087.25 305.677 1091.33 310.357C1093.37 312.637 1094.81 315.577 1095.65 319.177C1096.49 322.777 1096.91 327.637 1096.91 333.757V382.177C1096.91 387.097 1097.75 390.517 1099.43 392.437C1101.23 394.237 1104.23 395.137 1108.43 395.137V398.917C1096.43 398.437 1088.51 398.197 1084.67 398.197C1081.07 398.197 1073.27 398.437 1061.27 398.917V395.137C1064.87 395.137 1067.39 394.237 1068.83 392.437C1070.27 390.517 1070.99 387.097 1070.99 382.177V326.197C1070.99 321.277 1070.15 317.557 1068.47 315.037C1066.91 312.517 1064.03 311.257 1059.83 311.257C1054.91 311.257 1050.71 313.297 1047.23 317.377C1043.75 321.337 1042.01 326.257 1042.01 332.137V382.177C1042.01 387.097 1042.73 390.517 1044.17 392.437C1045.61 394.237 1048.13 395.137 1051.73 395.137V398.917C1040.69 398.437 1033.25 398.197 1029.41 398.197C1025.81 398.197 1017.53 398.437 1004.57 398.917V395.137C1008.89 395.137 1011.89 394.237 1013.57 392.437C1015.25 390.517 1016.09 387.097 1016.09 382.177V325.477C1016.09 319.957 1015.25 315.937 1013.57 313.417C1011.89 310.897 1008.89 309.637 1004.57 309.637V305.857C1008.41 306.217 1012.13 306.397 1015.73 306.397C1026.41 306.397 1035.17 305.557 1042.01 303.877V320.077C1047.41 308.917 1057.25 303.337 1071.53 303.337Z" fill="black"/>
<path d="M1138.54 259.417C1143.58 259.417 1147.54 260.677 1150.42 263.197C1153.42 265.597 1154.92 268.957 1154.92 273.277C1154.92 277.597 1153.42 281.017 1150.42 283.537C1147.54 285.937 1143.58 287.137 1138.54 287.137C1133.5 287.137 1129.48 285.937 1126.48 283.537C1123.6 281.017 1122.16 277.597 1122.16 273.277C1122.16 268.957 1123.6 265.597 1126.48 263.197C1129.48 260.677 1133.5 259.417 1138.54 259.417ZM1152.58 382.177C1152.58 387.097 1153.42 390.517 1155.1 392.437C1156.9 394.237 1159.9 395.137 1164.1 395.137V398.917C1152.1 398.437 1144.12 398.197 1140.16 398.197C1136.44 398.197 1128.1 398.437 1115.14 398.917V395.137C1119.46 395.137 1122.46 394.237 1124.14 392.437C1125.82 390.517 1126.66 387.097 1126.66 382.177V325.477C1126.66 319.957 1125.82 315.937 1124.14 313.417C1122.46 310.897 1119.46 309.637 1115.14 309.637V305.857C1118.98 306.217 1122.7 306.397 1126.3 306.397C1136.98 306.397 1145.74 305.557 1152.58 303.877V382.177Z" fill="black"/>
<path d="M1263.36 385.777C1265.28 388.657 1266.84 390.817 1268.04 392.257C1269.24 393.577 1270.8 394.537 1272.72 395.137V398.917C1263.12 398.437 1256.82 398.197 1253.82 398.197C1249.86 398.197 1242.12 398.437 1230.6 398.917V395.137C1232.28 395.137 1233.6 394.837 1234.56 394.237C1235.52 393.637 1236 392.797 1236 391.717C1236 391.117 1235.7 390.217 1235.1 389.017L1217.28 356.797C1216.08 354.757 1214.82 353.377 1213.5 352.657C1212.18 351.937 1210.5 351.457 1208.46 351.217V382.177C1208.46 387.097 1209.24 390.517 1210.8 392.437C1212.36 394.237 1215.18 395.137 1219.26 395.137V398.917C1207.26 398.437 1199.46 398.197 1195.86 398.197C1191.78 398.197 1183.5 398.437 1171.02 398.917V395.137C1175.22 395.137 1178.16 394.237 1179.84 392.437C1181.64 390.517 1182.54 387.097 1182.54 382.177V279.577C1182.54 274.057 1181.64 270.037 1179.84 267.517C1178.16 264.997 1175.22 263.737 1171.02 263.737V259.957C1174.86 260.317 1178.58 260.497 1182.18 260.497C1192.62 260.497 1201.38 259.657 1208.46 257.977V347.797C1210.86 347.557 1212.9 347.077 1214.58 346.357C1216.38 345.637 1217.94 344.557 1219.26 343.117L1232.94 329.797C1236.9 325.837 1238.88 322.177 1238.88 318.817C1238.88 316.057 1237.62 313.897 1235.1 312.337C1232.58 310.657 1229.22 309.697 1225.02 309.457V305.857C1231.62 306.217 1238.64 306.397 1246.08 306.397C1256.04 306.397 1263.06 306.217 1267.14 305.857V309.457C1260.06 311.017 1252.56 315.637 1244.64 323.317L1233.12 335.197L1263.36 385.777Z" fill="black"/>
<path d="M1300.27 400.177C1292.59 400.177 1286.83 398.197 1282.99 394.237C1279.27 390.277 1277.41 385.057 1277.41 378.577C1277.41 373.177 1278.79 368.737 1281.55 365.257C1284.43 361.657 1287.85 358.897 1291.81 356.977C1295.89 355.057 1301.05 353.017 1307.29 350.857C1313.89 348.577 1318.69 346.537 1321.69 344.737C1324.81 342.817 1326.37 340.237 1326.37 336.997V322.957C1326.37 317.917 1325.17 314.017 1322.77 311.257C1320.49 308.377 1316.89 306.937 1311.97 306.937C1306.21 306.937 1301.83 308.377 1298.83 311.257C1302.19 312.457 1304.77 314.257 1306.57 316.657C1308.49 319.057 1309.45 321.877 1309.45 325.117C1309.45 329.197 1308.07 332.437 1305.31 334.837C1302.55 337.237 1299.19 338.437 1295.23 338.437C1291.03 338.437 1287.79 337.117 1285.51 334.477C1283.23 331.837 1282.09 328.537 1282.09 324.577C1282.09 321.217 1282.87 318.397 1284.43 316.117C1286.11 313.717 1288.63 311.497 1291.99 309.457C1295.23 307.537 1299.19 306.037 1303.87 304.957C1308.67 303.877 1313.89 303.337 1319.53 303.337C1325.41 303.337 1330.51 303.937 1334.83 305.137C1339.15 306.337 1342.75 308.377 1345.63 311.257C1348.27 313.897 1350.01 317.137 1350.85 320.977C1351.81 324.817 1352.29 330.037 1352.29 336.637V385.597C1352.29 388.477 1352.53 390.517 1353.01 391.717C1353.61 392.917 1354.69 393.517 1356.25 393.517C1358.05 393.517 1360.21 392.497 1362.73 390.457L1364.53 393.517C1359.13 397.957 1352.53 400.177 1344.73 400.177C1338.13 400.177 1333.51 398.857 1330.87 396.217C1328.23 393.577 1326.85 390.037 1326.73 385.597C1320.73 395.317 1311.91 400.177 1300.27 400.177ZM1314.13 388.657C1318.81 388.657 1322.89 386.197 1326.37 381.277V344.377C1324.93 346.777 1321.87 349.417 1317.19 352.297C1312.51 355.297 1308.97 358.297 1306.57 361.297C1304.17 364.297 1302.97 368.617 1302.97 374.257C1302.97 379.177 1303.99 382.837 1306.03 385.237C1308.07 387.517 1310.77 388.657 1314.13 388.657Z" fill="black"/>
<path d="M1561.26 272.017C1566.9 272.017 1571.52 271.837 1575.12 271.477V275.077C1572.12 276.277 1569.18 278.617 1566.3 282.097C1563.54 285.457 1561.2 290.257 1559.28 296.497L1527.6 399.277C1526.28 399.157 1524.18 399.097 1521.3 399.097C1518.42 399.097 1516.32 399.157 1515 399.277L1488.54 318.997L1461.9 399.277C1460.58 399.157 1458.48 399.097 1455.6 399.097C1452.72 399.097 1450.62 399.157 1449.3 399.277L1408.98 286.597C1407.54 282.637 1405.8 279.757 1403.76 277.957C1401.72 276.157 1399.68 275.197 1397.64 275.077V271.477C1404.84 271.837 1413.78 272.017 1424.46 272.017C1434.54 272.017 1441.92 271.837 1446.6 271.477V275.077C1442.4 275.677 1440.3 278.017 1440.3 282.097C1440.3 284.017 1440.84 286.717 1441.92 290.197L1468.2 366.337L1486.38 312.697L1477.2 284.797C1476 281.317 1474.56 278.917 1472.88 277.597C1471.32 276.157 1469.46 275.317 1467.3 275.077V271.477C1474.02 271.837 1482.6 272.017 1493.04 272.017C1504.8 272.017 1513.44 271.837 1518.96 271.477V275.077C1514.64 275.197 1511.52 275.737 1509.6 276.697C1507.68 277.537 1506.72 279.217 1506.72 281.737C1506.72 283.897 1507.32 286.717 1508.52 290.197L1533.18 365.437L1550.28 311.077C1553.04 302.077 1554.42 295.117 1554.42 290.197C1554.42 285.037 1553.1 281.317 1550.46 279.037C1547.94 276.637 1544.1 275.317 1538.94 275.077V271.477C1547.1 271.837 1554.54 272.017 1561.26 272.017Z" fill="black"/>
<path d="M1618.59 386.677C1628.43 386.677 1636.35 381.877 1642.35 372.277L1645.59 373.357C1643.19 381.157 1638.87 387.817 1632.63 393.337C1626.51 398.737 1618.83 401.437 1609.59 401.437C1596.87 401.437 1586.73 397.417 1579.17 389.377C1571.73 381.217 1568.01 369.217 1568.01 353.377C1568.01 337.177 1572.03 324.817 1580.07 316.297C1588.11 307.657 1598.79 303.337 1612.11 303.337C1634.67 303.337 1645.95 316.657 1645.95 343.297H1595.37C1595.25 345.097 1595.19 347.917 1595.19 351.757C1595.19 359.677 1596.27 366.277 1598.43 371.557C1600.71 376.837 1603.59 380.677 1607.07 383.077C1610.67 385.477 1614.51 386.677 1618.59 386.677ZM1611.03 307.117C1606.71 307.117 1603.11 309.817 1600.23 315.217C1597.47 320.497 1595.73 328.717 1595.01 339.877H1623.27C1623.51 330.397 1622.55 322.597 1620.39 316.477C1618.35 310.237 1615.23 307.117 1611.03 307.117Z" fill="black"/>
<path d="M1692.91 305.857H1714.15V309.457H1692.91V382.177C1692.91 385.777 1693.51 388.357 1694.71 389.917C1696.03 391.357 1698.07 392.077 1700.83 392.077C1705.99 392.077 1710.07 388.477 1713.07 381.277L1716.13 382.897C1711.57 395.257 1703.35 401.437 1691.47 401.437C1683.55 401.437 1677.55 399.397 1673.47 395.317C1670.95 392.797 1669.21 389.677 1668.25 385.957C1667.41 382.117 1666.99 376.897 1666.99 370.297V309.457H1651.87V305.857H1666.99V282.097C1676.95 282.097 1685.59 280.177 1692.91 276.337V305.857Z" fill="black"/>
<path d="M1771.87 386.677C1781.71 386.677 1789.63 381.877 1795.63 372.277L1798.87 373.357C1796.47 381.157 1792.15 387.817 1785.91 393.337C1779.79 398.737 1772.11 401.437 1762.87 401.437C1750.15 401.437 1740.01 397.417 1732.45 389.377C1725.01 381.217 1721.29 369.217 1721.29 353.377C1721.29 337.177 1725.31 324.817 1733.35 316.297C1741.39 307.657 1752.07 303.337 1765.39 303.337C1787.95 303.337 1799.23 316.657 1799.23 343.297H1748.65C1748.53 345.097 1748.47 347.917 1748.47 351.757C1748.47 359.677 1749.55 366.277 1751.71 371.557C1753.99 376.837 1756.87 380.677 1760.35 383.077C1763.95 385.477 1767.79 386.677 1771.87 386.677ZM1764.31 307.117C1759.99 307.117 1756.39 309.817 1753.51 315.217C1750.75 320.497 1749.01 328.717 1748.29 339.877H1776.55C1776.79 330.397 1775.83 322.597 1773.67 316.477C1771.63 310.237 1768.51 307.117 1764.31 307.117Z" fill="black"/>
<path d="M1870.52 303.337C1875.92 303.337 1880 304.957 1882.76 308.197C1885.52 311.437 1886.9 315.337 1886.9 319.897C1886.9 324.337 1885.58 327.997 1882.94 330.877C1880.42 333.637 1877.06 335.017 1872.86 335.017C1868.78 335.017 1865.54 333.997 1863.14 331.957C1860.74 329.797 1859.54 326.977 1859.54 323.497C1859.54 317.737 1862.18 313.057 1867.46 309.457C1866.98 309.337 1866.26 309.277 1865.3 309.277C1864.1 309.277 1863.14 309.397 1862.42 309.637C1857.86 310.357 1853.96 313.117 1850.72 317.917C1847.6 322.717 1846.04 327.637 1846.04 332.677V380.377C1846.04 385.897 1847.36 389.737 1850 391.897C1852.76 394.057 1857.08 395.137 1862.96 395.137V398.917C1861.28 398.917 1859.9 398.857 1858.82 398.737C1846.58 398.377 1838.42 398.197 1834.34 398.197C1831.1 398.197 1823.72 398.377 1812.2 398.737C1811.24 398.857 1810.04 398.917 1808.6 398.917V395.137C1812.92 395.137 1815.92 394.237 1817.6 392.437C1819.28 390.517 1820.12 387.097 1820.12 382.177V325.477C1820.12 319.957 1819.28 315.937 1817.6 313.417C1815.92 310.897 1812.92 309.637 1808.6 309.637V305.857C1812.44 306.217 1816.16 306.397 1819.76 306.397C1830.44 306.397 1839.2 305.557 1846.04 303.877V320.617C1848.32 315.457 1851.62 311.317 1855.94 308.197C1860.26 304.957 1865.12 303.337 1870.52 303.337Z" fill="black"/>
<path d="M1966.78 306.397C1972.78 306.397 1977.4 306.217 1980.64 305.857V309.457C1978.12 310.177 1975.84 311.737 1973.8 314.137C1971.88 316.417 1970.02 320.017 1968.22 324.937L1936 415.477C1933.6 421.717 1930.96 425.977 1928.08 428.257C1924.6 431.257 1919.38 432.757 1912.42 432.757C1907.38 432.757 1902.82 431.497 1898.74 428.977C1894.78 426.577 1892.8 423.037 1892.8 418.357C1892.8 414.637 1894.12 411.637 1896.76 409.357C1899.4 407.197 1902.88 406.117 1907.2 406.117C1911.28 406.117 1914.52 407.077 1916.92 408.997C1919.44 411.037 1920.7 413.857 1920.7 417.457C1920.7 419.977 1919.92 422.257 1918.36 424.297C1916.8 426.457 1914.58 428.077 1911.7 429.157C1912.54 429.277 1913.92 429.337 1915.84 429.337C1923.28 429.337 1928.74 424.597 1932.22 415.117L1935.1 406.477L1896.94 319.717C1895.02 315.637 1893.16 312.937 1891.36 311.617C1889.56 310.297 1887.7 309.637 1885.78 309.637V305.857C1893.7 306.577 1901.92 306.937 1910.44 306.937C1917.52 306.937 1925.86 306.577 1935.46 305.857V309.637C1931.62 309.637 1928.74 309.937 1926.82 310.537C1925.02 311.017 1924.12 312.397 1924.12 314.677C1924.12 315.997 1924.54 317.677 1925.38 319.717L1947.34 372.817L1959.76 338.257C1961.68 332.617 1962.64 327.817 1962.64 323.857C1962.64 315.097 1958.2 310.297 1949.32 309.457V305.857C1954.96 306.217 1960.78 306.397 1966.78 306.397Z" fill="black"/>
<path d="M2052.92 303.337C2062.04 303.337 2068.64 305.677 2072.72 310.357C2074.76 312.637 2076.2 315.577 2077.04 319.177C2077.88 322.777 2078.3 327.637 2078.3 333.757V382.177C2078.3 387.097 2079.14 390.517 2080.82 392.437C2082.62 394.237 2085.62 395.137 2089.82 395.137V398.917C2077.82 398.437 2069.9 398.197 2066.06 398.197C2062.46 398.197 2054.66 398.437 2042.66 398.917V395.137C2046.26 395.137 2048.78 394.237 2050.22 392.437C2051.66 390.517 2052.38 387.097 2052.38 382.177V326.197C2052.38 321.277 2051.54 317.557 2049.86 315.037C2048.3 312.517 2045.42 311.257 2041.22 311.257C2036.3 311.257 2032.1 313.297 2028.62 317.377C2025.14 321.337 2023.4 326.257 2023.4 332.137V382.177C2023.4 387.097 2024.12 390.517 2025.56 392.437C2027 394.237 2029.52 395.137 2033.12 395.137V398.917C2022.08 398.437 2014.64 398.197 2010.8 398.197C2007.2 398.197 1998.92 398.437 1985.96 398.917V395.137C1990.28 395.137 1993.28 394.237 1994.96 392.437C1996.64 390.517 1997.48 387.097 1997.48 382.177V325.477C1997.48 319.957 1996.64 315.937 1994.96 313.417C1993.28 310.897 1990.28 309.637 1985.96 309.637V305.857C1989.8 306.217 1993.52 306.397 1997.12 306.397C2007.8 306.397 2016.56 305.557 2023.4 303.877V320.077C2028.8 308.917 2038.64 303.337 2052.92 303.337Z" fill="black"/>
<path d="M2120.29 400.177C2112.61 400.177 2106.85 398.197 2103.01 394.237C2099.29 390.277 2097.43 385.057 2097.43 378.577C2097.43 373.177 2098.81 368.737 2101.57 365.257C2104.45 361.657 2107.87 358.897 2111.83 356.977C2115.91 355.057 2121.07 353.017 2127.31 350.857C2133.91 348.577 2138.71 346.537 2141.71 344.737C2144.83 342.817 2146.39 340.237 2146.39 336.997V322.957C2146.39 317.917 2145.19 314.017 2142.79 311.257C2140.51 308.377 2136.91 306.937 2131.99 306.937C2126.23 306.937 2121.85 308.377 2118.85 311.257C2122.21 312.457 2124.79 314.257 2126.59 316.657C2128.51 319.057 2129.47 321.877 2129.47 325.117C2129.47 329.197 2128.09 332.437 2125.33 334.837C2122.57 337.237 2119.21 338.437 2115.25 338.437C2111.05 338.437 2107.81 337.117 2105.53 334.477C2103.25 331.837 2102.11 328.537 2102.11 324.577C2102.11 321.217 2102.89 318.397 2104.45 316.117C2106.13 313.717 2108.65 311.497 2112.01 309.457C2115.25 307.537 2119.21 306.037 2123.89 304.957C2128.69 303.877 2133.91 303.337 2139.55 303.337C2145.43 303.337 2150.53 303.937 2154.85 305.137C2159.17 306.337 2162.77 308.377 2165.65 311.257C2168.29 313.897 2170.03 317.137 2170.87 320.977C2171.83 324.817 2172.31 330.037 2172.31 336.637V385.597C2172.31 388.477 2172.55 390.517 2173.03 391.717C2173.63 392.917 2174.71 393.517 2176.27 393.517C2178.07 393.517 2180.23 392.497 2182.75 390.457L2184.55 393.517C2179.15 397.957 2172.55 400.177 2164.75 400.177C2158.15 400.177 2153.53 398.857 2150.89 396.217C2148.25 393.577 2146.87 390.037 2146.75 385.597C2140.75 395.317 2131.93 400.177 2120.29 400.177ZM2134.15 388.657C2138.83 388.657 2142.91 386.197 2146.39 381.277V344.377C2144.95 346.777 2141.89 349.417 2137.21 352.297C2132.53 355.297 2128.99 358.297 2126.59 361.297C2124.19 364.297 2122.99 368.617 2122.99 374.257C2122.99 379.177 2124.01 382.837 2126.05 385.237C2128.09 387.517 2130.79 388.657 2134.15 388.657Z" fill="black"/>
<path d="M2251.61 303.337C2257.01 303.337 2261.09 304.957 2263.85 308.197C2266.61 311.437 2267.99 315.337 2267.99 319.897C2267.99 324.337 2266.67 327.997 2264.03 330.877C2261.51 333.637 2258.15 335.017 2253.95 335.017C2249.87 335.017 2246.63 333.997 2244.23 331.957C2241.83 329.797 2240.63 326.977 2240.63 323.497C2240.63 317.737 2243.27 313.057 2248.55 309.457C2248.07 309.337 2247.35 309.277 2246.39 309.277C2245.19 309.277 2244.23 309.397 2243.51 309.637C2238.95 310.357 2235.05 313.117 2231.81 317.917C2228.69 322.717 2227.13 327.637 2227.13 332.677V380.377C2227.13 385.897 2228.45 389.737 2231.09 391.897C2233.85 394.057 2238.17 395.137 2244.05 395.137V398.917C2242.37 398.917 2240.99 398.857 2239.91 398.737C2227.67 398.377 2219.51 398.197 2215.43 398.197C2212.19 398.197 2204.81 398.377 2193.29 398.737C2192.33 398.857 2191.13 398.917 2189.69 398.917V395.137C2194.01 395.137 2197.01 394.237 2198.69 392.437C2200.37 390.517 2201.21 387.097 2201.21 382.177V325.477C2201.21 319.957 2200.37 315.937 2198.69 313.417C2197.01 310.897 2194.01 309.637 2189.69 309.637V305.857C2193.53 306.217 2197.25 306.397 2200.85 306.397C2211.53 306.397 2220.29 305.557 2227.13 303.877V320.617C2229.41 315.457 2232.71 311.317 2237.03 308.197C2241.35 304.957 2246.21 303.337 2251.61 303.337Z" fill="black"/>
<path d="M2347.87 306.397C2353.87 306.397 2358.49 306.217 2361.73 305.857V309.457C2359.21 310.177 2356.93 311.737 2354.89 314.137C2352.97 316.417 2351.11 320.017 2349.31 324.937L2317.09 415.477C2314.69 421.717 2312.05 425.977 2309.17 428.257C2305.69 431.257 2300.47 432.757 2293.51 432.757C2288.47 432.757 2283.91 431.497 2279.83 428.977C2275.87 426.577 2273.89 423.037 2273.89 418.357C2273.89 414.637 2275.21 411.637 2277.85 409.357C2280.49 407.197 2283.97 406.117 2288.29 406.117C2292.37 406.117 2295.61 407.077 2298.01 408.997C2300.53 411.037 2301.79 413.857 2301.79 417.457C2301.79 419.977 2301.01 422.257 2299.45 424.297C2297.89 426.457 2295.67 428.077 2292.79 429.157C2293.63 429.277 2295.01 429.337 2296.93 429.337C2304.37 429.337 2309.83 424.597 2313.31 415.117L2316.19 406.477L2278.03 319.717C2276.11 315.637 2274.25 312.937 2272.45 311.617C2270.65 310.297 2268.79 309.637 2266.87 309.637V305.857C2274.79 306.577 2283.01 306.937 2291.53 306.937C2298.61 306.937 2306.95 306.577 2316.55 305.857V309.637C2312.71 309.637 2309.83 309.937 2307.91 310.537C2306.11 311.017 2305.21 312.397 2305.21 314.677C2305.21 315.997 2305.63 317.677 2306.47 319.717L2328.43 372.817L2340.85 338.257C2342.77 332.617 2343.73 327.817 2343.73 323.857C2343.73 315.097 2339.29 310.297 2330.41 309.457V305.857C2336.05 306.217 2341.87 306.397 2347.87 306.397Z" fill="black"/>
<path d="M2358.59 429.517C2364.59 429.277 2369.27 426.877 2372.63 422.317C2376.11 417.757 2377.85 411.037 2377.85 402.157V325.477C2377.85 319.957 2376.95 315.937 2375.15 313.417C2373.47 310.897 2370.53 309.637 2366.33 309.637V305.857C2370.17 306.217 2373.89 306.397 2377.49 306.397C2387.93 306.397 2396.69 305.557 2403.77 303.877V381.997C2403.77 392.077 2402.75 400.357 2400.71 406.837C2398.79 413.317 2395.49 418.717 2390.81 423.037C2383.73 429.517 2372.99 432.757 2358.59 432.757V429.517ZM2388.83 259.417C2393.87 259.417 2397.83 260.677 2400.71 263.197C2403.71 265.597 2405.21 268.957 2405.21 273.277C2405.21 277.597 2403.71 281.017 2400.71 283.537C2397.83 285.937 2393.87 287.137 2388.83 287.137C2383.79 287.137 2379.77 285.937 2376.77 283.537C2373.89 281.017 2372.45 277.597 2372.45 273.277C2372.45 268.957 2373.89 265.597 2376.77 263.197C2379.77 260.677 2383.79 259.417 2388.83 259.417Z" fill="black"/>
<path d="M2487.45 303.337C2496.57 303.337 2503.17 305.677 2507.25 310.357C2509.29 312.637 2510.73 315.577 2511.57 319.177C2512.41 322.777 2512.83 327.637 2512.83 333.757V382.177C2512.83 387.097 2513.67 390.517 2515.35 392.437C2517.15 394.237 2520.15 395.137 2524.35 395.137V398.917C2512.35 398.437 2504.43 398.197 2500.59 398.197C2496.99 398.197 2489.19 398.437 2477.19 398.917V395.137C2480.79 395.137 2483.31 394.237 2484.75 392.437C2486.19 390.517 2486.91 387.097 2486.91 382.177V326.197C2486.91 321.277 2486.07 317.557 2484.39 315.037C2482.83 312.517 2479.95 311.257 2475.75 311.257C2470.83 311.257 2466.63 313.297 2463.15 317.377C2459.67 321.337 2457.93 326.257 2457.93 332.137V382.177C2457.93 387.097 2458.65 390.517 2460.09 392.437C2461.53 394.237 2464.05 395.137 2467.65 395.137V398.917C2456.61 398.437 2449.17 398.197 2445.33 398.197C2441.73 398.197 2433.45 398.437 2420.49 398.917V395.137C2424.81 395.137 2427.81 394.237 2429.49 392.437C2431.17 390.517 2432.01 387.097 2432.01 382.177V325.477C2432.01 319.957 2431.17 315.937 2429.49 313.417C2427.81 310.897 2424.81 309.637 2420.49 309.637V305.857C2424.33 306.217 2428.05 306.397 2431.65 306.397C2442.33 306.397 2451.09 305.557 2457.93 303.877V320.077C2463.33 308.917 2473.17 303.337 2487.45 303.337Z" fill="black"/>
<path d="M2554.82 400.177C2547.14 400.177 2541.38 398.197 2537.54 394.237C2533.82 390.277 2531.96 385.057 2531.96 378.577C2531.96 373.177 2533.34 368.737 2536.1 365.257C2538.98 361.657 2542.4 358.897 2546.36 356.977C2550.44 355.057 2555.6 353.017 2561.84 350.857C2568.44 348.577 2573.24 346.537 2576.24 344.737C2579.36 342.817 2580.92 340.237 2580.92 336.997V322.957C2580.92 317.917 2579.72 314.017 2577.32 311.257C2575.04 308.377 2571.44 306.937 2566.52 306.937C2560.76 306.937 2556.38 308.377 2553.38 311.257C2556.74 312.457 2559.32 314.257 2561.12 316.657C2563.04 319.057 2564 321.877 2564 325.117C2564 329.197 2562.62 332.437 2559.86 334.837C2557.1 337.237 2553.74 338.437 2549.78 338.437C2545.58 338.437 2542.34 337.117 2540.06 334.477C2537.78 331.837 2536.64 328.537 2536.64 324.577C2536.64 321.217 2537.42 318.397 2538.98 316.117C2540.66 313.717 2543.18 311.497 2546.54 309.457C2549.78 307.537 2553.74 306.037 2558.42 304.957C2563.22 303.877 2568.44 303.337 2574.08 303.337C2579.96 303.337 2585.06 303.937 2589.38 305.137C2593.7 306.337 2597.3 308.377 2600.18 311.257C2602.82 313.897 2604.56 317.137 2605.4 320.977C2606.36 324.817 2606.84 330.037 2606.84 336.637V385.597C2606.84 388.477 2607.08 390.517 2607.56 391.717C2608.16 392.917 2609.24 393.517 2610.8 393.517C2612.6 393.517 2614.76 392.497 2617.28 390.457L2619.08 393.517C2613.68 397.957 2607.08 400.177 2599.28 400.177C2592.68 400.177 2588.06 398.857 2585.42 396.217C2582.78 393.577 2581.4 390.037 2581.28 385.597C2575.28 395.317 2566.46 400.177 2554.82 400.177ZM2568.68 388.657C2573.36 388.657 2577.44 386.197 2580.92 381.277V344.377C2579.48 346.777 2576.42 349.417 2571.74 352.297C2567.06 355.297 2563.52 358.297 2561.12 361.297C2558.72 364.297 2557.52 368.617 2557.52 374.257C2557.52 379.177 2558.54 382.837 2560.58 385.237C2562.62 387.517 2565.32 388.657 2568.68 388.657Z" fill="black"/>
<path d="M639.131 435.067V536.917H632.411V435.067H639.131Z" fill="black"/>
<path d="M711.539 495.057C711.539 491.324 711.003 487.987 709.929 485.047C708.903 482.061 707.433 479.541 705.519 477.487C703.606 475.434 701.319 473.871 698.659 472.797C696.046 471.677 693.153 471.117 689.979 471.117C686.386 471.117 683.166 471.677 680.319 472.797C677.473 473.917 674.999 475.527 672.899 477.627C670.846 479.727 669.189 482.247 667.929 485.187C666.669 488.127 665.829 491.417 665.409 495.057H711.539ZM665.059 499.327V500.657C665.059 505.884 665.666 510.481 666.879 514.447C668.093 518.414 669.819 521.751 672.059 524.457C674.299 527.117 677.006 529.124 680.179 530.477C683.353 531.831 686.899 532.507 690.819 532.507C694.319 532.507 697.353 532.134 699.919 531.387C702.486 530.594 704.633 529.731 706.359 528.797C708.133 527.817 709.533 526.954 710.559 526.207C711.586 525.414 712.333 525.017 712.799 525.017C713.406 525.017 713.873 525.251 714.199 525.717L716.019 527.957C714.899 529.357 713.406 530.664 711.539 531.877C709.719 533.091 707.666 534.141 705.379 535.027C703.139 535.867 700.713 536.544 698.099 537.057C695.533 537.571 692.943 537.827 690.329 537.827C685.569 537.827 681.229 537.011 677.309 535.377C673.389 533.697 670.029 531.271 667.229 528.097C664.429 524.924 662.259 521.051 660.719 516.477C659.226 511.857 658.479 506.584 658.479 500.657C658.479 495.664 659.179 491.067 660.579 486.867C662.026 482.621 664.079 478.981 666.739 475.947C669.446 472.867 672.736 470.464 676.609 468.737C680.529 467.011 684.963 466.147 689.909 466.147C693.829 466.147 697.469 466.824 700.829 468.177C704.189 469.531 707.106 471.514 709.579 474.127C712.053 476.694 713.989 479.867 715.389 483.647C716.836 487.427 717.559 491.767 717.559 496.667C717.559 497.694 717.419 498.394 717.139 498.767C716.859 499.141 716.393 499.327 715.739 499.327H665.059Z" fill="black"/>
<path d="M742.407 435.067V497.157H745.627C746.281 497.157 746.887 497.064 747.447 496.877C748.054 496.691 748.707 496.247 749.407 495.547L777.337 469.017C777.804 468.457 778.317 468.037 778.877 467.757C779.437 467.431 780.137 467.267 780.977 467.267H786.857L756.127 496.457C755.287 497.437 754.377 498.207 753.397 498.767C754.144 499.141 754.774 499.584 755.287 500.097C755.847 500.564 756.384 501.124 756.897 501.777L789.167 536.917H783.357C782.704 536.917 782.097 536.824 781.537 536.637C781.024 536.404 780.534 535.961 780.067 535.307L750.807 503.947C750.434 503.527 750.061 503.177 749.687 502.897C749.361 502.617 749.011 502.407 748.637 502.267C748.264 502.081 747.821 501.964 747.307 501.917C746.841 501.824 746.257 501.777 745.557 501.777H742.407V536.917H735.687V435.067H742.407Z" fill="black"/>
<path d="M800.659 531.527C800.659 530.641 800.823 529.801 801.149 529.007C801.476 528.214 801.919 527.537 802.479 526.977C803.086 526.371 803.763 525.904 804.509 525.577C805.303 525.204 806.166 525.017 807.099 525.017C807.986 525.017 808.826 525.204 809.619 525.577C810.413 525.904 811.089 526.371 811.649 526.977C812.256 527.537 812.723 528.214 813.049 529.007C813.423 529.801 813.609 530.641 813.609 531.527C813.609 532.461 813.423 533.324 813.049 534.117C812.723 534.864 812.256 535.541 811.649 536.147C811.089 536.707 810.413 537.151 809.619 537.477C808.826 537.804 807.986 537.967 807.099 537.967C805.279 537.967 803.739 537.361 802.479 536.147C801.266 534.887 800.659 533.347 800.659 531.527Z" fill="black"/>
<path d="M961.995 467.267L938.755 536.917H933.785C932.992 536.917 932.455 536.427 932.175 535.447L913.135 478.887C912.902 478.187 912.692 477.487 912.505 476.787C912.318 476.087 912.155 475.387 912.015 474.687C911.782 476.087 911.432 477.487 910.965 478.887L891.645 535.447C891.365 536.427 890.805 536.917 889.965 536.917H885.205L861.965 467.267H867.005C867.658 467.267 868.195 467.454 868.615 467.827C869.035 468.154 869.315 468.527 869.455 468.947L887.025 523.897C887.305 524.971 887.562 526.021 887.795 527.047C888.028 528.027 888.215 529.007 888.355 529.987C888.635 529.007 888.915 528.027 889.195 527.047C889.475 526.021 889.802 524.971 890.175 523.897L908.795 468.457C909.122 467.431 909.775 466.917 910.755 466.917H913.485C914.512 466.917 915.188 467.431 915.515 468.457L933.995 523.897C934.322 524.971 934.625 525.997 934.905 526.977C935.185 527.957 935.442 528.937 935.675 529.917C935.862 528.937 936.048 527.957 936.235 526.977C936.468 525.997 936.748 524.971 937.075 523.897L954.785 468.947C954.972 468.434 955.275 468.037 955.695 467.757C956.115 467.431 956.605 467.267 957.165 467.267H961.995Z" fill="black"/>
<path d="M1025.04 495.057C1025.04 491.324 1024.5 487.987 1023.43 485.047C1022.4 482.061 1020.93 479.541 1019.02 477.487C1017.1 475.434 1014.82 473.871 1012.16 472.797C1009.54 471.677 1006.65 471.117 1003.48 471.117C999.882 471.117 996.662 471.677 993.816 472.797C990.969 473.917 988.496 475.527 986.396 477.627C984.342 479.727 982.686 482.247 981.426 485.187C980.166 488.127 979.326 491.417 978.906 495.057H1025.04ZM978.556 499.327V500.657C978.556 505.884 979.162 510.481 980.376 514.447C981.589 518.414 983.316 521.751 985.556 524.457C987.796 527.117 990.502 529.124 993.676 530.477C996.849 531.831 1000.4 532.507 1004.32 532.507C1007.82 532.507 1010.85 532.134 1013.42 531.387C1015.98 530.594 1018.13 529.731 1019.86 528.797C1021.63 527.817 1023.03 526.954 1024.06 526.207C1025.08 525.414 1025.83 525.017 1026.3 525.017C1026.9 525.017 1027.37 525.251 1027.7 525.717L1029.52 527.957C1028.4 529.357 1026.9 530.664 1025.04 531.877C1023.22 533.091 1021.16 534.141 1018.88 535.027C1016.64 535.867 1014.21 536.544 1011.6 537.057C1009.03 537.571 1006.44 537.827 1003.83 537.827C999.066 537.827 994.726 537.011 990.806 535.377C986.886 533.697 983.526 531.271 980.726 528.097C977.926 524.924 975.756 521.051 974.216 516.477C972.722 511.857 971.976 506.584 971.976 500.657C971.976 495.664 972.676 491.067 974.076 486.867C975.522 482.621 977.576 478.981 980.236 475.947C982.942 472.867 986.232 470.464 990.106 468.737C994.026 467.011 998.459 466.147 1003.41 466.147C1007.33 466.147 1010.97 466.824 1014.33 468.177C1017.69 469.531 1020.6 471.514 1023.08 474.127C1025.55 476.694 1027.49 479.867 1028.89 483.647C1030.33 487.427 1031.06 491.767 1031.06 496.667C1031.06 497.694 1030.92 498.394 1030.64 498.767C1030.36 499.141 1029.89 499.327 1029.24 499.327H978.556Z" fill="black"/>
<path d="M1067.95 538.037C1063.24 538.037 1059.55 536.731 1056.89 534.117C1054.28 531.504 1052.97 527.467 1052.97 522.007V474.407H1042.96C1042.45 474.407 1042.03 474.267 1041.7 473.987C1041.37 473.707 1041.21 473.311 1041.21 472.797V470.207L1053.11 469.367L1054.79 444.447C1054.88 444.027 1055.07 443.654 1055.35 443.327C1055.63 443.001 1056.03 442.837 1056.54 442.837H1059.69V469.437H1081.67V474.407H1059.69V521.657C1059.69 523.571 1059.92 525.227 1060.39 526.627C1060.9 527.981 1061.58 529.101 1062.42 529.987C1063.31 530.874 1064.33 531.527 1065.5 531.947C1066.67 532.367 1067.93 532.577 1069.28 532.577C1070.96 532.577 1072.41 532.344 1073.62 531.877C1074.83 531.364 1075.88 530.827 1076.77 530.267C1077.66 529.661 1078.38 529.124 1078.94 528.657C1079.5 528.144 1079.94 527.887 1080.27 527.887C1080.64 527.887 1081.02 528.121 1081.39 528.587L1083.21 531.527C1081.44 533.487 1079.17 535.074 1076.42 536.287C1073.71 537.454 1070.89 538.037 1067.95 538.037Z" fill="black"/>
<path d="M1095.29 531.527C1095.29 530.641 1095.45 529.801 1095.78 529.007C1096.1 528.214 1096.55 527.537 1097.11 526.977C1097.71 526.371 1098.39 525.904 1099.14 525.577C1099.93 525.204 1100.79 525.017 1101.73 525.017C1102.61 525.017 1103.45 525.204 1104.25 525.577C1105.04 525.904 1105.72 526.371 1106.28 526.977C1106.88 527.537 1107.35 528.214 1107.68 529.007C1108.05 529.801 1108.24 530.641 1108.24 531.527C1108.24 532.461 1108.05 533.324 1107.68 534.117C1107.35 534.864 1106.88 535.541 1106.28 536.147C1105.72 536.707 1105.04 537.151 1104.25 537.477C1103.45 537.804 1102.61 537.967 1101.73 537.967C1099.91 537.967 1098.37 537.361 1097.11 536.147C1095.89 534.887 1095.29 533.347 1095.29 531.527Z" fill="black"/>
<path d="M1230.89 443.957H1196.1V536.917H1188.89V443.957H1153.89V437.867H1230.89V443.957Z" fill="black"/>
<path d="M1254.63 466.147C1259.63 466.147 1264.08 467.011 1268 468.737C1271.97 470.417 1275.31 472.821 1278.01 475.947C1280.72 479.074 1282.77 482.854 1284.17 487.287C1285.62 491.674 1286.34 496.597 1286.34 502.057C1286.34 507.517 1285.62 512.441 1284.17 516.827C1282.77 521.214 1280.72 524.971 1278.01 528.097C1275.31 531.224 1271.97 533.627 1268 535.307C1264.08 536.987 1259.63 537.827 1254.63 537.827C1249.64 537.827 1245.16 536.987 1241.19 535.307C1237.27 533.627 1233.94 531.224 1231.18 528.097C1228.48 524.971 1226.4 521.214 1224.95 516.827C1223.55 512.441 1222.85 507.517 1222.85 502.057C1222.85 496.597 1223.55 491.674 1224.95 487.287C1226.4 482.854 1228.48 479.074 1231.18 475.947C1233.94 472.821 1237.27 470.417 1241.19 468.737C1245.16 467.011 1249.64 466.147 1254.63 466.147ZM1254.63 532.577C1258.79 532.577 1262.4 531.877 1265.48 530.477C1268.61 529.031 1271.2 526.977 1273.25 524.317C1275.35 521.657 1276.92 518.461 1277.94 514.727C1278.97 510.947 1279.48 506.724 1279.48 502.057C1279.48 497.437 1278.97 493.237 1277.94 489.457C1276.92 485.677 1275.35 482.457 1273.25 479.797C1271.2 477.091 1268.61 475.014 1265.48 473.567C1262.4 472.121 1258.79 471.397 1254.63 471.397C1250.48 471.397 1246.84 472.121 1243.71 473.567C1240.63 475.014 1238.04 477.091 1235.94 479.797C1233.89 482.457 1232.33 485.677 1231.25 489.457C1230.23 493.237 1229.71 497.437 1229.71 502.057C1229.71 506.724 1230.23 510.947 1231.25 514.727C1232.33 518.461 1233.89 521.657 1235.94 524.317C1238.04 526.977 1240.63 529.031 1243.71 530.477C1246.84 531.877 1250.48 532.577 1254.63 532.577Z" fill="black"/>
<path d="M1305.12 536.917V467.267H1308.83C1310 467.267 1310.67 467.851 1310.86 469.017L1311.49 479.097C1314.2 475.224 1317.3 472.097 1320.8 469.717C1324.3 467.337 1328.24 466.147 1332.63 466.147C1337.72 466.147 1341.78 467.617 1344.81 470.557C1347.89 473.497 1349.97 477.581 1351.04 482.807C1351.88 479.961 1353.05 477.487 1354.54 475.387C1356.08 473.287 1357.83 471.561 1359.79 470.207C1361.75 468.807 1363.87 467.781 1366.16 467.127C1368.49 466.474 1370.87 466.147 1373.3 466.147C1376.75 466.147 1379.86 466.731 1382.61 467.897C1385.36 469.017 1387.7 470.697 1389.61 472.937C1391.52 475.177 1392.99 477.931 1394.02 481.197C1395.05 484.464 1395.56 488.197 1395.56 492.397V536.917H1388.91V492.397C1388.91 485.584 1387.44 480.404 1384.5 476.857C1381.56 473.264 1377.36 471.467 1371.9 471.467C1369.47 471.467 1367.14 471.911 1364.9 472.797C1362.71 473.684 1360.75 475.014 1359.02 476.787C1357.34 478.514 1355.99 480.684 1354.96 483.297C1353.98 485.911 1353.49 488.944 1353.49 492.397V536.917H1346.77V492.397C1346.77 485.631 1345.42 480.451 1342.71 476.857C1340.05 473.264 1336.13 471.467 1330.95 471.467C1327.17 471.467 1323.67 472.587 1320.45 474.827C1317.23 477.067 1314.36 480.171 1311.84 484.137V536.917H1305.12Z" fill="black"/>
<path d="M1456.77 503.247C1450.14 503.481 1444.42 504.017 1439.62 504.857C1434.86 505.651 1430.91 506.747 1427.79 508.147C1424.71 509.547 1422.42 511.227 1420.93 513.187C1419.43 515.101 1418.69 517.294 1418.69 519.767C1418.69 522.101 1419.06 524.131 1419.81 525.857C1420.6 527.537 1421.63 528.937 1422.89 530.057C1424.19 531.131 1425.69 531.924 1427.37 532.437C1429.05 532.951 1430.8 533.207 1432.62 533.207C1435.32 533.207 1437.8 532.927 1440.04 532.367C1442.32 531.761 1444.42 530.944 1446.34 529.917C1448.3 528.844 1450.12 527.584 1451.8 526.137C1453.48 524.691 1455.13 523.127 1456.77 521.447V503.247ZM1415.82 477.137C1419.46 473.497 1423.28 470.744 1427.3 468.877C1431.31 467.011 1435.86 466.077 1440.95 466.077C1444.68 466.077 1447.95 466.684 1450.75 467.897C1453.55 469.064 1455.86 470.767 1457.68 473.007C1459.54 475.201 1460.94 477.884 1461.88 481.057C1462.81 484.184 1463.28 487.684 1463.28 491.557V536.917H1460.62C1459.22 536.917 1458.35 536.264 1458.03 534.957L1457.05 525.997C1455.13 527.864 1453.22 529.544 1451.31 531.037C1449.44 532.531 1447.48 533.791 1445.43 534.817C1443.37 535.844 1441.16 536.637 1438.78 537.197C1436.4 537.757 1433.78 538.037 1430.94 538.037C1428.56 538.037 1426.25 537.687 1424.01 536.987C1421.77 536.287 1419.76 535.214 1417.99 533.767C1416.26 532.321 1414.86 530.477 1413.79 528.237C1412.76 525.951 1412.25 523.221 1412.25 520.047C1412.25 517.107 1413.09 514.377 1414.77 511.857C1416.45 509.337 1419.08 507.144 1422.68 505.277C1426.27 503.411 1430.87 501.917 1436.47 500.797C1442.11 499.677 1448.88 499.024 1456.77 498.837V491.557C1456.77 485.117 1455.37 480.171 1452.57 476.717C1449.81 473.217 1445.71 471.467 1440.25 471.467C1436.89 471.467 1434.02 471.934 1431.64 472.867C1429.3 473.801 1427.32 474.827 1425.69 475.947C1424.05 477.067 1422.72 478.094 1421.7 479.027C1420.67 479.961 1419.81 480.427 1419.11 480.427C1418.59 480.427 1418.17 480.311 1417.85 480.077C1417.52 479.844 1417.24 479.541 1417.01 479.167L1415.82 477.137Z" fill="black"/>
<path d="M1523.88 475.877C1523.51 476.531 1522.97 476.857 1522.27 476.857C1521.76 476.857 1521.1 476.577 1520.31 476.017C1519.52 475.411 1518.44 474.757 1517.09 474.057C1515.78 473.311 1514.15 472.657 1512.19 472.097C1510.23 471.491 1507.85 471.187 1505.05 471.187C1502.53 471.187 1500.22 471.561 1498.12 472.307C1496.07 473.007 1494.29 473.964 1492.8 475.177C1491.35 476.391 1490.23 477.814 1489.44 479.447C1488.65 481.034 1488.25 482.714 1488.25 484.487C1488.25 486.681 1488.81 488.501 1489.93 489.947C1491.05 491.394 1492.5 492.631 1494.27 493.657C1496.09 494.684 1498.17 495.571 1500.5 496.317C1502.83 497.064 1505.19 497.811 1507.57 498.557C1510 499.304 1512.38 500.144 1514.71 501.077C1517.04 501.964 1519.1 503.084 1520.87 504.437C1522.69 505.791 1524.16 507.447 1525.28 509.407C1526.4 511.367 1526.96 513.747 1526.96 516.547C1526.96 519.581 1526.42 522.404 1525.35 525.017C1524.28 527.631 1522.69 529.894 1520.59 531.807C1518.54 533.721 1515.99 535.237 1512.96 536.357C1509.93 537.477 1506.45 538.037 1502.53 538.037C1497.63 538.037 1493.41 537.267 1489.86 535.727C1486.31 534.141 1483.14 532.087 1480.34 529.567L1481.88 527.187C1482.11 526.814 1482.37 526.534 1482.65 526.347C1482.98 526.161 1483.4 526.067 1483.91 526.067C1484.52 526.067 1485.24 526.441 1486.08 527.187C1486.97 527.934 1488.13 528.751 1489.58 529.637C1491.03 530.477 1492.8 531.271 1494.9 532.017C1497.05 532.764 1499.68 533.137 1502.81 533.137C1505.75 533.137 1508.34 532.741 1510.58 531.947C1512.82 531.107 1514.69 529.987 1516.18 528.587C1517.67 527.187 1518.79 525.554 1519.54 523.687C1520.33 521.774 1520.73 519.767 1520.73 517.667C1520.73 515.334 1520.17 513.397 1519.05 511.857C1517.93 510.317 1516.46 509.011 1514.64 507.937C1512.82 506.864 1510.74 505.954 1508.41 505.207C1506.12 504.461 1503.77 503.714 1501.34 502.967C1498.91 502.221 1496.53 501.404 1494.2 500.517C1491.91 499.631 1489.86 498.511 1488.04 497.157C1486.22 495.804 1484.75 494.171 1483.63 492.257C1482.51 490.297 1481.95 487.871 1481.95 484.977C1481.95 482.504 1482.49 480.124 1483.56 477.837C1484.63 475.551 1486.15 473.544 1488.11 471.817C1490.12 470.091 1492.54 468.714 1495.39 467.687C1498.24 466.661 1501.43 466.147 1504.98 466.147C1509.23 466.147 1512.98 466.754 1516.25 467.967C1519.56 469.181 1522.57 471.047 1525.28 473.567L1523.88 475.877Z" fill="black"/>
<path d="M1590.77 467.267V470.067C1590.77 471.047 1590.45 471.934 1589.79 472.727L1546.18 531.667H1589.02V536.917H1538.13V534.257C1538.13 533.464 1538.48 532.601 1539.18 531.667L1582.93 472.517H1540.44V467.267H1590.77Z" fill="black"/>
<path d="M1646.12 503.247C1639.5 503.481 1633.78 504.017 1628.97 504.857C1624.21 505.651 1620.27 506.747 1617.14 508.147C1614.06 509.547 1611.78 511.227 1610.28 513.187C1608.79 515.101 1608.04 517.294 1608.04 519.767C1608.04 522.101 1608.42 524.131 1609.16 525.857C1609.96 527.537 1610.98 528.937 1612.24 530.057C1613.55 531.131 1615.04 531.924 1616.72 532.437C1618.4 532.951 1620.15 533.207 1621.97 533.207C1624.68 533.207 1627.15 532.927 1629.39 532.367C1631.68 531.761 1633.78 530.944 1635.69 529.917C1637.65 528.844 1639.47 527.584 1641.15 526.137C1642.83 524.691 1644.49 523.127 1646.12 521.447V503.247ZM1605.17 477.137C1608.81 473.497 1612.64 470.744 1616.65 468.877C1620.67 467.011 1625.22 466.077 1630.3 466.077C1634.04 466.077 1637.3 466.684 1640.1 467.897C1642.9 469.064 1645.21 470.767 1647.03 473.007C1648.9 475.201 1650.3 477.884 1651.23 481.057C1652.17 484.184 1652.63 487.684 1652.63 491.557V536.917H1649.97C1648.57 536.917 1647.71 536.264 1647.38 534.957L1646.4 525.997C1644.49 527.864 1642.58 529.544 1640.66 531.037C1638.8 532.531 1636.84 533.791 1634.78 534.817C1632.73 535.844 1630.51 536.637 1628.13 537.197C1625.75 537.757 1623.14 538.037 1620.29 538.037C1617.91 538.037 1615.6 537.687 1613.36 536.987C1611.12 536.287 1609.12 535.214 1607.34 533.767C1605.62 532.321 1604.22 530.477 1603.14 528.237C1602.12 525.951 1601.6 523.221 1601.6 520.047C1601.6 517.107 1602.44 514.377 1604.12 511.857C1605.8 509.337 1608.44 507.144 1612.03 505.277C1615.63 503.411 1620.22 501.917 1625.82 500.797C1631.47 499.677 1638.24 499.024 1646.12 498.837V491.557C1646.12 485.117 1644.72 480.171 1641.92 476.717C1639.17 473.217 1635.06 471.467 1629.6 471.467C1626.24 471.467 1623.37 471.934 1620.99 472.867C1618.66 473.801 1616.68 474.827 1615.04 475.947C1613.41 477.067 1612.08 478.094 1611.05 479.027C1610.03 479.961 1609.16 480.427 1608.46 480.427C1607.95 480.427 1607.53 480.311 1607.2 480.077C1606.88 479.844 1606.6 479.541 1606.36 479.167L1605.17 477.137Z" fill="black"/>
<path d="M1748.16 531.177C1756.84 531.177 1763.4 529.311 1767.83 525.577C1772.31 521.797 1774.55 516.501 1774.55 509.687C1774.55 506.561 1773.95 503.761 1772.73 501.287C1771.57 498.767 1769.86 496.644 1767.62 494.917C1765.38 493.144 1762.63 491.791 1759.36 490.857C1756.1 489.924 1752.39 489.457 1748.23 489.457H1723.31V531.177H1748.16ZM1723.31 443.537V484.207H1744.73C1749.31 484.207 1753.2 483.624 1756.42 482.457C1759.69 481.291 1762.35 479.751 1764.4 477.837C1766.5 475.924 1768.04 473.754 1769.02 471.327C1770 468.901 1770.49 466.404 1770.49 463.837C1770.49 457.164 1768.37 452.124 1764.12 448.717C1759.92 445.264 1753.41 443.537 1744.59 443.537H1723.31ZM1744.59 437.867C1750.24 437.867 1755.14 438.427 1759.29 439.547C1763.45 440.667 1766.88 442.324 1769.58 444.517C1772.29 446.664 1774.3 449.301 1775.6 452.427C1776.91 455.554 1777.56 459.101 1777.56 463.067C1777.56 465.681 1777.1 468.201 1776.16 470.627C1775.28 473.054 1773.97 475.294 1772.24 477.347C1770.56 479.401 1768.46 481.197 1765.94 482.737C1763.47 484.231 1760.62 485.374 1757.4 486.167C1765.2 487.287 1771.17 489.877 1775.32 493.937C1779.52 497.951 1781.62 503.247 1781.62 509.827C1781.62 514.027 1780.88 517.807 1779.38 521.167C1777.89 524.527 1775.72 527.374 1772.87 529.707C1770.03 532.041 1766.53 533.837 1762.37 535.097C1758.22 536.311 1753.51 536.917 1748.23 536.917H1716.1V437.867H1744.59Z" fill="black"/>
<path d="M1806 484.067C1807.08 481.221 1808.29 478.701 1809.64 476.507C1811.04 474.267 1812.63 472.377 1814.4 470.837C1816.22 469.297 1818.23 468.131 1820.42 467.337C1822.66 466.497 1825.14 466.077 1827.84 466.077C1829.29 466.077 1830.71 466.217 1832.11 466.497C1833.51 466.731 1834.75 467.174 1835.82 467.827L1835.26 472.447C1835.03 473.194 1834.59 473.567 1833.93 473.567C1833.37 473.567 1832.51 473.404 1831.34 473.077C1830.22 472.751 1828.73 472.587 1826.86 472.587C1824.16 472.587 1821.75 473.007 1819.65 473.847C1817.6 474.641 1815.73 475.854 1814.05 477.487C1812.42 479.121 1810.97 481.151 1809.71 483.577C1808.5 485.957 1807.38 488.711 1806.35 491.837V536.917H1799.63V467.267H1803.2C1804 467.267 1804.56 467.431 1804.88 467.757C1805.21 468.084 1805.42 468.644 1805.51 469.437L1806 484.067Z" fill="black"/>
<path d="M1894.83 467.267V470.067C1894.83 471.047 1894.51 471.934 1893.85 472.727L1850.24 531.667H1893.08V536.917H1842.19V534.257C1842.19 533.464 1842.54 532.601 1843.24 531.667L1886.99 472.517H1844.5V467.267H1894.83Z" fill="black"/>
<path d="M1958.69 495.057C1958.69 491.324 1958.15 487.987 1957.08 485.047C1956.05 482.061 1954.58 479.541 1952.67 477.487C1950.75 475.434 1948.47 473.871 1945.81 472.797C1943.19 471.677 1940.3 471.117 1937.13 471.117C1933.53 471.117 1930.31 471.677 1927.47 472.797C1924.62 473.917 1922.15 475.527 1920.05 477.627C1917.99 479.727 1916.34 482.247 1915.08 485.187C1913.82 488.127 1912.98 491.417 1912.56 495.057H1958.69ZM1912.21 499.327V500.657C1912.21 505.884 1912.81 510.481 1914.03 514.447C1915.24 518.414 1916.97 521.751 1919.21 524.457C1921.45 527.117 1924.15 529.124 1927.33 530.477C1930.5 531.831 1934.05 532.507 1937.97 532.507C1941.47 532.507 1944.5 532.134 1947.07 531.387C1949.63 530.594 1951.78 529.731 1953.51 528.797C1955.28 527.817 1956.68 526.954 1957.71 526.207C1958.73 525.414 1959.48 525.017 1959.95 525.017C1960.55 525.017 1961.02 525.251 1961.35 525.717L1963.17 527.957C1962.05 529.357 1960.55 530.664 1958.69 531.877C1956.87 533.091 1954.81 534.141 1952.53 535.027C1950.29 535.867 1947.86 536.544 1945.25 537.057C1942.68 537.571 1940.09 537.827 1937.48 537.827C1932.72 537.827 1928.38 537.011 1924.46 535.377C1920.54 533.697 1917.18 531.271 1914.38 528.097C1911.58 524.924 1909.41 521.051 1907.87 516.477C1906.37 511.857 1905.63 506.584 1905.63 500.657C1905.63 495.664 1906.33 491.067 1907.73 486.867C1909.17 482.621 1911.23 478.981 1913.89 475.947C1916.59 472.867 1919.88 470.464 1923.76 468.737C1927.68 467.011 1932.11 466.147 1937.06 466.147C1940.98 466.147 1944.62 466.824 1947.98 468.177C1951.34 469.531 1954.25 471.514 1956.73 474.127C1959.2 476.694 1961.14 479.867 1962.54 483.647C1963.98 487.427 1964.71 491.767 1964.71 496.667C1964.71 497.694 1964.57 498.394 1964.29 498.767C1964.01 499.141 1963.54 499.327 1962.89 499.327H1912.21Z" fill="black"/>
<path d="M2021.13 475.877C2020.75 476.531 2020.22 476.857 2019.52 476.857C2019 476.857 2018.35 476.577 2017.56 476.017C2016.76 475.411 2015.69 474.757 2014.34 474.057C2013.03 473.311 2011.4 472.657 2009.44 472.097C2007.48 471.491 2005.1 471.187 2002.3 471.187C1999.78 471.187 1997.47 471.561 1995.37 472.307C1993.31 473.007 1991.54 473.964 1990.05 475.177C1988.6 476.391 1987.48 477.814 1986.69 479.447C1985.89 481.034 1985.5 482.714 1985.5 484.487C1985.5 486.681 1986.06 488.501 1987.18 489.947C1988.3 491.394 1989.74 492.631 1991.52 493.657C1993.34 494.684 1995.41 495.571 1997.75 496.317C2000.08 497.064 2002.44 497.811 2004.82 498.557C2007.24 499.304 2009.62 500.144 2011.96 501.077C2014.29 501.964 2016.34 503.084 2018.12 504.437C2019.94 505.791 2021.41 507.447 2022.53 509.407C2023.65 511.367 2024.21 513.747 2024.21 516.547C2024.21 519.581 2023.67 522.404 2022.6 525.017C2021.52 527.631 2019.94 529.894 2017.84 531.807C2015.78 533.721 2013.24 535.237 2010.21 536.357C2007.17 537.477 2003.7 538.037 1999.78 538.037C1994.88 538.037 1990.65 537.267 1987.11 535.727C1983.56 534.141 1980.39 532.087 1977.59 529.567L1979.13 527.187C1979.36 526.814 1979.62 526.534 1979.9 526.347C1980.22 526.161 1980.64 526.067 1981.16 526.067C1981.76 526.067 1982.49 526.441 1983.33 527.187C1984.21 527.934 1985.38 528.751 1986.83 529.637C1988.27 530.477 1990.05 531.271 1992.15 532.017C1994.29 532.764 1996.93 533.137 2000.06 533.137C2003 533.137 2005.59 532.741 2007.83 531.947C2010.07 531.107 2011.93 529.987 2013.43 528.587C2014.92 527.187 2016.04 525.554 2016.79 523.687C2017.58 521.774 2017.98 519.767 2017.98 517.667C2017.98 515.334 2017.42 513.397 2016.3 511.857C2015.18 510.317 2013.71 509.011 2011.89 507.937C2010.07 506.864 2007.99 505.954 2005.66 505.207C2003.37 504.461 2001.01 503.714 1998.59 502.967C1996.16 502.221 1993.78 501.404 1991.45 500.517C1989.16 499.631 1987.11 498.511 1985.29 497.157C1983.47 495.804 1982 494.171 1980.88 492.257C1979.76 490.297 1979.2 487.871 1979.2 484.977C1979.2 482.504 1979.73 480.124 1980.81 477.837C1981.88 475.551 1983.4 473.544 1985.36 471.817C1987.36 470.091 1989.79 468.714 1992.64 467.687C1995.48 466.661 1998.68 466.147 2002.23 466.147C2006.47 466.147 2010.23 466.754 2013.5 467.967C2016.81 469.181 2019.82 471.047 2022.53 473.567L2021.13 475.877Z" fill="black"/>
<path d="M2049.03 435.067V497.157H2052.25C2052.9 497.157 2053.51 497.064 2054.07 496.877C2054.68 496.691 2055.33 496.247 2056.03 495.547L2083.96 469.017C2084.42 468.457 2084.94 468.037 2085.5 467.757C2086.06 467.431 2086.76 467.267 2087.6 467.267H2093.48L2062.75 496.457C2061.91 497.437 2061 498.207 2060.02 498.767C2060.76 499.141 2061.4 499.584 2061.91 500.097C2062.47 500.564 2063 501.124 2063.52 501.777L2095.79 536.917H2089.98C2089.32 536.917 2088.72 536.824 2088.16 536.637C2087.65 536.404 2087.16 535.961 2086.69 535.307L2057.43 503.947C2057.06 503.527 2056.68 503.177 2056.31 502.897C2055.98 502.617 2055.63 502.407 2055.26 502.267C2054.88 502.081 2054.44 501.964 2053.93 501.917C2053.46 501.824 2052.88 501.777 2052.18 501.777H2049.03V536.917H2042.31V435.067H2049.03Z" fill="black"/>
<path d="M2116.31 467.267V536.917H2109.66V467.267H2116.31ZM2119.18 443.257C2119.18 444.097 2118.99 444.891 2118.62 445.637C2118.29 446.337 2117.85 446.967 2117.29 447.527C2116.73 448.087 2116.08 448.531 2115.33 448.857C2114.58 449.184 2113.79 449.347 2112.95 449.347C2112.11 449.347 2111.32 449.184 2110.57 448.857C2109.82 448.531 2109.17 448.087 2108.61 447.527C2108.05 446.967 2107.61 446.337 2107.28 445.637C2106.95 444.891 2106.79 444.097 2106.79 443.257C2106.79 442.417 2106.95 441.624 2107.28 440.877C2107.61 440.084 2108.05 439.407 2108.61 438.847C2109.17 438.287 2109.82 437.844 2110.57 437.517C2111.32 437.191 2112.11 437.027 2112.95 437.027C2113.79 437.027 2114.58 437.191 2115.33 437.517C2116.08 437.844 2116.73 438.287 2117.29 438.847C2117.85 439.407 2118.29 440.084 2118.62 440.877C2118.99 441.624 2119.18 442.417 2119.18 443.257Z" fill="black"/>
<path d="M2188.92 495.057C2188.92 491.324 2188.39 487.987 2187.31 485.047C2186.29 482.061 2184.82 479.541 2182.9 477.487C2180.99 475.434 2178.7 473.871 2176.04 472.797C2173.43 471.677 2170.54 471.117 2167.36 471.117C2163.77 471.117 2160.55 471.677 2157.7 472.797C2154.86 473.917 2152.38 475.527 2150.28 477.627C2148.23 479.727 2146.57 482.247 2145.31 485.187C2144.05 488.127 2143.21 491.417 2142.79 495.057H2188.92ZM2142.44 499.327V500.657C2142.44 505.884 2143.05 510.481 2144.26 514.447C2145.48 518.414 2147.2 521.751 2149.44 524.457C2151.68 527.117 2154.39 529.124 2157.56 530.477C2160.74 531.831 2164.28 532.507 2168.2 532.507C2171.7 532.507 2174.74 532.134 2177.3 531.387C2179.87 530.594 2182.02 529.731 2183.74 528.797C2185.52 527.817 2186.92 526.954 2187.94 526.207C2188.97 525.414 2189.72 525.017 2190.18 525.017C2190.79 525.017 2191.26 525.251 2191.58 525.717L2193.4 527.957C2192.28 529.357 2190.79 530.664 2188.92 531.877C2187.1 533.091 2185.05 534.141 2182.76 535.027C2180.52 535.867 2178.1 536.544 2175.48 537.057C2172.92 537.571 2170.33 537.827 2167.71 537.827C2162.95 537.827 2158.61 537.011 2154.69 535.377C2150.77 533.697 2147.41 531.271 2144.61 528.097C2141.81 524.924 2139.64 521.051 2138.1 516.477C2136.61 511.857 2135.86 506.584 2135.86 500.657C2135.86 495.664 2136.56 491.067 2137.96 486.867C2139.41 482.621 2141.46 478.981 2144.12 475.947C2146.83 472.867 2150.12 470.464 2153.99 468.737C2157.91 467.011 2162.35 466.147 2167.29 466.147C2171.21 466.147 2174.85 466.824 2178.21 468.177C2181.57 469.531 2184.49 471.514 2186.96 474.127C2189.44 476.694 2191.37 479.867 2192.77 483.647C2194.22 487.427 2194.94 491.767 2194.94 496.667C2194.94 497.694 2194.8 498.394 2194.52 498.767C2194.24 499.141 2193.78 499.327 2193.12 499.327H2142.44Z" fill="black"/>
<path d="M2235.82 506.117C2238.81 506.117 2241.47 505.697 2243.8 504.857C2246.13 503.971 2248.09 502.757 2249.68 501.217C2251.27 499.677 2252.48 497.834 2253.32 495.687C2254.16 493.541 2254.58 491.161 2254.58 488.547C2254.58 485.934 2254.14 483.554 2253.25 481.407C2252.41 479.214 2251.17 477.347 2249.54 475.807C2247.95 474.267 2245.99 473.077 2243.66 472.237C2241.37 471.397 2238.76 470.977 2235.82 470.977C2232.88 470.977 2230.24 471.397 2227.91 472.237C2225.62 473.077 2223.66 474.267 2222.03 475.807C2220.44 477.347 2219.23 479.214 2218.39 481.407C2217.55 483.554 2217.13 485.934 2217.13 488.547C2217.13 491.161 2217.55 493.541 2218.39 495.687C2219.23 497.834 2220.44 499.677 2222.03 501.217C2223.66 502.757 2225.62 503.971 2227.91 504.857C2230.24 505.697 2232.88 506.117 2235.82 506.117ZM2261.86 541.607C2261.86 539.414 2261.28 537.664 2260.11 536.357C2258.99 535.004 2257.47 533.954 2255.56 533.207C2253.65 532.461 2251.43 531.947 2248.91 531.667C2246.44 531.341 2243.82 531.107 2241.07 530.967C2238.36 530.827 2235.63 530.687 2232.88 530.547C2230.13 530.407 2227.54 530.127 2225.11 529.707C2223.34 530.407 2221.7 531.224 2220.21 532.157C2218.72 533.044 2217.43 534.071 2216.36 535.237C2215.29 536.404 2214.45 537.664 2213.84 539.017C2213.23 540.417 2212.93 541.911 2212.93 543.497C2212.93 545.551 2213.44 547.441 2214.47 549.167C2215.54 550.941 2217.08 552.457 2219.09 553.717C2221.14 555.024 2223.64 556.051 2226.58 556.797C2229.52 557.544 2232.9 557.917 2236.73 557.917C2240.28 557.917 2243.57 557.521 2246.6 556.727C2249.68 555.934 2252.34 554.814 2254.58 553.367C2256.87 551.921 2258.64 550.194 2259.9 548.187C2261.21 546.181 2261.86 543.987 2261.86 541.607ZM2269.14 470.347V472.657C2269.14 473.684 2268.49 474.314 2267.18 474.547L2256.54 475.317C2257.85 477.091 2258.85 479.074 2259.55 481.267C2260.25 483.461 2260.6 485.841 2260.6 488.407C2260.6 491.767 2259.99 494.824 2258.78 497.577C2257.61 500.284 2255.93 502.617 2253.74 504.577C2251.59 506.491 2248.98 507.984 2245.9 509.057C2242.87 510.131 2239.51 510.667 2235.82 510.667C2231.85 510.667 2228.24 510.061 2224.97 508.847C2223.01 509.967 2221.45 511.297 2220.28 512.837C2219.16 514.331 2218.6 515.824 2218.6 517.317C2218.6 519.324 2219.3 520.864 2220.7 521.937C2222.15 523.011 2224.01 523.804 2226.3 524.317C2228.63 524.784 2231.27 525.087 2234.21 525.227C2237.2 525.367 2240.23 525.531 2243.31 525.717C2246.39 525.857 2249.4 526.137 2252.34 526.557C2255.33 526.977 2257.96 527.724 2260.25 528.797C2262.58 529.824 2264.45 531.294 2265.85 533.207C2267.3 535.074 2268.02 537.571 2268.02 540.697C2268.02 543.591 2267.3 546.367 2265.85 549.027C2264.4 551.687 2262.3 554.044 2259.55 556.097C2256.84 558.151 2253.55 559.784 2249.68 560.997C2245.81 562.257 2241.47 562.887 2236.66 562.887C2231.76 562.887 2227.47 562.374 2223.78 561.347C2220.09 560.367 2216.99 559.014 2214.47 557.287C2212 555.607 2210.13 553.647 2208.87 551.407C2207.61 549.167 2206.98 546.787 2206.98 544.267C2206.98 540.581 2208.19 537.431 2210.62 534.817C2213.05 532.157 2216.36 530.081 2220.56 528.587C2218.23 527.794 2216.34 526.651 2214.89 525.157C2213.49 523.617 2212.79 521.541 2212.79 518.927C2212.79 517.947 2212.98 516.921 2213.35 515.847C2213.72 514.774 2214.28 513.724 2215.03 512.697C2215.78 511.624 2216.69 510.621 2217.76 509.687C2218.83 508.754 2220.05 507.914 2221.4 507.167C2218.09 505.254 2215.5 502.711 2213.63 499.537C2211.81 496.364 2210.9 492.654 2210.9 488.407C2210.9 485.047 2211.48 482.014 2212.65 479.307C2213.86 476.554 2215.57 474.197 2217.76 472.237C2219.95 470.277 2222.57 468.761 2225.6 467.687C2228.68 466.614 2232.09 466.077 2235.82 466.077C2238.9 466.077 2241.72 466.451 2244.29 467.197C2246.9 467.944 2249.24 468.994 2251.29 470.347H2269.14Z" fill="black"/>
<path d="M2311.2 466.147C2316.19 466.147 2320.65 467.011 2324.57 468.737C2328.53 470.417 2331.87 472.821 2334.58 475.947C2337.28 479.074 2339.34 482.854 2340.74 487.287C2342.18 491.674 2342.91 496.597 2342.91 502.057C2342.91 507.517 2342.18 512.441 2340.74 516.827C2339.34 521.214 2337.28 524.971 2334.58 528.097C2331.87 531.224 2328.53 533.627 2324.57 535.307C2320.65 536.987 2316.19 537.827 2311.2 537.827C2306.2 537.827 2301.72 536.987 2297.76 535.307C2293.84 533.627 2290.5 531.224 2287.75 528.097C2285.04 524.971 2282.96 521.214 2281.52 516.827C2280.12 512.441 2279.42 507.517 2279.42 502.057C2279.42 496.597 2280.12 491.674 2281.52 487.287C2282.96 482.854 2285.04 479.074 2287.75 475.947C2290.5 472.821 2293.84 470.417 2297.76 468.737C2301.72 467.011 2306.2 466.147 2311.2 466.147ZM2311.2 532.577C2315.35 532.577 2318.97 531.877 2322.05 530.477C2325.17 529.031 2327.76 526.977 2329.82 524.317C2331.92 521.657 2333.48 518.461 2334.51 514.727C2335.53 510.947 2336.05 506.724 2336.05 502.057C2336.05 497.437 2335.53 493.237 2334.51 489.457C2333.48 485.677 2331.92 482.457 2329.82 479.797C2327.76 477.091 2325.17 475.014 2322.05 473.567C2318.97 472.121 2315.35 471.397 2311.2 471.397C2307.04 471.397 2303.4 472.121 2300.28 473.567C2297.2 475.014 2294.61 477.091 2292.51 479.797C2290.45 482.457 2288.89 485.677 2287.82 489.457C2286.79 493.237 2286.28 497.437 2286.28 502.057C2286.28 506.724 2286.79 510.947 2287.82 514.727C2288.89 518.461 2290.45 521.657 2292.51 524.317C2294.61 526.977 2297.2 529.031 2300.28 530.477C2303.4 531.877 2307.04 532.577 2311.2 532.577Z" fill="black"/>
</svg>
