<svg width="1456" height="539" viewBox="0 0 1456 539" fill="none" xmlns="http://www.w3.org/2000/svg">
<path d="M749.428 173.603V219.538C743.162 224.104 736.482 227.605 729.389 230.04C722.295 232.476 714.314 233.693 705.447 233.693C695.516 233.693 686.59 232.141 678.668 229.036C670.747 225.87 663.978 221.426 658.362 215.703C652.806 209.919 648.52 202.948 645.505 194.79C642.549 186.631 641.071 177.56 641.071 167.575C641.071 157.59 642.52 148.549 645.416 140.452C648.372 132.294 652.569 125.353 658.008 119.63C663.505 113.847 670.126 109.402 677.87 106.297C685.614 103.131 694.334 101.548 704.028 101.548C708.817 101.548 713.221 101.883 717.24 102.553C721.319 103.223 725.103 104.227 728.59 105.567C732.078 106.845 735.33 108.458 738.344 110.407C741.359 112.294 744.256 114.486 747.034 116.982L744.551 121C743.724 122.461 742.482 122.796 740.827 122.005C739.94 121.639 738.669 120.787 737.014 119.448C735.359 118.108 733.083 116.708 730.187 115.247C727.29 113.786 723.684 112.477 719.369 111.32C715.112 110.163 709.91 109.585 703.762 109.585C695.605 109.585 688.215 110.924 681.594 113.603C675.033 116.282 669.417 120.117 664.747 125.11C660.136 130.102 656.559 136.19 654.017 143.374C651.535 150.559 650.293 158.625 650.293 167.575C650.293 176.647 651.535 184.805 654.017 192.05C656.559 199.295 660.195 205.444 664.924 210.497C669.712 215.55 675.506 219.416 682.304 222.095C689.102 224.774 696.757 226.114 705.27 226.114C708.994 226.114 712.423 225.87 715.556 225.383C718.748 224.896 721.763 224.226 724.6 223.374C727.497 222.461 730.275 221.365 732.935 220.086C735.655 218.747 738.403 217.255 741.182 215.611V180.817H717.152C716.502 180.817 715.94 180.604 715.467 180.178C715.053 179.752 714.846 179.265 714.846 178.717V173.603H749.428Z" fill="black"/>
<path d="M886.223 167.575C886.223 177.56 884.774 186.54 881.878 194.516C878.981 202.491 874.902 209.28 869.641 214.881C864.38 220.482 858.055 224.774 850.665 227.757C843.335 230.741 835.236 232.232 826.369 232.232H780.526V103.009H826.369C835.236 103.009 843.335 104.501 850.665 107.484C858.055 110.468 864.38 114.76 869.641 120.361C874.902 125.962 878.981 132.75 881.878 140.726C884.774 148.702 886.223 157.651 886.223 167.575ZM876.824 167.575C876.824 158.565 875.612 150.528 873.188 143.466C870.764 136.403 867.336 130.437 862.902 125.566C858.468 120.696 853.148 116.982 846.941 114.425C840.734 111.868 833.877 110.589 826.369 110.589H789.659V224.652H826.369C833.877 224.652 840.734 223.374 846.941 220.817C853.148 218.26 858.468 214.546 862.902 209.675C867.336 204.805 870.764 198.838 873.188 191.776C875.612 184.714 876.824 176.647 876.824 167.575Z" fill="black"/>
<path d="M948.84 178.991V232.232H939.796V178.991L893.332 103.009H901.312C902.14 103.009 902.82 103.223 903.352 103.649C903.884 104.014 904.327 104.562 904.682 105.293L940.594 164.653C941.362 166.053 942.072 167.423 942.722 168.762C943.372 170.041 943.934 171.319 944.407 172.598C944.88 171.319 945.412 170.041 946.003 168.762C946.594 167.423 947.274 166.053 948.042 164.653L983.954 105.293C984.25 104.623 984.664 104.075 985.196 103.649C985.787 103.223 986.496 103.009 987.324 103.009H995.304L948.84 178.991Z" fill="black"/>
<path d="M1113.28 103.009V232.232H1109.02C1108.25 232.232 1107.6 232.11 1107.07 231.867C1106.6 231.562 1106.13 231.075 1105.65 230.406L1024.16 118.261C1024.34 120.087 1024.43 121.822 1024.43 123.466V232.232H1016.45V103.009H1020.97C1021.8 103.009 1022.42 103.131 1022.83 103.375C1023.31 103.557 1023.81 104.014 1024.34 104.745L1105.65 216.616C1105.48 214.789 1105.39 213.054 1105.39 211.41V103.009H1113.28ZM1095.81 64.197L1066.73 90.4068C1066.19 90.8939 1065.66 91.1983 1065.13 91.3201C1064.6 91.4418 1063.98 91.5027 1063.27 91.5027H1057.5L1080.38 66.2061C1081.09 65.3538 1081.8 64.8058 1082.51 64.5623C1083.28 64.3188 1084.37 64.197 1085.79 64.197H1095.81Z" fill="black"/>
<path d="M1212.13 118.717C1211.59 119.752 1210.83 120.27 1209.82 120.27C1209.05 120.27 1208.05 119.722 1206.81 118.626C1205.62 117.469 1204 116.221 1201.93 114.882C1199.86 113.481 1197.26 112.203 1194.13 111.046C1191.05 109.889 1187.24 109.311 1182.69 109.311C1178.14 109.311 1174.12 109.981 1170.63 111.32C1167.2 112.659 1164.3 114.486 1161.94 116.799C1159.63 119.113 1157.86 121.792 1156.62 124.836C1155.44 127.88 1154.84 131.076 1154.84 134.425C1154.84 138.808 1155.73 142.431 1157.5 145.292C1159.34 148.154 1161.73 150.589 1164.69 152.598C1167.64 154.607 1170.98 156.312 1174.71 157.712C1178.49 159.052 1182.36 160.391 1186.32 161.73C1190.28 163.07 1194.13 164.561 1197.85 166.205C1201.63 167.788 1205 169.797 1207.96 172.233C1210.91 174.668 1213.28 177.682 1215.05 181.274C1216.89 184.805 1217.8 189.219 1217.8 194.516C1217.8 199.934 1216.89 205.048 1215.05 209.858C1213.28 214.607 1210.68 218.747 1207.25 222.278C1203.82 225.809 1199.62 228.61 1194.66 230.68C1189.69 232.689 1184.02 233.693 1177.63 233.693C1169.36 233.693 1162.23 232.202 1156.26 229.219C1150.29 226.174 1145.06 222.034 1140.57 216.799L1143.05 212.78C1143.76 211.867 1144.59 211.41 1145.53 211.41C1146.07 211.41 1146.75 211.776 1147.57 212.506C1148.4 213.237 1149.41 214.15 1150.59 215.246C1151.77 216.281 1153.19 217.438 1154.84 218.716C1156.5 219.934 1158.42 221.091 1160.61 222.187C1162.8 223.222 1165.31 224.104 1168.15 224.835C1170.98 225.566 1174.2 225.931 1177.81 225.931C1182.78 225.931 1187.21 225.17 1191.11 223.648C1195.01 222.065 1198.29 219.934 1200.95 217.255C1203.67 214.576 1205.74 211.41 1207.16 207.757C1208.58 204.044 1209.29 200.086 1209.29 195.885C1209.29 191.319 1208.37 187.575 1206.54 184.653C1204.77 181.669 1202.4 179.204 1199.45 177.255C1196.49 175.246 1193.12 173.572 1189.34 172.233C1185.61 170.893 1181.77 169.584 1177.81 168.306C1173.85 167.027 1169.98 165.597 1166.19 164.014C1162.47 162.431 1159.13 160.421 1156.17 157.986C1153.22 155.49 1150.82 152.415 1148.99 148.763C1147.22 145.049 1146.33 140.422 1146.33 134.881C1146.33 130.559 1147.13 126.388 1148.73 122.37C1150.32 118.352 1152.66 114.821 1155.73 111.777C1158.81 108.672 1162.59 106.206 1167.08 104.379C1171.63 102.492 1176.81 101.548 1182.6 101.548C1189.1 101.548 1194.92 102.614 1200.07 104.745C1205.27 106.876 1210 110.133 1214.25 114.516L1212.13 118.717Z" fill="black"/>
<path d="M1256.14 162.644H1263.58C1264.71 162.644 1265.68 162.613 1266.51 162.552C1267.34 162.431 1268.08 162.248 1268.73 162.004C1269.44 161.761 1270.06 161.426 1270.59 161C1271.18 160.513 1271.8 159.934 1272.45 159.265L1323.08 105.658C1323.97 104.623 1324.83 103.923 1325.65 103.557C1326.54 103.192 1327.58 103.009 1328.76 103.009H1336.03L1281.23 161C1280.11 162.218 1279.1 163.161 1278.21 163.831C1277.39 164.501 1276.44 165.049 1275.38 165.475C1276.62 165.84 1277.74 166.418 1278.75 167.21C1279.75 167.94 1280.76 168.915 1281.76 170.132L1339.49 232.232H1332.13C1330.59 232.232 1329.47 232.05 1328.76 231.684C1328.11 231.258 1327.46 230.619 1326.81 229.766L1273.78 173.876C1273.13 173.207 1272.51 172.628 1271.92 172.141C1271.39 171.654 1270.77 171.259 1270.06 170.954C1269.41 170.589 1268.61 170.345 1267.66 170.224C1266.78 170.041 1265.62 169.95 1264.2 169.95H1256.14V232.232H1247V103.009H1256.14V162.644Z" fill="black"/>
<path d="M1428.12 185.292L1402.58 119.996C1401.69 117.865 1400.84 115.308 1400.01 112.324C1399.65 113.786 1399.27 115.186 1398.86 116.525C1398.44 117.804 1398 118.991 1397.53 120.087L1371.99 185.292H1428.12ZM1455.87 232.232H1448.87C1448.04 232.232 1447.36 232.019 1446.83 231.593C1446.3 231.106 1445.88 230.497 1445.59 229.766L1430.87 192.233H1369.24L1354.52 229.766C1354.28 230.436 1353.87 231.015 1353.28 231.502C1352.69 231.989 1351.98 232.232 1351.15 232.232H1344.23L1395.57 103.009H1404.53L1455.87 232.232Z" fill="black"/>
<path d="M734.214 434.018L712.838 500.075H708.418L688.339 442.748C688.083 441.97 687.859 441.161 687.667 440.32C687.474 441.161 687.25 441.97 686.994 442.748L666.867 500.075H662.496L641.071 434.018H645.154C646.083 434.018 646.676 434.438 646.932 435.279L664.081 489.571C664.433 490.816 664.753 492.232 665.041 493.819C665.202 493.01 665.362 492.263 665.522 491.578C665.682 490.862 665.874 490.193 666.098 489.571L685.313 435.279C685.441 434.936 685.665 434.641 685.985 434.392C686.306 434.143 686.69 434.018 687.138 434.018H688.483C688.932 434.018 689.3 434.143 689.588 434.392C689.876 434.61 690.1 434.905 690.261 435.279L709.475 489.571C709.699 490.162 709.891 490.816 710.052 491.532C710.244 492.247 710.42 492.994 710.58 493.772C710.74 492.994 710.884 492.263 711.012 491.578C711.172 490.862 711.333 490.193 711.493 489.571L728.642 435.279C728.738 434.936 728.946 434.641 729.266 434.392C729.618 434.143 730.019 434.018 730.467 434.018H734.214Z" fill="black"/>
<path d="M789.273 496.106L789.177 500.075H748.442V434.018H789.177V437.986H753.39V464.689H783.173V468.564H753.39V496.106H789.273Z" fill="black"/>
<path d="M850.287 438.08H826.413V500.075H821.465V438.08H797.447V434.018H850.287V438.08Z" fill="black"/>
<path d="M904.482 496.106L904.386 500.075H863.651V434.018H904.386V437.986H868.599V464.689H898.381V468.564H868.599V496.106H904.482Z" fill="black"/>
<path d="M938.019 466.65C941.029 466.65 943.719 466.307 946.089 465.623C948.491 464.907 950.508 463.895 952.142 462.588C953.807 461.281 955.072 459.709 955.937 457.873C956.801 456.037 957.233 453.967 957.233 451.664C957.233 446.965 955.648 443.479 952.478 441.207C949.339 438.935 944.744 437.8 938.691 437.8H926.25V466.65H938.019ZM968.186 500.075H963.959C963.414 500.075 962.95 499.997 962.566 499.841C962.213 499.654 961.877 499.328 961.557 498.861L939.748 472.065C939.492 471.722 939.22 471.427 938.932 471.178C938.675 470.929 938.371 470.742 938.019 470.618C937.699 470.462 937.298 470.353 936.818 470.291C936.37 470.229 935.809 470.197 935.137 470.197H926.25V500.075H921.302V434.018H938.691C946.505 434.018 952.35 435.496 956.225 438.453C960.132 441.379 962.085 445.689 962.085 451.384C962.085 453.905 961.637 456.208 960.74 458.293C959.843 460.378 958.546 462.215 956.849 463.802C955.184 465.358 953.15 466.634 950.749 467.63C948.379 468.626 945.705 469.295 942.726 469.637C943.495 470.104 944.184 470.727 944.792 471.505L968.186 500.075Z" fill="black"/>
<path d="M1000.6 472.858V500.075H995.702V472.858L970.531 434.018H974.855C975.303 434.018 975.671 434.127 975.959 434.345C976.248 434.532 976.488 434.812 976.68 435.185L996.135 465.529C996.551 466.245 996.935 466.945 997.288 467.63C997.64 468.283 997.944 468.937 998.2 469.591C998.456 468.937 998.745 468.283 999.065 467.63C999.385 466.945 999.753 466.245 1000.17 465.529L1019.62 435.185C1019.78 434.843 1020.01 434.563 1020.3 434.345C1020.62 434.127 1021 434.018 1021.45 434.018H1025.77L1000.6 472.858Z" fill="black"/>
<path d="M1091.12 434.018V500.075H1088.82C1088.4 500.075 1088.05 500.012 1087.76 499.888C1087.51 499.732 1087.25 499.483 1086.99 499.141L1042.85 441.814C1042.94 442.748 1042.99 443.635 1042.99 444.475V500.075H1038.67V434.018H1041.12C1041.57 434.018 1041.9 434.08 1042.13 434.205C1042.38 434.298 1042.66 434.532 1042.94 434.905L1086.99 492.092C1086.9 491.158 1086.85 490.271 1086.85 489.431V434.018H1091.12Z" fill="black"/>
<path d="M1149.77 476.079L1135.93 442.701C1135.45 441.612 1134.99 440.305 1134.54 438.78C1134.35 439.527 1134.14 440.243 1133.91 440.927C1133.69 441.581 1133.45 442.188 1133.19 442.748L1119.36 476.079H1149.77ZM1164.8 500.075H1161.01C1160.56 500.075 1160.19 499.966 1159.9 499.748C1159.61 499.499 1159.39 499.188 1159.23 498.814L1151.25 479.627H1117.87L1109.9 498.814C1109.77 499.156 1109.54 499.452 1109.22 499.701C1108.9 499.95 1108.52 500.075 1108.07 500.075H1104.32L1132.14 434.018H1136.99L1164.8 500.075Z" fill="black"/>
<path d="M1194.71 466.65C1197.72 466.65 1200.41 466.307 1202.78 465.623C1205.18 464.907 1207.2 463.895 1208.83 462.588C1210.49 461.281 1211.76 459.709 1212.62 457.873C1213.49 456.037 1213.92 453.967 1213.92 451.664C1213.92 446.965 1212.34 443.479 1209.16 441.207C1206.03 438.935 1201.43 437.8 1195.38 437.8H1182.94V466.65H1194.71ZM1224.87 500.075H1220.65C1220.1 500.075 1219.64 499.997 1219.25 499.841C1218.9 499.654 1218.56 499.328 1218.24 498.861L1196.44 472.065C1196.18 471.722 1195.91 471.427 1195.62 471.178C1195.36 470.929 1195.06 470.742 1194.71 470.618C1194.39 470.462 1193.99 470.353 1193.51 470.291C1193.06 470.229 1192.5 470.197 1191.82 470.197H1182.94V500.075H1177.99V434.018H1195.38C1203.19 434.018 1209.04 435.496 1212.91 438.453C1216.82 441.379 1218.77 445.689 1218.77 451.384C1218.77 453.905 1218.32 456.208 1217.43 458.293C1216.53 460.378 1215.23 462.215 1213.54 463.802C1211.87 465.358 1209.84 466.634 1207.44 467.63C1205.07 468.626 1202.39 469.295 1199.41 469.637C1200.18 470.104 1200.87 470.727 1201.48 471.505L1224.87 500.075Z" fill="black"/>
<path d="M1257.29 472.858V500.075H1252.39V472.858L1227.22 434.018H1231.54C1231.99 434.018 1232.36 434.127 1232.65 434.345C1232.93 434.532 1233.17 434.812 1233.37 435.185L1252.82 465.529C1253.24 466.245 1253.62 466.945 1253.97 467.63C1254.33 468.283 1254.63 468.937 1254.89 469.591C1255.14 468.937 1255.43 468.283 1255.75 467.63C1256.07 466.945 1256.44 466.245 1256.86 465.529L1276.31 435.185C1276.47 434.843 1276.7 434.563 1276.98 434.345C1277.3 434.127 1277.69 434.018 1278.14 434.018H1282.46L1257.29 472.858Z" fill="black"/>
<path d="M1308.45 478.04C1308.45 481.744 1307.99 485.011 1307.06 487.844C1306.13 490.676 1304.79 493.057 1303.03 494.986C1301.26 496.916 1299.13 498.378 1296.64 499.374C1294.14 500.339 1291.32 500.821 1288.18 500.821C1286.74 500.821 1285.28 500.713 1283.81 500.495C1282.34 500.277 1280.82 499.934 1279.25 499.468C1279.28 499.032 1279.31 498.596 1279.34 498.161C1279.41 497.725 1279.47 497.289 1279.54 496.853C1279.6 496.573 1279.71 496.324 1279.87 496.106C1280.06 495.889 1280.38 495.78 1280.83 495.78C1281.12 495.78 1281.46 495.842 1281.84 495.966C1282.26 496.06 1282.74 496.169 1283.28 496.293C1283.83 496.418 1284.47 496.542 1285.2 496.667C1285.94 496.76 1286.79 496.807 1287.75 496.807C1290.18 496.807 1292.38 496.433 1294.33 495.686C1296.28 494.939 1297.95 493.803 1299.33 492.278C1300.7 490.722 1301.74 488.777 1302.45 486.443C1303.19 484.078 1303.55 481.308 1303.55 478.134V434.018H1308.45V478.04Z" fill="black"/>
<path d="M1382.2 434.018V500.075H1379.89C1379.47 500.075 1379.12 500.012 1378.83 499.888C1378.58 499.732 1378.32 499.483 1378.06 499.141L1333.92 441.814C1334.01 442.748 1334.06 443.635 1334.06 444.475V500.075H1329.74V434.018H1332.19C1332.64 434.018 1332.97 434.08 1333.2 434.205C1333.45 434.298 1333.73 434.532 1334.01 434.905L1378.06 492.092C1377.97 491.158 1377.92 490.271 1377.92 489.431V434.018H1382.2Z" fill="black"/>
<path d="M1440.84 476.079L1427 442.701C1426.52 441.612 1426.06 440.305 1425.61 438.78C1425.42 439.527 1425.21 440.243 1424.98 440.927C1424.76 441.581 1424.52 442.188 1424.26 442.748L1410.43 476.079H1440.84ZM1455.87 500.075H1452.08C1451.63 500.075 1451.26 499.966 1450.97 499.748C1450.68 499.499 1450.46 499.188 1450.3 498.814L1442.33 479.627H1408.94L1400.97 498.814C1400.84 499.156 1400.61 499.452 1400.29 499.701C1399.97 499.95 1399.59 500.075 1399.14 500.075H1395.39L1423.21 434.018H1428.06L1455.87 500.075Z" fill="black"/>
<path d="M650.418 328.911H658.04C659.189 328.911 660.187 328.88 661.034 328.82C661.881 328.699 662.637 328.517 663.303 328.275C664.028 328.033 664.664 327.701 665.208 327.277C665.813 326.793 666.448 326.219 667.114 325.553L718.926 272.289C719.834 271.26 720.711 270.565 721.558 270.202C722.465 269.839 723.524 269.657 724.733 269.657H732.174L676.097 327.277C674.948 328.487 673.919 329.425 673.012 330.09C672.165 330.756 671.197 331.3 670.108 331.723C671.378 332.086 672.528 332.661 673.556 333.448C674.585 334.173 675.613 335.141 676.641 336.351L735.713 398.054H728.182C726.609 398.054 725.459 397.873 724.733 397.51C724.068 397.086 723.403 396.451 722.737 395.604L668.475 340.072C667.809 339.406 667.174 338.831 666.569 338.347C666.025 337.864 665.39 337.47 664.664 337.168C663.998 336.805 663.182 336.563 662.214 336.442C661.306 336.26 660.127 336.17 658.675 336.17H650.418V398.054H641.071V269.657H650.418V328.911Z" fill="black"/>
<path d="M853.632 390.16V398.054H783.49V269.657H792.837V390.16H853.632Z" fill="black"/>
<path d="M911.862 398.054H902.516V269.657H911.862V398.054Z" fill="black"/>
<path d="M1076.15 269.657V398.054H1071.79C1071 398.054 1070.34 397.933 1069.79 397.691C1069.31 397.389 1068.83 396.905 1068.34 396.24L984.951 284.811C985.133 286.626 985.224 288.35 985.224 289.983V398.054H977.057V269.657H981.685C982.532 269.657 983.167 269.778 983.59 270.02C984.074 270.202 984.589 270.655 985.133 271.381L1068.34 382.538C1068.16 380.723 1068.07 378.999 1068.07 377.366V269.657H1076.15Z" fill="black"/>
<path d="M1150.62 398.054H1141.28V269.657H1150.62V398.054Z" fill="black"/>
<path d="M1225.16 328.911H1232.78C1233.93 328.911 1234.93 328.88 1235.78 328.82C1236.63 328.699 1237.38 328.517 1238.05 328.275C1238.77 328.033 1239.41 327.701 1239.95 327.277C1240.56 326.793 1241.19 326.219 1241.86 325.553L1293.67 272.289C1294.58 271.26 1295.46 270.565 1296.3 270.202C1297.21 269.839 1298.27 269.657 1299.48 269.657H1306.92L1250.84 327.277C1249.69 328.487 1248.66 329.425 1247.76 330.09C1246.91 330.756 1245.94 331.3 1244.85 331.723C1246.12 332.086 1247.27 332.661 1248.3 333.448C1249.33 334.173 1250.36 335.141 1251.39 336.351L1310.46 398.054H1302.93C1301.35 398.054 1300.2 397.873 1299.48 397.51C1298.81 397.086 1298.15 396.451 1297.48 395.604L1243.22 340.072C1242.55 339.406 1241.92 338.831 1241.31 338.347C1240.77 337.864 1240.13 337.47 1239.41 337.168C1238.74 336.805 1237.93 336.563 1236.96 336.442C1236.05 336.26 1234.87 336.17 1233.42 336.17H1225.16V398.054H1215.82V269.657H1225.16V328.911Z" fill="black"/>
<path d="M1427.47 351.414L1401.34 286.535C1400.43 284.418 1399.55 281.877 1398.71 278.913C1398.34 280.365 1397.95 281.756 1397.53 283.087C1397.1 284.357 1396.65 285.537 1396.16 286.626L1370.03 351.414H1427.47ZM1455.87 398.054H1448.7C1447.86 398.054 1447.16 397.843 1446.62 397.419C1446.07 396.935 1445.65 396.33 1445.35 395.604L1430.28 358.31H1367.22L1352.16 395.604C1351.91 396.27 1351.49 396.844 1350.89 397.328C1350.28 397.812 1349.55 398.054 1348.71 398.054H1341.63L1394.17 269.657H1403.33L1455.87 398.054Z" fill="black"/>
<path fill-rule="evenodd" clip-rule="evenodd" d="M269.165 538.594C417.695 538.594 538.102 418.187 538.102 269.657C538.102 121.128 417.695 0.720581 269.165 0.720581C120.636 0.720581 0.228516 121.128 0.228516 269.657C0.228516 418.187 120.636 538.594 269.165 538.594ZM269.165 508.184C400.9 508.184 507.692 401.392 507.692 269.657C507.692 137.923 400.9 31.1307 269.165 31.1307C137.431 31.1307 30.6386 137.923 30.6386 269.657C30.6386 401.392 137.431 508.184 269.165 508.184Z" fill="#005826"/>
<path d="M528.869 328.058V211.257H328.558L328.558 14.2937L209.773 14.2937L209.773 211.257H9.46179V328.058H209.773L209.773 525.021H328.558L328.558 328.058H528.869Z" fill="#005826"/>
<path d="M381.106 373.191C380.34 418.995 355.321 435.568 328.765 434.033C302.209 432.504 283.738 420.49 264.877 420.49L264.104 420.911C245.243 420.911 226.773 433.346 200.217 434.875C173.659 436.404 148.642 420.667 147.876 374.862C149.416 332.808 182.255 329.716 210.226 280.038C234.855 236.292 264.106 239.832 264.106 239.832H264.877C264.877 239.832 294.38 236.482 318.758 280.038C346.595 329.784 379.566 331.136 381.106 373.191ZM216.68 220.96C240.202 219.22 257.244 191.723 254.743 159.543C252.242 127.363 231.145 102.686 207.623 104.426C184.101 106.166 167.059 133.664 169.56 165.844C172.061 198.023 193.157 222.7 216.68 220.96ZM305.834 221.519C328.821 227.632 354.579 207.097 363.365 175.651C372.15 144.206 360.638 113.758 337.652 107.645C314.665 101.532 288.906 122.067 280.121 153.513C271.336 184.957 282.847 215.406 305.834 221.519ZM412.331 196.342C392.314 191.017 369.883 208.9 362.232 236.283C354.581 263.667 364.606 290.181 384.624 295.504C404.642 300.827 427.072 282.945 434.723 255.562C442.375 228.179 432.35 201.665 412.331 196.342ZM176.098 236.281C168.447 208.899 146.017 191.016 125.999 196.339C105.981 201.663 95.9555 228.177 103.607 255.56C111.258 282.942 133.689 300.825 153.707 295.502C173.724 290.179 183.749 263.665 176.098 236.281Z" fill="#D7D6D6"/>
</svg>
