<?xml version="1.0" encoding="UTF-8" standalone="no"?><!DOCTYPE svg PUBLIC "-//W3C//DTD SVG 1.1//EN" "http://www.w3.org/Graphics/SVG/1.1/DTD/svg11.dtd"><svg width="100%" height="100%" viewBox="0 0 410 84" version="1.1" xmlns="http://www.w3.org/2000/svg" xmlns:xlink="http://www.w3.org/1999/xlink" xml:space="preserve" xmlns:serif="http://www.serif.com/" style="fill-rule:evenodd;clip-rule:evenodd;stroke-linejoin:round;stroke-miterlimit:1.41421;"><g id="Warstwa-1" serif:id="Warstwa 1"><path d="M200.607,16.138l0,8.977l8.977,0l0,-8.976l-0.002,-0.001l-8.975,0Zm-17.914,1.786l0,11.793l-4.143,0l0,8.211l4.143,0l0,27.602l8.977,0l0,-27.602l5.1,0l0,-8.211l-5.1,0l0,-11.793l-8.977,0Zm-52.273,0l-11.548,36.601l-11.643,-36.601l-10.201,0l15.982,47.606l11.629,0l16.05,-47.606l-10.269,0Zm13.921,16.322c-3.499,3.573 -5.251,8.031 -5.251,13.378c0,5.393 1.775,9.864 5.323,13.411c3.548,3.549 8.256,5.323 14.122,5.323c6.813,0 11.968,-2.529 15.471,-7.592l-7.38,-4.258c-1.799,2.366 -4.448,3.547 -7.949,3.547c-5.442,0 -8.777,-2.223 -10.006,-6.67l26.754,0c0.237,-1.324 0.355,-2.579 0.355,-3.761c0,-5.299 -1.692,-9.746 -5.074,-13.342c-3.383,-3.595 -7.678,-5.394 -12.881,-5.394c-5.488,0 -9.983,1.788 -13.484,5.358Zm7.381,4.755c1.609,-1.252 3.643,-1.88 6.103,-1.88c2.082,0 3.939,0.592 5.571,1.774c1.631,1.183 2.708,2.98 3.23,5.392l-18.097,0c0.521,-2.27 1.584,-4.033 3.193,-5.286Zm48.822,26.529l8.974,0l0,-35.813l-8.974,0l0,35.813Z" style="fill:url(#_Linear1);fill-rule:nonzero;"/><path d="M2.31,3.371c0,0 -15.116,56.32 35.275,80.032c6.778,-3.189 12.335,-6.98 16.941,-11.134c-31.029,-20.87 -30.645,-65.504 -30.399,-72.198l-21.817,3.3Zm37.918,48.273c4.164,6.814 9.731,13.076 17.143,17.895c26.04,-26.766 15.489,-66.168 15.489,-66.168l-21.069,-3.188c0.223,5.267 0.549,30.131 -11.563,51.461Z" style="fill:url(#_Linear2);fill-rule:nonzero;"/><path d="M326.044,29.717l-8.725,25.063l-8.679,-25.063l-10.173,0l13.609,35.813l10.53,0l13.608,-35.813l-10.17,0Z" style="fill:#4d267d;fill-rule:nonzero;"/><path d="M279.964,58.083c-5.616,0 -10.016,-4.651 -10.016,-10.587c0,-5.602 4.558,-10.334 9.953,-10.334c5.52,0 10.012,4.692 10.012,10.461c0,5.767 -4.463,10.46 -9.949,10.46m-0.128,-29.195c-10.435,0 -18.926,8.404 -18.926,18.735c0,10.33 8.518,18.735 18.991,18.735c10.328,0 19.053,-8.463 19.053,-18.481c0,-10.648 -8.397,-18.989 -19.118,-18.989" style="fill:#4d267d;fill-rule:nonzero;"/><path d="M394.067,28.888c-3.469,0 -5.299,0.891 -7.4,3.739l0,-2.91l-8.275,0l0,35.813l8.976,0l0,-19.884c0,-5.327 2.402,-7.977 7.345,-8.1l0.242,-0.007l0,-8.651l-0.888,0Z" style="fill:#4d267d;fill-rule:nonzero;"/><path d="M345.5,44.288c0.52,-2.271 1.584,-4.033 3.193,-5.287c1.608,-1.253 3.644,-1.88 6.104,-1.88c2.08,0 3.938,0.592 5.571,1.774c1.632,1.183 2.708,2.98 3.228,5.393l-18.096,0Zm9.297,-15.4c-5.489,0 -9.984,1.787 -13.484,5.358c-3.501,3.573 -5.251,8.031 -5.251,13.377c0,5.394 1.773,9.865 5.322,13.413c3.548,3.548 8.256,5.322 14.123,5.322c6.812,0 11.969,-2.53 15.471,-7.593l-7.382,-4.258c-1.797,2.366 -4.448,3.548 -7.949,3.548c-5.439,0 -8.775,-2.223 -10.005,-6.671l26.754,0c0.236,-1.323 0.355,-2.578 0.355,-3.761c0,-5.297 -1.692,-9.745 -5.074,-13.341c-3.382,-3.595 -7.677,-5.394 -12.88,-5.394" style="fill:#4d267d;fill-rule:nonzero;"/><path d="M238.172,28.336c2.525,0 4.83,0.565 6.85,1.681c2.017,1.113 3.594,2.679 4.687,4.654l0.052,0.095l7.697,-4.463l0.092,-0.054l-0.054,-0.092c-1.918,-3.238 -4.629,-5.842 -8.057,-7.738c-3.432,-1.896 -7.222,-2.857 -11.267,-2.857c-6.729,0 -12.364,2.257 -16.751,6.709c-4.388,4.449 -6.611,10.053 -6.611,16.656c0,6.56 2.223,12.153 6.611,16.622c4.385,4.473 10.021,6.741 16.751,6.741c4.09,0 7.892,-0.962 11.297,-2.857c3.409,-1.895 6.109,-4.498 8.027,-7.738l0.054,-0.092l-7.79,-4.517l-0.052,0.096c-1.05,1.933 -2.617,3.477 -4.655,4.589c-2.038,1.115 -4.355,1.681 -6.881,1.681c-4.296,0 -7.807,-1.366 -10.434,-4.057c-2.629,-2.692 -3.962,-6.214 -3.962,-10.468c0,-4.297 1.333,-7.841 3.962,-10.533c2.629,-2.693 6.14,-4.058 10.434,-4.058" style="fill:#4d267d;fill-rule:nonzero;"/><path d="M403.455,19.149l0.859,0c0.302,0 0.537,0.065 0.697,0.194c0.16,0.128 0.238,0.309 0.238,0.556c0,0.25 -0.073,0.454 -0.216,0.605c-0.142,0.15 -0.358,0.227 -0.643,0.227l-0.935,0l0,-1.582Zm2.785,1.814c0.225,-0.277 0.339,-0.64 0.339,-1.078c0,-0.528 -0.181,-0.949 -0.537,-1.251c-0.355,-0.3 -0.892,-0.453 -1.598,-0.453l-2.305,0l0,5.671l1.316,0l0,-2.14l0.721,0l1.202,2.115l0.014,0.025l1.495,0l-1.471,-2.32c0.336,-0.118 0.612,-0.309 0.824,-0.569" style="fill:#4d267d;fill-rule:nonzero;"/><path d="M404.274,25.127c-0.735,0 -1.427,-0.187 -2.056,-0.554c-0.63,-0.367 -1.134,-0.876 -1.5,-1.513c-0.365,-0.636 -0.55,-1.329 -0.55,-2.06c0,-0.758 0.194,-1.464 0.578,-2.097c0.382,-0.633 0.893,-1.132 1.522,-1.483c0.627,-0.349 1.302,-0.526 2.006,-0.526c0.729,0 1.423,0.186 2.06,0.554c0.635,0.367 1.145,0.872 1.513,1.503c0.367,0.629 0.554,1.318 0.554,2.049c0,0.731 -0.186,1.424 -0.55,2.06c-0.367,0.637 -0.875,1.146 -1.511,1.513c-0.636,0.367 -1.332,0.554 -2.066,0.554m4.329,-6.62c-0.439,-0.765 -1.055,-1.38 -1.826,-1.826c-0.773,-0.447 -1.614,-0.673 -2.503,-0.673c-0.884,0 -1.723,0.225 -2.493,0.669c-0.769,0.444 -1.385,1.06 -1.829,1.83c-0.445,0.769 -0.67,1.608 -0.67,2.493c0,0.866 0.217,1.692 0.644,2.455c0.43,0.764 1.041,1.384 1.818,1.843c0.775,0.461 1.627,0.694 2.53,0.694c0.884,0 1.725,-0.224 2.496,-0.666c0.773,-0.442 1.388,-1.058 1.829,-1.83c0.443,-0.771 0.667,-1.611 0.667,-2.496c0,-0.889 -0.222,-1.727 -0.663,-2.493" style="fill:#4d267d;fill-rule:nonzero;"/></g><defs><linearGradient id="_Linear1" x1="0" y1="0" x2="1" y2="0" gradientUnits="userSpaceOnUse" gradientTransform="matrix(72.9818,-72.9818,-72.9818,-72.9818,121.017,73.5368)"><stop offset="0" style="stop-color:#e3137e;stop-opacity:1"/><stop offset="0.15" style="stop-color:#e3137e;stop-opacity:1"/><stop offset="0.85" style="stop-color:#792180;stop-opacity:1"/><stop offset="1" style="stop-color:#792180;stop-opacity:1"/></linearGradient><linearGradient id="_Linear2" x1="0" y1="0" x2="1" y2="0" gradientUnits="userSpaceOnUse" gradientTransform="matrix(60.6369,-60.6369,-60.6369,-60.6369,12.6273,64.4119)"><stop offset="0" style="stop-color:#e3137e;stop-opacity:1"/><stop offset="0.25" style="stop-color:#e3137e;stop-opacity:1"/><stop offset="0.8" style="stop-color:#792180;stop-opacity:1"/><stop offset="1" style="stop-color:#4d267d;stop-opacity:1"/></linearGradient></defs></svg>