<svg width="835" height="835" viewBox="0 0 835 835" fill="none" xmlns="http://www.w3.org/2000/svg">
<path fill-rule="evenodd" clip-rule="evenodd" d="M417.81 834.512C648.202 834.512 834.971 647.742 834.971 417.35C834.971 186.958 648.202 0.188965 417.81 0.188965C187.418 0.188965 0.648438 186.958 0.648438 417.35C0.648438 647.742 187.418 834.512 417.81 834.512ZM417.81 787.341C622.15 787.341 787.801 621.691 787.801 417.35C787.801 213.01 622.15 47.3596 417.81 47.3596C213.47 47.3596 47.8191 213.01 47.8191 417.35C47.8191 621.691 213.47 787.341 417.81 787.341Z" fill="#005826"/>
<path d="M820.649 507.938V326.763H509.938L509.938 21.243L325.683 21.243L325.683 326.763H14.9706V507.938H325.683L325.683 813.458H509.938L509.938 507.938H820.649Z" fill="#005826"/>
<path d="M591.446 577.946C590.259 648.996 551.45 674.703 510.258 672.321C469.065 669.949 440.414 651.315 411.158 651.315L409.959 651.968C380.703 651.968 352.053 671.256 310.86 673.628C269.666 675.999 230.859 651.588 229.672 580.539C232.06 515.307 282.999 510.51 326.386 433.452C364.589 365.596 409.962 371.087 409.962 371.087H411.158C411.158 371.087 456.922 365.89 494.735 433.452C537.914 510.616 589.058 512.712 591.446 577.946ZM336.397 341.814C372.884 339.114 399.319 296.462 395.439 246.546C391.56 196.63 358.835 158.352 322.348 161.052C285.862 163.751 259.427 206.404 263.306 256.319C267.186 306.235 299.909 344.513 336.397 341.814ZM474.688 342.68C510.344 352.163 550.299 320.309 563.927 271.532C577.554 222.756 559.697 175.527 524.042 166.044C488.386 156.562 448.431 188.416 434.804 237.192C421.176 285.968 439.032 333.198 474.688 342.68ZM639.881 303.626C608.832 295.368 574.037 323.106 562.17 365.582C550.303 408.058 565.853 449.185 596.903 457.442C627.954 465.7 662.747 437.962 674.615 395.486C686.484 353.012 670.933 311.884 639.881 303.626ZM273.449 365.579C261.58 323.105 226.788 295.366 195.738 303.623C164.687 311.881 149.135 353.008 161.004 395.483C172.872 437.957 207.665 465.697 238.716 457.439C269.766 449.183 285.316 408.055 273.449 365.579Z" fill="#D7D6D6"/>
</svg>
