<svg width="835" height="1348" viewBox="0 0 835 1348" fill="none" xmlns="http://www.w3.org/2000/svg">
<path fill-rule="evenodd" clip-rule="evenodd" d="M417.81 834.512C648.202 834.512 834.971 647.742 834.971 417.35C834.971 186.958 648.202 0.188965 417.81 0.188965C187.418 0.188965 0.648438 186.958 0.648438 417.35C0.648438 647.742 187.418 834.512 417.81 834.512ZM417.81 787.341C622.15 787.341 787.801 621.691 787.801 417.35C787.801 213.01 622.15 47.3596 417.81 47.3596C213.47 47.3596 47.8191 213.01 47.8191 417.35C47.8191 621.691 213.47 787.341 417.81 787.341Z" fill="#005826"/>
<path d="M820.649 507.938V326.763H509.938L509.938 21.243L325.683 21.243L325.683 326.763H14.9706V507.938H325.683L325.683 813.458H509.938L509.938 507.938H820.649Z" fill="#005826"/>
<path d="M591.446 577.946C590.259 648.996 551.45 674.703 510.258 672.321C469.065 669.949 440.414 651.315 411.158 651.315L409.959 651.968C380.703 651.968 352.053 671.256 310.86 673.628C269.666 675.999 230.859 651.588 229.672 580.539C232.06 515.307 282.999 510.51 326.386 433.452C364.589 365.596 409.962 371.087 409.962 371.087H411.158C411.158 371.087 456.922 365.89 494.735 433.452C537.914 510.616 589.058 512.712 591.446 577.946ZM336.397 341.814C372.884 339.114 399.319 296.462 395.439 246.546C391.56 196.63 358.835 158.352 322.348 161.052C285.862 163.751 259.427 206.404 263.306 256.319C267.186 306.235 299.909 344.513 336.397 341.814ZM474.688 342.68C510.344 352.163 550.299 320.309 563.927 271.532C577.554 222.756 559.697 175.527 524.042 166.044C488.386 156.562 448.431 188.416 434.804 237.192C421.176 285.968 439.032 333.198 474.688 342.68ZM639.881 303.626C608.832 295.368 574.037 323.106 562.17 365.582C550.303 408.058 565.853 449.185 596.903 457.442C627.954 465.7 662.747 437.962 674.615 395.486C686.484 353.012 670.933 311.884 639.881 303.626ZM273.449 365.579C261.58 323.105 226.788 295.366 195.738 303.623C164.687 311.881 149.135 353.008 161.004 395.483C172.872 437.957 207.665 465.697 238.716 457.439C269.766 449.183 285.316 408.055 273.449 365.579Z" fill="#D7D6D6"/>
<path d="M118.766 1019.97V1065.9C112.5 1070.47 105.82 1073.97 98.7264 1076.4C91.6326 1078.84 83.6522 1080.06 74.785 1080.06C64.8537 1080.06 55.9274 1078.5 48.0061 1075.4C40.0847 1072.23 33.3161 1067.79 27.7002 1062.07C22.1434 1056.28 17.8576 1049.31 14.8428 1041.15C11.887 1033 10.4092 1023.92 10.4092 1013.94C10.4092 1003.95 11.8575 994.913 14.7541 986.816C17.7098 978.658 21.907 971.717 27.3455 965.994C32.8432 960.21 39.464 955.766 47.208 952.661C54.952 949.495 63.6714 947.912 73.3662 947.912C78.1545 947.912 82.5586 948.247 86.5783 948.917C90.6573 949.586 94.4406 950.591 97.9284 951.93C101.416 953.209 104.667 954.822 107.682 956.77C110.697 958.658 113.594 960.85 116.372 963.346L113.889 967.364C113.062 968.825 111.82 969.16 110.165 968.369C109.278 968.003 108.007 967.151 106.352 965.811C104.697 964.472 102.421 963.072 99.5244 961.611C96.6278 960.149 93.0218 958.84 88.7065 957.684C84.4502 956.527 79.2481 955.949 73.1002 955.949C64.9424 955.949 57.5531 957.288 50.9322 959.967C44.3705 962.646 38.7546 966.481 34.0846 971.474C29.4736 976.466 25.8972 982.554 23.3553 989.738C20.8725 996.922 19.6311 1004.99 19.6311 1013.94C19.6311 1023.01 20.8725 1031.17 23.3553 1038.41C25.8972 1045.66 29.5328 1051.81 34.2619 1056.86C39.0502 1061.91 44.8434 1065.78 51.6416 1068.46C58.4398 1071.14 66.0951 1072.48 74.6076 1072.48C78.3319 1072.48 81.7605 1072.23 84.8936 1071.75C88.0858 1071.26 91.1006 1070.59 93.9381 1069.74C96.8347 1068.82 99.6131 1067.73 102.273 1066.45C104.993 1065.11 107.741 1063.62 110.52 1061.98V1027.18H86.4897C85.8394 1027.18 85.2778 1026.97 84.8049 1026.54C84.3911 1026.12 84.1842 1025.63 84.1842 1025.08V1019.97H118.766Z" fill="black"/>
<path d="M255.561 1013.94C255.561 1023.92 254.112 1032.9 251.216 1040.88C248.319 1048.85 244.24 1055.64 238.979 1061.24C233.718 1066.85 227.393 1071.14 220.003 1074.12C212.673 1077.1 204.574 1078.6 195.707 1078.6H149.864V949.373H195.707C204.574 949.373 212.673 950.865 220.003 953.848C227.393 956.831 233.718 961.124 238.979 966.725C244.24 972.326 248.319 979.114 251.216 987.09C254.112 995.065 255.561 1004.02 255.561 1013.94ZM246.161 1013.94C246.161 1004.93 244.95 996.892 242.526 989.83C240.102 982.767 236.674 976.801 232.24 971.93C227.806 967.06 222.486 963.346 216.279 960.789C210.072 958.232 203.215 956.953 195.707 956.953H158.997V1071.02H195.707C203.215 1071.02 210.072 1069.74 216.279 1067.18C222.486 1064.62 227.806 1060.91 232.24 1056.04C236.674 1051.17 240.102 1045.2 242.526 1038.14C244.95 1031.08 246.161 1023.01 246.161 1013.94Z" fill="black"/>
<path d="M318.178 1025.35V1078.6H309.134V1025.35L262.67 949.373H270.65C271.478 949.373 272.158 949.586 272.69 950.013C273.222 950.378 273.665 950.926 274.02 951.656L309.932 1011.02C310.7 1012.42 311.41 1013.79 312.06 1015.13C312.71 1016.4 313.272 1017.68 313.745 1018.96C314.218 1017.68 314.75 1016.4 315.341 1015.13C315.932 1013.79 316.612 1012.42 317.38 1011.02L353.292 951.656C353.588 950.987 354.002 950.439 354.534 950.013C355.125 949.586 355.834 949.373 356.662 949.373H364.642L318.178 1025.35Z" fill="black"/>
<path d="M482.616 949.373V1078.6H478.36C477.591 1078.6 476.941 1078.47 476.409 1078.23C475.936 1077.93 475.463 1077.44 474.99 1076.77L393.501 964.624C393.678 966.451 393.767 968.186 393.767 969.83V1078.6H385.786V949.373H390.309C391.136 949.373 391.757 949.495 392.171 949.739C392.644 949.921 393.146 950.378 393.678 951.108L474.99 1062.98C474.813 1061.15 474.724 1059.42 474.724 1057.77V949.373H482.616ZM465.148 910.561L436.063 936.771C435.531 937.258 434.999 937.562 434.467 937.684C433.935 937.806 433.315 937.866 432.605 937.866H426.841L449.719 912.57C450.428 911.718 451.138 911.17 451.847 910.926C452.615 910.683 453.709 910.561 455.128 910.561H465.148Z" fill="black"/>
<path d="M581.465 965.081C580.933 966.116 580.164 966.633 579.159 966.633C578.391 966.633 577.386 966.085 576.144 964.99C574.962 963.833 573.336 962.585 571.267 961.245C569.198 959.845 566.597 958.566 563.464 957.41C560.39 956.253 556.577 955.675 552.025 955.675C547.474 955.675 543.454 956.344 539.966 957.684C536.537 959.023 533.641 960.85 531.276 963.163C528.971 965.477 527.197 968.155 525.956 971.2C524.774 974.244 524.182 977.44 524.182 980.789C524.182 985.172 525.069 988.795 526.843 991.656C528.675 994.517 531.069 996.953 534.025 998.962C536.981 1000.97 540.321 1002.68 544.045 1004.08C547.828 1005.42 551.7 1006.75 555.661 1008.09C559.622 1009.43 563.464 1010.93 567.188 1012.57C570.972 1014.15 574.341 1016.16 577.297 1018.6C580.253 1021.03 582.617 1024.05 584.391 1027.64C586.223 1031.17 587.14 1035.58 587.14 1040.88C587.14 1046.3 586.223 1051.41 584.391 1056.22C582.617 1060.97 580.016 1065.11 576.588 1068.64C573.159 1072.17 568.962 1074.97 563.996 1077.04C559.031 1079.05 553.356 1080.06 546.971 1080.06C538.695 1080.06 531.572 1078.57 525.601 1075.58C519.631 1072.54 514.399 1068.4 509.906 1063.16L512.389 1059.14C513.098 1058.23 513.926 1057.77 514.872 1057.77C515.404 1057.77 516.084 1058.14 516.911 1058.87C517.739 1059.6 518.744 1060.51 519.926 1061.61C521.109 1062.64 522.527 1063.8 524.182 1065.08C525.838 1066.3 527.759 1067.45 529.946 1068.55C532.133 1069.59 534.646 1070.47 537.483 1071.2C540.321 1071.93 543.543 1072.29 547.148 1072.29C552.114 1072.29 556.548 1071.53 560.449 1070.01C564.351 1068.43 567.632 1066.3 570.292 1063.62C573.011 1060.94 575.08 1057.77 576.499 1054.12C577.918 1050.41 578.627 1046.45 578.627 1042.25C578.627 1037.68 577.711 1033.94 575.878 1031.02C574.105 1028.03 571.74 1025.57 568.784 1023.62C565.829 1021.61 562.459 1019.94 558.676 1018.6C554.952 1017.26 551.109 1015.95 547.148 1014.67C543.188 1013.39 539.316 1011.96 535.532 1010.38C531.808 1008.79 528.468 1006.79 525.513 1004.35C522.557 1001.85 520.163 998.779 518.33 995.126C516.557 991.412 515.67 986.785 515.67 981.245C515.67 976.922 516.468 972.752 518.064 968.734C519.66 964.716 521.995 961.184 525.069 958.14C528.143 955.035 531.926 952.57 536.419 950.743C540.971 948.856 546.144 947.912 551.937 947.912C558.439 947.912 564.262 948.978 569.405 951.108C574.607 953.239 579.336 956.496 583.593 960.88L581.465 965.081Z" fill="black"/>
<path d="M625.473 1009.01H632.922C634.045 1009.01 635.02 1008.98 635.848 1008.92C636.676 1008.79 637.415 1008.61 638.065 1008.37C638.774 1008.12 639.395 1007.79 639.927 1007.36C640.518 1006.88 641.139 1006.3 641.789 1005.63L692.421 952.022C693.307 950.987 694.165 950.286 694.992 949.921C695.879 949.556 696.913 949.373 698.096 949.373H705.367L650.568 1007.36C649.444 1008.58 648.439 1009.52 647.553 1010.19C646.725 1010.86 645.779 1011.41 644.715 1011.84C645.957 1012.2 647.08 1012.78 648.085 1013.57C649.09 1014.3 650.095 1015.28 651.1 1016.5L708.825 1078.6H701.465C699.928 1078.6 698.805 1078.41 698.096 1078.05C697.446 1077.62 696.795 1076.98 696.145 1076.13L643.119 1020.24C642.469 1019.57 641.848 1018.99 641.257 1018.51C640.725 1018.02 640.104 1017.62 639.395 1017.32C638.745 1016.95 637.947 1016.71 637.001 1016.59C636.114 1016.4 634.961 1016.31 633.543 1016.31H625.473V1078.6H616.34V949.373H625.473V1009.01Z" fill="black"/>
<path d="M797.455 1031.66L771.918 966.359C771.031 964.229 770.174 961.671 769.346 958.688C768.992 960.149 768.607 961.55 768.194 962.889C767.78 964.168 767.337 965.355 766.864 966.451L741.326 1031.66H797.455ZM825.21 1078.6H818.205C817.377 1078.6 816.697 1078.38 816.165 1077.96C815.633 1077.47 815.219 1076.86 814.924 1076.13L800.204 1038.6H738.577L723.858 1076.13C723.621 1076.8 723.207 1077.38 722.616 1077.87C722.025 1078.35 721.316 1078.6 720.488 1078.6H713.572L764.913 949.373H773.869L825.21 1078.6Z" fill="black"/>
<path d="M103.552 1280.38L82.176 1346.44H77.7567L57.6775 1289.11C57.4213 1288.33 57.1971 1287.52 57.0049 1286.68C56.8128 1287.52 56.5886 1288.33 56.3324 1289.11L36.2052 1346.44H31.8339L10.4096 1280.38H14.4927C15.4214 1280.38 16.0139 1280.8 16.2701 1281.64L33.4191 1335.93C33.7713 1337.18 34.0916 1338.6 34.3798 1340.18C34.5399 1339.37 34.7 1338.63 34.8602 1337.94C35.0203 1337.23 35.2124 1336.56 35.4366 1335.93L54.6512 1281.64C54.7793 1281.3 55.0034 1281 55.3237 1280.76C55.6439 1280.51 56.0282 1280.38 56.4765 1280.38H57.8216C58.2699 1280.38 58.6382 1280.51 58.9264 1280.76C59.2146 1280.97 59.4388 1281.27 59.5989 1281.64L78.8135 1335.93C79.0376 1336.53 79.2298 1337.18 79.3899 1337.9C79.5821 1338.61 79.7582 1339.36 79.9183 1340.14C80.0784 1339.36 80.2225 1338.63 80.3506 1337.94C80.5108 1337.23 80.6709 1336.56 80.831 1335.93L97.98 1281.64C98.0761 1281.3 98.2842 1281 98.6045 1280.76C98.9567 1280.51 99.357 1280.38 99.8054 1280.38H103.552Z" fill="black"/>
<path d="M158.612 1342.47L158.516 1346.44H117.781V1280.38H158.516V1284.35H122.729V1311.05H152.511V1314.93H122.729V1342.47H158.612Z" fill="black"/>
<path d="M219.625 1284.44H195.751V1346.44H190.804V1284.44H166.785V1280.38H219.625V1284.44Z" fill="black"/>
<path d="M273.82 1342.47L273.724 1346.44H232.989V1280.38H273.724V1284.35H237.937V1311.05H267.72V1314.93H237.937V1342.47H273.82Z" fill="black"/>
<path d="M307.357 1313.01C310.368 1313.01 313.058 1312.67 315.427 1311.99C317.829 1311.27 319.847 1310.26 321.48 1308.95C323.145 1307.64 324.41 1306.07 325.275 1304.24C326.139 1302.4 326.572 1300.33 326.572 1298.03C326.572 1293.33 324.987 1289.84 321.816 1287.57C318.678 1285.3 314.082 1284.16 308.03 1284.16H295.588V1313.01H307.357ZM337.524 1346.44H333.297C332.752 1346.44 332.288 1346.36 331.904 1346.2C331.552 1346.02 331.215 1345.69 330.895 1345.22L309.087 1318.43C308.83 1318.09 308.558 1317.79 308.27 1317.54C308.014 1317.29 307.71 1317.11 307.357 1316.98C307.037 1316.83 306.637 1316.72 306.156 1316.65C305.708 1316.59 305.148 1316.56 304.475 1316.56H295.588V1346.44H290.641V1280.38H308.03C315.844 1280.38 321.688 1281.86 325.563 1284.82C329.47 1287.74 331.423 1292.05 331.423 1297.75C331.423 1300.27 330.975 1302.57 330.078 1304.66C329.182 1306.74 327.885 1308.58 326.188 1310.17C324.522 1311.72 322.489 1313 320.087 1313.99C317.717 1314.99 315.043 1315.66 312.065 1316C312.833 1316.47 313.522 1317.09 314.13 1317.87L337.524 1346.44Z" fill="black"/>
<path d="M369.94 1319.22V1346.44H365.041V1319.22L339.87 1280.38H344.193C344.641 1280.38 345.01 1280.49 345.298 1280.71C345.586 1280.9 345.826 1281.18 346.018 1281.55L365.473 1311.89C365.889 1312.61 366.274 1313.31 366.626 1313.99C366.978 1314.65 367.282 1315.3 367.539 1315.95C367.795 1315.3 368.083 1314.65 368.403 1313.99C368.724 1313.31 369.092 1312.61 369.508 1311.89L388.963 1281.55C389.123 1281.21 389.347 1280.93 389.635 1280.71C389.956 1280.49 390.34 1280.38 390.788 1280.38H395.112L369.94 1319.22Z" fill="black"/>
<path d="M460.463 1280.38V1346.44H458.157C457.741 1346.44 457.388 1346.38 457.1 1346.25C456.844 1346.1 456.588 1345.85 456.332 1345.5L412.186 1288.18C412.282 1289.11 412.33 1290 412.33 1290.84V1346.44H408.007V1280.38H410.457C410.905 1280.38 411.242 1280.44 411.466 1280.57C411.722 1280.66 411.994 1280.9 412.282 1281.27L456.332 1338.46C456.236 1337.52 456.188 1336.63 456.188 1335.79V1280.38H460.463Z" fill="black"/>
<path d="M519.104 1322.44L505.27 1289.07C504.789 1287.98 504.325 1286.67 503.876 1285.14C503.684 1285.89 503.476 1286.61 503.252 1287.29C503.028 1287.94 502.788 1288.55 502.531 1289.11L488.697 1322.44H519.104ZM534.139 1346.44H530.345C529.896 1346.44 529.528 1346.33 529.24 1346.11C528.952 1345.86 528.727 1345.55 528.567 1345.18L520.593 1325.99H487.208L479.234 1345.18C479.106 1345.52 478.882 1345.82 478.561 1346.06C478.241 1346.31 477.857 1346.44 477.408 1346.44H473.662L501.475 1280.38H506.326L534.139 1346.44Z" fill="black"/>
<path d="M564.044 1313.01C567.055 1313.01 569.745 1312.67 572.114 1311.99C574.516 1311.27 576.534 1310.26 578.167 1308.95C579.832 1307.64 581.097 1306.07 581.962 1304.24C582.827 1302.4 583.259 1300.33 583.259 1298.03C583.259 1293.33 581.674 1289.84 578.503 1287.57C575.365 1285.3 570.769 1284.16 564.717 1284.16H552.275V1313.01H564.044ZM594.211 1346.44H589.984C589.44 1346.44 588.975 1346.36 588.591 1346.2C588.239 1346.02 587.902 1345.69 587.582 1345.22L565.774 1318.43C565.517 1318.09 565.245 1317.79 564.957 1317.54C564.701 1317.29 564.397 1317.11 564.044 1316.98C563.724 1316.83 563.324 1316.72 562.843 1316.65C562.395 1316.59 561.835 1316.56 561.162 1316.56H552.275V1346.44H547.328V1280.38H564.717C572.531 1280.38 578.375 1281.86 582.25 1284.82C586.157 1287.74 588.111 1292.05 588.111 1297.75C588.111 1300.27 587.662 1302.57 586.766 1304.66C585.869 1306.74 584.572 1308.58 582.875 1310.17C581.209 1311.72 579.176 1313 576.774 1313.99C574.404 1314.99 571.73 1315.66 568.752 1316C569.52 1316.47 570.209 1317.09 570.817 1317.87L594.211 1346.44Z" fill="black"/>
<path d="M626.628 1319.22V1346.44H621.728V1319.22L596.557 1280.38H600.88C601.328 1280.38 601.697 1280.49 601.985 1280.71C602.273 1280.9 602.513 1281.18 602.705 1281.55L622.16 1311.89C622.576 1312.61 622.961 1313.31 623.313 1313.99C623.665 1314.65 623.97 1315.3 624.226 1315.95C624.482 1315.3 624.77 1314.65 625.09 1313.99C625.411 1313.31 625.779 1312.61 626.195 1311.89L645.65 1281.55C645.81 1281.21 646.034 1280.93 646.323 1280.71C646.643 1280.49 647.027 1280.38 647.475 1280.38H651.799L626.628 1319.22Z" fill="black"/>
<path d="M677.792 1324.4C677.792 1328.11 677.327 1331.38 676.399 1334.21C675.47 1337.04 674.125 1339.42 672.363 1341.35C670.602 1343.28 668.473 1344.74 665.975 1345.74C663.477 1346.7 660.659 1347.19 657.52 1347.19C656.079 1347.19 654.622 1347.08 653.149 1346.86C651.676 1346.64 650.155 1346.3 648.585 1345.83C648.617 1345.4 648.649 1344.96 648.682 1344.52C648.746 1344.09 648.81 1343.65 648.874 1343.22C648.938 1342.94 649.05 1342.69 649.21 1342.47C649.402 1342.25 649.722 1342.14 650.171 1342.14C650.459 1342.14 650.795 1342.21 651.179 1342.33C651.596 1342.42 652.076 1342.53 652.621 1342.66C653.165 1342.78 653.805 1342.91 654.542 1343.03C655.278 1343.12 656.127 1343.17 657.088 1343.17C659.522 1343.17 661.715 1342.8 663.669 1342.05C665.622 1341.3 667.288 1340.17 668.665 1338.64C670.042 1337.09 671.082 1335.14 671.787 1332.81C672.524 1330.44 672.892 1327.67 672.892 1324.5V1280.38H677.792V1324.4Z" fill="black"/>
<path d="M751.534 1280.38V1346.44H749.228C748.811 1346.44 748.459 1346.38 748.171 1346.25C747.915 1346.1 747.659 1345.85 747.402 1345.5L703.257 1288.18C703.353 1289.11 703.401 1290 703.401 1290.84V1346.44H699.078V1280.38H701.528C701.976 1280.38 702.312 1280.44 702.536 1280.57C702.793 1280.66 703.065 1280.9 703.353 1281.27L747.402 1338.46C747.306 1337.52 747.258 1336.63 747.258 1335.79V1280.38H751.534Z" fill="black"/>
<path d="M810.175 1322.44L796.34 1289.07C795.86 1287.98 795.395 1286.67 794.947 1285.14C794.755 1285.89 794.547 1286.61 794.323 1287.29C794.099 1287.94 793.858 1288.55 793.602 1289.11L779.768 1322.44H810.175ZM825.21 1346.44H821.415C820.967 1346.44 820.599 1346.33 820.31 1346.11C820.022 1345.86 819.798 1345.55 819.638 1345.18L811.664 1325.99H778.279L770.304 1345.18C770.176 1345.52 769.952 1345.82 769.632 1346.06C769.312 1346.31 768.927 1346.44 768.479 1346.44H764.732L792.545 1280.38H797.397L825.21 1346.44Z" fill="black"/>
<path d="M19.7558 1175.27H27.378C28.5274 1175.27 29.5255 1175.24 30.3724 1175.18C31.2193 1175.06 31.9755 1174.88 32.6409 1174.64C33.3668 1174.4 34.002 1174.06 34.5464 1173.64C35.1514 1173.16 35.7865 1172.58 36.452 1171.92L88.2645 1118.65C89.1719 1117.62 90.049 1116.93 90.8959 1116.57C91.8033 1116.2 92.862 1116.02 94.0718 1116.02H101.512L45.4352 1173.64C44.2859 1174.85 43.2575 1175.79 42.3501 1176.45C41.5032 1177.12 40.5353 1177.66 39.4464 1178.09C40.7167 1178.45 41.8661 1179.02 42.8945 1179.81C43.9229 1180.54 44.9513 1181.51 45.9797 1182.71L105.051 1244.42H97.5199C95.9471 1244.42 94.7977 1244.24 94.0718 1243.87C93.4064 1243.45 92.741 1242.82 92.0755 1241.97L37.8131 1186.44C37.1476 1185.77 36.5125 1185.2 35.9075 1184.71C35.3631 1184.23 34.7279 1183.83 34.002 1183.53C33.3366 1183.17 32.5199 1182.93 31.552 1182.81C30.6446 1182.62 29.465 1182.53 28.0132 1182.53H19.7558V1244.42H10.4096V1116.02H19.7558V1175.27Z" fill="black"/>
<path d="M222.971 1236.52V1244.42H152.829V1116.02H162.175V1236.52H222.971Z" fill="black"/>
<path d="M281.2 1244.42H271.854V1116.02H281.2V1244.42Z" fill="black"/>
<path d="M445.483 1116.02V1244.42H441.128C440.341 1244.42 439.676 1244.3 439.132 1244.06C438.648 1243.75 438.164 1243.27 437.68 1242.6L354.29 1131.17C354.471 1132.99 354.562 1134.71 354.562 1136.35V1244.42H346.395V1116.02H351.023C351.87 1116.02 352.505 1116.14 352.929 1116.38C353.413 1116.57 353.927 1117.02 354.471 1117.75L437.68 1228.9C437.498 1227.09 437.408 1225.36 437.408 1223.73V1116.02H445.483Z" fill="black"/>
<path d="M519.96 1244.42H510.613V1116.02H519.96V1244.42Z" fill="black"/>
<path d="M594.501 1175.27H602.123C603.273 1175.27 604.271 1175.24 605.118 1175.18C605.965 1175.06 606.721 1174.88 607.386 1174.64C608.112 1174.4 608.747 1174.06 609.292 1173.64C609.897 1173.16 610.532 1172.58 611.197 1171.92L663.01 1118.65C663.917 1117.62 664.794 1116.93 665.641 1116.57C666.549 1116.2 667.607 1116.02 668.817 1116.02H676.258L620.18 1173.64C619.031 1174.85 618.003 1175.79 617.095 1176.45C616.248 1177.12 615.28 1177.66 614.192 1178.09C615.462 1178.45 616.611 1179.02 617.64 1179.81C618.668 1180.54 619.697 1181.51 620.725 1182.71L679.797 1244.42H672.265C670.692 1244.42 669.543 1244.24 668.817 1243.87C668.152 1243.45 667.486 1242.82 666.821 1241.97L612.558 1186.44C611.893 1185.77 611.258 1185.2 610.653 1184.71C610.108 1184.23 609.473 1183.83 608.747 1183.53C608.082 1183.17 607.265 1182.93 606.297 1182.81C605.39 1182.62 604.21 1182.53 602.758 1182.53H594.501V1244.42H585.155V1116.02H594.501V1175.27Z" fill="black"/>
<path d="M796.809 1197.78L770.675 1132.9C769.768 1130.78 768.891 1128.24 768.044 1125.28C767.681 1126.73 767.288 1128.12 766.864 1129.45C766.441 1130.72 765.987 1131.9 765.503 1132.99L739.37 1197.78H796.809ZM825.21 1244.42H818.042C817.195 1244.42 816.499 1244.21 815.955 1243.78C815.41 1243.3 814.987 1242.69 814.684 1241.97L799.622 1204.67H736.557L721.494 1241.97C721.252 1242.63 720.829 1243.21 720.224 1243.69C719.619 1244.18 718.893 1244.42 718.046 1244.42H710.969L763.507 1116.02H772.672L825.21 1244.42Z" fill="black"/>
</svg>
