<svg width="1456" height="539" viewBox="0 0 1456 539" fill="none" xmlns="http://www.w3.org/2000/svg">
<path d="M749.428 173.519V219.455C743.162 224.021 736.482 227.522 729.389 229.957C722.295 232.393 714.314 233.61 705.447 233.61C695.516 233.61 686.59 232.058 678.668 228.953C670.747 225.787 663.978 221.342 658.362 215.62C652.806 209.836 648.52 202.865 645.505 194.706C642.549 186.548 641.071 177.477 641.071 167.492C641.071 157.507 642.52 148.466 645.416 140.369C648.372 132.211 652.569 125.27 658.008 119.547C663.505 113.763 670.126 109.319 677.87 106.214C685.614 103.048 694.334 101.465 704.028 101.465C708.817 101.465 713.221 101.8 717.24 102.47C721.319 103.139 725.103 104.144 728.59 105.483C732.078 106.762 735.33 108.375 738.344 110.324C741.359 112.211 744.256 114.403 747.034 116.899L744.551 120.917C743.724 122.378 742.482 122.713 740.827 121.922C739.94 121.556 738.669 120.704 737.014 119.365C735.359 118.025 733.083 116.625 730.187 115.164C727.29 113.703 723.684 112.394 719.369 111.237C715.112 110.08 709.91 109.502 703.762 109.502C695.605 109.502 688.215 110.841 681.594 113.52C675.033 116.199 669.417 120.034 664.747 125.027C660.136 130.019 656.559 136.107 654.017 143.291C651.535 150.475 650.293 158.542 650.293 167.492C650.293 176.564 651.535 184.722 654.017 191.967C656.559 199.212 660.195 205.361 664.924 210.414C669.712 215.467 675.506 219.333 682.304 222.012C689.102 224.691 696.757 226.03 705.27 226.03C708.994 226.03 712.423 225.787 715.556 225.3C718.748 224.813 721.763 224.143 724.6 223.291C727.497 222.377 730.275 221.282 732.935 220.003C735.655 218.664 738.403 217.172 741.182 215.528V180.734H717.152C716.502 180.734 715.94 180.521 715.467 180.095C715.053 179.668 714.846 179.181 714.846 178.634V173.519H749.428Z" fill="white"/>
<path d="M886.223 167.492C886.223 177.477 884.774 186.457 881.878 194.432C878.981 202.408 874.902 209.196 869.641 214.798C864.38 220.399 858.055 224.691 850.665 227.674C843.335 230.657 835.236 232.149 826.369 232.149H780.526V102.926H826.369C835.236 102.926 843.335 104.418 850.665 107.401C858.055 110.384 864.38 114.677 869.641 120.278C874.902 125.879 878.981 132.667 881.878 140.643C884.774 148.619 886.223 157.568 886.223 167.492ZM876.824 167.492C876.824 158.481 875.612 150.445 873.188 143.383C870.764 136.32 867.336 130.354 862.902 125.483C858.468 120.613 853.148 116.899 846.941 114.342C840.734 111.785 833.877 110.506 826.369 110.506H789.659V224.569H826.369C833.877 224.569 840.734 223.291 846.941 220.734C853.148 218.177 858.468 214.463 862.902 209.592C867.336 204.722 870.764 198.755 873.188 191.693C875.612 184.63 876.824 176.564 876.824 167.492Z" fill="white"/>
<path d="M948.84 178.907V232.149H939.796V178.907L893.332 102.926H901.312C902.14 102.926 902.82 103.139 903.352 103.566C903.884 103.931 904.327 104.479 904.682 105.209L940.594 164.57C941.362 165.97 942.072 167.34 942.722 168.679C943.372 169.958 943.934 171.236 944.407 172.515C944.88 171.236 945.412 169.958 946.003 168.679C946.594 167.34 947.274 165.97 948.042 164.57L983.954 105.209C984.25 104.54 984.664 103.992 985.196 103.566C985.787 103.139 986.496 102.926 987.324 102.926H995.304L948.84 178.907Z" fill="white"/>
<path d="M1113.28 102.926V232.149H1109.02C1108.25 232.149 1107.6 232.027 1107.07 231.784C1106.6 231.479 1106.13 230.992 1105.65 230.323L1024.16 118.177C1024.34 120.004 1024.43 121.739 1024.43 123.383V232.149H1016.45V102.926H1020.97C1021.8 102.926 1022.42 103.048 1022.83 103.292C1023.31 103.474 1023.81 103.931 1024.34 104.662L1105.65 216.533C1105.48 214.706 1105.39 212.971 1105.39 211.327V102.926H1113.28ZM1095.81 64.1139L1066.73 90.3237C1066.19 90.8108 1065.66 91.1152 1065.13 91.2369C1064.6 91.3587 1063.98 91.4196 1063.27 91.4196H1057.5L1080.38 66.123C1081.09 65.2706 1081.8 64.7227 1082.51 64.4792C1083.28 64.2357 1084.37 64.1139 1085.79 64.1139H1095.81Z" fill="white"/>
<path d="M1212.13 118.634C1211.59 119.669 1210.83 120.186 1209.82 120.186C1209.05 120.186 1208.05 119.639 1206.81 118.543C1205.62 117.386 1204 116.138 1201.93 114.798C1199.86 113.398 1197.26 112.12 1194.13 110.963C1191.05 109.806 1187.24 109.228 1182.69 109.228C1178.14 109.228 1174.12 109.897 1170.63 111.237C1167.2 112.576 1164.3 114.403 1161.94 116.716C1159.63 119.03 1157.86 121.709 1156.62 124.753C1155.44 127.797 1154.84 130.993 1154.84 134.342C1154.84 138.725 1155.73 142.348 1157.5 145.209C1159.34 148.071 1161.73 150.506 1164.69 152.515C1167.64 154.524 1170.98 156.229 1174.71 157.629C1178.49 158.969 1182.36 160.308 1186.32 161.647C1190.28 162.987 1194.13 164.478 1197.85 166.122C1201.63 167.705 1205 169.714 1207.96 172.15C1210.91 174.585 1213.28 177.599 1215.05 181.191C1216.89 184.722 1217.8 189.136 1217.8 194.432C1217.8 199.851 1216.89 204.965 1215.05 209.775C1213.28 214.524 1210.68 218.664 1207.25 222.195C1203.82 225.726 1199.62 228.527 1194.66 230.597C1189.69 232.606 1184.02 233.61 1177.63 233.61C1169.36 233.61 1162.23 232.119 1156.26 229.135C1150.29 226.091 1145.06 221.951 1140.57 216.715L1143.05 212.697C1143.76 211.784 1144.59 211.327 1145.53 211.327C1146.07 211.327 1146.75 211.693 1147.57 212.423C1148.4 213.154 1149.41 214.067 1150.59 215.163C1151.77 216.198 1153.19 217.355 1154.84 218.633C1156.5 219.851 1158.42 221.008 1160.61 222.103C1162.8 223.138 1165.31 224.021 1168.15 224.752C1170.98 225.482 1174.2 225.848 1177.81 225.848C1182.78 225.848 1187.21 225.087 1191.11 223.565C1195.01 221.982 1198.29 219.851 1200.95 217.172C1203.67 214.493 1205.74 211.327 1207.16 207.674C1208.58 203.961 1209.29 200.003 1209.29 195.802C1209.29 191.236 1208.37 187.492 1206.54 184.57C1204.77 181.586 1202.4 179.121 1199.45 177.172C1196.49 175.163 1193.12 173.489 1189.34 172.15C1185.61 170.81 1181.77 169.501 1177.81 168.223C1173.85 166.944 1169.98 165.513 1166.19 163.93C1162.47 162.347 1159.13 160.338 1156.17 157.903C1153.22 155.407 1150.82 152.332 1148.99 148.679C1147.22 144.966 1146.33 140.339 1146.33 134.798C1146.33 130.476 1147.13 126.305 1148.73 122.287C1150.32 118.269 1152.66 114.738 1155.73 111.693C1158.81 108.588 1162.59 106.123 1167.08 104.296C1171.63 102.409 1176.81 101.465 1182.6 101.465C1189.1 101.465 1194.92 102.531 1200.07 104.662C1205.27 106.792 1210 110.05 1214.25 114.433L1212.13 118.634Z" fill="white"/>
<path d="M1256.14 162.561H1263.58C1264.71 162.561 1265.68 162.53 1266.51 162.469C1267.34 162.347 1268.08 162.165 1268.73 161.921C1269.44 161.678 1270.06 161.343 1270.59 160.917C1271.18 160.43 1271.8 159.851 1272.45 159.182L1323.08 105.575C1323.97 104.54 1324.83 103.84 1325.65 103.474C1326.54 103.109 1327.58 102.926 1328.76 102.926H1336.03L1281.23 160.917C1280.11 162.134 1279.1 163.078 1278.21 163.748C1277.39 164.417 1276.44 164.965 1275.38 165.392C1276.62 165.757 1277.74 166.335 1278.75 167.127C1279.75 167.857 1280.76 168.831 1281.76 170.049L1339.49 232.149H1332.13C1330.59 232.149 1329.47 231.966 1328.76 231.601C1328.11 231.175 1327.46 230.536 1326.81 229.683L1273.78 173.793C1273.13 173.124 1272.51 172.545 1271.92 172.058C1271.39 171.571 1270.77 171.175 1270.06 170.871C1269.41 170.506 1268.61 170.262 1267.66 170.14C1266.78 169.958 1265.62 169.866 1264.2 169.866H1256.14V232.149H1247V102.926H1256.14V162.561Z" fill="white"/>
<path d="M1428.12 185.209L1402.58 119.913C1401.69 117.782 1400.84 115.225 1400.01 112.241C1399.65 113.703 1399.27 115.103 1398.86 116.442C1398.44 117.721 1398 118.908 1397.53 120.004L1371.99 185.209H1428.12ZM1455.87 232.149H1448.87C1448.04 232.149 1447.36 231.936 1446.83 231.51C1446.3 231.023 1445.88 230.414 1445.59 229.683L1430.87 192.149H1369.24L1354.52 229.683C1354.28 230.353 1353.87 230.931 1353.28 231.418C1352.69 231.906 1351.98 232.149 1351.15 232.149H1344.23L1395.57 102.926H1404.53L1455.87 232.149Z" fill="white"/>
<path d="M734.214 433.935L712.838 499.991H708.418L688.339 442.665C688.083 441.887 687.859 441.078 687.667 440.237C687.474 441.078 687.25 441.887 686.994 442.665L666.867 499.991H662.496L641.071 433.935H645.154C646.083 433.935 646.676 434.355 646.932 435.196L664.081 489.488C664.433 490.733 664.753 492.149 665.041 493.736C665.202 492.927 665.362 492.18 665.522 491.495C665.682 490.779 665.874 490.11 666.098 489.488L685.313 435.196C685.441 434.853 685.665 434.558 685.985 434.309C686.306 434.06 686.69 433.935 687.138 433.935H688.483C688.932 433.935 689.3 434.06 689.588 434.309C689.876 434.526 690.1 434.822 690.261 435.196L709.475 489.488C709.699 490.079 709.891 490.733 710.052 491.448C710.244 492.164 710.42 492.911 710.58 493.689C710.74 492.911 710.884 492.18 711.012 491.495C711.172 490.779 711.333 490.11 711.493 489.488L728.642 435.196C728.738 434.853 728.946 434.558 729.266 434.309C729.618 434.06 730.019 433.935 730.467 433.935H734.214Z" fill="white"/>
<path d="M789.273 496.023L789.177 499.991H748.442V433.935H789.177V437.903H753.39V464.606H783.173V468.48H753.39V496.023H789.273Z" fill="white"/>
<path d="M850.287 437.997H826.413V499.991H821.465V437.997H797.447V433.935H850.287V437.997Z" fill="white"/>
<path d="M904.482 496.023L904.386 499.991H863.651V433.935H904.386V437.903H868.599V464.606H898.381V468.48H868.599V496.023H904.482Z" fill="white"/>
<path d="M938.019 466.566C941.029 466.566 943.719 466.224 946.089 465.539C948.491 464.824 950.508 463.812 952.142 462.505C953.807 461.198 955.072 459.626 955.936 457.79C956.801 455.954 957.233 453.884 957.233 451.581C957.233 446.882 955.648 443.396 952.478 441.124C949.34 438.852 944.744 437.716 938.691 437.716H926.25V466.566H938.019ZM968.186 499.991H963.959C963.414 499.991 962.95 499.914 962.566 499.758C962.213 499.571 961.877 499.244 961.557 498.778L939.748 471.982C939.492 471.639 939.22 471.344 938.932 471.095C938.675 470.846 938.371 470.659 938.019 470.534C937.699 470.379 937.298 470.27 936.818 470.208C936.37 470.145 935.809 470.114 935.137 470.114H926.25V499.991H921.302V433.935H938.691C946.505 433.935 952.35 435.413 956.225 438.37C960.132 441.295 962.085 445.606 962.085 451.301C962.085 453.822 961.637 456.125 960.74 458.21C959.843 460.295 958.546 462.132 956.849 463.719C955.184 465.275 953.15 466.551 950.749 467.547C948.379 468.543 945.705 469.212 942.726 469.554C943.495 470.021 944.184 470.643 944.792 471.421L968.186 499.991Z" fill="white"/>
<path d="M1000.6 472.775V499.991H995.702V472.775L970.531 433.935H974.855C975.303 433.935 975.671 434.044 975.959 434.262C976.248 434.449 976.488 434.729 976.68 435.102L996.135 465.446C996.551 466.162 996.935 466.862 997.288 467.547C997.64 468.2 997.944 468.854 998.2 469.507C998.456 468.854 998.745 468.2 999.065 467.547C999.385 466.862 999.753 466.162 1000.17 465.446L1019.62 435.102C1019.78 434.76 1020.01 434.48 1020.3 434.262C1020.62 434.044 1021 433.935 1021.45 433.935H1025.77L1000.6 472.775Z" fill="white"/>
<path d="M1091.12 433.935V499.991H1088.82C1088.4 499.991 1088.05 499.929 1087.76 499.805C1087.51 499.649 1087.25 499.4 1086.99 499.058L1042.85 441.731C1042.94 442.665 1042.99 443.552 1042.99 444.392V499.991H1038.67V433.935H1041.12C1041.57 433.935 1041.9 433.997 1042.13 434.122C1042.38 434.215 1042.66 434.449 1042.94 434.822L1086.99 492.009C1086.9 491.075 1086.85 490.188 1086.85 489.348V433.935H1091.12Z" fill="white"/>
<path d="M1149.77 475.996L1135.93 442.618C1135.45 441.529 1134.99 440.222 1134.54 438.697C1134.35 439.444 1134.14 440.159 1133.91 440.844C1133.69 441.498 1133.45 442.105 1133.19 442.665L1119.36 475.996H1149.77ZM1164.8 499.991H1161.01C1160.56 499.991 1160.19 499.882 1159.9 499.665C1159.61 499.416 1159.39 499.104 1159.23 498.731L1151.25 479.544H1117.87L1109.9 498.731C1109.77 499.073 1109.54 499.369 1109.22 499.618C1108.9 499.867 1108.52 499.991 1108.07 499.991H1104.32L1132.14 433.935H1136.99L1164.8 499.991Z" fill="white"/>
<path d="M1194.71 466.566C1197.72 466.566 1200.41 466.224 1202.78 465.539C1205.18 464.824 1207.2 463.812 1208.83 462.505C1210.49 461.198 1211.76 459.626 1212.62 457.79C1213.49 455.954 1213.92 453.884 1213.92 451.581C1213.92 446.882 1212.34 443.396 1209.16 441.124C1206.03 438.852 1201.43 437.716 1195.38 437.716H1182.94V466.566H1194.71ZM1224.87 499.991H1220.65C1220.1 499.991 1219.64 499.914 1219.25 499.758C1218.9 499.571 1218.56 499.244 1218.24 498.778L1196.44 471.982C1196.18 471.639 1195.91 471.344 1195.62 471.095C1195.36 470.846 1195.06 470.659 1194.71 470.534C1194.39 470.379 1193.99 470.27 1193.51 470.208C1193.06 470.145 1192.5 470.114 1191.82 470.114H1182.94V499.991H1177.99V433.935H1195.38C1203.19 433.935 1209.04 435.413 1212.91 438.37C1216.82 441.295 1218.77 445.606 1218.77 451.301C1218.77 453.822 1218.32 456.125 1217.43 458.21C1216.53 460.295 1215.23 462.132 1213.54 463.719C1211.87 465.275 1209.84 466.551 1207.44 467.547C1205.07 468.543 1202.39 469.212 1199.41 469.554C1200.18 470.021 1200.87 470.643 1201.48 471.421L1224.87 499.991Z" fill="white"/>
<path d="M1257.29 472.775V499.991H1252.39V472.775L1227.22 433.935H1231.54C1231.99 433.935 1232.36 434.044 1232.65 434.262C1232.93 434.449 1233.17 434.729 1233.37 435.102L1252.82 465.446C1253.24 466.162 1253.62 466.862 1253.97 467.547C1254.33 468.2 1254.63 468.854 1254.89 469.507C1255.14 468.854 1255.43 468.2 1255.75 467.547C1256.07 466.862 1256.44 466.162 1256.86 465.446L1276.31 435.102C1276.47 434.76 1276.7 434.48 1276.98 434.262C1277.3 434.044 1277.69 433.935 1278.14 433.935H1282.46L1257.29 472.775Z" fill="white"/>
<path d="M1308.45 477.957C1308.45 481.661 1307.99 484.928 1307.06 487.76C1306.13 490.593 1304.79 492.973 1303.03 494.903C1301.26 496.833 1299.13 498.295 1296.64 499.291C1294.14 500.256 1291.32 500.738 1288.18 500.738C1286.74 500.738 1285.28 500.629 1283.81 500.412C1282.34 500.194 1280.82 499.851 1279.25 499.385C1279.28 498.949 1279.31 498.513 1279.34 498.077C1279.41 497.642 1279.47 497.206 1279.54 496.77C1279.6 496.49 1279.71 496.241 1279.87 496.023C1280.06 495.806 1280.38 495.697 1280.83 495.697C1281.12 495.697 1281.46 495.759 1281.84 495.883C1282.26 495.977 1282.74 496.086 1283.28 496.21C1283.83 496.335 1284.47 496.459 1285.2 496.584C1285.94 496.677 1286.79 496.724 1287.75 496.724C1290.18 496.724 1292.38 496.35 1294.33 495.603C1296.28 494.856 1297.95 493.72 1299.33 492.195C1300.7 490.639 1301.74 488.694 1302.45 486.36C1303.19 483.995 1303.55 481.225 1303.55 478.05V433.935H1308.45V477.957Z" fill="white"/>
<path d="M1382.2 433.935V499.991H1379.89C1379.47 499.991 1379.12 499.929 1378.83 499.805C1378.58 499.649 1378.32 499.4 1378.06 499.058L1333.92 441.731C1334.01 442.665 1334.06 443.552 1334.06 444.392V499.991H1329.74V433.935H1332.19C1332.64 433.935 1332.97 433.997 1333.2 434.122C1333.45 434.215 1333.73 434.449 1334.01 434.822L1378.06 492.009C1377.97 491.075 1377.92 490.188 1377.92 489.348V433.935H1382.2Z" fill="white"/>
<path d="M1440.84 475.996L1427 442.618C1426.52 441.529 1426.06 440.222 1425.61 438.697C1425.42 439.444 1425.21 440.159 1424.98 440.844C1424.76 441.498 1424.52 442.105 1424.26 442.665L1410.43 475.996H1440.84ZM1455.87 499.991H1452.08C1451.63 499.991 1451.26 499.882 1450.97 499.665C1450.68 499.416 1450.46 499.104 1450.3 498.731L1442.33 479.544H1408.94L1400.97 498.731C1400.84 499.073 1400.61 499.369 1400.29 499.618C1399.97 499.867 1399.59 499.991 1399.14 499.991H1395.39L1423.21 433.935H1428.06L1455.87 499.991Z" fill="white"/>
<path d="M650.418 328.827H658.04C659.189 328.827 660.187 328.797 661.034 328.737C661.881 328.616 662.637 328.434 663.303 328.192C664.028 327.95 664.664 327.618 665.208 327.194C665.813 326.71 666.448 326.135 667.114 325.47L718.926 272.206C719.834 271.177 720.711 270.482 721.558 270.119C722.465 269.756 723.524 269.574 724.733 269.574H732.174L676.097 327.194C674.948 328.404 673.919 329.342 673.012 330.007C672.165 330.672 671.197 331.217 670.108 331.64C671.378 332.003 672.528 332.578 673.556 333.364C674.585 334.09 675.613 335.058 676.641 336.268L735.713 397.971H728.182C726.609 397.971 725.459 397.79 724.733 397.427C724.068 397.003 723.403 396.368 722.737 395.521L668.475 339.988C667.809 339.323 667.174 338.748 666.569 338.264C666.025 337.78 665.39 337.387 664.664 337.085C663.998 336.722 663.182 336.48 662.214 336.359C661.306 336.177 660.127 336.087 658.675 336.087H650.418V397.971H641.071V269.574H650.418V328.827Z" fill="white"/>
<path d="M853.632 390.077V397.971H783.49V269.574H792.837V390.077H853.632Z" fill="white"/>
<path d="M911.862 397.971H902.516V269.574H911.862V397.971Z" fill="white"/>
<path d="M1076.15 269.574V397.971H1071.79C1071 397.971 1070.34 397.85 1069.79 397.608C1069.31 397.306 1068.83 396.822 1068.34 396.156L984.951 284.728C985.133 286.543 985.224 288.267 985.224 289.9V397.971H977.057V269.574H981.685C982.532 269.574 983.167 269.695 983.59 269.937C984.074 270.119 984.589 270.572 985.133 271.298L1068.34 382.455C1068.16 380.64 1068.07 378.916 1068.07 377.283V269.574H1076.15Z" fill="white"/>
<path d="M1150.62 397.971H1141.28V269.574H1150.62V397.971Z" fill="white"/>
<path d="M1225.16 328.827H1232.78C1233.93 328.827 1234.93 328.797 1235.78 328.737C1236.63 328.616 1237.38 328.434 1238.05 328.192C1238.77 327.95 1239.41 327.618 1239.95 327.194C1240.56 326.71 1241.19 326.135 1241.86 325.47L1293.67 272.206C1294.58 271.177 1295.46 270.482 1296.3 270.119C1297.21 269.756 1298.27 269.574 1299.48 269.574H1306.92L1250.84 327.194C1249.69 328.404 1248.66 329.342 1247.76 330.007C1246.91 330.672 1245.94 331.217 1244.85 331.64C1246.12 332.003 1247.27 332.578 1248.3 333.364C1249.33 334.09 1250.36 335.058 1251.39 336.268L1310.46 397.971H1302.93C1301.35 397.971 1300.2 397.79 1299.48 397.427C1298.81 397.003 1298.15 396.368 1297.48 395.521L1243.22 339.988C1242.55 339.323 1241.92 338.748 1241.31 338.264C1240.77 337.78 1240.13 337.387 1239.41 337.085C1238.74 336.722 1237.93 336.48 1236.96 336.359C1236.05 336.177 1234.87 336.087 1233.42 336.087H1225.16V397.971H1215.82V269.574H1225.16V328.827Z" fill="white"/>
<path d="M1427.47 351.331L1401.34 286.452C1400.43 284.335 1399.55 281.794 1398.71 278.83C1398.34 280.282 1397.95 281.673 1397.53 283.004C1397.1 284.274 1396.65 285.454 1396.16 286.543L1370.03 351.331H1427.47ZM1455.87 397.971H1448.7C1447.86 397.971 1447.16 397.76 1446.62 397.336C1446.07 396.852 1445.65 396.247 1445.35 395.521L1430.28 358.227H1367.22L1352.16 395.521C1351.91 396.187 1351.49 396.761 1350.89 397.245C1350.28 397.729 1349.55 397.971 1348.71 397.971H1341.63L1394.17 269.574H1403.33L1455.87 397.971Z" fill="white"/>
<path fill-rule="evenodd" clip-rule="evenodd" d="M269.165 538.511C417.695 538.511 538.102 418.104 538.102 269.574C538.102 121.045 417.695 0.637451 269.165 0.637451C120.636 0.637451 0.228516 121.045 0.228516 269.574C0.228516 418.104 120.636 538.511 269.165 538.511ZM269.165 508.101C400.9 508.101 507.692 401.309 507.692 269.574C507.692 137.84 400.9 31.0476 269.165 31.0476C137.431 31.0476 30.6386 137.84 30.6386 269.574C30.6386 401.309 137.431 508.101 269.165 508.101Z" fill="white"/>
<path d="M528.869 327.975V211.174H328.558L328.558 14.2106L209.773 14.2106L209.773 211.174H9.46179V327.975H209.773L209.773 524.938H328.558V327.975H528.869Z" fill="white"/>
<path d="M381.106 373.108C380.34 418.912 355.321 435.485 328.765 433.949C302.209 432.42 283.738 420.407 264.877 420.407L264.104 420.828C245.243 420.828 226.773 433.263 200.217 434.792C173.659 436.321 148.642 420.583 147.876 374.779C149.416 332.725 182.255 329.633 210.226 279.954C234.855 236.209 264.106 239.749 264.106 239.749H264.877C264.877 239.749 294.38 236.399 318.758 279.954C346.595 329.701 379.566 331.052 381.106 373.108ZM216.68 220.877C240.202 219.137 257.244 191.64 254.743 159.459C252.242 127.28 231.145 102.603 207.623 104.343C184.101 106.083 167.059 133.581 169.56 165.76C172.061 197.94 193.157 222.617 216.68 220.877ZM305.834 221.436C328.821 227.549 354.579 207.013 363.365 175.568C372.15 144.122 360.638 113.675 337.652 107.562C314.665 101.448 288.906 121.984 280.121 153.429C271.336 184.874 282.847 215.323 305.834 221.436ZM412.331 196.258C392.314 190.934 369.883 208.816 362.232 236.2C354.581 263.584 364.606 290.097 384.624 295.421C404.642 300.744 427.072 282.862 434.723 255.478C442.375 228.096 432.35 201.582 412.331 196.258ZM176.098 236.198C168.447 208.816 146.017 190.933 125.999 196.256C105.981 201.58 95.9555 228.094 103.607 255.477C111.258 282.859 133.689 300.742 153.707 295.419C173.724 290.096 183.749 263.582 176.098 236.198Z" fill="#C4C4C4"/>
</svg>
