<svg width="47" height="58" viewBox="0 0 47 58" fill="none" xmlns="http://www.w3.org/2000/svg">
<path d="M44.2859 16.2078H32.7086V11.8778C36.626 10.5616 37.8222 5.63323 34.9114 2.61227C31.903 -0.509614 26.9026 0.848775 25.5958 4.80972H2.27369C1.28497 4.80972 0.483398 5.60711 0.483398 6.59067V55.4898C0.483398 56.4734 1.28497 57.2708 2.27369 57.2708C3.26241 57.2708 4.06398 56.4734 4.06398 55.4898V8.37161H25.6035C26.1625 10.0179 27.4731 11.3218 29.1281 11.8778V16.2078H17.5508C16.5621 16.2078 15.7606 17.0052 15.7606 17.9887V33.2118C15.7606 35.021 16.3052 36.7656 17.3355 38.2565L17.88 39.0446C19.4953 41.3817 22.1945 42.9045 25.3087 42.9045V44.9229C25.3087 47.3771 26.9104 49.4649 29.1279 50.21V55.4898C29.1279 56.4734 29.9295 57.2708 30.9182 57.2708C31.907 57.2708 32.7085 56.4734 32.7085 55.4898V50.21C34.9261 49.4649 36.5278 47.3771 36.5278 44.9229V42.9045C39.7867 42.9045 42.4845 41.3229 44.0819 38.9392L44.5725 38.2071C45.5561 36.7398 46.076 35.0316 46.076 33.2675C46.076 30.8783 46.076 20.242 46.076 17.9887C46.0762 17.0052 45.2746 16.2078 44.2859 16.2078ZM30.9184 4.45353C31.9992 4.45353 32.9474 5.45217 32.9474 6.59067C32.9474 7.70364 32.0372 8.60907 30.9184 8.60907C29.7995 8.60907 28.8894 7.70364 28.8894 6.59067C28.8894 5.45217 29.8375 4.45353 30.9184 4.45353ZM19.3411 19.7697H42.4956V27.9445H19.3411V19.7697ZM32.9474 44.9229C32.9474 46.0358 32.0372 46.9413 30.9184 46.9413C29.7995 46.9413 28.8894 46.0358 28.8894 44.9229V42.9045H32.9474V44.9229ZM42.4956 33.2675C42.4956 34.326 42.1837 35.3508 41.5935 36.2313L41.1028 36.9635C40.1045 38.4532 38.4339 39.3426 36.634 39.3426C29.5212 39.3426 32.3075 39.3426 25.2565 39.3426C23.4875 39.3426 21.8329 38.4768 20.8308 37.0267L20.2863 36.2387C19.6679 35.3441 19.3411 34.2974 19.3411 33.2118V31.5064H42.4956V33.2675Z" fill="#005826"/>
</svg>
