<svg width="513" height="513" viewBox="0 0 513 513" fill="none" xmlns="http://www.w3.org/2000/svg">
<path d="M494.378 81.5372C482.522 69.6814 466.163 63.2455 449.602 63.0975C449.4 46.9598 443.008 31.167 431.154 19.3132C406.59 -5.24843 366.624 -5.24943 342.059 19.3132C321.143 40.2289 318.051 72.3054 332.753 96.539L97.4649 332.817C73.7003 318.453 40.7688 320.672 19.2891 342.151C-5.27347 366.714 -5.27347 406.681 19.2891 431.245C31.147 443.104 47.5087 449.537 64.0725 449.685C64.2185 466.248 70.6543 482.611 82.5132 494.47C107.078 519.032 147.045 519.033 171.608 494.47C194.921 471.156 195.8 434.022 176.254 409.585L409.543 175.318C434.186 194.99 471.26 193.749 494.377 170.632C518.941 146.068 518.941 106.102 494.378 81.5372ZM473.165 149.418C460.311 162.272 438.448 162.37 425.495 149.417C423.785 147.707 422.93 146.541 421.653 144.849C416.216 137.697 405.901 136.886 399.412 143.007C399.13 143.274 144.31 399.068 143.412 400.136C137.79 406.778 139.031 416.948 146.183 422.026C163.095 434.04 164.671 458.98 150.396 473.256C137.529 486.123 116.594 486.122 103.727 473.256C94.563 464.092 91.522 449.129 96.3299 436.87C101.087 424.686 88.9721 412.701 76.8902 417.429C64.6294 422.238 49.6667 419.195 40.5028 410.032C20.1471 389.675 33.7649 353.699 64.3374 353.699C73.4753 353.699 81.9392 357.132 88.1721 363.365C93.95 369.142 103.437 369.313 109.407 363.343C381.342 90.2601 364.549 107.763 366.245 104.14C369 98.214 367.549 91.4731 363.271 87.1951C350.405 74.3283 350.405 53.3927 363.271 40.5269C376.138 27.6601 397.073 27.6601 409.94 40.5269C419.223 49.8097 422.127 63.6995 417.336 75.9133C416.025 79.2413 415.925 83.2652 417.337 86.8671C420.338 94.552 429.113 98.363 436.777 95.354C449.038 90.5451 463.999 93.587 473.164 102.751C486.031 115.618 486.031 136.552 473.165 149.418Z" fill="#005826"/>
</svg>
