<svg width="512" height="512" viewBox="0 0 512 512" fill="none" xmlns="http://www.w3.org/2000/svg">
<g clip-path="url(#clip0)">
<path d="M511.045 171.906C508.722 55.8633 367.117 -29.6571 255.745 67.7271C144.448 -29.5942 2.76934 55.8064 0.444875 171.906C-0.407096 214.442 17.619 255.395 52.5718 290.34C52.6665 290.44 123.521 360.905 245.188 481.911C251.026 487.718 260.462 487.719 266.302 481.911L458.918 290.34C493.871 255.396 511.896 214.442 511.045 171.906ZM255.745 450.194L91.4003 286.742H143.983C149.241 286.742 154.113 283.983 156.818 279.477L168.306 260.334L211.184 327.697C217.49 337.606 232.297 336.711 237.339 326.069L296.514 201.176L338.36 278.872C340.971 283.719 346.032 286.743 351.539 286.743H420.088L255.745 450.194ZM449.043 256.813H360.481L308.839 160.93C303.049 150.182 287.394 150.515 282.133 161.618L221.889 288.768L180.56 223.839C174.534 214.368 160.769 214.725 155.098 224.174L135.509 256.814H62.4502C40.8297 230.817 29.786 201.945 30.3746 172.506C32.2432 79.1968 151.185 4.8438 245.161 98.7961C251.001 104.635 260.485 104.64 266.329 98.7961C386.316 -21.1643 551.272 133.91 449.043 256.813Z" fill="#005826"/>
</g>
<defs>
<clipPath id="clip0">
<rect width="510.658" height="510.658" fill="white" transform="translate(0.416016 0.47522)"/>
</clipPath>
</defs>
</svg>
