<svg width="513" height="513" viewBox="0 0 513 513" fill="none" xmlns="http://www.w3.org/2000/svg">
<path d="M473.061 40.328C420.375 -12.254 332.477 -12.261 279.761 40.35L40.0445 280.6C14.5929 306.002 0.576172 340.256 0.576172 377.05C0.576172 453.67 61.0975 512.892 136.182 512.892C172.726 512.892 206.869 498.902 232.32 473.5L473.062 233.229C525.53 180.863 525.94 93.1051 473.061 40.328ZM273.938 389.542L123.537 239.433L238.297 124.418L388.938 274.766L273.938 389.542ZM211.067 452.289C170.476 492.803 101.89 492.804 61.2965 452.289C20.4333 411.505 20.4333 342.595 61.3185 301.788L102.328 260.688L252.686 410.753L211.067 452.289ZM451.809 212.018L410.191 253.555L259.505 103.163L301.036 61.539C341.898 20.7569 410.944 20.7539 451.808 61.539C492.672 102.323 492.672 171.234 451.809 212.018Z" fill="#005826"/>
</svg>
