<svg width="41" height="41" viewBox="0 0 41 41" fill="none" xmlns="http://www.w3.org/2000/svg">
<g clip-path="url(#clip0)">
<path d="M5.35701 30.181C4.00221 31.5358 3.99979 33.7387 5.3499 35.0964C8.3929 38.2379 7.60888 37.435 7.77438 37.599C9.98195 39.8066 13.2605 40.6072 16.2441 39.6037C26.0008 36.3222 32.6116 29.7114 35.893 19.9548C36.9074 16.9388 36.0711 13.6677 33.8883 11.485C33.7359 11.3313 34.6099 12.1839 31.3858 9.06062C30.0243 7.70676 27.8278 7.71012 26.4703 9.06766L22.3348 13.2033C20.9742 14.5638 20.9746 16.7656 22.3348 18.1257L23.6033 19.3943C23.9239 19.7148 24.0247 20.1912 23.8602 20.6079C22.5346 23.9677 20.257 26.2453 16.8974 27.5708C16.4806 27.7354 16.0041 27.6344 15.6836 27.314L14.4151 26.0455C13.0546 24.685 10.8528 24.6852 9.49258 26.0455L5.35701 30.181ZM7.0145 31.8385L11.1501 27.703C11.5944 27.2587 12.3132 27.2588 12.7576 27.703L14.0261 28.9715C15.0072 29.9526 16.4718 30.259 17.7576 29.7513C21.6988 28.1963 24.4857 25.4095 26.0407 21.4682C26.548 20.1825 26.2419 18.7177 25.2608 17.7367L23.9923 16.4681C23.548 16.0238 23.5482 15.3049 23.9923 14.8607L28.1279 10.7251C28.5393 10.3137 29.2336 10.2451 29.7487 10.7381L32.2372 13.1488C33.8145 14.7309 34.3774 17.1081 33.6713 19.2076C30.6361 28.232 24.5214 34.3467 15.4969 37.3819C13.3974 38.0882 11.0202 37.525 9.43804 35.9477C6.407 32.8187 7.17539 33.6082 7.01458 33.446C6.57132 33.0028 6.57132 32.2817 7.0145 31.8385Z" fill="white"/>
</g>
<defs>
<clipPath id="clip0">
<rect width="40" height="40" fill="white" transform="translate(0.330078 0.03125)"/>
</clipPath>
</defs>
</svg>
