<svg width="3063" height="693" viewBox="0 0 3063 693" fill="none" xmlns="http://www.w3.org/2000/svg">
<path d="M2894.37 377.535C2893.63 422.65 2869.59 438.974 2844.07 437.462C2818.55 435.956 2800.8 424.123 2782.68 424.123L2781.94 424.538C2763.81 424.538 2746.06 436.785 2720.54 438.291C2695.02 439.797 2670.98 424.297 2670.25 379.181C2671.73 337.76 2703.28 334.714 2730.16 285.782C2753.83 242.695 2781.94 246.182 2781.94 246.182H2782.68C2782.68 246.182 2811.03 242.882 2834.45 285.782C2861.2 334.781 2892.89 336.112 2894.37 377.535ZM2736.36 227.593C2758.97 225.879 2775.34 198.796 2772.94 167.099C2770.54 135.403 2750.26 111.097 2727.66 112.811C2705.06 114.525 2688.68 141.61 2691.08 173.305C2693.49 205.001 2713.76 229.307 2736.36 227.593ZM2822.04 228.144C2844.12 234.165 2868.88 213.938 2877.32 182.965C2885.76 151.993 2874.7 122.003 2852.61 115.982C2830.52 109.961 2805.77 130.187 2797.33 161.16C2788.88 192.132 2799.95 222.122 2822.04 228.144ZM2924.37 203.345C2905.14 198.101 2883.58 215.714 2876.23 242.686C2868.88 269.658 2878.51 295.773 2897.75 301.016C2916.98 306.26 2938.54 288.646 2945.89 261.674C2953.24 234.704 2943.61 208.588 2924.37 203.345ZM2697.37 242.684C2690.02 215.713 2668.46 198.099 2649.23 203.343C2629.99 208.586 2620.36 234.702 2627.71 261.673C2635.06 288.643 2656.61 306.258 2675.85 301.014C2695.09 295.771 2704.72 269.656 2697.37 242.684Z" fill="#D7D6D6"/>
<path d="M3049.77 275.558C3049.77 420.792 2932.03 538.528 2786.8 538.528C2641.57 538.528 2523.83 420.792 2523.83 275.558C2523.83 130.324 2641.57 12.5884 2786.8 12.5884C2932.03 12.5884 3049.77 130.324 3049.77 275.558Z" stroke="#005826" stroke-width="25"/>
<path d="M2528.27 216.433H3045.33V334.683H2528.27V216.433Z" fill="#005826"/>
<path d="M2845.93 17.0269L2845.93 534.089H2727.68L2727.68 17.0269L2845.93 17.0269Z" fill="#005826"/>
<path d="M73.7106 247.511C81.1505 247.511 87.3905 248.531 92.4305 250.571C97.5906 252.611 102.631 255.491 107.551 259.211C108.991 260.291 110.191 260.831 111.151 260.831C112.351 260.831 113.311 259.991 114.031 258.311C114.751 256.511 115.291 253.751 115.651 250.031H119.791C119.311 258.191 119.071 272.711 119.071 293.591H114.931C113.971 285.431 112.531 278.831 110.611 273.791C108.811 268.751 105.751 264.491 101.431 261.011C98.5506 258.251 95.0106 256.091 90.8105 254.531C86.6106 252.971 82.2906 252.191 77.8506 252.191C69.4506 252.191 62.4305 255.071 56.7906 260.831C51.2705 266.471 47.1905 273.971 44.5505 283.331C41.9105 292.691 40.5905 302.951 40.5905 314.111C40.5905 355.631 52.1105 376.391 75.1506 376.391C80.4305 376.391 84.6906 375.191 87.9306 372.791C89.4905 371.711 90.5705 370.451 91.1706 369.011C91.8906 367.571 92.2505 365.711 92.2505 363.431V345.791C92.2505 340.151 91.7705 336.071 90.8105 333.551C89.8505 330.911 88.1105 329.111 85.5905 328.151C83.1906 327.191 79.3506 326.591 74.0705 326.351V322.751C81.5105 323.111 91.7705 323.291 104.851 323.291C115.531 323.291 123.571 323.111 128.971 322.751V326.351C126.571 326.591 124.831 327.071 123.751 327.791C122.671 328.511 121.891 329.891 121.411 331.931C121.051 333.971 120.871 337.271 120.871 341.831V377.471H117.271C117.151 374.951 116.611 372.611 115.651 370.451C114.811 368.291 113.611 367.211 112.051 367.211C110.011 367.211 106.771 368.471 102.331 370.991C91.8906 376.991 82.0506 379.991 72.8105 379.991C52.0505 379.991 36.1505 374.351 25.1105 363.071C14.0705 351.671 8.55055 335.711 8.55055 315.191C8.55055 301.751 11.3105 289.931 16.8305 279.731C22.4705 269.531 30.2105 261.611 40.0505 255.971C49.8905 250.331 61.1106 247.511 73.7106 247.511ZM226.054 357.671C226.054 363.191 226.894 367.211 228.574 369.731C230.254 372.251 233.254 373.511 237.574 373.511V377.291C233.854 376.931 230.134 376.751 226.414 376.751C215.734 376.751 206.974 377.591 200.134 379.271V363.791C196.054 374.591 188.254 379.991 176.734 379.991C165.454 379.991 156.454 375.911 149.734 367.751C143.134 359.471 139.894 347.051 140.014 330.491C140.014 319.931 141.694 311.051 145.054 303.851C148.534 296.531 153.274 291.071 159.274 287.471C165.394 283.751 172.354 281.891 180.154 281.891C188.914 281.891 195.574 284.171 200.134 288.731V258.131C200.134 252.611 199.234 248.591 197.434 246.071C195.754 243.551 192.814 242.291 188.614 242.291V238.511C192.454 238.871 196.174 239.051 199.774 239.051C210.214 239.051 218.974 238.211 226.054 236.531V357.671ZM184.114 372.251C188.074 372.251 191.554 370.811 194.554 367.931C197.674 365.051 199.534 361.151 200.134 356.231V293.231C197.134 289.151 192.754 287.111 186.994 287.111C180.634 287.111 175.714 290.771 172.234 298.091C168.754 305.411 167.074 316.331 167.194 330.851C167.074 345.491 168.454 356.051 171.334 362.531C174.334 369.011 178.594 372.251 184.114 372.251ZM319.232 284.951C325.232 284.951 329.852 284.771 333.092 284.411V288.011C330.572 288.731 328.292 290.291 326.252 292.691C324.332 294.971 322.472 298.571 320.672 303.491L288.452 394.031C286.052 400.271 283.412 404.531 280.532 406.811C277.052 409.811 271.832 411.311 264.872 411.311C259.832 411.311 255.272 410.051 251.192 407.531C247.232 405.131 245.252 401.591 245.252 396.911C245.252 393.191 246.572 390.191 249.212 387.911C251.852 385.751 255.332 384.671 259.652 384.671C263.732 384.671 266.972 385.631 269.372 387.551C271.892 389.591 273.152 392.411 273.152 396.011C273.152 398.531 272.372 400.811 270.812 402.851C269.252 405.011 267.032 406.631 264.152 407.711C264.992 407.831 266.372 407.891 268.292 407.891C275.732 407.891 281.192 403.151 284.672 393.671L287.552 385.031L249.392 298.271C247.472 294.191 245.612 291.491 243.812 290.171C242.012 288.851 240.152 288.191 238.232 288.191V284.411C246.152 285.131 254.372 285.491 262.892 285.491C269.972 285.491 278.312 285.131 287.912 284.411V288.191C284.072 288.191 281.192 288.491 279.272 289.091C277.472 289.571 276.572 290.951 276.572 293.231C276.572 294.551 276.992 296.231 277.832 298.271L299.792 351.371L312.212 316.811C314.132 311.171 315.092 306.371 315.092 302.411C315.092 293.651 310.652 288.851 301.772 288.011V284.411C307.412 284.771 313.232 284.951 319.232 284.951ZM405.372 281.891C414.492 281.891 421.092 284.231 425.172 288.911C427.212 291.191 428.652 294.131 429.492 297.731C430.332 301.331 430.752 306.191 430.752 312.311V360.731C430.752 365.651 431.592 369.071 433.272 370.991C435.072 372.791 438.072 373.691 442.272 373.691V377.471C430.272 376.991 422.352 376.751 418.512 376.751C414.912 376.751 407.112 376.991 395.112 377.471V373.691C398.712 373.691 401.232 372.791 402.672 370.991C404.112 369.071 404.832 365.651 404.832 360.731V304.751C404.832 299.831 403.992 296.111 402.312 293.591C400.752 291.071 397.872 289.811 393.672 289.811C388.752 289.811 384.552 291.851 381.072 295.931C377.592 299.891 375.852 304.811 375.852 310.691V360.731C375.852 365.651 376.572 369.071 378.012 370.991C379.452 372.791 381.972 373.691 385.572 373.691V377.471C374.532 376.991 367.092 376.751 363.252 376.751C359.652 376.751 351.372 376.991 338.412 377.471V373.691C342.732 373.691 345.732 372.791 347.412 370.991C349.092 369.071 349.932 365.651 349.932 360.731V304.031C349.932 298.511 349.092 294.491 347.412 291.971C345.732 289.451 342.732 288.191 338.412 288.191V284.411C342.252 284.771 345.972 284.951 349.572 284.951C360.252 284.951 369.012 284.111 375.852 282.431V298.631C381.252 287.471 391.092 281.891 405.372 281.891ZM410.052 230.411C412.212 231.971 413.292 234.251 413.292 237.251C413.292 239.771 412.392 242.231 410.592 244.631C409.272 246.191 407.592 247.811 405.552 249.491C403.632 251.051 401.532 252.671 399.252 254.351C392.052 259.391 385.692 264.491 380.172 269.651L378.192 268.031C381.432 262.151 384.792 254.771 388.272 245.891C389.832 242.171 391.032 239.411 391.872 237.611C392.832 235.691 393.972 233.951 395.292 232.391C397.572 229.511 400.392 228.071 403.752 228.071C406.272 228.071 408.372 228.851 410.052 230.411ZM484.618 281.891C489.178 281.891 493.378 282.491 497.218 283.691C501.058 284.771 503.998 286.031 506.038 287.471C507.238 288.311 508.318 288.731 509.278 288.731C510.358 288.731 511.258 288.191 511.978 287.111C512.818 285.911 513.358 284.231 513.598 282.071H517.378C516.898 288.191 516.658 298.751 516.658 313.751H512.878C511.798 305.831 509.398 299.231 505.678 293.951C502.078 288.551 496.798 285.851 489.838 285.851C486.238 285.851 483.238 286.871 480.838 288.911C478.558 290.951 477.418 293.771 477.418 297.371C477.418 301.451 478.798 304.991 481.558 307.991C484.318 310.871 488.638 314.411 494.518 318.611L499.738 322.391C507.058 327.911 512.458 332.831 515.938 337.151C519.418 341.471 521.158 346.871 521.158 353.351C521.158 358.631 519.598 363.311 516.478 367.391C513.478 371.471 509.398 374.591 504.238 376.751C499.078 378.911 493.378 379.991 487.138 379.991C480.538 379.991 474.898 378.731 470.218 376.211C466.378 374.291 463.618 373.031 461.938 372.431C460.738 372.071 459.658 372.491 458.698 373.691C457.858 374.771 457.198 376.451 456.718 378.731H452.938C453.418 371.891 453.658 359.891 453.658 342.731H457.438C459.838 364.811 467.938 375.851 481.738 375.851C485.218 375.851 488.158 374.831 490.558 372.791C493.078 370.631 494.338 367.391 494.338 363.071C494.338 359.711 493.558 356.711 491.998 354.071C490.558 351.431 488.698 349.091 486.418 347.051C484.138 345.011 480.718 342.191 476.158 338.591C470.758 334.271 466.618 330.791 463.738 328.151C460.978 325.511 458.578 322.391 456.538 318.791C454.618 315.191 453.658 311.171 453.658 306.731C453.658 299.051 456.658 292.991 462.658 288.551C468.658 284.111 475.978 281.891 484.618 281.891ZM623.563 364.331C625.483 367.211 627.043 369.371 628.243 370.811C629.443 372.131 631.003 373.091 632.923 373.691V377.471C623.323 376.991 617.023 376.751 614.023 376.751C610.063 376.751 602.323 376.991 590.803 377.471V373.691C592.483 373.691 593.803 373.391 594.763 372.791C595.723 372.191 596.203 371.351 596.203 370.271C596.203 369.671 595.903 368.771 595.303 367.571L577.483 335.351C576.283 333.311 575.023 331.931 573.703 331.211C572.383 330.491 570.703 330.011 568.663 329.771V360.731C568.663 365.651 569.443 369.071 571.003 370.991C572.563 372.791 575.383 373.691 579.463 373.691V377.471C567.463 376.991 559.663 376.751 556.063 376.751C551.983 376.751 543.703 376.991 531.223 377.471V373.691C535.423 373.691 538.363 372.791 540.043 370.991C541.843 369.071 542.743 365.651 542.743 360.731V258.131C542.743 252.611 541.843 248.591 540.043 246.071C538.363 243.551 535.423 242.291 531.223 242.291V238.511C535.063 238.871 538.783 239.051 542.383 239.051C552.823 239.051 561.583 238.211 568.663 236.531V326.351C571.063 326.111 573.103 325.631 574.783 324.911C576.583 324.191 578.143 323.111 579.463 321.671L593.143 308.351C597.103 304.391 599.083 300.731 599.083 297.371C599.083 294.611 597.823 292.451 595.303 290.891C592.783 289.211 589.423 288.251 585.223 288.011V284.411C591.823 284.771 598.843 284.951 606.283 284.951C616.243 284.951 623.263 284.771 627.343 284.411V288.011C620.263 289.571 612.763 294.191 604.843 301.871L593.323 313.751L623.563 364.331ZM660.816 237.971C665.856 237.971 669.816 239.231 672.696 241.751C675.696 244.151 677.196 247.511 677.196 251.831C677.196 256.151 675.696 259.571 672.696 262.091C669.816 264.491 665.856 265.691 660.816 265.691C655.776 265.691 651.756 264.491 648.756 262.091C645.876 259.571 644.436 256.151 644.436 251.831C644.436 247.511 645.876 244.151 648.756 241.751C651.756 239.231 655.776 237.971 660.816 237.971ZM674.856 360.731C674.856 365.651 675.696 369.071 677.376 370.991C679.176 372.791 682.176 373.691 686.376 373.691V377.471C674.376 376.991 666.396 376.751 662.436 376.751C658.716 376.751 650.376 376.991 637.416 377.471V373.691C641.736 373.691 644.736 372.791 646.416 370.991C648.096 369.071 648.936 365.651 648.936 360.731V304.031C648.936 298.511 648.096 294.491 646.416 291.971C644.736 289.451 641.736 288.191 637.416 288.191V284.411C641.256 284.771 644.976 284.951 648.576 284.951C659.256 284.951 668.016 284.111 674.856 282.431V360.731ZM783.005 247.691C789.245 247.691 794.225 248.291 797.945 249.491C801.665 250.691 805.445 252.431 809.285 254.711C810.605 255.431 811.745 256.031 812.705 256.511C813.785 256.991 814.685 257.231 815.405 257.231C816.485 257.231 817.325 256.631 817.925 255.431C818.525 254.111 819.005 252.071 819.365 249.311H823.505C822.905 257.351 822.605 271.031 822.605 290.351H818.465C817.985 283.871 816.485 277.691 813.965 271.811C811.565 265.931 808.085 261.191 803.525 257.591C799.085 253.871 793.865 252.011 787.865 252.011C781.985 252.011 777.185 253.691 773.465 257.051C769.865 260.291 768.065 264.731 768.065 270.371C768.065 274.571 768.965 278.231 770.765 281.351C772.565 284.471 775.085 287.351 778.325 289.991C781.565 292.511 786.545 295.991 793.265 300.431L799.025 304.391C806.105 309.071 811.685 313.151 815.765 316.631C819.845 320.111 823.145 324.191 825.665 328.871C828.305 333.431 829.625 338.771 829.625 344.891C829.625 352.571 827.645 359.051 823.685 364.331C819.725 369.491 814.325 373.391 807.485 376.031C800.765 378.671 793.265 379.991 784.985 379.991C778.265 379.991 772.685 379.391 768.245 378.191C763.805 376.991 759.725 375.371 756.005 373.331C753.365 371.651 751.325 370.811 749.885 370.811C748.805 370.811 747.965 371.471 747.365 372.791C746.765 373.991 746.285 375.971 745.925 378.731H741.785C742.265 371.171 742.505 354.971 742.505 330.131H746.645C747.485 343.571 750.485 354.491 755.645 362.891C760.805 371.171 768.725 375.311 779.405 375.311C785.885 375.311 791.225 373.571 795.425 370.091C799.625 366.611 801.725 361.631 801.725 355.151C801.725 348.431 799.565 342.671 795.245 337.871C790.925 333.071 784.085 327.671 774.725 321.671C767.525 316.991 761.765 312.911 757.445 309.431C753.125 305.951 749.585 301.871 746.825 297.191C744.065 292.391 742.685 286.871 742.685 280.631C742.685 273.431 744.485 267.371 748.085 262.451C751.805 257.411 756.725 253.691 762.845 251.291C768.965 248.891 775.685 247.691 783.005 247.691ZM871.043 374.771H880.403C888.083 374.771 894.563 372.251 899.843 367.211C905.123 362.051 908.243 353.831 909.203 342.551H912.983C912.983 359.591 913.223 371.471 913.703 378.191C903.983 377.711 892.463 377.471 879.143 377.471C867.383 377.471 854.903 377.771 841.703 378.371L886.703 287.111H876.623C859.463 287.111 850.103 297.851 848.543 319.331H844.763C844.763 302.291 844.523 290.411 844.043 283.691C853.763 284.171 865.283 284.411 878.603 284.411C890.363 284.411 902.843 284.111 916.043 283.511L871.043 374.771ZM990.317 281.891C996.557 281.891 1002.08 283.571 1006.88 286.931C1011.8 290.291 1015.64 295.331 1018.4 302.051C1021.16 308.771 1022.54 316.991 1022.54 326.711C1022.54 343.871 1018.76 357.071 1011.2 366.311C1003.76 375.431 993.617 379.991 980.777 379.991C977.177 379.991 973.757 379.511 970.517 378.551C967.397 377.591 964.697 376.151 962.417 374.231V392.231C962.417 397.511 963.737 401.171 966.377 403.211C969.017 405.251 973.097 406.271 978.617 406.271V410.051L973.757 409.871C960.437 409.511 951.977 409.331 948.377 409.331C944.777 409.331 937.217 409.571 925.697 410.051V406.271C929.657 406.271 932.417 405.371 933.977 403.571C935.657 401.891 936.497 398.711 936.497 394.031V304.031C936.497 298.511 935.597 294.491 933.797 291.971C932.117 289.451 929.177 288.191 924.977 288.191V284.411C928.817 284.771 932.537 284.951 936.137 284.951C946.577 284.951 955.337 284.111 962.417 282.431V298.991C964.937 293.471 968.597 289.271 973.397 286.391C978.197 283.391 983.837 281.891 990.317 281.891ZM973.757 375.131C981.437 375.131 986.957 371.351 990.317 363.791C993.677 356.111 995.357 344.951 995.357 330.311C995.357 315.671 993.977 305.231 991.217 298.991C988.577 292.751 984.737 289.631 979.697 289.631C975.617 289.631 971.957 291.011 968.717 293.771C965.597 296.531 963.497 300.371 962.417 305.291V370.271C965.297 373.511 969.077 375.131 973.757 375.131ZM1057.03 237.971C1062.07 237.971 1066.03 239.231 1068.91 241.751C1071.91 244.151 1073.41 247.511 1073.41 251.831C1073.41 256.151 1071.91 259.571 1068.91 262.091C1066.03 264.491 1062.07 265.691 1057.03 265.691C1051.99 265.691 1047.97 264.491 1044.97 262.091C1042.09 259.571 1040.65 256.151 1040.65 251.831C1040.65 247.511 1042.09 244.151 1044.97 241.751C1047.97 239.231 1051.99 237.971 1057.03 237.971ZM1071.07 360.731C1071.07 365.651 1071.91 369.071 1073.59 370.991C1075.39 372.791 1078.39 373.691 1082.59 373.691V377.471C1070.59 376.991 1062.61 376.751 1058.65 376.751C1054.93 376.751 1046.59 376.991 1033.63 377.471V373.691C1037.95 373.691 1040.95 372.791 1042.63 370.991C1044.31 369.071 1045.15 365.651 1045.15 360.731V304.031C1045.15 298.511 1044.31 294.491 1042.63 291.971C1040.95 289.451 1037.95 288.191 1033.63 288.191V284.411C1037.47 284.771 1041.19 284.951 1044.79 284.951C1055.47 284.951 1064.23 284.111 1071.07 282.431V360.731ZM1126.94 284.411H1148.18V288.011H1126.94V360.731C1126.94 364.331 1127.54 366.911 1128.74 368.471C1130.06 369.911 1132.1 370.631 1134.86 370.631C1140.02 370.631 1144.1 367.031 1147.1 359.831L1150.16 361.451C1145.6 373.811 1137.38 379.991 1125.5 379.991C1117.58 379.991 1111.58 377.951 1107.5 373.871C1104.98 371.351 1103.24 368.231 1102.28 364.511C1101.44 360.671 1101.02 355.451 1101.02 348.851V288.011H1085.9V284.411H1101.02V260.651C1110.98 260.651 1119.62 258.731 1126.94 254.891V284.411ZM1177.45 378.731C1169.77 378.731 1164.01 376.751 1160.17 372.791C1156.45 368.831 1154.59 363.611 1154.59 357.131C1154.59 351.731 1155.97 347.291 1158.73 343.811C1161.61 340.211 1165.03 337.451 1168.99 335.531C1173.07 333.611 1178.23 331.571 1184.47 329.411C1191.07 327.131 1195.87 325.091 1198.87 323.291C1201.99 321.371 1203.55 318.791 1203.55 315.551V301.511C1203.55 296.471 1202.35 292.571 1199.95 289.811C1197.67 286.931 1194.07 285.491 1189.15 285.491C1183.39 285.491 1179.01 286.931 1176.01 289.811C1179.37 291.011 1181.95 292.811 1183.75 295.211C1185.67 297.611 1186.63 300.431 1186.63 303.671C1186.63 307.751 1185.25 310.991 1182.49 313.391C1179.73 315.791 1176.37 316.991 1172.41 316.991C1168.21 316.991 1164.97 315.671 1162.69 313.031C1160.41 310.391 1159.27 307.091 1159.27 303.131C1159.27 299.771 1160.05 296.951 1161.61 294.671C1163.29 292.271 1165.81 290.051 1169.17 288.011C1172.41 286.091 1176.37 284.591 1181.05 283.511C1185.85 282.431 1191.07 281.891 1196.71 281.891C1202.59 281.891 1207.69 282.491 1212.01 283.691C1216.33 284.891 1219.93 286.931 1222.81 289.811C1225.45 292.451 1227.19 295.691 1228.03 299.531C1228.99 303.371 1229.47 308.591 1229.47 315.191V364.151C1229.47 367.031 1229.71 369.071 1230.19 370.271C1230.79 371.471 1231.87 372.071 1233.43 372.071C1235.23 372.071 1237.39 371.051 1239.91 369.011L1241.71 372.071C1236.31 376.511 1229.71 378.731 1221.91 378.731C1215.31 378.731 1210.69 377.411 1208.05 374.771C1205.41 372.131 1204.03 368.591 1203.91 364.151C1197.91 373.871 1189.09 378.731 1177.45 378.731ZM1191.31 367.211C1195.99 367.211 1200.07 364.751 1203.55 359.831V322.931C1202.11 325.331 1199.05 327.971 1194.37 330.851C1189.69 333.851 1186.15 336.851 1183.75 339.851C1181.35 342.851 1180.15 347.171 1180.15 352.811C1180.15 357.731 1181.17 361.391 1183.21 363.791C1185.25 366.071 1187.95 367.211 1191.31 367.211ZM1283.57 360.731C1283.57 365.651 1284.41 369.071 1286.09 370.991C1287.77 372.791 1290.77 373.691 1295.09 373.691V377.471C1282.61 376.991 1274.57 376.751 1270.97 376.751C1266.89 376.751 1258.61 376.991 1246.13 377.471V373.691C1250.33 373.691 1253.27 372.791 1254.95 370.991C1256.75 369.071 1257.65 365.651 1257.65 360.731V258.131C1257.65 252.611 1256.75 248.591 1254.95 246.071C1253.27 243.551 1250.33 242.291 1246.13 242.291V238.511C1249.97 238.871 1253.69 239.051 1257.29 239.051C1267.73 239.051 1276.49 238.211 1283.57 236.531V360.731ZM1495.22 250.571C1500.86 250.571 1505.48 250.391 1509.08 250.031V253.631C1506.08 254.831 1503.14 257.171 1500.26 260.651C1497.5 264.011 1495.16 268.811 1493.24 275.051L1461.56 377.831C1460.24 377.711 1458.14 377.651 1455.26 377.651C1452.38 377.651 1450.28 377.711 1448.96 377.831L1422.5 297.551L1395.86 377.831C1394.54 377.711 1392.44 377.651 1389.56 377.651C1386.68 377.651 1384.58 377.711 1383.26 377.831L1342.94 265.151C1341.5 261.191 1339.76 258.311 1337.72 256.511C1335.68 254.711 1333.64 253.751 1331.6 253.631V250.031C1338.8 250.391 1347.74 250.571 1358.42 250.571C1368.5 250.571 1375.88 250.391 1380.56 250.031V253.631C1376.36 254.231 1374.26 256.571 1374.26 260.651C1374.26 262.571 1374.8 265.271 1375.88 268.751L1402.16 344.891L1420.34 291.251L1411.16 263.351C1409.96 259.871 1408.52 257.471 1406.84 256.151C1405.28 254.711 1403.42 253.871 1401.26 253.631V250.031C1407.98 250.391 1416.56 250.571 1427 250.571C1438.76 250.571 1447.4 250.391 1452.92 250.031V253.631C1448.6 253.751 1445.48 254.291 1443.56 255.251C1441.64 256.091 1440.68 257.771 1440.68 260.291C1440.68 262.451 1441.28 265.271 1442.48 268.751L1467.14 343.991L1484.24 289.631C1487 280.631 1488.38 273.671 1488.38 268.751C1488.38 263.591 1487.06 259.871 1484.42 257.591C1481.9 255.191 1478.06 253.871 1472.9 253.631V250.031C1481.06 250.391 1488.5 250.571 1495.22 250.571ZM1552.54 365.231C1562.38 365.231 1570.3 360.431 1576.3 350.831L1579.54 351.911C1577.14 359.711 1572.82 366.371 1566.58 371.891C1560.46 377.291 1552.78 379.991 1543.54 379.991C1530.82 379.991 1520.68 375.971 1513.12 367.931C1505.68 359.771 1501.96 347.771 1501.96 331.931C1501.96 315.731 1505.98 303.371 1514.02 294.851C1522.06 286.211 1532.74 281.891 1546.06 281.891C1568.62 281.891 1579.9 295.211 1579.9 321.851H1529.32C1529.2 323.651 1529.14 326.471 1529.14 330.311C1529.14 338.231 1530.22 344.831 1532.38 350.111C1534.66 355.391 1537.54 359.231 1541.02 361.631C1544.62 364.031 1548.46 365.231 1552.54 365.231ZM1544.98 285.671C1540.66 285.671 1537.06 288.371 1534.18 293.771C1531.42 299.051 1529.68 307.271 1528.96 318.431H1557.22C1557.46 308.951 1556.5 301.151 1554.34 295.031C1552.3 288.791 1549.18 285.671 1544.98 285.671ZM1626.87 284.411H1648.11V288.011H1626.87V360.731C1626.87 364.331 1627.47 366.911 1628.67 368.471C1629.99 369.911 1632.03 370.631 1634.79 370.631C1639.95 370.631 1644.03 367.031 1647.03 359.831L1650.09 361.451C1645.53 373.811 1637.31 379.991 1625.43 379.991C1617.51 379.991 1611.51 377.951 1607.43 373.871C1604.91 371.351 1603.17 368.231 1602.21 364.511C1601.37 360.671 1600.95 355.451 1600.95 348.851V288.011H1585.83V284.411H1600.95V260.651C1610.91 260.651 1619.55 258.731 1626.87 254.891V284.411ZM1705.82 365.231C1715.66 365.231 1723.58 360.431 1729.58 350.831L1732.82 351.911C1730.42 359.711 1726.1 366.371 1719.86 371.891C1713.74 377.291 1706.06 379.991 1696.82 379.991C1684.1 379.991 1673.96 375.971 1666.4 367.931C1658.96 359.771 1655.24 347.771 1655.24 331.931C1655.24 315.731 1659.26 303.371 1667.3 294.851C1675.34 286.211 1686.02 281.891 1699.34 281.891C1721.9 281.891 1733.18 295.211 1733.18 321.851H1682.6C1682.48 323.651 1682.42 326.471 1682.42 330.311C1682.42 338.231 1683.5 344.831 1685.66 350.111C1687.94 355.391 1690.82 359.231 1694.3 361.631C1697.9 364.031 1701.74 365.231 1705.82 365.231ZM1698.26 285.671C1693.94 285.671 1690.34 288.371 1687.46 293.771C1684.7 299.051 1682.96 307.271 1682.24 318.431H1710.5C1710.74 308.951 1709.78 301.151 1707.62 295.031C1705.58 288.791 1702.46 285.671 1698.26 285.671ZM1804.47 281.891C1809.87 281.891 1813.95 283.511 1816.71 286.751C1819.47 289.991 1820.85 293.891 1820.85 298.451C1820.85 302.891 1819.53 306.551 1816.89 309.431C1814.37 312.191 1811.01 313.571 1806.81 313.571C1802.73 313.571 1799.49 312.551 1797.09 310.511C1794.69 308.351 1793.49 305.531 1793.49 302.051C1793.49 296.291 1796.13 291.611 1801.41 288.011C1800.93 287.891 1800.21 287.831 1799.25 287.831C1798.05 287.831 1797.09 287.951 1796.37 288.191C1791.81 288.911 1787.91 291.671 1784.67 296.471C1781.55 301.271 1779.99 306.191 1779.99 311.231V358.931C1779.99 364.451 1781.31 368.291 1783.95 370.451C1786.71 372.611 1791.03 373.691 1796.91 373.691V377.471C1795.23 377.471 1793.85 377.411 1792.77 377.291C1780.53 376.931 1772.37 376.751 1768.29 376.751C1765.05 376.751 1757.67 376.931 1746.15 377.291C1745.19 377.411 1743.99 377.471 1742.55 377.471V373.691C1746.87 373.691 1749.87 372.791 1751.55 370.991C1753.23 369.071 1754.07 365.651 1754.07 360.731V304.031C1754.07 298.511 1753.23 294.491 1751.55 291.971C1749.87 289.451 1746.87 288.191 1742.55 288.191V284.411C1746.39 284.771 1750.11 284.951 1753.71 284.951C1764.39 284.951 1773.15 284.111 1779.99 282.431V299.171C1782.27 294.011 1785.57 289.871 1789.89 286.751C1794.21 283.511 1799.07 281.891 1804.47 281.891ZM1900.74 284.951C1906.74 284.951 1911.36 284.771 1914.6 284.411V288.011C1912.08 288.731 1909.8 290.291 1907.76 292.691C1905.84 294.971 1903.98 298.571 1902.18 303.491L1869.96 394.031C1867.56 400.271 1864.92 404.531 1862.04 406.811C1858.56 409.811 1853.34 411.311 1846.38 411.311C1841.34 411.311 1836.78 410.051 1832.7 407.531C1828.74 405.131 1826.76 401.591 1826.76 396.911C1826.76 393.191 1828.08 390.191 1830.72 387.911C1833.36 385.751 1836.84 384.671 1841.16 384.671C1845.24 384.671 1848.48 385.631 1850.88 387.551C1853.4 389.591 1854.66 392.411 1854.66 396.011C1854.66 398.531 1853.88 400.811 1852.32 402.851C1850.76 405.011 1848.54 406.631 1845.66 407.711C1846.5 407.831 1847.88 407.891 1849.8 407.891C1857.24 407.891 1862.7 403.151 1866.18 393.671L1869.06 385.031L1830.9 298.271C1828.98 294.191 1827.12 291.491 1825.32 290.171C1823.52 288.851 1821.66 288.191 1819.74 288.191V284.411C1827.66 285.131 1835.88 285.491 1844.4 285.491C1851.48 285.491 1859.82 285.131 1869.42 284.411V288.191C1865.58 288.191 1862.7 288.491 1860.78 289.091C1858.98 289.571 1858.08 290.951 1858.08 293.231C1858.08 294.551 1858.5 296.231 1859.34 298.271L1881.3 351.371L1893.72 316.811C1895.64 311.171 1896.6 306.371 1896.6 302.411C1896.6 293.651 1892.16 288.851 1883.28 288.011V284.411C1888.92 284.771 1894.74 284.951 1900.74 284.951ZM1986.88 281.891C1996 281.891 2002.6 284.231 2006.68 288.911C2008.72 291.191 2010.16 294.131 2011 297.731C2011.84 301.331 2012.26 306.191 2012.26 312.311V360.731C2012.26 365.651 2013.1 369.071 2014.78 370.991C2016.58 372.791 2019.58 373.691 2023.78 373.691V377.471C2011.78 376.991 2003.86 376.751 2000.02 376.751C1996.42 376.751 1988.62 376.991 1976.62 377.471V373.691C1980.22 373.691 1982.74 372.791 1984.18 370.991C1985.62 369.071 1986.34 365.651 1986.34 360.731V304.751C1986.34 299.831 1985.5 296.111 1983.82 293.591C1982.26 291.071 1979.38 289.811 1975.18 289.811C1970.26 289.811 1966.06 291.851 1962.58 295.931C1959.1 299.891 1957.36 304.811 1957.36 310.691V360.731C1957.36 365.651 1958.08 369.071 1959.52 370.991C1960.96 372.791 1963.48 373.691 1967.08 373.691V377.471C1956.04 376.991 1948.6 376.751 1944.76 376.751C1941.16 376.751 1932.88 376.991 1919.92 377.471V373.691C1924.24 373.691 1927.24 372.791 1928.92 370.991C1930.6 369.071 1931.44 365.651 1931.44 360.731V304.031C1931.44 298.511 1930.6 294.491 1928.92 291.971C1927.24 289.451 1924.24 288.191 1919.92 288.191V284.411C1923.76 284.771 1927.48 284.951 1931.08 284.951C1941.76 284.951 1950.52 284.111 1957.36 282.431V298.631C1962.76 287.471 1972.6 281.891 1986.88 281.891ZM2054.24 378.731C2046.56 378.731 2040.8 376.751 2036.96 372.791C2033.24 368.831 2031.38 363.611 2031.38 357.131C2031.38 351.731 2032.76 347.291 2035.52 343.811C2038.4 340.211 2041.82 337.451 2045.78 335.531C2049.86 333.611 2055.02 331.571 2061.26 329.411C2067.86 327.131 2072.66 325.091 2075.66 323.291C2078.78 321.371 2080.34 318.791 2080.34 315.551V301.511C2080.34 296.471 2079.14 292.571 2076.74 289.811C2074.46 286.931 2070.86 285.491 2065.94 285.491C2060.18 285.491 2055.8 286.931 2052.8 289.811C2056.16 291.011 2058.74 292.811 2060.54 295.211C2062.46 297.611 2063.42 300.431 2063.42 303.671C2063.42 307.751 2062.04 310.991 2059.28 313.391C2056.52 315.791 2053.16 316.991 2049.2 316.991C2045 316.991 2041.76 315.671 2039.48 313.031C2037.2 310.391 2036.06 307.091 2036.06 303.131C2036.06 299.771 2036.84 296.951 2038.4 294.671C2040.08 292.271 2042.6 290.051 2045.96 288.011C2049.2 286.091 2053.16 284.591 2057.84 283.511C2062.64 282.431 2067.86 281.891 2073.5 281.891C2079.38 281.891 2084.48 282.491 2088.8 283.691C2093.12 284.891 2096.72 286.931 2099.6 289.811C2102.24 292.451 2103.98 295.691 2104.82 299.531C2105.78 303.371 2106.26 308.591 2106.26 315.191V364.151C2106.26 367.031 2106.5 369.071 2106.98 370.271C2107.58 371.471 2108.66 372.071 2110.22 372.071C2112.02 372.071 2114.18 371.051 2116.7 369.011L2118.5 372.071C2113.1 376.511 2106.5 378.731 2098.7 378.731C2092.1 378.731 2087.48 377.411 2084.84 374.771C2082.2 372.131 2080.82 368.591 2080.7 364.151C2074.7 373.871 2065.88 378.731 2054.24 378.731ZM2068.1 367.211C2072.78 367.211 2076.86 364.751 2080.34 359.831V322.931C2078.9 325.331 2075.84 327.971 2071.16 330.851C2066.48 333.851 2062.94 336.851 2060.54 339.851C2058.14 342.851 2056.94 347.171 2056.94 352.811C2056.94 357.731 2057.96 361.391 2060 363.791C2062.04 366.071 2064.74 367.211 2068.1 367.211ZM2185.57 281.891C2190.97 281.891 2195.05 283.511 2197.81 286.751C2200.57 289.991 2201.95 293.891 2201.95 298.451C2201.95 302.891 2200.63 306.551 2197.99 309.431C2195.47 312.191 2192.11 313.571 2187.91 313.571C2183.83 313.571 2180.59 312.551 2178.19 310.511C2175.79 308.351 2174.59 305.531 2174.59 302.051C2174.59 296.291 2177.23 291.611 2182.51 288.011C2182.03 287.891 2181.31 287.831 2180.35 287.831C2179.15 287.831 2178.19 287.951 2177.47 288.191C2172.91 288.911 2169.01 291.671 2165.77 296.471C2162.65 301.271 2161.09 306.191 2161.09 311.231V358.931C2161.09 364.451 2162.41 368.291 2165.05 370.451C2167.81 372.611 2172.13 373.691 2178.01 373.691V377.471C2176.33 377.471 2174.95 377.411 2173.87 377.291C2161.63 376.931 2153.47 376.751 2149.39 376.751C2146.15 376.751 2138.77 376.931 2127.25 377.291C2126.29 377.411 2125.09 377.471 2123.65 377.471V373.691C2127.97 373.691 2130.97 372.791 2132.65 370.991C2134.33 369.071 2135.17 365.651 2135.17 360.731V304.031C2135.17 298.511 2134.33 294.491 2132.65 291.971C2130.97 289.451 2127.97 288.191 2123.65 288.191V284.411C2127.49 284.771 2131.21 284.951 2134.81 284.951C2145.49 284.951 2154.25 284.111 2161.09 282.431V299.171C2163.37 294.011 2166.67 289.871 2170.99 286.751C2175.31 283.511 2180.17 281.891 2185.57 281.891ZM2281.83 284.951C2287.83 284.951 2292.45 284.771 2295.69 284.411V288.011C2293.17 288.731 2290.89 290.291 2288.85 292.691C2286.93 294.971 2285.07 298.571 2283.27 303.491L2251.05 394.031C2248.65 400.271 2246.01 404.531 2243.13 406.811C2239.65 409.811 2234.43 411.311 2227.47 411.311C2222.43 411.311 2217.87 410.051 2213.79 407.531C2209.83 405.131 2207.85 401.591 2207.85 396.911C2207.85 393.191 2209.17 390.191 2211.81 387.911C2214.45 385.751 2217.93 384.671 2222.25 384.671C2226.33 384.671 2229.57 385.631 2231.97 387.551C2234.49 389.591 2235.75 392.411 2235.75 396.011C2235.75 398.531 2234.97 400.811 2233.41 402.851C2231.85 405.011 2229.63 406.631 2226.75 407.711C2227.59 407.831 2228.97 407.891 2230.89 407.891C2238.33 407.891 2243.79 403.151 2247.27 393.671L2250.15 385.031L2211.99 298.271C2210.07 294.191 2208.21 291.491 2206.41 290.171C2204.61 288.851 2202.75 288.191 2200.83 288.191V284.411C2208.75 285.131 2216.97 285.491 2225.49 285.491C2232.57 285.491 2240.91 285.131 2250.51 284.411V288.191C2246.67 288.191 2243.79 288.491 2241.87 289.091C2240.07 289.571 2239.17 290.951 2239.17 293.231C2239.17 294.551 2239.59 296.231 2240.43 298.271L2262.39 351.371L2274.81 316.811C2276.73 311.171 2277.69 306.371 2277.69 302.411C2277.69 293.651 2273.25 288.851 2264.37 288.011V284.411C2270.01 284.771 2275.83 284.951 2281.83 284.951ZM2292.55 408.071C2298.55 407.831 2303.23 405.431 2306.59 400.871C2310.07 396.311 2311.81 389.591 2311.81 380.711V304.031C2311.81 298.511 2310.91 294.491 2309.11 291.971C2307.43 289.451 2304.49 288.191 2300.29 288.191V284.411C2304.13 284.771 2307.85 284.951 2311.45 284.951C2321.89 284.951 2330.65 284.111 2337.73 282.431V360.551C2337.73 370.631 2336.71 378.911 2334.67 385.391C2332.75 391.871 2329.45 397.271 2324.77 401.591C2317.69 408.071 2306.95 411.311 2292.55 411.311V408.071ZM2322.79 237.971C2327.83 237.971 2331.79 239.231 2334.67 241.751C2337.67 244.151 2339.17 247.511 2339.17 251.831C2339.17 256.151 2337.67 259.571 2334.67 262.091C2331.79 264.491 2327.83 265.691 2322.79 265.691C2317.75 265.691 2313.73 264.491 2310.73 262.091C2307.85 259.571 2306.41 256.151 2306.41 251.831C2306.41 247.511 2307.85 244.151 2310.73 241.751C2313.73 239.231 2317.75 237.971 2322.79 237.971ZM2421.41 281.891C2430.53 281.891 2437.13 284.231 2441.21 288.911C2443.25 291.191 2444.69 294.131 2445.53 297.731C2446.37 301.331 2446.79 306.191 2446.79 312.311V360.731C2446.79 365.651 2447.63 369.071 2449.31 370.991C2451.11 372.791 2454.11 373.691 2458.31 373.691V377.471C2446.31 376.991 2438.39 376.751 2434.55 376.751C2430.95 376.751 2423.15 376.991 2411.15 377.471V373.691C2414.75 373.691 2417.27 372.791 2418.71 370.991C2420.15 369.071 2420.87 365.651 2420.87 360.731V304.751C2420.87 299.831 2420.03 296.111 2418.35 293.591C2416.79 291.071 2413.91 289.811 2409.71 289.811C2404.79 289.811 2400.59 291.851 2397.11 295.931C2393.63 299.891 2391.89 304.811 2391.89 310.691V360.731C2391.89 365.651 2392.61 369.071 2394.05 370.991C2395.49 372.791 2398.01 373.691 2401.61 373.691V377.471C2390.57 376.991 2383.13 376.751 2379.29 376.751C2375.69 376.751 2367.41 376.991 2354.45 377.471V373.691C2358.77 373.691 2361.77 372.791 2363.45 370.991C2365.13 369.071 2365.97 365.651 2365.97 360.731V304.031C2365.97 298.511 2365.13 294.491 2363.45 291.971C2361.77 289.451 2358.77 288.191 2354.45 288.191V284.411C2358.29 284.771 2362.01 284.951 2365.61 284.951C2376.29 284.951 2385.05 284.111 2391.89 282.431V298.631C2397.29 287.471 2407.13 281.891 2421.41 281.891ZM2537.24 284.951C2543.24 284.951 2547.86 284.771 2551.1 284.411V288.011C2548.58 288.731 2546.3 290.291 2544.26 292.691C2542.34 294.971 2540.48 298.571 2538.68 303.491L2506.46 394.031C2504.06 400.271 2501.42 404.531 2498.54 406.811C2495.06 409.811 2489.84 411.311 2482.88 411.311C2477.84 411.311 2473.28 410.051 2469.2 407.531C2465.24 405.131 2463.26 401.591 2463.26 396.911C2463.26 393.191 2464.58 390.191 2467.22 387.911C2469.86 385.751 2473.34 384.671 2477.66 384.671C2481.74 384.671 2484.98 385.631 2487.38 387.551C2489.9 389.591 2491.16 392.411 2491.16 396.011C2491.16 398.531 2490.38 400.811 2488.82 402.851C2487.26 405.011 2485.04 406.631 2482.16 407.711C2483 407.831 2484.38 407.891 2486.3 407.891C2493.74 407.891 2499.2 403.151 2502.68 393.671L2505.56 385.031L2467.4 298.271C2465.48 294.191 2463.62 291.491 2461.82 290.171C2460.02 288.851 2458.16 288.191 2456.24 288.191V284.411C2464.16 285.131 2472.38 285.491 2480.9 285.491C2487.98 285.491 2496.32 285.131 2505.92 284.411V288.191C2502.08 288.191 2499.2 288.491 2497.28 289.091C2495.48 289.571 2494.58 290.951 2494.58 293.231C2494.58 294.551 2495 296.231 2495.84 298.271L2517.8 351.371L2530.22 316.811C2532.14 311.171 2533.1 306.371 2533.1 302.411C2533.1 293.651 2528.66 288.851 2519.78 288.011V284.411C2525.42 284.771 2531.24 284.951 2537.24 284.951Z" fill="black"/>
<path d="M640.252 413.621V515.471H633.532V413.621H640.252ZM712.66 473.611C712.66 469.878 712.124 466.541 711.05 463.601C710.024 460.615 708.554 458.095 706.64 456.041C704.727 453.988 702.44 452.425 699.78 451.351C697.167 450.231 694.274 449.671 691.1 449.671C687.507 449.671 684.287 450.231 681.44 451.351C678.594 452.471 676.12 454.081 674.02 456.181C671.967 458.281 670.31 460.801 669.05 463.741C667.79 466.681 666.95 469.971 666.53 473.611H712.66ZM666.18 477.881V479.211C666.18 484.438 666.787 489.035 668 493.001C669.214 496.968 670.94 500.305 673.18 503.011C675.42 505.671 678.127 507.678 681.3 509.031C684.474 510.385 688.02 511.061 691.94 511.061C695.44 511.061 698.474 510.688 701.04 509.941C703.607 509.148 705.754 508.285 707.48 507.351C709.254 506.371 710.654 505.508 711.68 504.761C712.707 503.968 713.454 503.571 713.92 503.571C714.527 503.571 714.994 503.805 715.32 504.271L717.14 506.511C716.02 507.911 714.527 509.218 712.66 510.431C710.84 511.645 708.787 512.695 706.5 513.581C704.26 514.421 701.834 515.098 699.22 515.611C696.654 516.125 694.064 516.381 691.45 516.381C686.69 516.381 682.35 515.565 678.43 513.931C674.51 512.251 671.15 509.825 668.35 506.651C665.55 503.478 663.38 499.605 661.84 495.031C660.347 490.411 659.6 485.138 659.6 479.211C659.6 474.218 660.3 469.621 661.7 465.421C663.147 461.175 665.2 457.535 667.86 454.501C670.567 451.421 673.857 449.018 677.73 447.291C681.65 445.565 686.084 444.701 691.03 444.701C694.95 444.701 698.59 445.378 701.95 446.731C705.31 448.085 708.227 450.068 710.7 452.681C713.174 455.248 715.11 458.421 716.51 462.201C717.957 465.981 718.68 470.321 718.68 475.221C718.68 476.248 718.54 476.948 718.26 477.321C717.98 477.695 717.514 477.881 716.86 477.881H666.18ZM743.528 413.621V475.711H746.748C747.401 475.711 748.008 475.618 748.568 475.431C749.175 475.245 749.828 474.801 750.528 474.101L778.458 447.571C778.925 447.011 779.438 446.591 779.998 446.311C780.558 445.985 781.258 445.821 782.098 445.821H787.978L757.248 475.011C756.408 475.991 755.498 476.761 754.518 477.321C755.265 477.695 755.895 478.138 756.408 478.651C756.968 479.118 757.505 479.678 758.018 480.331L790.288 515.471H784.478C783.825 515.471 783.218 515.378 782.658 515.191C782.145 514.958 781.655 514.515 781.188 513.861L751.928 482.501C751.555 482.081 751.181 481.731 750.808 481.451C750.481 481.171 750.131 480.961 749.758 480.821C749.385 480.635 748.941 480.518 748.428 480.471C747.961 480.378 747.378 480.331 746.678 480.331H743.528V515.471H736.808V413.621H743.528ZM801.78 510.081C801.78 509.195 801.943 508.355 802.27 507.561C802.597 506.768 803.04 506.091 803.6 505.531C804.207 504.925 804.883 504.458 805.63 504.131C806.423 503.758 807.287 503.571 808.22 503.571C809.107 503.571 809.947 503.758 810.74 504.131C811.533 504.458 812.21 504.925 812.77 505.531C813.377 506.091 813.843 506.768 814.17 507.561C814.543 508.355 814.73 509.195 814.73 510.081C814.73 511.015 814.543 511.878 814.17 512.671C813.843 513.418 813.377 514.095 812.77 514.701C812.21 515.261 811.533 515.705 810.74 516.031C809.947 516.358 809.107 516.521 808.22 516.521C806.4 516.521 804.86 515.915 803.6 514.701C802.387 513.441 801.78 511.901 801.78 510.081ZM963.116 445.821L939.876 515.471H934.906C934.113 515.471 933.576 514.981 933.296 514.001L914.256 457.441C914.023 456.741 913.813 456.041 913.626 455.341C913.439 454.641 913.276 453.941 913.136 453.241C912.903 454.641 912.553 456.041 912.086 457.441L892.766 514.001C892.486 514.981 891.926 515.471 891.086 515.471H886.326L863.086 445.821H868.126C868.779 445.821 869.316 446.008 869.736 446.381C870.156 446.708 870.436 447.081 870.576 447.501L888.146 502.451C888.426 503.525 888.683 504.575 888.916 505.601C889.149 506.581 889.336 507.561 889.476 508.541C889.756 507.561 890.036 506.581 890.316 505.601C890.596 504.575 890.923 503.525 891.296 502.451L909.916 447.011C910.243 445.985 910.896 445.471 911.876 445.471H914.606C915.633 445.471 916.309 445.985 916.636 447.011L935.116 502.451C935.443 503.525 935.746 504.551 936.026 505.531C936.306 506.511 936.563 507.491 936.796 508.471C936.983 507.491 937.169 506.511 937.356 505.531C937.589 504.551 937.869 503.525 938.196 502.451L955.906 447.501C956.093 446.988 956.396 446.591 956.816 446.311C957.236 445.985 957.726 445.821 958.286 445.821H963.116ZM1026.16 473.611C1026.16 469.878 1025.62 466.541 1024.55 463.601C1023.52 460.615 1022.05 458.095 1020.14 456.041C1018.22 453.988 1015.94 452.425 1013.28 451.351C1010.66 450.231 1007.77 449.671 1004.6 449.671C1001 449.671 997.783 450.231 994.936 451.351C992.09 452.471 989.616 454.081 987.516 456.181C985.463 458.281 983.806 460.801 982.546 463.741C981.286 466.681 980.446 469.971 980.026 473.611H1026.16ZM979.676 477.881V479.211C979.676 484.438 980.283 489.035 981.496 493.001C982.71 496.968 984.436 500.305 986.676 503.011C988.916 505.671 991.623 507.678 994.796 509.031C997.97 510.385 1001.52 511.061 1005.44 511.061C1008.94 511.061 1011.97 510.688 1014.54 509.941C1017.1 509.148 1019.25 508.285 1020.98 507.351C1022.75 506.371 1024.15 505.508 1025.18 504.761C1026.2 503.968 1026.95 503.571 1027.42 503.571C1028.02 503.571 1028.49 503.805 1028.82 504.271L1030.64 506.511C1029.52 507.911 1028.02 509.218 1026.16 510.431C1024.34 511.645 1022.28 512.695 1020 513.581C1017.76 514.421 1015.33 515.098 1012.72 515.611C1010.15 516.125 1007.56 516.381 1004.95 516.381C1000.19 516.381 995.846 515.565 991.926 513.931C988.006 512.251 984.646 509.825 981.846 506.651C979.046 503.478 976.876 499.605 975.336 495.031C973.843 490.411 973.096 485.138 973.096 479.211C973.096 474.218 973.796 469.621 975.196 465.421C976.643 461.175 978.696 457.535 981.356 454.501C984.063 451.421 987.353 449.018 991.226 447.291C995.146 445.565 999.58 444.701 1004.53 444.701C1008.45 444.701 1012.09 445.378 1015.45 446.731C1018.81 448.085 1021.72 450.068 1024.2 452.681C1026.67 455.248 1028.61 458.421 1030.01 462.201C1031.45 465.981 1032.18 470.321 1032.18 475.221C1032.18 476.248 1032.04 476.948 1031.76 477.321C1031.48 477.695 1031.01 477.881 1030.36 477.881H979.676ZM1069.07 516.591C1064.36 516.591 1060.67 515.285 1058.01 512.671C1055.4 510.058 1054.09 506.021 1054.09 500.561V452.961H1044.08C1043.57 452.961 1043.15 452.821 1042.82 452.541C1042.49 452.261 1042.33 451.865 1042.33 451.351V448.761L1054.23 447.921L1055.91 423.001C1056 422.581 1056.19 422.208 1056.47 421.881C1056.75 421.555 1057.15 421.391 1057.66 421.391H1060.81V447.991H1082.79V452.961H1060.81V500.211C1060.81 502.125 1061.04 503.781 1061.51 505.181C1062.02 506.535 1062.7 507.655 1063.54 508.541C1064.43 509.428 1065.45 510.081 1066.62 510.501C1067.79 510.921 1069.05 511.131 1070.4 511.131C1072.08 511.131 1073.53 510.898 1074.74 510.431C1075.95 509.918 1077 509.381 1077.89 508.821C1078.78 508.215 1079.5 507.678 1080.06 507.211C1080.62 506.698 1081.06 506.441 1081.39 506.441C1081.76 506.441 1082.14 506.675 1082.51 507.141L1084.33 510.081C1082.56 512.041 1080.29 513.628 1077.54 514.841C1074.83 516.008 1072.01 516.591 1069.07 516.591ZM1096.41 510.081C1096.41 509.195 1096.57 508.355 1096.9 507.561C1097.23 506.768 1097.67 506.091 1098.23 505.531C1098.84 504.925 1099.51 504.458 1100.26 504.131C1101.05 503.758 1101.92 503.571 1102.85 503.571C1103.74 503.571 1104.58 503.758 1105.37 504.131C1106.16 504.458 1106.84 504.925 1107.4 505.531C1108.01 506.091 1108.47 506.768 1108.8 507.561C1109.17 508.355 1109.36 509.195 1109.36 510.081C1109.36 511.015 1109.17 511.878 1108.8 512.671C1108.47 513.418 1108.01 514.095 1107.4 514.701C1106.84 515.261 1106.16 515.705 1105.37 516.031C1104.58 516.358 1103.74 516.521 1102.85 516.521C1101.03 516.521 1099.49 515.915 1098.23 514.701C1097.02 513.441 1096.41 511.901 1096.41 510.081ZM1232.01 422.511H1197.22V515.471H1190.01V422.511H1155.01V416.421H1232.01V422.511ZM1255.76 444.701C1260.75 444.701 1265.21 445.565 1269.13 447.291C1273.09 448.971 1276.43 451.375 1279.14 454.501C1281.84 457.628 1283.9 461.408 1285.3 465.841C1286.74 470.228 1287.47 475.151 1287.47 480.611C1287.47 486.071 1286.74 490.995 1285.3 495.381C1283.9 499.768 1281.84 503.525 1279.14 506.651C1276.43 509.778 1273.09 512.181 1269.13 513.861C1265.21 515.541 1260.75 516.381 1255.76 516.381C1250.76 516.381 1246.28 515.541 1242.32 513.861C1238.4 512.181 1235.06 509.778 1232.31 506.651C1229.6 503.525 1227.52 499.768 1226.08 495.381C1224.68 490.995 1223.98 486.071 1223.98 480.611C1223.98 475.151 1224.68 470.228 1226.08 465.841C1227.52 461.408 1229.6 457.628 1232.31 454.501C1235.06 451.375 1238.4 448.971 1242.32 447.291C1246.28 445.565 1250.76 444.701 1255.76 444.701ZM1255.76 511.131C1259.91 511.131 1263.53 510.431 1266.61 509.031C1269.73 507.585 1272.32 505.531 1274.38 502.871C1276.48 500.211 1278.04 497.015 1279.07 493.281C1280.09 489.501 1280.61 485.278 1280.61 480.611C1280.61 475.991 1280.09 471.791 1279.07 468.011C1278.04 464.231 1276.48 461.011 1274.38 458.351C1272.32 455.645 1269.73 453.568 1266.61 452.121C1263.53 450.675 1259.91 449.951 1255.76 449.951C1251.6 449.951 1247.96 450.675 1244.84 452.121C1241.76 453.568 1239.17 455.645 1237.07 458.351C1235.01 461.011 1233.45 464.231 1232.38 468.011C1231.35 471.791 1230.84 475.991 1230.84 480.611C1230.84 485.278 1231.35 489.501 1232.38 493.281C1233.45 497.015 1235.01 500.211 1237.07 502.871C1239.17 505.531 1241.76 507.585 1244.84 509.031C1247.96 510.431 1251.6 511.131 1255.76 511.131ZM1306.24 515.471V445.821H1309.95C1311.12 445.821 1311.8 446.405 1311.98 447.571L1312.61 457.651C1315.32 453.778 1318.42 450.651 1321.92 448.271C1325.42 445.891 1329.37 444.701 1333.75 444.701C1338.84 444.701 1342.9 446.171 1345.93 449.111C1349.01 452.051 1351.09 456.135 1352.16 461.361C1353 458.515 1354.17 456.041 1355.66 453.941C1357.2 451.841 1358.95 450.115 1360.91 448.761C1362.87 447.361 1365 446.335 1367.28 445.681C1369.62 445.028 1372 444.701 1374.42 444.701C1377.88 444.701 1380.98 445.285 1383.73 446.451C1386.49 447.571 1388.82 449.251 1390.73 451.491C1392.65 453.731 1394.12 456.485 1395.14 459.751C1396.17 463.018 1396.68 466.751 1396.68 470.951V515.471H1390.03V470.951C1390.03 464.138 1388.56 458.958 1385.62 455.411C1382.68 451.818 1378.48 450.021 1373.02 450.021C1370.6 450.021 1368.26 450.465 1366.02 451.351C1363.83 452.238 1361.87 453.568 1360.14 455.341C1358.46 457.068 1357.11 459.238 1356.08 461.851C1355.1 464.465 1354.61 467.498 1354.61 470.951V515.471H1347.89V470.951C1347.89 464.185 1346.54 459.005 1343.83 455.411C1341.17 451.818 1337.25 450.021 1332.07 450.021C1328.29 450.021 1324.79 451.141 1321.57 453.381C1318.35 455.621 1315.48 458.725 1312.96 462.691V515.471H1306.24ZM1457.89 481.801C1451.26 482.035 1445.54 482.571 1440.74 483.411C1435.98 484.205 1432.03 485.301 1428.91 486.701C1425.83 488.101 1423.54 489.781 1422.05 491.741C1420.55 493.655 1419.81 495.848 1419.81 498.321C1419.81 500.655 1420.18 502.685 1420.93 504.411C1421.72 506.091 1422.75 507.491 1424.01 508.611C1425.31 509.685 1426.81 510.478 1428.49 510.991C1430.17 511.505 1431.92 511.761 1433.74 511.761C1436.44 511.761 1438.92 511.481 1441.16 510.921C1443.44 510.315 1445.54 509.498 1447.46 508.471C1449.42 507.398 1451.24 506.138 1452.92 504.691C1454.6 503.245 1456.25 501.681 1457.89 500.001V481.801ZM1416.94 455.691C1420.58 452.051 1424.4 449.298 1428.42 447.431C1432.43 445.565 1436.98 444.631 1442.07 444.631C1445.8 444.631 1449.07 445.238 1451.87 446.451C1454.67 447.618 1456.98 449.321 1458.8 451.561C1460.66 453.755 1462.06 456.438 1463 459.611C1463.93 462.738 1464.4 466.238 1464.4 470.111V515.471H1461.74C1460.34 515.471 1459.47 514.818 1459.15 513.511L1458.17 504.551C1456.25 506.418 1454.34 508.098 1452.43 509.591C1450.56 511.085 1448.6 512.345 1446.55 513.371C1444.49 514.398 1442.28 515.191 1439.9 515.751C1437.52 516.311 1434.9 516.591 1432.06 516.591C1429.68 516.591 1427.37 516.241 1425.13 515.541C1422.89 514.841 1420.88 513.768 1419.11 512.321C1417.38 510.875 1415.98 509.031 1414.91 506.791C1413.88 504.505 1413.37 501.775 1413.37 498.601C1413.37 495.661 1414.21 492.931 1415.89 490.411C1417.57 487.891 1420.2 485.698 1423.8 483.831C1427.39 481.965 1431.99 480.471 1437.59 479.351C1443.23 478.231 1450 477.578 1457.89 477.391V470.111C1457.89 463.671 1456.49 458.725 1453.69 455.271C1450.93 451.771 1446.83 450.021 1441.37 450.021C1438.01 450.021 1435.14 450.488 1432.76 451.421C1430.42 452.355 1428.44 453.381 1426.81 454.501C1425.17 455.621 1423.84 456.648 1422.82 457.581C1421.79 458.515 1420.93 458.981 1420.23 458.981C1419.71 458.981 1419.29 458.865 1418.97 458.631C1418.64 458.398 1418.36 458.095 1418.13 457.721L1416.94 455.691ZM1525 454.431C1524.63 455.085 1524.09 455.411 1523.39 455.411C1522.88 455.411 1522.22 455.131 1521.43 454.571C1520.64 453.965 1519.56 453.311 1518.21 452.611C1516.9 451.865 1515.27 451.211 1513.31 450.651C1511.35 450.045 1508.97 449.741 1506.17 449.741C1503.65 449.741 1501.34 450.115 1499.24 450.861C1497.19 451.561 1495.41 452.518 1493.92 453.731C1492.47 454.945 1491.35 456.368 1490.56 458.001C1489.77 459.588 1489.37 461.268 1489.37 463.041C1489.37 465.235 1489.93 467.055 1491.05 468.501C1492.17 469.948 1493.62 471.185 1495.39 472.211C1497.21 473.238 1499.29 474.125 1501.62 474.871C1503.95 475.618 1506.31 476.365 1508.69 477.111C1511.12 477.858 1513.5 478.698 1515.83 479.631C1518.16 480.518 1520.22 481.638 1521.99 482.991C1523.81 484.345 1525.28 486.001 1526.4 487.961C1527.52 489.921 1528.08 492.301 1528.08 495.101C1528.08 498.135 1527.54 500.958 1526.47 503.571C1525.4 506.185 1523.81 508.448 1521.71 510.361C1519.66 512.275 1517.11 513.791 1514.08 514.911C1511.05 516.031 1507.57 516.591 1503.65 516.591C1498.75 516.591 1494.53 515.821 1490.98 514.281C1487.43 512.695 1484.26 510.641 1481.46 508.121L1483 505.741C1483.23 505.368 1483.49 505.088 1483.77 504.901C1484.1 504.715 1484.52 504.621 1485.03 504.621C1485.64 504.621 1486.36 504.995 1487.2 505.741C1488.09 506.488 1489.25 507.305 1490.7 508.191C1492.15 509.031 1493.92 509.825 1496.02 510.571C1498.17 511.318 1500.8 511.691 1503.93 511.691C1506.87 511.691 1509.46 511.295 1511.7 510.501C1513.94 509.661 1515.81 508.541 1517.3 507.141C1518.79 505.741 1519.91 504.108 1520.66 502.241C1521.45 500.328 1521.85 498.321 1521.85 496.221C1521.85 493.888 1521.29 491.951 1520.17 490.411C1519.05 488.871 1517.58 487.565 1515.76 486.491C1513.94 485.418 1511.86 484.508 1509.53 483.761C1507.24 483.015 1504.89 482.268 1502.46 481.521C1500.03 480.775 1497.65 479.958 1495.32 479.071C1493.03 478.185 1490.98 477.065 1489.16 475.711C1487.34 474.358 1485.87 472.725 1484.75 470.811C1483.63 468.851 1483.07 466.425 1483.07 463.531C1483.07 461.058 1483.61 458.678 1484.68 456.391C1485.75 454.105 1487.27 452.098 1489.23 450.371C1491.24 448.645 1493.66 447.268 1496.51 446.241C1499.36 445.215 1502.55 444.701 1506.1 444.701C1510.35 444.701 1514.1 445.308 1517.37 446.521C1520.68 447.735 1523.69 449.601 1526.4 452.121L1525 454.431ZM1591.89 445.821V448.621C1591.89 449.601 1591.57 450.488 1590.91 451.281L1547.3 510.221H1590.14V515.471H1539.25V512.811C1539.25 512.018 1539.6 511.155 1540.3 510.221L1584.05 451.071H1541.56V445.821H1591.89ZM1647.24 481.801C1640.62 482.035 1634.9 482.571 1630.09 483.411C1625.33 484.205 1621.39 485.301 1618.26 486.701C1615.18 488.101 1612.9 489.781 1611.4 491.741C1609.91 493.655 1609.16 495.848 1609.16 498.321C1609.16 500.655 1609.54 502.685 1610.28 504.411C1611.08 506.091 1612.1 507.491 1613.36 508.611C1614.67 509.685 1616.16 510.478 1617.84 510.991C1619.52 511.505 1621.27 511.761 1623.09 511.761C1625.8 511.761 1628.27 511.481 1630.51 510.921C1632.8 510.315 1634.9 509.498 1636.81 508.471C1638.77 507.398 1640.59 506.138 1642.27 504.691C1643.95 503.245 1645.61 501.681 1647.24 500.001V481.801ZM1606.29 455.691C1609.93 452.051 1613.76 449.298 1617.77 447.431C1621.79 445.565 1626.34 444.631 1631.42 444.631C1635.16 444.631 1638.42 445.238 1641.22 446.451C1644.02 447.618 1646.33 449.321 1648.15 451.561C1650.02 453.755 1651.42 456.438 1652.35 459.611C1653.29 462.738 1653.75 466.238 1653.75 470.111V515.471H1651.09C1649.69 515.471 1648.83 514.818 1648.5 513.511L1647.52 504.551C1645.61 506.418 1643.7 508.098 1641.78 509.591C1639.92 511.085 1637.96 512.345 1635.9 513.371C1633.85 514.398 1631.63 515.191 1629.25 515.751C1626.87 516.311 1624.26 516.591 1621.41 516.591C1619.03 516.591 1616.72 516.241 1614.48 515.541C1612.24 514.841 1610.24 513.768 1608.46 512.321C1606.74 510.875 1605.34 509.031 1604.26 506.791C1603.24 504.505 1602.72 501.775 1602.72 498.601C1602.72 495.661 1603.56 492.931 1605.24 490.411C1606.92 487.891 1609.56 485.698 1613.15 483.831C1616.75 481.965 1621.34 480.471 1626.94 479.351C1632.59 478.231 1639.36 477.578 1647.24 477.391V470.111C1647.24 463.671 1645.84 458.725 1643.04 455.271C1640.29 451.771 1636.18 450.021 1630.72 450.021C1627.36 450.021 1624.49 450.488 1622.11 451.421C1619.78 452.355 1617.8 453.381 1616.16 454.501C1614.53 455.621 1613.2 456.648 1612.17 457.581C1611.15 458.515 1610.28 458.981 1609.58 458.981C1609.07 458.981 1608.65 458.865 1608.32 458.631C1608 458.398 1607.72 458.095 1607.48 457.721L1606.29 455.691ZM1749.28 509.731C1757.96 509.731 1764.52 507.865 1768.95 504.131C1773.43 500.351 1775.67 495.055 1775.67 488.241C1775.67 485.115 1775.07 482.315 1773.85 479.841C1772.69 477.321 1770.98 475.198 1768.74 473.471C1766.5 471.698 1763.75 470.345 1760.48 469.411C1757.22 468.478 1753.51 468.011 1749.35 468.011H1724.43V509.731H1749.28ZM1724.43 422.091V462.761H1745.85C1750.43 462.761 1754.32 462.178 1757.54 461.011C1760.81 459.845 1763.47 458.305 1765.52 456.391C1767.62 454.478 1769.16 452.308 1770.14 449.881C1771.12 447.455 1771.61 444.958 1771.61 442.391C1771.61 435.718 1769.49 430.678 1765.24 427.271C1761.04 423.818 1754.53 422.091 1745.71 422.091H1724.43ZM1745.71 416.421C1751.36 416.421 1756.26 416.981 1760.41 418.101C1764.57 419.221 1768 420.878 1770.7 423.071C1773.41 425.218 1775.42 427.855 1776.72 430.981C1778.03 434.108 1778.68 437.655 1778.68 441.621C1778.68 444.235 1778.22 446.755 1777.28 449.181C1776.4 451.608 1775.09 453.848 1773.36 455.901C1771.68 457.955 1769.58 459.751 1767.06 461.291C1764.59 462.785 1761.74 463.928 1758.52 464.721C1766.32 465.841 1772.29 468.431 1776.44 472.491C1780.64 476.505 1782.74 481.801 1782.74 488.381C1782.74 492.581 1782 496.361 1780.5 499.721C1779.01 503.081 1776.84 505.928 1773.99 508.261C1771.15 510.595 1767.65 512.391 1763.49 513.651C1759.34 514.865 1754.63 515.471 1749.35 515.471H1717.22V416.421H1745.71ZM1807.12 462.621C1808.2 459.775 1809.41 457.255 1810.76 455.061C1812.16 452.821 1813.75 450.931 1815.52 449.391C1817.34 447.851 1819.35 446.685 1821.54 445.891C1823.78 445.051 1826.26 444.631 1828.96 444.631C1830.41 444.631 1831.83 444.771 1833.23 445.051C1834.63 445.285 1835.87 445.728 1836.94 446.381L1836.38 451.001C1836.15 451.748 1835.71 452.121 1835.05 452.121C1834.49 452.121 1833.63 451.958 1832.46 451.631C1831.34 451.305 1829.85 451.141 1827.98 451.141C1825.28 451.141 1822.87 451.561 1820.77 452.401C1818.72 453.195 1816.85 454.408 1815.17 456.041C1813.54 457.675 1812.09 459.705 1810.83 462.131C1809.62 464.511 1808.5 467.265 1807.47 470.391V515.471H1800.75V445.821H1804.32C1805.12 445.821 1805.68 445.985 1806 446.311C1806.33 446.638 1806.54 447.198 1806.63 447.991L1807.12 462.621ZM1895.96 445.821V448.621C1895.96 449.601 1895.63 450.488 1894.98 451.281L1851.37 510.221H1894.21V515.471H1843.32V512.811C1843.32 512.018 1843.67 511.155 1844.37 510.221L1888.12 451.071H1845.63V445.821H1895.96ZM1959.81 473.611C1959.81 469.878 1959.27 466.541 1958.2 463.601C1957.17 460.615 1955.7 458.095 1953.79 456.041C1951.88 453.988 1949.59 452.425 1946.93 451.351C1944.32 450.231 1941.42 449.671 1938.25 449.671C1934.66 449.671 1931.44 450.231 1928.59 451.351C1925.74 452.471 1923.27 454.081 1921.17 456.181C1919.12 458.281 1917.46 460.801 1916.2 463.741C1914.94 466.681 1914.1 469.971 1913.68 473.611H1959.81ZM1913.33 477.881V479.211C1913.33 484.438 1913.94 489.035 1915.15 493.001C1916.36 496.968 1918.09 500.305 1920.33 503.011C1922.57 505.671 1925.28 507.678 1928.45 509.031C1931.62 510.385 1935.17 511.061 1939.09 511.061C1942.59 511.061 1945.62 510.688 1948.19 509.941C1950.76 509.148 1952.9 508.285 1954.63 507.351C1956.4 506.371 1957.8 505.508 1958.83 504.761C1959.86 503.968 1960.6 503.571 1961.07 503.571C1961.68 503.571 1962.14 503.805 1962.47 504.271L1964.29 506.511C1963.17 507.911 1961.68 509.218 1959.81 510.431C1957.99 511.645 1955.94 512.695 1953.65 513.581C1951.41 514.421 1948.98 515.098 1946.37 515.611C1943.8 516.125 1941.21 516.381 1938.6 516.381C1933.84 516.381 1929.5 515.565 1925.58 513.931C1921.66 512.251 1918.3 509.825 1915.5 506.651C1912.7 503.478 1910.53 499.605 1908.99 495.031C1907.5 490.411 1906.75 485.138 1906.75 479.211C1906.75 474.218 1907.45 469.621 1908.85 465.421C1910.3 461.175 1912.35 457.535 1915.01 454.501C1917.72 451.421 1921.01 449.018 1924.88 447.291C1928.8 445.565 1933.23 444.701 1938.18 444.701C1942.1 444.701 1945.74 445.378 1949.1 446.731C1952.46 448.085 1955.38 450.068 1957.85 452.681C1960.32 455.248 1962.26 458.421 1963.66 462.201C1965.11 465.981 1965.83 470.321 1965.83 475.221C1965.83 476.248 1965.69 476.948 1965.41 477.321C1965.13 477.695 1964.66 477.881 1964.01 477.881H1913.33ZM2022.25 454.431C2021.87 455.085 2021.34 455.411 2020.64 455.411C2020.12 455.411 2019.47 455.131 2018.68 454.571C2017.88 453.965 2016.81 453.311 2015.46 452.611C2014.15 451.865 2012.52 451.211 2010.56 450.651C2008.6 450.045 2006.22 449.741 2003.42 449.741C2000.9 449.741 1998.59 450.115 1996.49 450.861C1994.43 451.561 1992.66 452.518 1991.17 453.731C1989.72 454.945 1988.6 456.368 1987.81 458.001C1987.01 459.588 1986.62 461.268 1986.62 463.041C1986.62 465.235 1987.18 467.055 1988.3 468.501C1989.42 469.948 1990.86 471.185 1992.64 472.211C1994.46 473.238 1996.53 474.125 1998.87 474.871C2001.2 475.618 2003.56 476.365 2005.94 477.111C2008.36 477.858 2010.74 478.698 2013.08 479.631C2015.41 480.518 2017.46 481.638 2019.24 482.991C2021.06 484.345 2022.53 486.001 2023.65 487.961C2024.77 489.921 2025.33 492.301 2025.33 495.101C2025.33 498.135 2024.79 500.958 2023.72 503.571C2022.64 506.185 2021.06 508.448 2018.96 510.361C2016.9 512.275 2014.36 513.791 2011.33 514.911C2008.29 516.031 2004.82 516.591 2000.9 516.591C1996 516.591 1991.77 515.821 1988.23 514.281C1984.68 512.695 1981.51 510.641 1978.71 508.121L1980.25 505.741C1980.48 505.368 1980.74 505.088 1981.02 504.901C1981.34 504.715 1981.76 504.621 1982.28 504.621C1982.88 504.621 1983.61 504.995 1984.45 505.741C1985.33 506.488 1986.5 507.305 1987.95 508.191C1989.39 509.031 1991.17 509.825 1993.27 510.571C1995.41 511.318 1998.05 511.691 2001.18 511.691C2004.12 511.691 2006.71 511.295 2008.95 510.501C2011.19 509.661 2013.05 508.541 2014.55 507.141C2016.04 505.741 2017.16 504.108 2017.91 502.241C2018.7 500.328 2019.1 498.321 2019.1 496.221C2019.1 493.888 2018.54 491.951 2017.42 490.411C2016.3 488.871 2014.83 487.565 2013.01 486.491C2011.19 485.418 2009.11 484.508 2006.78 483.761C2004.49 483.015 2002.13 482.268 1999.71 481.521C1997.28 480.775 1994.9 479.958 1992.57 479.071C1990.28 478.185 1988.23 477.065 1986.41 475.711C1984.59 474.358 1983.12 472.725 1982 470.811C1980.88 468.851 1980.32 466.425 1980.32 463.531C1980.32 461.058 1980.85 458.678 1981.93 456.391C1983 454.105 1984.52 452.098 1986.48 450.371C1988.48 448.645 1990.91 447.268 1993.76 446.241C1996.6 445.215 1999.8 444.701 2003.35 444.701C2007.59 444.701 2011.35 445.308 2014.62 446.521C2017.93 447.735 2020.94 449.601 2023.65 452.121L2022.25 454.431ZM2050.15 413.621V475.711H2053.37C2054.02 475.711 2054.63 475.618 2055.19 475.431C2055.8 475.245 2056.45 474.801 2057.15 474.101L2085.08 447.571C2085.55 447.011 2086.06 446.591 2086.62 446.311C2087.18 445.985 2087.88 445.821 2088.72 445.821H2094.6L2063.87 475.011C2063.03 475.991 2062.12 476.761 2061.14 477.321C2061.89 477.695 2062.52 478.138 2063.03 478.651C2063.59 479.118 2064.13 479.678 2064.64 480.331L2096.91 515.471H2091.1C2090.45 515.471 2089.84 515.378 2089.28 515.191C2088.77 514.958 2088.28 514.515 2087.81 513.861L2058.55 482.501C2058.18 482.081 2057.8 481.731 2057.43 481.451C2057.1 481.171 2056.75 480.961 2056.38 480.821C2056.01 480.635 2055.56 480.518 2055.05 480.471C2054.58 480.378 2054 480.331 2053.3 480.331H2050.15V515.471H2043.43V413.621H2050.15ZM2117.43 445.821V515.471H2110.78V445.821H2117.43ZM2120.3 421.811C2120.3 422.651 2120.11 423.445 2119.74 424.191C2119.41 424.891 2118.97 425.521 2118.41 426.081C2117.85 426.641 2117.2 427.085 2116.45 427.411C2115.7 427.738 2114.91 427.901 2114.07 427.901C2113.23 427.901 2112.44 427.738 2111.69 427.411C2110.94 427.085 2110.29 426.641 2109.73 426.081C2109.17 425.521 2108.73 424.891 2108.4 424.191C2108.07 423.445 2107.91 422.651 2107.91 421.811C2107.91 420.971 2108.07 420.178 2108.4 419.431C2108.73 418.638 2109.17 417.961 2109.73 417.401C2110.29 416.841 2110.94 416.398 2111.69 416.071C2112.44 415.745 2113.23 415.581 2114.07 415.581C2114.91 415.581 2115.7 415.745 2116.45 416.071C2117.2 416.398 2117.85 416.841 2118.41 417.401C2118.97 417.961 2119.41 418.638 2119.74 419.431C2120.11 420.178 2120.3 420.971 2120.3 421.811ZM2190.04 473.611C2190.04 469.878 2189.51 466.541 2188.43 463.601C2187.41 460.615 2185.94 458.095 2184.02 456.041C2182.11 453.988 2179.82 452.425 2177.16 451.351C2174.55 450.231 2171.66 449.671 2168.48 449.671C2164.89 449.671 2161.67 450.231 2158.82 451.351C2155.98 452.471 2153.5 454.081 2151.4 456.181C2149.35 458.281 2147.69 460.801 2146.43 463.741C2145.17 466.681 2144.33 469.971 2143.91 473.611H2190.04ZM2143.56 477.881V479.211C2143.56 484.438 2144.17 489.035 2145.38 493.001C2146.6 496.968 2148.32 500.305 2150.56 503.011C2152.8 505.671 2155.51 507.678 2158.68 509.031C2161.86 510.385 2165.4 511.061 2169.32 511.061C2172.82 511.061 2175.86 510.688 2178.42 509.941C2180.99 509.148 2183.14 508.285 2184.86 507.351C2186.64 506.371 2188.04 505.508 2189.06 504.761C2190.09 503.968 2190.84 503.571 2191.3 503.571C2191.91 503.571 2192.38 503.805 2192.7 504.271L2194.52 506.511C2193.4 507.911 2191.91 509.218 2190.04 510.431C2188.22 511.645 2186.17 512.695 2183.88 513.581C2181.64 514.421 2179.22 515.098 2176.6 515.611C2174.04 516.125 2171.45 516.381 2168.83 516.381C2164.07 516.381 2159.73 515.565 2155.81 513.931C2151.89 512.251 2148.53 509.825 2145.73 506.651C2142.93 503.478 2140.76 499.605 2139.22 495.031C2137.73 490.411 2136.98 485.138 2136.98 479.211C2136.98 474.218 2137.68 469.621 2139.08 465.421C2140.53 461.175 2142.58 457.535 2145.24 454.501C2147.95 451.421 2151.24 449.018 2155.11 447.291C2159.03 445.565 2163.47 444.701 2168.41 444.701C2172.33 444.701 2175.97 445.378 2179.33 446.731C2182.69 448.085 2185.61 450.068 2188.08 452.681C2190.56 455.248 2192.49 458.421 2193.89 462.201C2195.34 465.981 2196.06 470.321 2196.06 475.221C2196.06 476.248 2195.92 476.948 2195.64 477.321C2195.36 477.695 2194.9 477.881 2194.24 477.881H2143.56ZM2236.94 484.671C2239.93 484.671 2242.59 484.251 2244.92 483.411C2247.25 482.525 2249.21 481.311 2250.8 479.771C2252.39 478.231 2253.6 476.388 2254.44 474.241C2255.28 472.095 2255.7 469.715 2255.7 467.101C2255.7 464.488 2255.26 462.108 2254.37 459.961C2253.53 457.768 2252.29 455.901 2250.66 454.361C2249.07 452.821 2247.11 451.631 2244.78 450.791C2242.49 449.951 2239.88 449.531 2236.94 449.531C2234 449.531 2231.36 449.951 2229.03 450.791C2226.74 451.631 2224.78 452.821 2223.15 454.361C2221.56 455.901 2220.35 457.768 2219.51 459.961C2218.67 462.108 2218.25 464.488 2218.25 467.101C2218.25 469.715 2218.67 472.095 2219.51 474.241C2220.35 476.388 2221.56 478.231 2223.15 479.771C2224.78 481.311 2226.74 482.525 2229.03 483.411C2231.36 484.251 2234 484.671 2236.94 484.671ZM2262.98 520.161C2262.98 517.968 2262.4 516.218 2261.23 514.911C2260.11 513.558 2258.59 512.508 2256.68 511.761C2254.77 511.015 2252.55 510.501 2250.03 510.221C2247.56 509.895 2244.94 509.661 2242.19 509.521C2239.48 509.381 2236.75 509.241 2234 509.101C2231.25 508.961 2228.66 508.681 2226.23 508.261C2224.46 508.961 2222.82 509.778 2221.33 510.711C2219.84 511.598 2218.55 512.625 2217.48 513.791C2216.41 514.958 2215.57 516.218 2214.96 517.571C2214.35 518.971 2214.05 520.465 2214.05 522.051C2214.05 524.105 2214.56 525.995 2215.59 527.721C2216.66 529.495 2218.2 531.011 2220.21 532.271C2222.26 533.578 2224.76 534.605 2227.7 535.351C2230.64 536.098 2234.02 536.471 2237.85 536.471C2241.4 536.471 2244.69 536.075 2247.72 535.281C2250.8 534.488 2253.46 533.368 2255.7 531.921C2257.99 530.475 2259.76 528.748 2261.02 526.741C2262.33 524.735 2262.98 522.541 2262.98 520.161ZM2270.26 448.901V451.211C2270.26 452.238 2269.61 452.868 2268.3 453.101L2257.66 453.871C2258.97 455.645 2259.97 457.628 2260.67 459.821C2261.37 462.015 2261.72 464.395 2261.72 466.961C2261.72 470.321 2261.11 473.378 2259.9 476.131C2258.73 478.838 2257.05 481.171 2254.86 483.131C2252.71 485.045 2250.1 486.538 2247.02 487.611C2243.99 488.685 2240.63 489.221 2236.94 489.221C2232.97 489.221 2229.36 488.615 2226.09 487.401C2224.13 488.521 2222.57 489.851 2221.4 491.391C2220.28 492.885 2219.72 494.378 2219.72 495.871C2219.72 497.878 2220.42 499.418 2221.82 500.491C2223.27 501.565 2225.13 502.358 2227.42 502.871C2229.75 503.338 2232.39 503.641 2235.33 503.781C2238.32 503.921 2241.35 504.085 2244.43 504.271C2247.51 504.411 2250.52 504.691 2253.46 505.111C2256.45 505.531 2259.08 506.278 2261.37 507.351C2263.7 508.378 2265.57 509.848 2266.97 511.761C2268.42 513.628 2269.14 516.125 2269.14 519.251C2269.14 522.145 2268.42 524.921 2266.97 527.581C2265.52 530.241 2263.42 532.598 2260.67 534.651C2257.96 536.705 2254.67 538.338 2250.8 539.551C2246.93 540.811 2242.59 541.441 2237.78 541.441C2232.88 541.441 2228.59 540.928 2224.9 539.901C2221.21 538.921 2218.11 537.568 2215.59 535.841C2213.12 534.161 2211.25 532.201 2209.99 529.961C2208.73 527.721 2208.1 525.341 2208.1 522.821C2208.1 519.135 2209.31 515.985 2211.74 513.371C2214.17 510.711 2217.48 508.635 2221.68 507.141C2219.35 506.348 2217.46 505.205 2216.01 503.711C2214.61 502.171 2213.91 500.095 2213.91 497.481C2213.91 496.501 2214.1 495.475 2214.47 494.401C2214.84 493.328 2215.4 492.278 2216.15 491.251C2216.9 490.178 2217.81 489.175 2218.88 488.241C2219.95 487.308 2221.17 486.468 2222.52 485.721C2219.21 483.808 2216.62 481.265 2214.75 478.091C2212.93 474.918 2212.02 471.208 2212.02 466.961C2212.02 463.601 2212.6 460.568 2213.77 457.861C2214.98 455.108 2216.69 452.751 2218.88 450.791C2221.07 448.831 2223.69 447.315 2226.72 446.241C2229.8 445.168 2233.21 444.631 2236.94 444.631C2240.02 444.631 2242.84 445.005 2245.41 445.751C2248.02 446.498 2250.36 447.548 2252.41 448.901H2270.26ZM2312.32 444.701C2317.31 444.701 2321.77 445.565 2325.69 447.291C2329.65 448.971 2332.99 451.375 2335.7 454.501C2338.4 457.628 2340.46 461.408 2341.86 465.841C2343.3 470.228 2344.03 475.151 2344.03 480.611C2344.03 486.071 2343.3 490.995 2341.86 495.381C2340.46 499.768 2338.4 503.525 2335.7 506.651C2332.99 509.778 2329.65 512.181 2325.69 513.861C2321.77 515.541 2317.31 516.381 2312.32 516.381C2307.32 516.381 2302.84 515.541 2298.88 513.861C2294.96 512.181 2291.62 509.778 2288.87 506.651C2286.16 503.525 2284.08 499.768 2282.64 495.381C2281.24 490.995 2280.54 486.071 2280.54 480.611C2280.54 475.151 2281.24 470.228 2282.64 465.841C2284.08 461.408 2286.16 457.628 2288.87 454.501C2291.62 451.375 2294.96 448.971 2298.88 447.291C2302.84 445.565 2307.32 444.701 2312.32 444.701ZM2312.32 511.131C2316.47 511.131 2320.09 510.431 2323.17 509.031C2326.29 507.585 2328.88 505.531 2330.94 502.871C2333.04 500.211 2334.6 497.015 2335.63 493.281C2336.65 489.501 2337.17 485.278 2337.17 480.611C2337.17 475.991 2336.65 471.791 2335.63 468.011C2334.6 464.231 2333.04 461.011 2330.94 458.351C2328.88 455.645 2326.29 453.568 2323.17 452.121C2320.09 450.675 2316.47 449.951 2312.32 449.951C2308.16 449.951 2304.52 450.675 2301.4 452.121C2298.32 453.568 2295.73 455.645 2293.63 458.351C2291.57 461.011 2290.01 464.231 2288.94 468.011C2287.91 471.791 2287.4 475.991 2287.4 480.611C2287.4 485.278 2287.91 489.501 2288.94 493.281C2290.01 497.015 2291.57 500.211 2293.63 502.871C2295.73 505.531 2298.32 507.585 2301.4 509.031C2304.52 510.431 2308.16 511.131 2312.32 511.131Z" fill="black"/>
<g clip-path="url(#clip0)">
<path d="M2896.79 375.293C2896.04 421.425 2871.45 438.117 2845.36 436.57C2819.27 435.03 2801.12 422.931 2782.58 422.931L2781.82 423.355C2763.29 423.355 2745.14 435.878 2719.05 437.418C2692.96 438.958 2668.37 423.108 2667.62 376.977C2669.13 334.622 2701.4 331.508 2728.88 281.474C2753.08 237.416 2781.83 240.981 2781.83 240.981H2782.58C2782.58 240.981 2811.57 237.607 2835.53 281.474C2862.88 331.576 2895.28 332.937 2896.79 375.293ZM2735.23 221.974C2758.34 220.222 2775.08 192.528 2772.63 160.118C2770.17 127.708 2749.44 102.855 2726.33 104.607C2703.21 106.36 2686.47 134.054 2688.93 166.464C2691.38 198.874 2712.11 223.727 2735.23 221.974ZM2822.83 222.537C2845.41 228.694 2870.72 208.012 2879.36 176.342C2887.99 144.671 2876.68 114.006 2854.09 107.849C2831.5 101.692 2806.19 122.375 2797.56 154.045C2788.93 185.714 2800.24 216.38 2822.83 222.537ZM2927.47 197.18C2907.8 191.818 2885.76 209.828 2878.24 237.407C2870.73 264.987 2880.58 291.69 2900.25 297.051C2919.91 302.413 2941.95 284.403 2949.47 256.823C2956.99 229.245 2947.14 202.541 2927.47 197.18ZM2695.35 237.405C2687.83 209.827 2665.79 191.816 2646.13 197.178C2626.46 202.539 2616.6 229.243 2624.12 256.822C2631.64 284.4 2653.68 302.411 2673.35 297.049C2693.02 291.688 2702.87 264.984 2695.35 237.405Z" fill="#D7D6D6"/>
</g>
<defs>
<clipPath id="clip0">
<rect width="333" height="333" fill="white" transform="translate(2620.3 104.52)"/>
</clipPath>
</defs>
</svg>
